<?xml version="1.0" encoding="UTF-8" standalone="no"?>
<!DOCTYPE svg PUBLIC "-//W3C//DTD SVG 1.1//EN" "http://www.w3.org/Graphics/SVG/1.1/DTD/svg11.dtd">
<svg width="100%" height="100%" viewBox="0 0 272 272" version="1.1" xmlns="http://www.w3.org/2000/svg" xmlns:xlink="http://www.w3.org/1999/xlink" xml:space="preserve" xmlns:serif="http://www.serif.com/" style="fill-rule:evenodd;clip-rule:evenodd;stroke-linejoin:round;stroke-miterlimit:2;">
    <g transform="matrix(1,0,0,1,-384.183,-774.679)">
        <g transform="matrix(1,0,0,1,-380.209,-5.70802)">
            <path d="M764.392,1024.39L764.392,808.387C764.392,792.721 776.725,780.387 792.392,780.387L1008.39,780.387C1024.06,780.387 1036.39,792.721 1036.39,808.387L1036.39,1024.39C1036.39,1040.05 1024.06,1052.39 1008.39,1052.39L792.392,1052.39C776.725,1052.39 764.392,1040.05 764.392,1024.39ZM778.392,1023.05C778.392,1030.39 786.392,1039.05 793.725,1039.05L1007.06,1039.05C1014.39,1039.05 1022.39,1030.72 1022.39,1023.05L1022.39,809.721C1022.39,802.054 1014.73,793.721 1007.06,793.721L793.725,793.721C786.059,793.721 778.392,802.054 778.392,809.721L778.392,1023.05ZM872.392,916.387C872.392,931.721 885.059,944.387 900.392,944.387C915.725,944.387 928.392,931.721 928.392,916.387C928.392,901.054 915.725,888.387 900.392,888.387C885.059,888.387 872.392,901.054 872.392,916.387Z" style="fill-rule:nonzero;"/>
        </g>
    </g>
</svg>
