<?xml version="1.0" encoding="UTF-8" standalone="no"?>
<!DOCTYPE svg PUBLIC "-//W3C//DTD SVG 1.1//EN" "http://www.w3.org/Graphics/SVG/1.1/DTD/svg11.dtd">
<svg width="100%" height="100%" viewBox="0 0 272 272" version="1.1" xmlns="http://www.w3.org/2000/svg" xmlns:xlink="http://www.w3.org/1999/xlink" xml:space="preserve" xmlns:serif="http://www.serif.com/" style="fill-rule:evenodd;clip-rule:evenodd;stroke-linejoin:round;stroke-miterlimit:2;">
    <g transform="matrix(1,0,0,1,-731,-774.679)">
        <g transform="matrix(1,0,0,1,-305.392,-5.70802)">
            <path d="M1036.39,1024.39L1036.39,808.387C1036.39,792.721 1048.72,780.387 1064.39,780.387L1280.39,780.387C1296.06,780.387 1308.39,792.721 1308.39,808.387L1308.39,1024.39C1308.39,1040.05 1296.06,1052.39 1280.39,1052.39L1064.39,1052.39C1048.72,1052.39 1036.39,1040.05 1036.39,1024.39ZM1050.39,1023.05C1050.39,1030.39 1058.39,1039.05 1065.72,1039.05L1279.06,1039.05C1286.39,1039.05 1294.39,1030.72 1294.39,1023.05L1294.39,809.721C1294.39,802.054 1286.73,793.721 1279.06,793.721L1065.72,793.721C1058.06,793.721 1050.39,802.054 1050.39,809.721L1050.39,1023.05ZM1076.39,848.387C1076.39,863.721 1089.06,876.387 1104.39,876.387C1119.73,876.387 1132.39,863.721 1132.39,848.387C1132.39,833.054 1119.73,820.387 1104.39,820.387C1089.06,820.387 1076.39,833.054 1076.39,848.387ZM1212.39,984.387C1212.39,999.721 1225.06,1012.39 1240.39,1012.39C1255.73,1012.39 1268.39,999.721 1268.39,984.387C1268.39,969.054 1255.73,956.387 1240.39,956.387C1225.06,956.387 1212.39,969.054 1212.39,984.387Z" style="fill-rule:nonzero;"/>
        </g>
    </g>
</svg>
