<?xml version="1.0" encoding="UTF-8" standalone="no"?>
<!DOCTYPE svg PUBLIC "-//W3C//DTD SVG 1.1//EN" "http://www.w3.org/Graphics/SVG/1.1/DTD/svg11.dtd">
<svg width="100%" height="100%" viewBox="0 0 272 272" version="1.1" xmlns="http://www.w3.org/2000/svg" xmlns:xlink="http://www.w3.org/1999/xlink" xml:space="preserve" xmlns:serif="http://www.serif.com/" style="fill-rule:evenodd;clip-rule:evenodd;stroke-linejoin:round;stroke-miterlimit:2;">
    <g transform="matrix(1,0,0,1,-1003,-774.679)">
        <g transform="matrix(1,0,0,1,-305.392,-5.70802)">
            <path d="M1308.39,1024.39L1308.39,808.387C1308.39,792.721 1320.73,780.387 1336.39,780.387L1552.39,780.387C1568.06,780.387 1580.39,792.721 1580.39,808.387L1580.39,1024.39C1580.39,1040.05 1568.06,1052.39 1552.39,1052.39L1336.39,1052.39C1320.73,1052.39 1308.39,1040.05 1308.39,1024.39ZM1322.39,1023.05C1322.39,1030.39 1330.39,1039.05 1337.73,1039.05L1551.06,1039.05C1558.39,1039.05 1566.39,1030.72 1566.39,1023.05L1566.39,809.721C1566.39,802.054 1558.73,793.721 1551.06,793.721L1337.73,793.721C1330.06,793.721 1322.39,802.054 1322.39,809.721L1322.39,1023.05ZM1348.39,848.387C1348.39,863.721 1361.06,876.387 1376.39,876.387C1391.73,876.387 1404.39,863.721 1404.39,848.387C1404.39,833.054 1391.73,820.387 1376.39,820.387C1361.06,820.387 1348.39,833.054 1348.39,848.387ZM1416.39,916.387C1416.39,931.721 1429.06,944.387 1444.39,944.387C1459.73,944.387 1472.39,931.721 1472.39,916.387C1472.39,901.054 1459.73,888.387 1444.39,888.387C1429.06,888.387 1416.39,901.054 1416.39,916.387ZM1484.39,984.387C1484.39,999.721 1497.06,1012.39 1512.39,1012.39C1527.73,1012.39 1540.39,999.721 1540.39,984.387C1540.39,969.054 1527.73,956.387 1512.39,956.387C1497.06,956.387 1484.39,969.054 1484.39,984.387Z" style="fill-rule:nonzero;"/>
        </g>
    </g>
</svg>
