<?xml version="1.0" encoding="UTF-8" standalone="no"?>
<!DOCTYPE svg PUBLIC "-//W3C//DTD SVG 1.1//EN" "http://www.w3.org/Graphics/SVG/1.1/DTD/svg11.dtd">
<svg width="100%" height="100%" viewBox="0 0 272 272" version="1.1" xmlns="http://www.w3.org/2000/svg" xmlns:xlink="http://www.w3.org/1999/xlink" xml:space="preserve" xmlns:serif="http://www.serif.com/" style="fill-rule:evenodd;clip-rule:evenodd;stroke-linejoin:round;stroke-miterlimit:2;">
    <g transform="matrix(1,0,0,1,-1275,-774.679)">
        <g transform="matrix(1,0,0,1,-305.392,-5.70802)">
            <path d="M1580.39,1024.39L1580.39,808.387C1580.39,792.721 1592.73,780.387 1608.39,780.387L1824.39,780.387C1840.06,780.387 1852.39,792.721 1852.39,808.387L1852.39,1024.39C1852.39,1040.05 1840.06,1052.39 1824.39,1052.39L1608.39,1052.39C1592.73,1052.39 1580.39,1040.05 1580.39,1024.39ZM1594.39,1023.05C1594.39,1030.39 1602.39,1039.05 1609.73,1039.05L1823.06,1039.05C1830.39,1039.05 1838.39,1030.72 1838.39,1023.05L1838.39,809.721C1838.39,802.054 1830.73,793.721 1823.06,793.721L1609.73,793.721C1602.06,793.721 1594.39,802.054 1594.39,809.721L1594.39,1023.05ZM1620.39,984.387C1620.39,999.721 1633.06,1012.39 1648.39,1012.39C1663.73,1012.39 1676.39,999.721 1676.39,984.387C1676.39,969.054 1663.73,956.387 1648.39,956.387C1633.06,956.387 1620.39,969.054 1620.39,984.387ZM1620.39,848.387C1620.39,863.721 1633.06,876.387 1648.39,876.387C1663.73,876.387 1676.39,863.721 1676.39,848.387C1676.39,833.054 1663.73,820.387 1648.39,820.387C1633.06,820.387 1620.39,833.054 1620.39,848.387ZM1756.39,984.387C1756.39,999.721 1769.06,1012.39 1784.39,1012.39C1799.73,1012.39 1812.39,999.721 1812.39,984.387C1812.39,969.054 1799.73,956.387 1784.39,956.387C1769.06,956.387 1756.39,969.054 1756.39,984.387ZM1756.39,848.387C1756.39,863.721 1769.06,876.387 1784.39,876.387C1799.73,876.387 1812.39,863.721 1812.39,848.387C1812.39,833.054 1799.73,820.387 1784.39,820.387C1769.06,820.387 1756.39,833.054 1756.39,848.387Z" style="fill-rule:nonzero;"/>
        </g>
    </g>
</svg>
