<?xml version="1.0" encoding="UTF-8" standalone="no"?>
<!DOCTYPE svg PUBLIC "-//W3C//DTD SVG 1.1//EN" "http://www.w3.org/Graphics/SVG/1.1/DTD/svg11.dtd">
<svg width="100%" height="100%" viewBox="0 0 272 272" version="1.1" xmlns="http://www.w3.org/2000/svg" xmlns:xlink="http://www.w3.org/1999/xlink" xml:space="preserve" xmlns:serif="http://www.serif.com/" style="fill-rule:evenodd;clip-rule:evenodd;stroke-linejoin:round;stroke-miterlimit:2;">
    <g transform="matrix(1,0,0,1,-1547,-774.679)">
        <g transform="matrix(1,0,0,1,-305.392,-5.70802)">
            <path d="M1852.39,1024.39L1852.39,808.387C1852.39,792.721 1864.73,780.387 1880.39,780.387L2096.39,780.387C2112.06,780.387 2124.39,792.721 2124.39,808.387L2124.39,1024.39C2124.39,1040.05 2112.06,1052.39 2096.39,1052.39L1880.39,1052.39C1864.73,1052.39 1852.39,1040.05 1852.39,1024.39ZM1866.39,1023.05C1866.39,1030.39 1874.39,1039.05 1881.73,1039.05L2095.06,1039.05C2102.39,1039.05 2110.39,1030.72 2110.39,1023.05L2110.39,809.721C2110.39,802.054 2102.72,793.721 2095.06,793.721L1881.73,793.721C1874.06,793.721 1866.39,802.054 1866.39,809.721L1866.39,1023.05ZM1892.39,984.387C1892.39,999.721 1905.06,1012.39 1920.39,1012.39C1935.73,1012.39 1948.39,999.721 1948.39,984.387C1948.39,969.054 1935.73,956.387 1920.39,956.387C1905.06,956.387 1892.39,969.054 1892.39,984.387ZM1892.39,848.387C1892.39,863.721 1905.06,876.387 1920.39,876.387C1935.73,876.387 1948.39,863.721 1948.39,848.387C1948.39,833.054 1935.73,820.387 1920.39,820.387C1905.06,820.387 1892.39,833.054 1892.39,848.387ZM1960.39,916.387C1960.39,931.721 1973.06,944.387 1988.39,944.387C2003.73,944.387 2016.39,931.721 2016.39,916.387C2016.39,901.054 2003.73,888.387 1988.39,888.387C1973.06,888.387 1960.39,901.054 1960.39,916.387ZM2028.39,984.387C2028.39,999.721 2041.06,1012.39 2056.39,1012.39C2071.72,1012.39 2084.39,999.721 2084.39,984.387C2084.39,969.054 2071.72,956.387 2056.39,956.387C2041.06,956.387 2028.39,969.054 2028.39,984.387ZM2028.39,848.387C2028.39,863.721 2041.06,876.387 2056.39,876.387C2071.72,876.387 2084.39,863.721 2084.39,848.387C2084.39,833.054 2071.72,820.387 2056.39,820.387C2041.06,820.387 2028.39,833.054 2028.39,848.387Z" style="fill-rule:nonzero;"/>
        </g>
    </g>
</svg>
