<?xml version="1.0" encoding="UTF-8" standalone="no"?>
<!DOCTYPE svg PUBLIC "-//W3C//DTD SVG 1.1//EN" "http://www.w3.org/Graphics/SVG/1.1/DTD/svg11.dtd">
<svg width="100%" height="100%" viewBox="0 0 272 272" version="1.1" xmlns="http://www.w3.org/2000/svg" xmlns:xlink="http://www.w3.org/1999/xlink" xml:space="preserve" xmlns:serif="http://www.serif.com/" style="fill-rule:evenodd;clip-rule:evenodd;stroke-linejoin:round;stroke-miterlimit:2;">
    <g transform="matrix(1,0,0,1,-1819,-774.679)">
        <g transform="matrix(1,0,0,1,-305.392,-5.70802)">
            <path d="M2124.39,1024.39L2124.39,808.387C2124.39,792.721 2136.72,780.387 2152.39,780.387L2368.39,780.387C2384.06,780.387 2396.39,792.721 2396.39,808.387L2396.39,1024.39C2396.39,1040.05 2384.06,1052.39 2368.39,1052.39L2152.39,1052.39C2136.72,1052.39 2124.39,1040.05 2124.39,1024.39ZM2138.39,1023.05C2138.39,1030.39 2146.39,1039.05 2153.72,1039.05L2367.06,1039.05C2374.39,1039.05 2382.39,1030.72 2382.39,1023.05L2382.39,809.721C2382.39,802.054 2374.72,793.721 2367.06,793.721L2153.72,793.721C2146.06,793.721 2138.39,802.054 2138.39,809.721L2138.39,1023.05ZM2164.39,984.387C2164.39,999.721 2177.06,1012.39 2192.39,1012.39C2207.72,1012.39 2220.39,999.721 2220.39,984.387C2220.39,969.054 2207.72,956.387 2192.39,956.387C2177.06,956.387 2164.39,969.054 2164.39,984.387ZM2164.39,916.387C2164.39,931.721 2177.06,944.387 2192.39,944.387C2207.72,944.387 2220.39,931.721 2220.39,916.387C2220.39,901.054 2207.72,888.387 2192.39,888.387C2177.06,888.387 2164.39,901.054 2164.39,916.387ZM2164.39,848.387C2164.39,863.721 2177.06,876.387 2192.39,876.387C2207.72,876.387 2220.39,863.721 2220.39,848.387C2220.39,833.054 2207.72,820.387 2192.39,820.387C2177.06,820.387 2164.39,833.054 2164.39,848.387ZM2300.39,984.387C2300.39,999.721 2313.06,1012.39 2328.39,1012.39C2343.72,1012.39 2356.39,999.721 2356.39,984.387C2356.39,969.054 2343.72,956.387 2328.39,956.387C2313.06,956.387 2300.39,969.054 2300.39,984.387ZM2300.39,916.387C2300.39,931.721 2313.06,944.387 2328.39,944.387C2343.72,944.387 2356.39,931.721 2356.39,916.387C2356.39,901.054 2343.72,888.387 2328.39,888.387C2313.06,888.387 2300.39,901.054 2300.39,916.387ZM2300.39,848.387C2300.39,863.721 2313.06,876.387 2328.39,876.387C2343.72,876.387 2356.39,863.721 2356.39,848.387C2356.39,833.054 2343.72,820.387 2328.39,820.387C2313.06,820.387 2300.39,833.054 2300.39,848.387Z" style="fill-rule:nonzero;"/>
        </g>
    </g>
</svg>
