<?xml version="1.0" encoding="UTF-8" standalone="no"?>
<!DOCTYPE svg PUBLIC "-//W3C//DTD SVG 1.1//EN" "http://www.w3.org/Graphics/SVG/1.1/DTD/svg11.dtd">
<svg width="100%" height="100%" viewBox="0 0 106 117" version="1.1" xmlns="http://www.w3.org/2000/svg" xmlns:xlink="http://www.w3.org/1999/xlink" xml:space="preserve" xmlns:serif="http://www.serif.com/" style="fill-rule:evenodd;clip-rule:evenodd;stroke-linejoin:round;stroke-miterlimit:2;">
    <g transform="matrix(1,0,0,1,-536.594,-1077.93)">
        <g transform="matrix(5.55556,0,0,5.55556,0,0)">
            <g transform="matrix(1,0,0,1,104.136,214.979)">
                <path d="M0,-20.894C-0.224,-20.853 -0.435,-20.828 -0.469,-20.839C-0.504,-20.851 -0.631,-20.806 -0.751,-20.739C-0.871,-20.673 -1.018,-20.601 -1.077,-20.579C-1.136,-20.557 -1.199,-20.493 -1.217,-20.437C-1.235,-20.38 -1.34,-20.294 -1.45,-20.245C-1.762,-20.107 -2.637,-19.609 -2.852,-19.447C-2.959,-19.367 -3.065,-19.302 -3.09,-19.302C-3.153,-19.302 -3.502,-19.046 -3.688,-18.864C-3.939,-18.618 -4.359,-18.301 -4.434,-18.301C-4.471,-18.301 -4.603,-18.202 -4.727,-18.082C-4.851,-17.962 -4.978,-17.863 -5.01,-17.863C-5.041,-17.863 -5.067,-17.835 -5.067,-17.801C-5.067,-17.766 -5.097,-17.738 -5.134,-17.738C-5.171,-17.738 -5.243,-17.696 -5.295,-17.644C-5.347,-17.592 -5.439,-17.55 -5.5,-17.55C-5.561,-17.55 -5.662,-17.494 -5.724,-17.425C-5.786,-17.356 -5.872,-17.3 -5.915,-17.3C-6.059,-17.3 -6.672,-16.61 -6.932,-16.156C-7.073,-15.908 -7.274,-15.429 -7.378,-15.091C-7.56,-14.5 -7.566,-14.445 -7.535,-13.59C-7.518,-13.102 -7.491,-12.491 -7.476,-12.233C-7.46,-11.975 -7.434,-11.426 -7.416,-11.013C-7.399,-10.601 -7.369,-10.052 -7.349,-9.794C-7.302,-9.165 -7.246,-7.653 -7.255,-7.246C-7.259,-7.066 -7.23,-6.858 -7.19,-6.784C-7.151,-6.71 -7.105,-6.463 -7.089,-6.235C-7.073,-6.008 -7.054,-5.737 -7.046,-5.634C-7.003,-5.075 -6.598,-4.235 -6.239,-3.958C-6.128,-3.873 -5.969,-3.743 -5.886,-3.67C-5.804,-3.598 -5.712,-3.538 -5.682,-3.538C-5.652,-3.538 -5.516,-3.468 -5.38,-3.382C-5.244,-3.296 -5.089,-3.226 -5.037,-3.226C-4.985,-3.226 -4.639,-3.081 -4.269,-2.904C-3.9,-2.728 -3.421,-2.517 -3.206,-2.436C-2.991,-2.355 -2.766,-2.261 -2.706,-2.227C-2.604,-2.171 -1.507,-1.661 -1.22,-1.537C-1.151,-1.507 -0.898,-1.394 -0.657,-1.286C-0.416,-1.178 -0.163,-1.065 -0.094,-1.035C-0.025,-1.005 0.242,-0.908 0.5,-0.821C0.758,-0.734 0.978,-0.634 0.99,-0.599C1.002,-0.564 1.086,-0.536 1.178,-0.536C1.27,-0.536 1.457,-0.482 1.595,-0.417C1.824,-0.307 2.167,-0.203 2.565,-0.12C2.65,-0.103 2.777,-0.064 2.846,-0.035C3.041,0.048 3.315,0.078 3.35,0.021C3.368,-0.007 3.455,-0.002 3.545,0.032C3.647,0.07 3.782,0.072 3.903,0.037C4.009,0.006 4.195,-0.024 4.316,-0.029C4.621,-0.041 4.893,-0.133 5.473,-0.418C6.063,-0.707 6.272,-0.886 6.567,-1.35C6.687,-1.539 6.806,-1.702 6.832,-1.714C6.859,-1.725 6.881,-1.762 6.881,-1.796C6.881,-1.83 6.916,-1.896 6.959,-1.943C7.002,-1.99 7.135,-2.173 7.256,-2.351C7.376,-2.528 7.566,-2.791 7.677,-2.934C7.788,-3.077 8.021,-3.401 8.194,-3.653C8.367,-3.905 8.657,-4.313 8.84,-4.56C9.738,-5.773 10.156,-6.385 10.381,-6.818C10.517,-7.078 10.614,-7.291 10.597,-7.291C10.581,-7.291 10.599,-7.351 10.638,-7.424C10.817,-7.758 10.992,-8.608 11.004,-9.195C11.011,-9.529 11.028,-9.836 11.041,-9.876C11.063,-9.942 11.147,-11.493 11.142,-11.733C11.141,-11.784 11.166,-12.094 11.197,-12.421C11.229,-12.748 11.27,-13.325 11.289,-13.703C11.308,-14.082 11.346,-14.813 11.375,-15.33C11.404,-15.846 11.422,-16.381 11.415,-16.518C11.384,-17.142 11.077,-17.93 10.761,-18.195C10.467,-18.443 9.941,-18.66 9.571,-18.686C9.45,-18.694 9.319,-18.725 9.279,-18.754C9.239,-18.784 9.129,-18.821 9.036,-18.838C8.942,-18.855 8.778,-18.917 8.671,-18.975C8.564,-19.033 8.432,-19.083 8.378,-19.088C8.163,-19.106 7.772,-19.191 7.491,-19.282C7.328,-19.335 7.148,-19.36 7.091,-19.338C7.027,-19.314 6.93,-19.351 6.84,-19.436C6.76,-19.511 6.645,-19.577 6.584,-19.582C6.524,-19.587 6.375,-19.623 6.255,-19.662C6.135,-19.7 5.936,-19.744 5.813,-19.759C5.691,-19.773 5.536,-19.814 5.469,-19.85C5.402,-19.886 5.179,-19.936 4.974,-19.961C4.768,-19.987 4.527,-20.062 4.439,-20.127C4.35,-20.192 4.181,-20.254 4.062,-20.264C3.944,-20.274 3.768,-20.316 3.671,-20.355C3.574,-20.395 3.41,-20.428 3.307,-20.428C3.204,-20.428 3.058,-20.461 2.983,-20.502C2.854,-20.572 1.908,-20.79 1.564,-20.828C1.478,-20.838 1.345,-20.866 1.268,-20.89C1.024,-20.97 0.419,-20.972 0,-20.894" style="fill:white;"/>
            </g>
        </g>
        <g transform="matrix(5.55556,0,0,5.55556,0,0)">
            <g transform="matrix(1,0,0,1,104.136,214.979)">
                <path d="M0,-20.894C-0.224,-20.853 -0.435,-20.828 -0.469,-20.839C-0.504,-20.851 -0.631,-20.806 -0.751,-20.739C-0.871,-20.673 -1.018,-20.601 -1.077,-20.579C-1.136,-20.557 -1.199,-20.493 -1.217,-20.437C-1.235,-20.38 -1.34,-20.294 -1.45,-20.245C-1.762,-20.107 -2.637,-19.609 -2.852,-19.447C-2.959,-19.367 -3.065,-19.302 -3.09,-19.302C-3.153,-19.302 -3.502,-19.046 -3.688,-18.864C-3.939,-18.618 -4.359,-18.301 -4.434,-18.301C-4.471,-18.301 -4.603,-18.202 -4.727,-18.082C-4.851,-17.962 -4.978,-17.863 -5.01,-17.863C-5.041,-17.863 -5.067,-17.835 -5.067,-17.801C-5.067,-17.766 -5.097,-17.738 -5.134,-17.738C-5.171,-17.738 -5.243,-17.696 -5.295,-17.644C-5.347,-17.592 -5.439,-17.55 -5.5,-17.55C-5.561,-17.55 -5.662,-17.494 -5.724,-17.425C-5.786,-17.356 -5.872,-17.3 -5.915,-17.3C-6.059,-17.3 -6.672,-16.61 -6.932,-16.156C-7.073,-15.908 -7.274,-15.429 -7.378,-15.091C-7.56,-14.5 -7.566,-14.445 -7.535,-13.59C-7.518,-13.102 -7.491,-12.491 -7.476,-12.233C-7.46,-11.975 -7.434,-11.426 -7.416,-11.013C-7.399,-10.601 -7.369,-10.052 -7.349,-9.794C-7.302,-9.165 -7.246,-7.653 -7.255,-7.246C-7.259,-7.066 -7.23,-6.858 -7.19,-6.784C-7.151,-6.71 -7.105,-6.463 -7.089,-6.235C-7.073,-6.008 -7.054,-5.737 -7.046,-5.634C-7.003,-5.075 -6.598,-4.235 -6.239,-3.958C-6.128,-3.873 -5.969,-3.743 -5.886,-3.67C-5.804,-3.598 -5.712,-3.538 -5.682,-3.538C-5.652,-3.538 -5.516,-3.468 -5.38,-3.382C-5.244,-3.296 -5.089,-3.226 -5.037,-3.226C-4.985,-3.226 -4.639,-3.081 -4.269,-2.904C-3.9,-2.728 -3.421,-2.517 -3.206,-2.436C-2.991,-2.355 -2.766,-2.261 -2.706,-2.227C-2.604,-2.171 -1.507,-1.661 -1.22,-1.537C-1.151,-1.507 -0.898,-1.394 -0.657,-1.286C-0.416,-1.178 -0.163,-1.065 -0.094,-1.035C-0.025,-1.005 0.242,-0.908 0.5,-0.821C0.758,-0.734 0.978,-0.634 0.99,-0.599C1.002,-0.564 1.086,-0.536 1.178,-0.536C1.27,-0.536 1.457,-0.482 1.595,-0.417C1.824,-0.307 2.167,-0.203 2.565,-0.12C2.65,-0.103 2.777,-0.064 2.846,-0.035C3.041,0.048 3.315,0.078 3.35,0.021C3.368,-0.007 3.455,-0.002 3.545,0.032C3.647,0.07 3.782,0.072 3.903,0.037C4.009,0.006 4.195,-0.024 4.316,-0.029C4.621,-0.041 4.893,-0.133 5.473,-0.418C6.063,-0.707 6.272,-0.886 6.567,-1.35C6.687,-1.539 6.806,-1.702 6.832,-1.714C6.859,-1.725 6.881,-1.762 6.881,-1.796C6.881,-1.83 6.916,-1.896 6.959,-1.943C7.002,-1.99 7.135,-2.173 7.256,-2.351C7.376,-2.528 7.566,-2.791 7.677,-2.934C7.788,-3.077 8.021,-3.401 8.194,-3.653C8.367,-3.905 8.657,-4.313 8.84,-4.56C9.738,-5.773 10.156,-6.385 10.381,-6.818C10.517,-7.078 10.614,-7.291 10.597,-7.291C10.581,-7.291 10.599,-7.351 10.638,-7.424C10.817,-7.758 10.992,-8.608 11.004,-9.195C11.011,-9.529 11.028,-9.836 11.041,-9.876C11.063,-9.942 11.147,-11.493 11.142,-11.733C11.141,-11.784 11.166,-12.094 11.197,-12.421C11.229,-12.748 11.27,-13.325 11.289,-13.703C11.308,-14.082 11.346,-14.813 11.375,-15.33C11.404,-15.846 11.422,-16.381 11.415,-16.518C11.384,-17.142 11.077,-17.93 10.761,-18.195C10.467,-18.443 9.941,-18.66 9.571,-18.686C9.45,-18.694 9.319,-18.725 9.279,-18.754C9.239,-18.784 9.129,-18.821 9.036,-18.838C8.942,-18.855 8.778,-18.917 8.671,-18.975C8.564,-19.033 8.432,-19.083 8.378,-19.088C8.163,-19.106 7.772,-19.191 7.491,-19.282C7.328,-19.335 7.148,-19.36 7.091,-19.338C7.027,-19.314 6.93,-19.351 6.84,-19.436C6.76,-19.511 6.645,-19.577 6.584,-19.582C6.524,-19.587 6.375,-19.623 6.255,-19.662C6.135,-19.7 5.936,-19.744 5.813,-19.759C5.691,-19.773 5.536,-19.814 5.469,-19.85C5.402,-19.886 5.179,-19.936 4.974,-19.961C4.768,-19.987 4.527,-20.062 4.439,-20.127C4.35,-20.192 4.181,-20.254 4.062,-20.264C3.944,-20.274 3.768,-20.316 3.671,-20.355C3.574,-20.395 3.41,-20.428 3.307,-20.428C3.204,-20.428 3.058,-20.461 2.983,-20.502C2.854,-20.572 1.908,-20.79 1.564,-20.828C1.478,-20.838 1.345,-20.866 1.268,-20.89C1.024,-20.97 0.419,-20.972 0,-20.894M0.208,-20.3C-0.004,-20.272 -0.37,-20.158 -0.605,-20.047C-1.016,-19.852 -1.75,-19.436 -1.814,-19.36C-1.832,-19.34 -1.937,-19.27 -2.049,-19.205C-2.161,-19.14 -2.252,-19.065 -2.252,-19.038C-2.252,-19.011 -2.283,-18.989 -2.32,-18.989C-2.357,-18.989 -2.508,-18.891 -2.655,-18.77C-2.802,-18.65 -2.941,-18.551 -2.964,-18.551C-3.027,-18.551 -4.796,-17.357 -5.586,-16.781C-6.014,-16.469 -6.318,-16.082 -6.318,-15.849C-6.318,-15.692 -6.278,-15.649 -6.028,-15.538C-5.868,-15.468 -5.538,-15.358 -5.293,-15.294C-4.551,-15.102 -3.239,-14.734 -2.94,-14.635C-2.785,-14.583 -2.546,-14.513 -2.409,-14.479C-2.271,-14.445 -1.849,-14.322 -1.47,-14.206C-1.092,-14.09 -0.641,-13.96 -0.469,-13.917C-0.297,-13.875 -0.122,-13.813 -0.079,-13.78C-0.036,-13.747 0.11,-13.721 0.245,-13.723C0.382,-13.725 0.523,-13.688 0.563,-13.641C0.602,-13.593 0.672,-13.569 0.717,-13.586C0.763,-13.604 0.818,-13.589 0.84,-13.554C0.862,-13.519 0.921,-13.506 0.971,-13.525C1.022,-13.544 1.063,-13.53 1.063,-13.493C1.063,-13.456 1.103,-13.441 1.151,-13.459C1.199,-13.478 1.257,-13.463 1.279,-13.426C1.302,-13.389 1.417,-13.359 1.536,-13.359C1.655,-13.359 1.751,-13.33 1.751,-13.294C1.751,-13.258 1.786,-13.235 1.83,-13.243C1.872,-13.251 2.006,-13.214 2.127,-13.162C2.247,-13.109 2.5,-13.029 2.689,-12.985C2.879,-12.94 3.132,-12.851 3.251,-12.787C3.372,-12.723 3.522,-12.671 3.586,-12.671C3.65,-12.671 3.791,-12.631 3.9,-12.581C4.008,-12.532 4.252,-12.475 4.441,-12.455C4.63,-12.434 4.939,-12.402 5.128,-12.382C5.53,-12.339 6.091,-12.449 6.327,-12.616C6.419,-12.681 6.515,-12.734 6.541,-12.734C6.588,-12.734 7.118,-13.225 7.553,-13.672C8.07,-14.202 8.251,-14.409 8.429,-14.673C8.534,-14.828 8.784,-15.125 8.986,-15.334C10.074,-16.464 10.52,-16.993 10.587,-17.228C10.662,-17.495 10.469,-17.791 10.165,-17.871C10.027,-17.908 9.871,-17.959 9.818,-17.986C9.765,-18.013 9.596,-18.056 9.443,-18.081C9.289,-18.106 9.122,-18.161 9.07,-18.203C9.018,-18.245 8.867,-18.286 8.734,-18.293C8.601,-18.3 8.323,-18.374 8.117,-18.459C7.91,-18.543 7.715,-18.595 7.683,-18.576C7.652,-18.556 7.555,-18.587 7.468,-18.643C7.382,-18.7 7.277,-18.735 7.236,-18.72C7.196,-18.705 7.112,-18.719 7.051,-18.751C6.99,-18.782 6.854,-18.819 6.749,-18.832C6.645,-18.845 6.518,-18.89 6.468,-18.931C6.418,-18.973 6.23,-19.019 6.05,-19.033C5.871,-19.047 5.657,-19.101 5.577,-19.154C5.494,-19.208 5.368,-19.234 5.287,-19.214C5.196,-19.191 5.088,-19.222 4.988,-19.301C4.896,-19.373 4.643,-19.453 4.371,-19.495C4.117,-19.534 3.89,-19.596 3.867,-19.633C3.844,-19.67 3.675,-19.722 3.492,-19.748C3.078,-19.807 2.512,-19.927 2.345,-19.991C2.153,-20.065 1.75,-20.162 1.438,-20.211C1.284,-20.235 1.101,-20.265 1.032,-20.278C0.672,-20.344 0.563,-20.346 0.208,-20.3M6.229,-17.9C5.816,-17.817 5.442,-17.473 5.442,-17.175C5.442,-16.934 5.676,-16.593 5.933,-16.461C6.394,-16.222 7.604,-16.322 7.928,-16.626C8.102,-16.79 8.212,-17.151 8.132,-17.3C8.014,-17.52 7.63,-17.792 7.303,-17.887C6.939,-17.993 6.709,-17.996 6.229,-17.9M-3.197,-17.088C-3.34,-17.015 -3.527,-16.865 -3.613,-16.753C-3.745,-16.58 -3.762,-16.509 -3.726,-16.27C-3.676,-15.941 -3.528,-15.801 -3.027,-15.614C-2.142,-15.282 -1.126,-15.626 -1.126,-16.255C-1.126,-16.594 -1.341,-16.953 -1.619,-17.078C-1.756,-17.139 -2.062,-17.188 -2.391,-17.2C-2.847,-17.216 -2.979,-17.198 -3.197,-17.088M10.547,-16.429C10.451,-16.366 10.262,-16.181 10.128,-16.018C9.789,-15.608 9.655,-15.461 9.249,-15.056C9.055,-14.863 8.698,-14.477 8.457,-14.199C8.216,-13.921 7.885,-13.555 7.723,-13.386C7.229,-12.873 6.241,-11.738 6.084,-11.504C5.693,-10.92 5.569,-9.825 5.472,-6.072C5.453,-5.384 5.422,-4.722 5.401,-4.602C5.331,-4.193 5.323,-1.573 5.392,-1.49C5.538,-1.313 5.742,-1.405 6.019,-1.771C6.169,-1.969 6.344,-2.215 6.408,-2.319C6.473,-2.422 6.634,-2.618 6.766,-2.756C6.898,-2.893 7.006,-3.038 7.006,-3.077C7.006,-3.117 7.048,-3.166 7.1,-3.186C7.151,-3.205 7.194,-3.263 7.194,-3.314C7.194,-3.365 7.231,-3.43 7.278,-3.457C7.374,-3.514 7.61,-3.836 8.3,-4.851C8.569,-5.247 8.862,-5.654 8.952,-5.758C9.042,-5.862 9.165,-6.045 9.225,-6.165C9.285,-6.286 9.386,-6.441 9.448,-6.51C9.51,-6.578 9.68,-6.845 9.825,-7.103C10.127,-7.637 10.299,-8.308 10.35,-9.156C10.368,-9.455 10.396,-9.784 10.411,-9.887C10.427,-9.991 10.458,-10.314 10.479,-10.607C10.502,-10.899 10.53,-11.251 10.543,-11.389C10.556,-11.527 10.58,-11.822 10.597,-12.046C10.614,-12.269 10.643,-12.635 10.66,-12.859C10.678,-13.082 10.709,-13.589 10.728,-13.985C10.748,-14.38 10.773,-14.817 10.785,-14.954C10.895,-16.228 10.898,-16.397 10.811,-16.47C10.741,-16.528 10.684,-16.519 10.547,-16.429M-6.623,-14.887C-6.811,-14.649 -6.84,-14.297 -6.791,-12.836C-6.767,-12.109 -6.751,-11.31 -6.755,-11.061C-6.759,-10.811 -6.739,-10.607 -6.71,-10.607C-6.68,-10.607 -6.649,-10.277 -6.64,-9.874C-6.63,-9.472 -6.611,-9.124 -6.597,-9.101C-6.583,-9.078 -6.554,-8.753 -6.534,-8.378C-6.468,-7.159 -6.285,-5.56 -6.199,-5.449C-6.171,-5.413 -6.131,-5.312 -6.11,-5.224C-6.089,-5.137 -5.974,-4.939 -5.854,-4.785C-5.677,-4.559 -5.489,-4.432 -4.867,-4.121C-3.995,-3.685 -3.523,-3.476 -3.41,-3.476C-3.367,-3.476 -3.255,-3.415 -3.161,-3.341C-3.066,-3.266 -2.929,-3.2 -2.855,-3.193C-2.782,-3.186 -2.505,-3.079 -2.241,-2.953C-1.976,-2.828 -1.726,-2.725 -1.684,-2.725C-1.611,-2.725 -1.157,-2.527 -0.686,-2.289C-0.564,-2.228 -0.367,-2.156 -0.248,-2.13C-0.129,-2.104 0.171,-1.988 0.419,-1.872C0.667,-1.756 0.916,-1.662 0.972,-1.662C1.029,-1.662 1.276,-1.567 1.523,-1.45C2.023,-1.214 2.226,-1.138 2.813,-0.967C3.467,-0.776 4.483,-0.829 4.644,-1.062C4.763,-1.234 4.809,-1.669 4.844,-2.975C4.934,-6.337 4.945,-6.614 5.043,-8.198C5.195,-10.643 5.192,-11.024 5.02,-11.302C4.857,-11.564 4.541,-11.785 4.097,-11.948C3.925,-12.011 3.754,-12.086 3.718,-12.115C3.681,-12.144 3.484,-12.222 3.28,-12.288C3.076,-12.355 2.754,-12.47 2.565,-12.544C2.375,-12.619 2.037,-12.737 1.814,-12.806C0.34,-13.265 -0.215,-13.429 -0.657,-13.539C-0.932,-13.607 -1.411,-13.746 -1.72,-13.847C-2.268,-14.027 -3.157,-14.284 -3.41,-14.336C-3.478,-14.35 -3.619,-14.376 -3.722,-14.395C-4.11,-14.463 -4.944,-14.672 -5.566,-14.857C-6.349,-15.09 -6.462,-15.093 -6.623,-14.887M-4.856,-12.902C-5.25,-12.751 -5.63,-12.287 -5.63,-11.957C-5.63,-11.699 -5.272,-11.064 -4.939,-10.734C-4.618,-10.415 -3.949,-10.248 -3.645,-10.41C-3.437,-10.522 -3.206,-10.861 -3.156,-11.129C-3.109,-11.383 -3.201,-11.765 -3.375,-12.045C-3.514,-12.268 -4.054,-12.796 -4.145,-12.798C-4.188,-12.799 -4.277,-12.841 -4.344,-12.892C-4.488,-13.001 -4.593,-13.003 -4.856,-12.902M8.282,-10.231C8.04,-10.076 7.799,-9.637 7.59,-8.972C7.444,-8.509 7.435,-8.424 7.499,-8.144C7.592,-7.743 7.661,-7.667 7.928,-7.667C8.188,-7.667 8.488,-7.955 8.664,-8.374C8.725,-8.518 8.828,-8.759 8.894,-8.908C8.977,-9.096 9.01,-9.299 9.001,-9.565C8.986,-10.027 8.919,-10.195 8.716,-10.287C8.518,-10.377 8.51,-10.376 8.282,-10.231M-2.038,-8.869C-2.461,-8.56 -2.588,-8.142 -2.434,-7.573C-2.336,-7.215 -1.763,-6.672 -1.314,-6.513C-0.714,-6.3 -0.47,-6.326 -0.151,-6.635C0.046,-6.827 0.062,-6.872 0.062,-7.225C0.062,-7.514 0.018,-7.706 -0.121,-8.011C-0.406,-8.639 -0.834,-8.972 -1.425,-9.024C-1.749,-9.052 -1.807,-9.038 -2.038,-8.869M0.906,-4.78C0.677,-4.527 0.673,-4.513 0.704,-4.126C0.738,-3.707 1.006,-3.129 1.273,-2.901C1.442,-2.758 1.957,-2.489 2.107,-2.467C2.525,-2.405 3.011,-2.714 3.096,-3.097C3.18,-3.48 2.847,-4.264 2.45,-4.624C2.288,-4.77 1.553,-5.04 1.318,-5.04C1.189,-5.04 1.076,-4.968 0.906,-4.78" style="fill:rgb(35,31,32);"/>
            </g>
        </g>
    </g>
</svg>
