<?xml version="1.0" encoding="UTF-8" standalone="no"?>
<!DOCTYPE svg PUBLIC "-//W3C//DTD SVG 1.1//EN" "http://www.w3.org/Graphics/SVG/1.1/DTD/svg11.dtd">
<svg width="100%" height="100%" viewBox="0 0 52 59" version="1.1" xmlns="http://www.w3.org/2000/svg" xmlns:xlink="http://www.w3.org/1999/xlink" xml:space="preserve" xmlns:serif="http://www.serif.com/" style="fill-rule:evenodd;clip-rule:evenodd;stroke-linejoin:round;stroke-miterlimit:2;">
    <g transform="matrix(1,0,0,1,-633.277,-1318.2)">
        <g transform="matrix(5.55556,0,0,5.55556,0,0)">
            <g transform="matrix(1,0,0,1,117.149,247.705)">
                <path d="M0,-10.293C-0.084,-10.212 -0.167,-10.145 -0.184,-10.145C-0.202,-10.145 -0.217,-10.125 -0.217,-10.1C-0.217,-10.074 -0.501,-9.78 -0.847,-9.447C-1.44,-8.875 -2.218,-8.102 -2.794,-7.512C-3.121,-7.177 -3.168,-7.051 -3.158,-6.54C-3.151,-6.182 -3.137,-5.933 -3.123,-5.933C-3.12,-5.933 -3.112,-5.61 -3.105,-5.216C-3.098,-4.821 -3.089,-4.498 -3.085,-4.498C-3.082,-4.498 -3.073,-4.391 -3.067,-4.259C-3.026,-3.46 -3.012,-3.251 -2.982,-2.953C-2.963,-2.771 -2.952,-2.572 -2.956,-2.512C-2.96,-2.451 -2.948,-2.335 -2.929,-2.254C-2.91,-2.173 -2.892,-2.082 -2.889,-2.051C-2.881,-1.974 -2.823,-1.893 -2.737,-1.842C-2.584,-1.75 -2.193,-1.573 -2.144,-1.573C-2.116,-1.573 -2.093,-1.557 -2.093,-1.537C-2.093,-1.516 -2.068,-1.5 -2.038,-1.5C-2.007,-1.5 -1.983,-1.485 -1.983,-1.468C-1.983,-1.434 -1.7,-1.316 -1.619,-1.316C-1.593,-1.316 -1.527,-1.285 -1.473,-1.247C-1.392,-1.189 -1.117,-1.114 -1.044,-1.129C-1.034,-1.132 -0.95,-1.091 -0.858,-1.04C-0.765,-0.989 -0.676,-0.955 -0.658,-0.966C-0.641,-0.977 -0.617,-0.971 -0.606,-0.953C-0.595,-0.936 -0.507,-0.9 -0.411,-0.873C-0.314,-0.846 -0.223,-0.805 -0.208,-0.78C-0.193,-0.756 -0.102,-0.724 -0.006,-0.709C0.091,-0.695 0.186,-0.67 0.206,-0.654C0.227,-0.638 0.358,-0.589 0.498,-0.546C0.638,-0.503 0.774,-0.45 0.8,-0.429C0.826,-0.407 0.861,-0.399 0.879,-0.409C0.896,-0.42 0.957,-0.405 1.014,-0.375C1.071,-0.346 1.211,-0.296 1.324,-0.264C1.438,-0.232 1.597,-0.177 1.678,-0.141C1.759,-0.104 1.891,-0.063 1.971,-0.048C2.051,-0.034 2.167,0.004 2.228,0.035C2.288,0.067 2.454,0.105 2.595,0.121C2.836,0.147 2.859,0.143 2.982,0.051C3.054,-0.002 3.128,-0.071 3.147,-0.101C3.165,-0.132 3.264,-0.24 3.367,-0.341C3.47,-0.443 3.61,-0.596 3.677,-0.682C3.745,-0.768 3.84,-0.848 3.889,-0.86C3.938,-0.872 3.978,-0.906 3.978,-0.935C3.978,-0.963 4.002,-0.996 4.033,-1.008C4.063,-1.02 4.088,-1.06 4.088,-1.098C4.088,-1.136 4.129,-1.194 4.18,-1.227C4.23,-1.26 4.272,-1.306 4.273,-1.329C4.273,-1.352 4.389,-1.494 4.53,-1.645C4.672,-1.795 4.787,-1.932 4.787,-1.948C4.787,-1.964 4.833,-2.028 4.888,-2.091C5.149,-2.387 5.327,-2.584 5.403,-2.662C5.449,-2.709 5.486,-2.758 5.486,-2.771C5.486,-2.783 5.544,-2.862 5.616,-2.946C5.687,-3.03 5.786,-3.181 5.836,-3.283C5.934,-3.485 5.922,-3.287 5.983,-5.731C5.995,-6.186 6.013,-6.865 6.023,-7.239C6.046,-8.108 6.046,-8.143 5.994,-8.352C5.964,-8.473 5.927,-8.534 5.875,-8.55C5.833,-8.563 5.794,-8.572 5.789,-8.568C5.784,-8.565 5.726,-8.59 5.66,-8.624C5.595,-8.658 5.425,-8.723 5.284,-8.769C5.142,-8.815 4.968,-8.874 4.897,-8.899C4.418,-9.069 4.161,-9.166 4.033,-9.225C3.952,-9.263 3.819,-9.313 3.738,-9.336C3.657,-9.36 3.539,-9.403 3.475,-9.431C3.412,-9.46 3.342,-9.483 3.321,-9.483C3.283,-9.483 2.767,-9.672 2.555,-9.764C2.492,-9.792 2.415,-9.814 2.384,-9.814C2.354,-9.814 2.105,-9.889 1.831,-9.98C1.557,-10.071 1.298,-10.145 1.255,-10.145C1.185,-10.145 1.069,-10.187 0.685,-10.348C0.624,-10.373 0.479,-10.404 0.363,-10.417C0.154,-10.44 0.15,-10.439 0,-10.293" style="fill:rgb(187,98,40);"/>
            </g>
        </g>
        <g transform="matrix(5.55556,0,0,5.55556,0,0)">
            <g transform="matrix(1,0,0,1,117.149,247.705)">
                <path d="M0,-10.293C-0.084,-10.212 -0.167,-10.145 -0.184,-10.145C-0.202,-10.145 -0.217,-10.125 -0.217,-10.1C-0.217,-10.074 -0.501,-9.78 -0.847,-9.447C-1.44,-8.875 -2.218,-8.102 -2.794,-7.512C-3.121,-7.177 -3.168,-7.051 -3.158,-6.54C-3.151,-6.182 -3.137,-5.933 -3.123,-5.933C-3.12,-5.933 -3.112,-5.61 -3.105,-5.216C-3.098,-4.821 -3.089,-4.498 -3.085,-4.498C-3.082,-4.498 -3.073,-4.391 -3.067,-4.259C-3.026,-3.46 -3.012,-3.251 -2.982,-2.953C-2.963,-2.771 -2.952,-2.572 -2.956,-2.512C-2.96,-2.451 -2.948,-2.335 -2.929,-2.254C-2.91,-2.173 -2.892,-2.082 -2.889,-2.051C-2.881,-1.974 -2.823,-1.893 -2.737,-1.842C-2.584,-1.75 -2.193,-1.573 -2.144,-1.573C-2.116,-1.573 -2.093,-1.557 -2.093,-1.537C-2.093,-1.516 -2.068,-1.5 -2.038,-1.5C-2.007,-1.5 -1.983,-1.485 -1.983,-1.468C-1.983,-1.434 -1.7,-1.316 -1.619,-1.316C-1.593,-1.316 -1.527,-1.285 -1.473,-1.247C-1.392,-1.189 -1.117,-1.114 -1.044,-1.129C-1.034,-1.132 -0.95,-1.091 -0.858,-1.04C-0.765,-0.989 -0.676,-0.955 -0.658,-0.966C-0.641,-0.977 -0.617,-0.971 -0.606,-0.953C-0.595,-0.936 -0.507,-0.9 -0.411,-0.873C-0.314,-0.846 -0.223,-0.805 -0.208,-0.78C-0.193,-0.756 -0.102,-0.724 -0.006,-0.709C0.091,-0.695 0.186,-0.67 0.206,-0.654C0.227,-0.638 0.358,-0.589 0.498,-0.546C0.638,-0.503 0.774,-0.45 0.8,-0.429C0.826,-0.407 0.861,-0.399 0.879,-0.409C0.896,-0.42 0.957,-0.405 1.014,-0.375C1.071,-0.346 1.211,-0.296 1.324,-0.264C1.438,-0.232 1.597,-0.177 1.678,-0.141C1.759,-0.104 1.891,-0.063 1.971,-0.048C2.051,-0.034 2.167,0.004 2.228,0.035C2.288,0.067 2.454,0.105 2.595,0.121C2.836,0.147 2.859,0.143 2.982,0.051C3.054,-0.002 3.128,-0.071 3.147,-0.101C3.165,-0.132 3.264,-0.24 3.367,-0.341C3.47,-0.443 3.61,-0.596 3.677,-0.682C3.745,-0.768 3.84,-0.848 3.889,-0.86C3.938,-0.872 3.978,-0.906 3.978,-0.935C3.978,-0.963 4.002,-0.996 4.033,-1.008C4.063,-1.02 4.088,-1.06 4.088,-1.098C4.088,-1.136 4.129,-1.194 4.18,-1.227C4.23,-1.26 4.272,-1.306 4.273,-1.329C4.273,-1.352 4.389,-1.494 4.53,-1.645C4.672,-1.795 4.787,-1.932 4.787,-1.948C4.787,-1.964 4.833,-2.028 4.888,-2.091C5.149,-2.387 5.327,-2.584 5.403,-2.662C5.449,-2.709 5.486,-2.758 5.486,-2.771C5.486,-2.783 5.544,-2.862 5.616,-2.946C5.687,-3.03 5.786,-3.181 5.836,-3.283C5.934,-3.485 5.922,-3.287 5.983,-5.731C5.995,-6.186 6.013,-6.865 6.023,-7.239C6.046,-8.108 6.046,-8.143 5.994,-8.352C5.964,-8.473 5.927,-8.534 5.875,-8.55C5.833,-8.563 5.794,-8.572 5.789,-8.568C5.784,-8.565 5.726,-8.59 5.66,-8.624C5.595,-8.658 5.425,-8.723 5.284,-8.769C5.142,-8.815 4.968,-8.874 4.897,-8.899C4.418,-9.069 4.161,-9.166 4.033,-9.225C3.952,-9.263 3.819,-9.313 3.738,-9.336C3.657,-9.36 3.539,-9.403 3.475,-9.431C3.412,-9.46 3.342,-9.483 3.321,-9.483C3.283,-9.483 2.767,-9.672 2.555,-9.764C2.492,-9.792 2.415,-9.814 2.384,-9.814C2.354,-9.814 2.105,-9.889 1.831,-9.98C1.557,-10.071 1.298,-10.145 1.255,-10.145C1.185,-10.145 1.069,-10.187 0.685,-10.348C0.624,-10.373 0.479,-10.404 0.363,-10.417C0.154,-10.44 0.15,-10.439 0,-10.293M0.133,-9.941C0.032,-9.849 -0.2,-9.628 -0.382,-9.451C-0.564,-9.273 -0.739,-9.113 -0.77,-9.094C-0.8,-9.076 -0.915,-8.957 -1.023,-8.83C-1.132,-8.704 -1.243,-8.6 -1.269,-8.6C-1.295,-8.6 -1.347,-8.557 -1.383,-8.504C-1.419,-8.452 -1.706,-8.15 -2.02,-7.833C-2.353,-7.497 -2.607,-7.209 -2.632,-7.141L-2.673,-7.025L-2.463,-6.948C-2.347,-6.906 -2.198,-6.861 -2.131,-6.847C-2.017,-6.825 -2.013,-6.819 -2.077,-6.773C-2.115,-6.745 -2.146,-6.687 -2.147,-6.644C-2.148,-6.6 -2.169,-6.558 -2.196,-6.549C-2.229,-6.537 -2.237,-6.558 -2.222,-6.619C-2.203,-6.693 -2.222,-6.715 -2.349,-6.77C-2.431,-6.805 -2.507,-6.834 -2.518,-6.834C-2.528,-6.834 -2.522,-6.805 -2.504,-6.77C-2.486,-6.735 -2.478,-6.685 -2.487,-6.66C-2.496,-6.634 -2.486,-6.614 -2.464,-6.614C-2.442,-6.614 -2.424,-6.647 -2.424,-6.687C-2.424,-6.728 -2.411,-6.761 -2.394,-6.761C-2.378,-6.761 -2.366,-6.62 -2.367,-6.448C-2.368,-6.261 -2.384,-6.139 -2.405,-6.145C-2.425,-6.15 -2.437,-6.177 -2.43,-6.205C-2.423,-6.236 -2.439,-6.248 -2.472,-6.235C-2.514,-6.219 -2.531,-6.264 -2.551,-6.442C-2.564,-6.566 -2.577,-6.714 -2.579,-6.77C-2.581,-6.842 -2.601,-6.871 -2.648,-6.871C-2.684,-6.871 -2.725,-6.853 -2.738,-6.832C-2.752,-6.81 -2.76,-6.525 -2.756,-6.197C-2.746,-5.352 -2.738,-5.241 -2.687,-5.223C-2.654,-5.212 -2.653,-5.195 -2.682,-5.16C-2.731,-5.101 -2.689,-4.912 -2.635,-4.946C-2.609,-4.962 -2.605,-4.946 -2.621,-4.902C-2.668,-4.781 -2.686,-4.37 -2.648,-4.305C-2.627,-4.269 -2.61,-4.259 -2.609,-4.281C-2.609,-4.304 -2.554,-4.32 -2.489,-4.317C-2.372,-4.313 -2.369,-4.308 -2.365,-4.137C-2.362,-4.041 -2.353,-3.957 -2.346,-3.951C-2.338,-3.945 -2.303,-3.97 -2.268,-4.008C-2.214,-4.063 -2.213,-4.075 -2.259,-4.075C-2.292,-4.075 -2.314,-4.11 -2.314,-4.165C-2.314,-4.268 -2.245,-4.327 -2.204,-4.26C-2.182,-4.224 -2.171,-4.225 -2.156,-4.264C-2.145,-4.292 -2.146,-4.248 -2.157,-4.167C-2.169,-4.086 -2.188,-4.012 -2.2,-4.002C-2.235,-3.972 -2.247,-3.853 -2.214,-3.858C-2.136,-3.871 -2.093,-3.849 -2.093,-3.795C-2.093,-3.751 -2.117,-3.74 -2.185,-3.753C-2.245,-3.764 -2.277,-3.754 -2.277,-3.723C-2.277,-3.697 -2.241,-3.67 -2.198,-3.664C-2.142,-3.655 -2.116,-3.622 -2.108,-3.547C-2.099,-3.459 -2.109,-3.445 -2.169,-3.461C-2.208,-3.471 -2.24,-3.464 -2.24,-3.446C-2.24,-3.428 -2.216,-3.413 -2.186,-3.413C-2.153,-3.413 -2.14,-3.391 -2.153,-3.358C-2.165,-3.327 -2.156,-3.302 -2.134,-3.302C-2.064,-3.302 -2.089,-3.235 -2.168,-3.21C-2.213,-3.196 -2.252,-3.142 -2.265,-3.079C-2.298,-2.911 -2.339,-2.953 -2.332,-3.149C-2.327,-3.314 -2.333,-3.325 -2.408,-3.311C-2.466,-3.3 -2.484,-3.276 -2.471,-3.226C-2.461,-3.187 -2.441,-3.163 -2.428,-3.172C-2.414,-3.18 -2.409,-3.132 -2.417,-3.064C-2.427,-2.982 -2.454,-2.935 -2.501,-2.923C-2.56,-2.908 -2.571,-2.925 -2.571,-3.03C-2.571,-3.099 -2.555,-3.155 -2.534,-3.155C-2.514,-3.155 -2.498,-3.18 -2.498,-3.209C-2.498,-3.245 -2.52,-3.256 -2.562,-3.241C-2.612,-3.223 -2.609,-3.235 -2.545,-3.297C-2.5,-3.34 -2.43,-3.376 -2.389,-3.376C-2.338,-3.376 -2.314,-3.4 -2.314,-3.45C-2.314,-3.49 -2.297,-3.523 -2.277,-3.523C-2.257,-3.523 -2.24,-3.55 -2.24,-3.583C-2.24,-3.636 -2.249,-3.636 -2.323,-3.588C-2.392,-3.542 -2.414,-3.541 -2.452,-3.582C-2.477,-3.608 -2.498,-3.668 -2.498,-3.715C-2.499,-3.781 -2.506,-3.788 -2.533,-3.745C-2.584,-3.664 -2.61,-3.715 -2.614,-3.901C-2.616,-3.992 -2.632,-4.09 -2.65,-4.117C-2.67,-4.147 -2.674,-4.05 -2.659,-3.873C-2.646,-3.711 -2.629,-3.363 -2.622,-3.1C-2.607,-2.565 -2.596,-2.442 -2.554,-2.309C-2.52,-2.203 -2.39,-2.026 -2.382,-2.074C-2.359,-2.205 -2.368,-2.64 -2.393,-2.64C-2.41,-2.64 -2.424,-2.592 -2.424,-2.532C-2.424,-2.473 -2.441,-2.414 -2.461,-2.401C-2.482,-2.388 -2.498,-2.424 -2.498,-2.489C-2.498,-2.549 -2.515,-2.61 -2.536,-2.623C-2.563,-2.639 -2.563,-2.662 -2.535,-2.695C-2.505,-2.731 -2.507,-2.748 -2.542,-2.759C-2.578,-2.771 -2.576,-2.788 -2.532,-2.831C-2.447,-2.917 -2.318,-2.947 -2.256,-2.895C-2.211,-2.859 -2.191,-2.863 -2.146,-2.92C-2.096,-2.985 -2.093,-2.979 -2.102,-2.843C-2.113,-2.673 -2.223,-2.61 -2.251,-2.758C-2.269,-2.851 -2.278,-2.728 -2.289,-2.257L-2.295,-1.966L-2.1,-1.879C-1.992,-1.832 -1.888,-1.802 -1.869,-1.814C-1.85,-1.826 -1.825,-1.81 -1.813,-1.778C-1.8,-1.745 -1.747,-1.72 -1.687,-1.72C-1.629,-1.72 -1.571,-1.702 -1.557,-1.68C-1.54,-1.651 -1.522,-1.654 -1.499,-1.689C-1.472,-1.729 -1.459,-1.727 -1.428,-1.675C-1.407,-1.639 -1.361,-1.61 -1.325,-1.61C-1.289,-1.61 -1.248,-1.599 -1.234,-1.585C-1.207,-1.558 -1.032,-1.491 -0.778,-1.41C-0.627,-1.361 -0.621,-1.363 -0.621,-1.439C-0.62,-1.53 -0.552,-1.657 -0.544,-1.583C-0.541,-1.557 -0.534,-1.52 -0.529,-1.5C-0.524,-1.479 -0.518,-1.43 -0.515,-1.389C-0.511,-1.311 -0.444,-1.284 -0.447,-1.362C-0.452,-1.492 -0.434,-1.575 -0.404,-1.557C-0.386,-1.546 -0.373,-1.48 -0.375,-1.41C-0.377,-1.319 -0.354,-1.264 -0.289,-1.212C-0.191,-1.133 -0.107,-1.144 -0.105,-1.237C-0.104,-1.277 -0.086,-1.265 -0.051,-1.201C0.009,-1.091 0.102,-1.041 0.124,-1.106C0.133,-1.13 0.132,-1.303 0.122,-1.491C0.111,-1.727 0.118,-1.831 0.147,-1.831C0.169,-1.831 0.185,-1.818 0.181,-1.803C0.159,-1.726 0.231,-1.464 0.271,-1.472C0.3,-1.478 0.313,-1.447 0.306,-1.389C0.3,-1.339 0.298,-1.264 0.301,-1.224C0.304,-1.183 0.309,-1.113 0.311,-1.067C0.314,-1.022 0.331,-0.985 0.348,-0.985C0.365,-0.985 0.423,-0.954 0.477,-0.916C0.603,-0.828 0.812,-0.786 0.818,-0.848C0.82,-0.872 0.819,-0.998 0.816,-1.127C0.812,-1.256 0.82,-1.409 0.833,-1.468C0.878,-1.674 0.915,-1.533 0.907,-1.18C0.9,-0.838 0.904,-0.819 0.994,-0.734C1.072,-0.662 1.118,-0.649 1.243,-0.663C1.372,-0.678 1.399,-0.669 1.415,-0.609C1.426,-0.565 1.459,-0.542 1.497,-0.549C1.554,-0.56 1.561,-0.623 1.564,-1.132C1.566,-1.499 1.581,-1.695 1.605,-1.684C1.625,-1.673 1.637,-1.636 1.633,-1.601C1.628,-1.565 1.639,-1.537 1.657,-1.537C1.676,-1.537 1.699,-1.565 1.708,-1.601C1.721,-1.649 1.726,-1.645 1.729,-1.583C1.731,-1.537 1.717,-1.5 1.697,-1.5C1.676,-1.5 1.662,-1.454 1.664,-1.399C1.667,-1.335 1.675,-1.322 1.685,-1.362C1.694,-1.398 1.719,-1.417 1.739,-1.404C1.759,-1.392 1.784,-1.417 1.795,-1.459C1.839,-1.628 1.883,-1.522 1.873,-1.273C1.865,-1.087 1.847,-1.004 1.811,-0.992C1.772,-0.979 1.766,-0.999 1.785,-1.075C1.801,-1.14 1.797,-1.166 1.772,-1.151C1.751,-1.138 1.733,-1.097 1.733,-1.059C1.733,-1.022 1.719,-0.985 1.701,-0.978C1.684,-0.972 1.657,-0.852 1.643,-0.713L1.616,-0.461L1.743,-0.475C1.816,-0.484 1.887,-0.47 1.913,-0.443C1.937,-0.417 1.981,-0.396 2.011,-0.396C2.072,-0.396 2.084,-0.527 2.026,-0.563C1.999,-0.579 2,-0.601 2.027,-0.635C2.057,-0.67 2.055,-0.688 2.02,-0.702C1.974,-0.721 1.99,-0.726 2.09,-0.727C2.104,-0.727 2.118,-0.652 2.121,-0.56C2.124,-0.469 2.145,-0.374 2.169,-0.35C2.219,-0.3 2.219,-0.3 2.212,-0.635C2.206,-0.914 2.189,-0.964 2.133,-0.865C2.063,-0.739 1.991,-0.79 1.991,-0.966C1.991,-1.107 2.002,-1.132 2.064,-1.132C2.114,-1.132 2.138,-1.107 2.138,-1.056C2.138,-1.011 2.154,-0.99 2.178,-1.005C2.202,-1.02 2.213,-1.13 2.206,-1.289C2.198,-1.452 2.209,-1.554 2.233,-1.562C2.255,-1.569 2.276,-1.554 2.28,-1.528C2.293,-1.436 2.318,-0.852 2.32,-0.575C2.322,-0.27 2.352,-0.227 2.527,-0.271C2.599,-0.289 2.616,-0.317 2.616,-0.416C2.616,-0.484 2.633,-0.549 2.654,-0.562C2.674,-0.575 2.681,-0.601 2.669,-0.621C2.657,-0.641 2.667,-0.681 2.691,-0.71C2.72,-0.745 2.722,-0.764 2.696,-0.764C2.631,-0.764 2.661,-1.532 2.728,-1.575C2.763,-1.597 2.766,-1.609 2.737,-1.61C2.709,-1.61 2.692,-1.663 2.693,-1.748C2.694,-1.824 2.694,-1.977 2.694,-2.088C2.695,-2.493 2.715,-3.505 2.723,-3.505C2.728,-3.505 2.738,-3.805 2.746,-4.173C2.759,-4.754 2.753,-4.844 2.703,-4.863C2.671,-4.875 2.654,-4.908 2.665,-4.936C2.678,-4.971 2.629,-5.007 2.512,-5.049C2.418,-5.083 2.307,-5.124 2.267,-5.141C2.006,-5.247 1.793,-5.326 1.765,-5.326C1.69,-5.326 1.439,-5.457 1.439,-5.497C1.439,-5.537 1.59,-5.492 1.936,-5.347C1.996,-5.322 2.167,-5.262 2.316,-5.215C2.545,-5.141 2.59,-5.136 2.619,-5.181C2.637,-5.21 2.652,-5.217 2.653,-5.197C2.654,-5.177 2.669,-5.184 2.688,-5.214C2.717,-5.259 2.736,-5.26 2.813,-5.219C2.863,-5.192 2.922,-5.181 2.944,-5.195C2.966,-5.209 2.984,-5.195 2.984,-5.163C2.984,-5.131 2.967,-5.105 2.945,-5.105C2.924,-5.105 2.915,-5.09 2.927,-5.072C2.938,-5.054 2.954,-4.845 2.963,-4.609C2.972,-4.372 2.988,-4.169 3,-4.157C3.011,-4.146 3.021,-4.315 3.021,-4.533C3.021,-4.919 3.024,-4.933 3.129,-5.053L3.237,-5.176L3.216,-5.048C3.202,-4.964 3.21,-4.921 3.238,-4.921C3.285,-4.921 3.299,-4.953 3.329,-5.131C3.346,-5.229 3.34,-5.245 3.29,-5.226C3.25,-5.211 3.238,-5.217 3.256,-5.246C3.271,-5.27 3.289,-5.322 3.297,-5.361C3.309,-5.425 3.302,-5.428 3.239,-5.39C3.2,-5.365 3.168,-5.326 3.168,-5.303C3.168,-5.28 3.133,-5.252 3.091,-5.241C3.008,-5.219 2.911,-5.244 2.911,-5.286C2.911,-5.34 3.127,-5.517 3.165,-5.494C3.188,-5.479 3.196,-5.49 3.185,-5.52C3.167,-5.565 3.389,-5.841 3.442,-5.841C3.475,-5.841 3.794,-6.181 3.794,-6.215C3.794,-6.232 3.806,-6.246 3.821,-6.246C3.836,-6.247 3.905,-6.296 3.973,-6.357C4.042,-6.417 4.112,-6.466 4.13,-6.466C4.147,-6.466 4.162,-6.483 4.162,-6.504C4.162,-6.525 4.259,-6.645 4.379,-6.771C4.75,-7.163 5.283,-7.757 5.297,-7.796C5.304,-7.817 5.383,-7.901 5.472,-7.983C5.561,-8.064 5.633,-8.153 5.633,-8.18C5.633,-8.252 5.413,-8.404 5.265,-8.435C5.194,-8.45 5.128,-8.474 5.118,-8.489C5.108,-8.503 4.976,-8.552 4.824,-8.597C4.672,-8.642 4.478,-8.71 4.392,-8.75C4.306,-8.789 4.22,-8.821 4.2,-8.821C4.18,-8.821 4.076,-8.86 3.969,-8.908C3.756,-9.004 3.051,-9.246 2.506,-9.411C2.174,-9.511 1.021,-9.893 0.666,-10.02C0.36,-10.129 0.333,-10.125 0.133,-9.941M5.61,-7.996C5.598,-7.963 5.608,-7.914 5.632,-7.885C5.663,-7.847 5.67,-7.634 5.658,-7.117C5.643,-6.463 5.66,-6.251 5.719,-6.347C5.731,-6.366 5.744,-6.596 5.747,-6.857C5.75,-7.118 5.755,-7.488 5.757,-7.68C5.761,-7.985 5.754,-8.031 5.697,-8.041C5.662,-8.048 5.623,-8.028 5.61,-7.996M-2.015,-6.728C-2.043,-6.71 -2.053,-6.676 -2.039,-6.652C-2.024,-6.628 -2.015,-6.464 -2.019,-6.289C-2.023,-6.113 -2.025,-5.949 -2.023,-5.924C-2.021,-5.899 -2.017,-5.828 -2.013,-5.767C-2.007,-5.659 -1.97,-5.625 -1.929,-5.691C-1.888,-5.757 -1.871,-6.687 -1.911,-6.687C-1.933,-6.687 -1.94,-6.704 -1.927,-6.724C-1.9,-6.769 -1.946,-6.771 -2.015,-6.728M-1.811,-6.66C-1.82,-6.645 -1.828,-6.519 -1.829,-6.382C-1.83,-6.167 -1.821,-6.133 -1.768,-6.143C-1.722,-6.152 -1.706,-6.197 -1.703,-6.32C-1.7,-6.47 -1.692,-6.485 -1.611,-6.482C-1.563,-6.481 -1.469,-6.467 -1.403,-6.452C-1.3,-6.428 -1.284,-6.434 -1.284,-6.494C-1.284,-6.604 -1.539,-6.711 -1.654,-6.649C-1.703,-6.623 -1.725,-6.623 -1.725,-6.649C-1.725,-6.693 -1.786,-6.701 -1.811,-6.66M-2.215,-6.479C-2.252,-6.442 -2.245,-6.135 -2.207,-6.135C-2.189,-6.135 -2.167,-6.206 -2.158,-6.292C-2.141,-6.446 -2.166,-6.528 -2.215,-6.479M4.971,-6.301C4.971,-6.271 4.987,-6.246 5.008,-6.246C5.028,-6.246 5.045,-6.271 5.045,-6.301C5.045,-6.331 5.028,-6.356 5.008,-6.356C4.987,-6.356 4.971,-6.331 4.971,-6.301M-1.578,-6.24C-1.578,-6.191 -1.557,-6.171 -1.517,-6.179C-1.426,-6.196 -1.417,-6.27 -1.503,-6.293C-1.56,-6.308 -1.578,-6.295 -1.578,-6.24M-0.419,-6.135C-0.406,-6.115 -0.368,-6.099 -0.334,-6.099C-0.28,-6.1 -0.279,-6.105 -0.327,-6.135C-0.399,-6.182 -0.448,-6.182 -0.419,-6.135M-2.549,-6.067C-2.562,-6.047 -2.546,-6.005 -2.514,-5.973C-2.482,-5.941 -2.473,-5.915 -2.495,-5.915C-2.517,-5.915 -2.534,-5.889 -2.534,-5.857C-2.534,-5.826 -2.518,-5.81 -2.498,-5.823C-2.477,-5.836 -2.461,-5.805 -2.461,-5.751C-2.461,-5.687 -2.441,-5.657 -2.398,-5.657C-2.351,-5.657 -2.346,-5.668 -2.378,-5.699C-2.404,-5.725 -2.408,-5.765 -2.39,-5.801C-2.351,-5.875 -2.35,-6.062 -2.389,-6.062C-2.405,-6.062 -2.443,-6.071 -2.472,-6.083C-2.502,-6.094 -2.537,-6.087 -2.549,-6.067M-2.244,-6.071C-2.255,-5.992 -2.239,-5.68 -2.222,-5.664C-2.181,-5.623 -2.158,-5.699 -2.152,-5.894C-2.148,-6.039 -2.16,-6.099 -2.193,-6.099C-2.219,-6.099 -2.242,-6.086 -2.244,-6.071M-0.768,-5.99C-0.768,-5.949 -0.752,-5.915 -0.732,-5.915C-0.711,-5.915 -0.695,-5.938 -0.695,-5.968C-0.695,-5.997 -0.711,-6.031 -0.732,-6.043C-0.752,-6.056 -0.768,-6.032 -0.768,-5.99M0.041,-5.988C0.041,-5.968 0.058,-5.951 0.08,-5.951C0.101,-5.951 0.109,-5.968 0.096,-5.988C0.084,-6.008 0.066,-6.025 0.057,-6.025C0.048,-6.025 0.041,-6.008 0.041,-5.988M5.217,-5.9C5.205,-5.869 5.21,-5.834 5.227,-5.823C5.274,-5.794 5.302,-5.854 5.268,-5.91C5.245,-5.947 5.234,-5.945 5.217,-5.9M-1.811,-5.812C-1.824,-5.789 -1.814,-4.928 -1.789,-3.882C-1.784,-3.673 -1.765,-3.523 -1.743,-3.523C-1.686,-3.523 -1.694,-5.798 -1.752,-5.821C-1.776,-5.83 -1.803,-5.826 -1.811,-5.812M0.686,-5.807C0.675,-5.788 0.682,-5.762 0.703,-5.749C0.723,-5.737 0.74,-5.752 0.74,-5.784C0.74,-5.848 0.718,-5.858 0.686,-5.807M0.777,-5.731C0.777,-5.71 0.793,-5.694 0.814,-5.694C0.834,-5.694 0.85,-5.71 0.85,-5.731C0.85,-5.751 0.834,-5.767 0.814,-5.767C0.793,-5.767 0.777,-5.751 0.777,-5.731M0.978,-5.692C0.943,-5.635 0.991,-5.599 1.038,-5.646C1.065,-5.673 1.065,-5.693 1.04,-5.709C1.019,-5.721 0.992,-5.714 0.978,-5.692M5.192,-5.694C5.192,-5.674 5.209,-5.657 5.231,-5.657C5.252,-5.657 5.259,-5.674 5.247,-5.694C5.234,-5.714 5.217,-5.731 5.208,-5.731C5.199,-5.731 5.192,-5.714 5.192,-5.694M3.392,-5.598C3.298,-5.505 3.314,-5.431 3.415,-5.495C3.476,-5.533 3.554,-5.697 3.507,-5.69C3.493,-5.688 3.441,-5.646 3.392,-5.598M1.129,-5.624C1.117,-5.606 1.148,-5.581 1.197,-5.569C1.245,-5.557 1.311,-5.537 1.344,-5.525C1.376,-5.512 1.402,-5.52 1.402,-5.543C1.402,-5.565 1.377,-5.583 1.347,-5.583C1.317,-5.583 1.292,-5.6 1.292,-5.62C1.292,-5.666 1.157,-5.669 1.129,-5.624M-2.524,-5.547C-2.53,-5.467 -2.411,-5.441 -2.367,-5.512C-2.338,-5.559 -2.346,-5.567 -2.444,-5.597C-2.501,-5.615 -2.52,-5.603 -2.524,-5.547M-2.003,-5.537C-2.03,-5.465 -1.998,-4.447 -1.968,-4.416C-1.945,-4.393 -1.941,-4.424 -1.924,-4.793C-1.898,-5.331 -1.902,-5.517 -1.94,-5.555C-1.969,-5.585 -1.986,-5.58 -2.003,-5.537M5.184,-5.563C5.173,-5.544 5.176,-5.496 5.19,-5.457C5.204,-5.418 5.225,-5.402 5.236,-5.42C5.247,-5.439 5.244,-5.487 5.23,-5.526C5.216,-5.565 5.195,-5.582 5.184,-5.563M-2.24,-5.418C-2.24,-5.347 -2.224,-5.289 -2.203,-5.289C-2.183,-5.289 -2.167,-5.347 -2.167,-5.418C-2.167,-5.489 -2.183,-5.547 -2.203,-5.547C-2.224,-5.547 -2.24,-5.489 -2.24,-5.418M-1.244,-5.405C-1.269,-5.358 -1.267,-5.324 -1.236,-5.293C-1.204,-5.261 -1.203,-5.242 -1.233,-5.223C-1.293,-5.185 -1.285,-4.995 -1.224,-4.995C-1.186,-4.995 -1.173,-5.056 -1.173,-5.234C-1.173,-5.487 -1.185,-5.515 -1.244,-5.405M-0.422,-5.275C-0.446,-5.212 -0.414,-5.142 -0.362,-5.142C-0.315,-5.142 -0.317,-5.279 -0.364,-5.308C-0.384,-5.32 -0.411,-5.306 -0.422,-5.275M-1.558,-5.255C-1.569,-5.236 -1.563,-5.211 -1.544,-5.199C-1.525,-5.187 -1.5,-5.193 -1.488,-5.212C-1.476,-5.232 -1.482,-5.257 -1.501,-5.269C-1.52,-5.281 -1.546,-5.275 -1.558,-5.255M5.612,-5.197C5.599,-5.147 5.576,-5.105 5.562,-5.105C5.547,-5.105 5.543,-5.055 5.552,-4.993C5.577,-4.819 5.647,-4.887 5.66,-5.099C5.673,-5.302 5.65,-5.349 5.612,-5.197M-2.256,-5.122C-2.31,-5.041 -2.31,-5.023 -2.263,-4.975C-2.184,-4.897 -2.175,-4.906 -2.173,-5.068C-2.172,-5.149 -2.176,-5.216 -2.183,-5.216C-2.19,-5.216 -2.222,-5.174 -2.256,-5.122M-1.05,-4.736C-1.047,-4.35 -1.037,-4.259 -0.996,-4.267C-0.897,-4.287 -0.926,-5.216 -1.027,-5.216C-1.041,-5.216 -1.051,-5 -1.05,-4.736M-1.554,-5.08C-1.599,-5.035 -1.578,-4.884 -1.527,-4.884C-1.498,-4.884 -1.477,-4.923 -1.477,-4.977C-1.477,-5.073 -1.513,-5.121 -1.554,-5.08M-2.424,-5.032C-2.424,-5.011 -2.407,-4.995 -2.385,-4.995C-2.364,-4.995 -2.356,-5.011 -2.369,-5.032C-2.381,-5.052 -2.399,-5.068 -2.408,-5.068C-2.417,-5.068 -2.424,-5.052 -2.424,-5.032M-1.266,-4.875C-1.275,-4.85 -1.279,-4.544 -1.274,-4.195C-1.267,-3.716 -1.254,-3.56 -1.219,-3.56C-1.178,-3.56 -1.15,-3.757 -1.167,-3.928C-1.17,-3.958 -1.174,-4.194 -1.176,-4.452C-1.178,-4.723 -1.194,-4.921 -1.214,-4.921C-1.233,-4.921 -1.257,-4.901 -1.266,-4.875M-0.623,-4.8C-0.634,-4.151 -0.635,-4.161 -0.555,-4.234C-0.504,-4.28 -0.478,-4.285 -0.445,-4.252C-0.376,-4.183 -0.356,-4.238 -0.346,-4.516C-0.338,-4.732 -0.347,-4.782 -0.4,-4.811C-0.436,-4.83 -0.475,-4.835 -0.488,-4.822C-0.5,-4.809 -0.511,-4.816 -0.511,-4.838C-0.511,-4.859 -0.536,-4.886 -0.566,-4.898C-0.608,-4.914 -0.622,-4.89 -0.623,-4.8M0.556,-4.829C0.556,-4.779 0.572,-4.737 0.592,-4.737C0.612,-4.737 0.625,-4.779 0.621,-4.829C0.617,-4.88 0.601,-4.921 0.585,-4.921C0.569,-4.921 0.556,-4.88 0.556,-4.829M0.689,-4.863C0.675,-4.827 0.683,-4.81 0.71,-4.819C0.765,-4.838 0.795,-4.921 0.747,-4.921C0.727,-4.921 0.701,-4.895 0.689,-4.863M2.328,-4.811C2.328,-4.76 2.336,-4.74 2.346,-4.765C2.357,-4.79 2.357,-4.832 2.346,-4.857C2.336,-4.882 2.328,-4.861 2.328,-4.811M-0.818,-4.786C-0.856,-4.748 -0.846,-4.627 -0.805,-4.627C-0.785,-4.627 -0.768,-4.642 -0.768,-4.661C-0.768,-4.679 -0.758,-4.721 -0.746,-4.753C-0.724,-4.811 -0.771,-4.833 -0.818,-4.786M5.555,-4.786C5.492,-4.77 5.471,-4.602 5.523,-4.535C5.539,-4.515 5.56,-4.465 5.57,-4.425C5.582,-4.376 5.591,-4.394 5.598,-4.48C5.603,-4.551 5.609,-4.628 5.612,-4.652C5.614,-4.676 5.628,-4.708 5.643,-4.723C5.658,-4.737 5.67,-4.763 5.67,-4.78C5.67,-4.812 5.655,-4.813 5.555,-4.786M-1.578,-4.697C-1.578,-4.608 -1.492,-4.62 -1.474,-4.713C-1.467,-4.749 -1.486,-4.774 -1.52,-4.774C-1.554,-4.774 -1.578,-4.743 -1.578,-4.697M-0.506,-4.59C-0.503,-4.389 -0.502,-4.389 -0.474,-4.535C-0.458,-4.616 -0.459,-4.707 -0.477,-4.737C-0.497,-4.773 -0.508,-4.721 -0.506,-4.59M0.686,-4.726C0.67,-4.69 0.668,-4.65 0.68,-4.638C0.718,-4.6 0.748,-4.653 0.73,-4.725C0.715,-4.79 0.713,-4.79 0.686,-4.726M0.924,-4.737C0.924,-4.717 0.939,-4.701 0.959,-4.701C0.978,-4.701 1.003,-4.717 1.016,-4.737C1.028,-4.758 1.013,-4.774 0.981,-4.774C0.95,-4.774 0.924,-4.758 0.924,-4.737M-2.534,-4.682C-2.534,-4.652 -2.507,-4.627 -2.473,-4.627C-2.419,-4.627 -2.419,-4.62 -2.479,-4.553C-2.555,-4.469 -2.513,-4.457 -2.412,-4.533C-2.374,-4.561 -2.35,-4.613 -2.356,-4.648C-2.372,-4.729 -2.534,-4.76 -2.534,-4.682M-2.289,-4.713C-2.338,-4.664 -2.313,-4.619 -2.249,-4.641C-2.188,-4.663 -2.188,-4.661 -2.249,-4.614C-2.336,-4.546 -2.331,-4.418 -2.24,-4.369C-2.19,-4.343 -2.167,-4.342 -2.167,-4.368C-2.167,-4.389 -2.183,-4.406 -2.203,-4.406C-2.224,-4.406 -2.24,-4.439 -2.24,-4.48C-2.24,-4.52 -2.224,-4.553 -2.203,-4.553C-2.183,-4.553 -2.167,-4.595 -2.167,-4.645C-2.167,-4.732 -2.233,-4.769 -2.289,-4.713M4.348,-4.642C4.35,-4.599 4.359,-4.591 4.371,-4.62C4.381,-4.647 4.38,-4.678 4.368,-4.69C4.355,-4.703 4.347,-4.681 4.348,-4.642M2.164,-4.613C2.149,-4.574 2.145,-4.534 2.155,-4.524C2.189,-4.49 2.219,-4.545 2.205,-4.615C2.192,-4.679 2.19,-4.679 2.164,-4.613M2.303,-4.59C2.291,-4.57 2.297,-4.553 2.318,-4.553C2.338,-4.553 2.365,-4.57 2.377,-4.59C2.39,-4.61 2.383,-4.627 2.363,-4.627C2.343,-4.627 2.316,-4.61 2.303,-4.59M-1.561,-4.545C-1.594,-4.459 -1.565,-4.167 -1.523,-4.167C-1.473,-4.167 -1.453,-4.517 -1.501,-4.565C-1.527,-4.591 -1.546,-4.584 -1.561,-4.545M-0.845,-4.474C-0.847,-4.447 -0.851,-4.38 -0.855,-4.326C-0.86,-4.258 -0.842,-4.221 -0.798,-4.21C-0.743,-4.195 -0.734,-4.215 -0.742,-4.342C-0.749,-4.478 -0.838,-4.591 -0.845,-4.474M0.593,-4.489C0.593,-4.473 0.626,-4.44 0.666,-4.415C0.731,-4.375 0.74,-4.378 0.74,-4.443C0.74,-4.492 0.716,-4.517 0.666,-4.517C0.626,-4.517 0.593,-4.504 0.593,-4.489M2.285,-4.48C2.285,-4.459 2.302,-4.443 2.322,-4.443C2.342,-4.443 2.359,-4.459 2.359,-4.48C2.359,-4.5 2.342,-4.517 2.322,-4.517C2.302,-4.517 2.285,-4.5 2.285,-4.48M0.924,-4.422C0.924,-4.391 0.941,-4.375 0.961,-4.388C0.981,-4.4 0.997,-4.426 0.997,-4.445C0.997,-4.464 0.981,-4.48 0.961,-4.48C0.941,-4.48 0.924,-4.454 0.924,-4.422M-0.199,-4.397C-0.227,-4.318 -0.189,-4.13 -0.147,-4.139C-0.109,-4.148 -0.09,-4.099 -0.103,-4.026C-0.106,-4.008 -0.087,-4.002 -0.061,-4.01C0.003,-4.032 0.004,-4.392 -0.06,-4.379C-0.086,-4.374 -0.106,-4.386 -0.106,-4.406C-0.106,-4.459 -0.179,-4.452 -0.199,-4.397M1.108,-4.404C1.108,-4.383 1.124,-4.375 1.145,-4.388C1.165,-4.4 1.181,-4.418 1.181,-4.427C1.181,-4.436 1.165,-4.443 1.145,-4.443C1.124,-4.443 1.108,-4.425 1.108,-4.404M1.88,-4.406C1.88,-4.386 1.897,-4.369 1.917,-4.369C1.937,-4.369 1.954,-4.386 1.954,-4.406C1.954,-4.426 1.937,-4.443 1.917,-4.443C1.897,-4.443 1.88,-4.426 1.88,-4.406M4.845,-4.411C4.829,-4.385 4.826,-4.355 4.838,-4.342C4.871,-4.31 4.907,-4.358 4.889,-4.411C4.877,-4.449 4.868,-4.449 4.845,-4.411M-1.987,-4.362C-2.012,-4.29 -2.008,-3.56 -1.982,-3.56C-1.961,-3.56 -1.963,-3.52 -1.985,-3.462C-2.027,-3.351 -2,-3.233 -1.946,-3.288C-1.885,-3.349 -1.889,-4.316 -1.951,-4.354C-1.969,-4.365 -1.984,-4.369 -1.987,-4.362M1.278,-4.314C1.267,-4.284 1.273,-4.259 1.293,-4.259C1.313,-4.259 1.329,-4.284 1.329,-4.314C1.329,-4.345 1.322,-4.369 1.314,-4.369C1.306,-4.369 1.29,-4.345 1.278,-4.314M0.041,-4.243C0.041,-4.157 0.099,-4.084 0.137,-4.122C0.165,-4.15 0.11,-4.333 0.074,-4.333C0.056,-4.333 0.041,-4.292 0.041,-4.243M1.097,-4.269C1.066,-4.214 1.079,-3.854 1.112,-3.854C1.143,-3.854 1.149,-3.894 1.161,-4.161C1.165,-4.262 1.129,-4.325 1.097,-4.269M4.84,-4.183C4.84,-4.144 4.853,-4.112 4.868,-4.112C4.884,-4.112 4.897,-4.136 4.897,-4.165C4.897,-4.194 4.884,-4.226 4.868,-4.236C4.853,-4.246 4.84,-4.222 4.84,-4.183M2.092,-4.197C2.016,-4.177 2.005,-4.112 2.079,-4.112C2.107,-4.112 2.14,-4.137 2.151,-4.167C2.163,-4.197 2.169,-4.22 2.164,-4.218C2.16,-4.216 2.127,-4.206 2.092,-4.197M1.901,-4.139C1.868,-4.034 1.849,-3.81 1.868,-3.76C1.915,-3.638 1.951,-3.723 1.947,-3.946C1.943,-4.178 1.93,-4.234 1.901,-4.139M2.491,-4.134C2.502,-4.106 2.493,-4.072 2.472,-4.058C2.411,-4.021 2.424,-3.854 2.488,-3.854C2.557,-3.854 2.559,-3.784 2.492,-3.73C2.464,-3.707 2.43,-3.616 2.417,-3.528C2.397,-3.393 2.402,-3.371 2.45,-3.389C2.521,-3.416 2.523,-3.379 2.452,-3.325C2.413,-3.295 2.397,-3.194 2.393,-2.953C2.386,-2.593 2.353,-2.473 2.319,-2.677L2.298,-2.806L2.243,-2.686C2.213,-2.62 2.177,-2.577 2.163,-2.59C2.129,-2.625 2.136,-2.826 2.175,-2.916C2.205,-2.986 2.206,-2.986 2.209,-2.907C2.213,-2.789 2.313,-2.804 2.333,-2.925C2.366,-3.119 2.363,-3.523 2.329,-3.523C2.274,-3.523 2.203,-3.42 2.229,-3.378C2.242,-3.357 2.235,-3.311 2.215,-3.275C2.186,-3.226 2.177,-3.27 2.176,-3.456C2.175,-3.617 2.159,-3.707 2.129,-3.72C2.092,-3.734 2.092,-3.739 2.129,-3.741C2.154,-3.743 2.175,-3.761 2.175,-3.781C2.175,-3.835 2.028,-3.826 2.023,-3.772C2.021,-3.746 2.013,-3.279 2.006,-2.734C1.994,-1.773 2.005,-1.647 2.106,-1.647C2.123,-1.647 2.138,-1.714 2.138,-1.796C2.138,-1.886 2.153,-1.936 2.175,-1.923C2.195,-1.91 2.212,-1.832 2.212,-1.748C2.212,-1.645 2.224,-1.607 2.249,-1.633C2.269,-1.653 2.293,-1.824 2.301,-2.012C2.309,-2.2 2.332,-2.371 2.353,-2.392C2.379,-2.418 2.386,-2.342 2.375,-2.151C2.36,-1.875 2.402,-1.743 2.448,-1.925C2.461,-1.976 2.486,-2.009 2.504,-1.997C2.523,-1.986 2.55,-1.997 2.565,-2.021C2.596,-2.072 2.608,-2.677 2.578,-2.677C2.567,-2.677 2.538,-2.657 2.513,-2.633C2.489,-2.609 2.469,-2.603 2.469,-2.62C2.469,-2.637 2.496,-2.67 2.528,-2.694C2.567,-2.722 2.593,-2.814 2.606,-2.965C2.624,-3.19 2.601,-3.234 2.511,-3.146C2.473,-3.109 2.466,-3.111 2.476,-3.155C2.482,-3.186 2.516,-3.222 2.552,-3.237C2.591,-3.253 2.617,-3.304 2.618,-3.366C2.619,-3.422 2.625,-3.59 2.631,-3.739C2.644,-4.091 2.625,-4.185 2.54,-4.185C2.496,-4.185 2.479,-4.167 2.491,-4.134M-1.554,-4.086C-1.584,-4.056 -1.585,-3.695 -1.556,-3.618C-1.511,-3.501 -1.467,-3.607 -1.467,-3.836C-1.467,-4.054 -1.498,-4.143 -1.554,-4.086M2.966,-4.038C2.978,-4.018 2.996,-4.002 3.005,-4.002C3.014,-4.002 3.021,-4.018 3.021,-4.038C3.021,-4.058 3.003,-4.075 2.982,-4.075C2.961,-4.075 2.953,-4.058 2.966,-4.038M1.696,-3.939C1.675,-3.882 1.643,-3.803 1.625,-3.762C1.59,-3.683 1.579,-3.271 1.61,-3.22C1.621,-3.202 1.653,-3.208 1.681,-3.232C1.722,-3.265 1.734,-3.263 1.736,-3.224C1.738,-3.196 1.762,-3.223 1.79,-3.284L1.84,-3.394L1.842,-3.293C1.843,-3.238 1.858,-3.192 1.876,-3.192C1.921,-3.192 1.953,-3.326 1.954,-3.515C1.954,-3.662 1.949,-3.67 1.88,-3.634C1.811,-3.596 1.807,-3.606 1.807,-3.796C1.807,-4.023 1.752,-4.094 1.696,-3.939M5.412,-3.946C5.412,-3.896 5.419,-3.854 5.426,-3.854C5.434,-3.854 5.448,-3.896 5.458,-3.946C5.468,-3.997 5.462,-4.038 5.444,-4.038C5.427,-4.038 5.412,-3.997 5.412,-3.946M2.028,-3.924C2.028,-3.847 2.033,-3.844 2.117,-3.877C2.197,-3.907 2.19,-3.952 2.101,-3.975C2.047,-3.99 2.028,-3.976 2.028,-3.924M-1.039,-3.588C-1.034,-3.38 -1.029,-3.195 -1.028,-3.176C-1.027,-3.156 -1.008,-3.159 -0.986,-3.181C-0.936,-3.231 -0.898,-3.486 -0.94,-3.486C-0.957,-3.486 -0.969,-3.573 -0.968,-3.68C-0.964,-3.882 -0.98,-3.965 -1.022,-3.965C-1.036,-3.965 -1.044,-3.795 -1.039,-3.588M0.071,-3.847C0.058,-3.809 0.061,-3.306 0.075,-3.013C0.077,-2.984 0.101,-2.972 0.133,-2.985C0.167,-2.998 0.188,-2.984 0.188,-2.95C0.188,-2.919 0.173,-2.903 0.154,-2.915C0.135,-2.926 0.108,-2.917 0.093,-2.893C0.07,-2.856 0.071,-2.52 0.096,-2.272C0.101,-2.222 0.107,-2.142 0.11,-2.095C0.112,-2.049 0.131,-2.02 0.151,-2.033C0.17,-2.045 0.181,-2.141 0.174,-2.246C0.16,-2.463 0.176,-2.53 0.242,-2.53C0.273,-2.53 0.284,-2.589 0.277,-2.723C0.272,-2.829 0.266,-3.005 0.265,-3.113C0.262,-3.273 0.251,-3.306 0.206,-3.289C0.148,-3.267 0.148,-3.267 0.137,-3.659C0.132,-3.85 0.101,-3.936 0.071,-3.847M0.887,-3.781C0.887,-3.663 0.938,-3.632 0.975,-3.728C1.013,-3.827 1,-3.891 0.942,-3.891C0.905,-3.891 0.887,-3.854 0.887,-3.781M2.272,-3.836C2.283,-3.806 2.3,-3.781 2.307,-3.781C2.315,-3.781 2.322,-3.806 2.322,-3.836C2.322,-3.866 2.306,-3.891 2.286,-3.891C2.267,-3.891 2.26,-3.866 2.272,-3.836M-0.627,-3.799C-0.649,-3.777 -0.625,-3.478 -0.6,-3.452C-0.556,-3.409 -0.507,-3.529 -0.518,-3.653C-0.528,-3.782 -0.578,-3.848 -0.627,-3.799M-0.478,-3.643C-0.481,-3.547 -0.48,-3.452 -0.476,-3.432C-0.472,-3.412 -0.468,-3.267 -0.467,-3.11C-0.467,-2.953 -0.451,-2.824 -0.433,-2.824C-0.415,-2.824 -0.4,-2.845 -0.399,-2.87C-0.371,-3.554 -0.378,-3.818 -0.424,-3.818C-0.459,-3.818 -0.476,-3.764 -0.478,-3.643M5.464,-3.789C5.401,-3.747 5.417,-3.634 5.487,-3.634C5.534,-3.634 5.545,-3.657 5.532,-3.726C5.522,-3.776 5.512,-3.817 5.509,-3.817C5.507,-3.817 5.486,-3.804 5.464,-3.789M-0.86,-3.744C-0.873,-3.724 -0.857,-3.707 -0.826,-3.707C-0.794,-3.707 -0.768,-3.724 -0.768,-3.744C-0.768,-3.764 -0.784,-3.781 -0.803,-3.781C-0.822,-3.781 -0.848,-3.764 -0.86,-3.744M-0.149,-3.751C-0.2,-3.729 -0.208,-3.669 -0.199,-3.329C-0.193,-3.111 -0.168,-2.883 -0.143,-2.823C-0.108,-2.74 -0.107,-2.702 -0.14,-2.662C-0.165,-2.633 -0.173,-2.569 -0.159,-2.514C-0.139,-2.437 -0.124,-2.426 -0.084,-2.46C-0.027,-2.507 -0.016,-2.704 -0.067,-2.784C-0.085,-2.813 -0.087,-2.87 -0.071,-2.913C-0.056,-2.955 -0.056,-3.035 -0.072,-3.09C-0.088,-3.147 -0.086,-3.2 -0.067,-3.212C-0.017,-3.243 -0.025,-3.376 -0.077,-3.376C-0.111,-3.376 -0.111,-3.386 -0.077,-3.42C-0.029,-3.468 -0.015,-3.782 -0.06,-3.778C-0.075,-3.777 -0.115,-3.764 -0.149,-3.751M1.071,-3.67C1.071,-3.553 1.103,-3.533 1.174,-3.604C1.208,-3.638 1.218,-3.63 1.218,-3.564C1.218,-3.436 1.308,-3.491 1.322,-3.627C1.33,-3.711 1.318,-3.744 1.279,-3.744C1.249,-3.744 1.216,-3.723 1.206,-3.698C1.195,-3.67 1.186,-3.678 1.184,-3.716C1.179,-3.834 1.071,-3.79 1.071,-3.67M0.68,-3.704C0.656,-3.674 0.651,-3.621 0.667,-3.578C0.692,-3.513 0.698,-3.511 0.721,-3.567C0.735,-3.601 0.741,-3.658 0.734,-3.692C0.724,-3.745 0.715,-3.747 0.68,-3.704M2.936,-3.657C2.92,-3.599 2.916,-3.542 2.927,-3.531C2.966,-3.493 2.99,-3.554 2.977,-3.658L2.965,-3.762L2.936,-3.657ZM1.402,-3.634C1.402,-3.593 1.417,-3.56 1.435,-3.56C1.453,-3.56 1.476,-3.593 1.486,-3.634C1.499,-3.681 1.487,-3.707 1.454,-3.707C1.425,-3.707 1.402,-3.674 1.402,-3.634M2.261,-3.65C2.249,-3.619 2.249,-3.584 2.26,-3.573C2.292,-3.541 2.359,-3.596 2.359,-3.654C2.359,-3.725 2.289,-3.722 2.261,-3.65M-0.842,-3.597C-0.842,-3.577 -0.826,-3.56 -0.805,-3.56C-0.785,-3.56 -0.768,-3.577 -0.768,-3.597C-0.768,-3.617 -0.785,-3.634 -0.805,-3.634C-0.826,-3.634 -0.842,-3.617 -0.842,-3.597M0.556,-3.523C0.556,-3.483 0.573,-3.45 0.593,-3.45C0.613,-3.45 0.63,-3.483 0.63,-3.523C0.63,-3.564 0.613,-3.597 0.593,-3.597C0.573,-3.597 0.556,-3.564 0.556,-3.523M4.296,-3.572C4.283,-3.559 4.272,-3.515 4.272,-3.474C4.272,-3.385 4.318,-3.423 4.334,-3.524C4.346,-3.601 4.337,-3.612 4.296,-3.572M5.435,-3.463C5.397,-3.41 5.353,-3.311 5.337,-3.242C5.314,-3.136 5.317,-3.122 5.361,-3.158C5.389,-3.182 5.412,-3.233 5.412,-3.272C5.412,-3.312 5.429,-3.333 5.449,-3.321C5.469,-3.308 5.486,-3.303 5.486,-3.31C5.486,-3.316 5.501,-3.375 5.52,-3.441C5.561,-3.584 5.529,-3.592 5.435,-3.463M-1.222,-3.499C-1.261,-3.46 -1.251,-3.302 -1.21,-3.302C-1.19,-3.302 -1.173,-3.352 -1.173,-3.413C-1.173,-3.527 -1.181,-3.54 -1.222,-3.499M0.869,-3.486C0.856,-3.466 0.864,-3.45 0.885,-3.45C0.906,-3.45 0.924,-3.466 0.924,-3.486C0.924,-3.507 0.917,-3.523 0.908,-3.523C0.899,-3.523 0.881,-3.507 0.869,-3.486M-0.859,-3.452C-0.884,-3.412 -0.826,-3.368 -0.792,-3.402C-0.757,-3.437 -0.764,-3.486 -0.803,-3.486C-0.822,-3.486 -0.847,-3.471 -0.859,-3.452M1.071,-3.431C1.071,-3.401 1.088,-3.376 1.108,-3.376C1.128,-3.376 1.145,-3.401 1.145,-3.431C1.145,-3.462 1.128,-3.486 1.108,-3.486C1.088,-3.486 1.071,-3.462 1.071,-3.431M-1.78,-3.404C-1.789,-3.378 -1.791,-3.217 -1.785,-3.045C-1.767,-2.563 -1.764,-2.53 -1.731,-2.53C-1.714,-2.53 -1.7,-2.737 -1.699,-2.99C-1.698,-3.244 -1.712,-3.45 -1.73,-3.45C-1.749,-3.45 -1.771,-3.429 -1.78,-3.404M-1.558,-3.293C-1.549,-3.082 -1.547,-3.074 -1.504,-3.1C-1.447,-3.135 -1.458,-3.45 -1.516,-3.45C-1.549,-3.45 -1.562,-3.401 -1.558,-3.293M0.652,-3.391C0.627,-3.326 0.653,-3.266 0.705,-3.266C0.749,-3.266 0.751,-3.402 0.707,-3.429C0.689,-3.44 0.664,-3.423 0.652,-3.391M-0.597,-3.352C-0.635,-3.313 -0.626,-3.192 -0.584,-3.192C-0.564,-3.192 -0.548,-3.233 -0.548,-3.284C-0.548,-3.38 -0.556,-3.392 -0.597,-3.352M0.348,-3.266C0.348,-3.205 0.361,-3.155 0.378,-3.155C0.395,-3.155 0.409,-3.205 0.409,-3.266C0.409,-3.326 0.395,-3.376 0.378,-3.376C0.361,-3.376 0.348,-3.326 0.348,-3.266M-1.983,-3.116C-1.983,-3.052 -1.967,-3.013 -1.946,-3.026C-1.904,-3.052 -1.911,-3.229 -1.954,-3.229C-1.97,-3.229 -1.983,-3.178 -1.983,-3.116M-1.247,-2.916C-1.247,-2.675 -1.235,-2.603 -1.196,-2.603C-1.157,-2.603 -1.146,-2.673 -1.15,-2.916C-1.153,-3.139 -1.168,-3.229 -1.201,-3.229C-1.234,-3.229 -1.247,-3.142 -1.247,-2.916M0.139,-3.175C0.127,-3.145 0.134,-3.111 0.153,-3.099C0.172,-3.087 0.188,-3.112 0.188,-3.153C0.188,-3.242 0.168,-3.251 0.139,-3.175M-2.167,-3.137C-2.167,-3.106 -2.15,-3.082 -2.13,-3.082C-2.109,-3.082 -2.093,-3.106 -2.093,-3.137C-2.093,-3.167 -2.109,-3.192 -2.13,-3.192C-2.15,-3.192 -2.167,-3.167 -2.167,-3.137M0.86,-3.1C0.86,-3.049 0.874,-3.008 0.892,-3.008C0.909,-3.008 0.924,-3.049 0.924,-3.1C0.924,-3.151 0.909,-3.192 0.892,-3.192C0.874,-3.192 0.86,-3.151 0.86,-3.1M1.391,-3.141C1.376,-3.103 1.372,-3.063 1.383,-3.052C1.416,-3.018 1.446,-3.073 1.432,-3.143C1.419,-3.207 1.417,-3.207 1.391,-3.141M2.199,-3.168C2.186,-3.154 2.175,-3.11 2.175,-3.069C2.175,-2.979 2.208,-3.006 2.229,-3.114C2.245,-3.197 2.239,-3.207 2.199,-3.168M1.862,-3.118C1.814,-3.04 1.797,-2.199 1.843,-2.199C1.864,-2.199 1.881,-2.228 1.882,-2.263C1.886,-2.393 1.921,-2.808 1.935,-2.887C1.942,-2.931 1.936,-3.014 1.921,-3.069C1.9,-3.148 1.887,-3.159 1.862,-3.118M-0.994,-3.112C-1.012,-3.067 -1.006,-2.898 -0.986,-2.898C-0.947,-2.898 -0.922,-3.081 -0.957,-3.103C-0.975,-3.114 -0.991,-3.118 -0.994,-3.112M0.506,-2.778C0.512,-2.32 0.513,-2.309 0.56,-2.309C0.582,-2.309 0.591,-2.333 0.58,-2.363C0.569,-2.393 0.572,-2.425 0.587,-2.434C0.615,-2.452 0.605,-2.988 0.575,-3.072C0.529,-3.201 0.501,-3.083 0.506,-2.778M1.218,-3.082C1.218,-3.061 1.235,-3.045 1.255,-3.045C1.275,-3.045 1.292,-3.061 1.292,-3.082C1.292,-3.102 1.275,-3.118 1.255,-3.118C1.235,-3.118 1.218,-3.102 1.218,-3.082M1.733,-3.056C1.733,-3.033 1.701,-3.024 1.66,-3.034C1.577,-3.056 1.584,-3.116 1.581,-2.327C1.579,-1.757 1.58,-1.749 1.621,-1.775C1.641,-1.787 1.657,-1.883 1.657,-1.988C1.657,-2.288 1.661,-2.309 1.717,-2.309C1.746,-2.309 1.77,-2.335 1.77,-2.366C1.77,-2.398 1.755,-2.414 1.736,-2.403C1.717,-2.391 1.691,-2.398 1.678,-2.419C1.666,-2.439 1.681,-2.456 1.713,-2.456C1.754,-2.456 1.77,-2.493 1.77,-2.585C1.77,-2.661 1.752,-2.714 1.726,-2.714C1.692,-2.714 1.692,-2.724 1.726,-2.758C1.779,-2.811 1.785,-2.874 1.733,-2.843C1.675,-2.807 1.69,-2.867 1.758,-2.942C1.805,-2.994 1.81,-3.02 1.777,-3.053C1.747,-3.083 1.733,-3.084 1.733,-3.056M-1.539,-2.557C-1.535,-2.154 -1.524,-2.051 -1.483,-2.051C-1.442,-2.051 -1.436,-2.137 -1.452,-2.521C-1.479,-3.176 -1.545,-3.203 -1.539,-2.557M2.464,-3.028C2.439,-3.002 2.473,-2.751 2.502,-2.751C2.515,-2.751 2.52,-2.817 2.512,-2.898C2.498,-3.048 2.494,-3.058 2.464,-3.028M0.358,-2.95C0.322,-2.858 0.331,-2.824 0.39,-2.824C0.425,-2.824 0.446,-2.859 0.446,-2.916C0.446,-3.019 0.392,-3.04 0.358,-2.95M1.226,-2.833C1.238,-2.643 1.308,-2.591 1.314,-2.767C1.319,-2.908 1.292,-3.008 1.249,-3.008C1.23,-3.008 1.22,-2.929 1.226,-2.833M3.223,-2.971C3.211,-2.951 3.217,-2.935 3.237,-2.935C3.258,-2.935 3.284,-2.951 3.297,-2.971C3.309,-2.991 3.303,-3.008 3.283,-3.008C3.263,-3.008 3.236,-2.991 3.223,-2.971M-1.991,-2.929C-2.013,-2.861 -1.979,-2.714 -1.941,-2.714C-1.924,-2.714 -1.909,-2.755 -1.909,-2.806C-1.909,-2.856 -1.908,-2.91 -1.906,-2.924C-1.901,-2.973 -1.975,-2.976 -1.991,-2.929M-0.621,-2.918C-0.621,-2.889 -0.605,-2.855 -0.584,-2.843C-0.564,-2.83 -0.548,-2.854 -0.548,-2.896C-0.548,-2.937 -0.564,-2.971 -0.584,-2.971C-0.605,-2.971 -0.621,-2.947 -0.621,-2.918M0.648,-2.935C0.635,-2.914 0.643,-2.898 0.664,-2.898C0.686,-2.898 0.703,-2.914 0.703,-2.935C0.703,-2.955 0.696,-2.971 0.687,-2.971C0.678,-2.971 0.66,-2.955 0.648,-2.935M0.853,-2.62C0.847,-2.261 0.897,-2.156 0.92,-2.481C0.946,-2.841 0.941,-2.946 0.901,-2.96C0.872,-2.97 0.857,-2.865 0.853,-2.62M-0.842,-2.84C-0.842,-2.809 -0.826,-2.793 -0.805,-2.806C-0.785,-2.818 -0.768,-2.844 -0.768,-2.863C-0.768,-2.882 -0.785,-2.898 -0.805,-2.898C-0.826,-2.898 -0.842,-2.872 -0.842,-2.84M1.371,-2.699C1.366,-2.61 1.38,-2.525 1.402,-2.512C1.423,-2.499 1.438,-2.501 1.434,-2.518C1.43,-2.535 1.44,-2.595 1.456,-2.653C1.477,-2.726 1.47,-2.772 1.432,-2.81C1.386,-2.856 1.378,-2.842 1.371,-2.699M0.666,-2.769C0.666,-2.739 0.683,-2.714 0.703,-2.714C0.723,-2.714 0.74,-2.739 0.74,-2.769C0.74,-2.799 0.723,-2.824 0.703,-2.824C0.683,-2.824 0.666,-2.799 0.666,-2.769M3.205,-2.785C3.205,-2.764 3.222,-2.757 3.242,-2.769C3.262,-2.781 3.278,-2.799 3.278,-2.808C3.278,-2.817 3.262,-2.824 3.242,-2.824C3.222,-2.824 3.205,-2.807 3.205,-2.785M-2.406,-2.751C-2.418,-2.73 -2.411,-2.714 -2.389,-2.714C-2.368,-2.714 -2.351,-2.73 -2.351,-2.751C-2.351,-2.771 -2.358,-2.787 -2.367,-2.787C-2.376,-2.787 -2.393,-2.771 -2.406,-2.751M1.071,-2.748C1.071,-2.727 1.088,-2.72 1.108,-2.732C1.128,-2.745 1.145,-2.762 1.145,-2.771C1.145,-2.78 1.128,-2.787 1.108,-2.787C1.088,-2.787 1.071,-2.77 1.071,-2.748M-0.474,-2.617C-0.474,-2.533 -0.461,-2.492 -0.441,-2.513C-0.386,-2.57 -0.378,-2.724 -0.428,-2.741C-0.46,-2.752 -0.474,-2.713 -0.474,-2.617M-0.992,-2.712C-0.998,-2.682 -0.999,-2.478 -0.994,-2.274C-0.99,-2.118 -0.979,-2.083 -0.945,-2.118C-0.892,-2.171 -0.898,-2.637 -0.952,-2.692C-0.973,-2.712 -0.991,-2.721 -0.992,-2.712M0.335,-2.661C0.335,-2.632 0.352,-2.598 0.372,-2.585C0.392,-2.573 0.409,-2.596 0.409,-2.638C0.409,-2.68 0.392,-2.714 0.372,-2.714C0.352,-2.714 0.335,-2.69 0.335,-2.661M3.193,-2.662C3.182,-2.633 3.197,-2.6 3.226,-2.589C3.261,-2.576 3.278,-2.593 3.278,-2.641C3.278,-2.725 3.222,-2.738 3.193,-2.662M-2.167,-2.603C-2.167,-2.583 -2.15,-2.567 -2.13,-2.567C-2.109,-2.567 -2.093,-2.583 -2.093,-2.603C-2.093,-2.624 -2.109,-2.64 -2.13,-2.64C-2.15,-2.64 -2.167,-2.624 -2.167,-2.603M0.648,-2.603C0.635,-2.583 0.651,-2.567 0.683,-2.567C0.714,-2.567 0.74,-2.583 0.74,-2.603C0.74,-2.624 0.724,-2.64 0.705,-2.64C0.686,-2.64 0.66,-2.624 0.648,-2.603M-1.983,-2.324C-1.983,-2.117 -1.971,-2.049 -1.937,-2.061C-1.907,-2.071 -1.892,-2.142 -1.895,-2.257C-1.901,-2.56 -1.908,-2.603 -1.946,-2.603C-1.967,-2.603 -1.983,-2.486 -1.983,-2.324M1.071,-2.53C1.071,-2.461 1.081,-2.451 1.115,-2.486C1.15,-2.52 1.15,-2.54 1.115,-2.574C1.081,-2.608 1.071,-2.598 1.071,-2.53M-1.222,-2.542C-1.236,-2.529 -1.247,-2.486 -1.247,-2.447C-1.247,-2.352 -1.158,-2.386 -1.143,-2.487C-1.132,-2.564 -1.172,-2.592 -1.222,-2.542M-0.621,-2.493C-0.621,-2.446 -0.603,-2.419 -0.575,-2.429C-0.55,-2.437 -0.529,-2.466 -0.529,-2.493C-0.529,-2.52 -0.55,-2.549 -0.575,-2.557C-0.603,-2.567 -0.621,-2.54 -0.621,-2.493M2.169,-2.291C2.156,-2.149 2.152,-2.026 2.16,-2.018C2.2,-1.977 2.214,-2.065 2.204,-2.296L2.193,-2.548L2.169,-2.291ZM4.749,-2.474C4.724,-2.443 4.712,-2.408 4.724,-2.397C4.735,-2.386 4.763,-2.411 4.785,-2.453C4.833,-2.543 4.816,-2.553 4.749,-2.474M-0.842,-2.417C-0.842,-2.376 -0.826,-2.352 -0.805,-2.364C-0.785,-2.377 -0.768,-2.411 -0.768,-2.44C-0.768,-2.469 -0.785,-2.493 -0.805,-2.493C-0.826,-2.493 -0.842,-2.459 -0.842,-2.417M0.372,-2.454C0.372,-2.433 0.389,-2.425 0.409,-2.438C0.429,-2.45 0.446,-2.468 0.446,-2.477C0.446,-2.486 0.429,-2.493 0.409,-2.493C0.389,-2.493 0.372,-2.475 0.372,-2.454M0.654,-2.432C0.612,-2.389 0.627,-2.346 0.685,-2.346C0.715,-2.346 0.74,-2.371 0.74,-2.401C0.74,-2.459 0.696,-2.474 0.654,-2.432M-1.769,-2.4C-1.798,-2.371 -1.757,-2.199 -1.721,-2.199C-1.703,-2.199 -1.688,-2.248 -1.688,-2.309C-1.688,-2.411 -1.721,-2.448 -1.769,-2.4M1.071,-2.381C1.071,-2.359 1.088,-2.352 1.108,-2.364C1.128,-2.377 1.145,-2.394 1.145,-2.403C1.145,-2.412 1.128,-2.419 1.108,-2.419C1.088,-2.419 1.071,-2.402 1.071,-2.381M-0.621,-2.309C-0.621,-2.269 -0.607,-2.236 -0.588,-2.236C-0.547,-2.236 -0.509,-2.331 -0.538,-2.361C-0.582,-2.405 -0.621,-2.381 -0.621,-2.309M3.194,-2.359C3.166,-2.331 3.197,-2.272 3.24,-2.272C3.257,-2.272 3.28,-2.297 3.292,-2.327C3.313,-2.382 3.24,-2.406 3.194,-2.359M-2.167,-2.289C-2.167,-2.257 -2.15,-2.241 -2.13,-2.254C-2.109,-2.266 -2.093,-2.292 -2.093,-2.311C-2.093,-2.33 -2.109,-2.346 -2.13,-2.346C-2.15,-2.346 -2.167,-2.32 -2.167,-2.289M-1.21,-2.291C-1.21,-2.26 -1.193,-2.236 -1.173,-2.236C-1.153,-2.236 -1.136,-2.26 -1.136,-2.291C-1.136,-2.321 -1.153,-2.346 -1.173,-2.346C-1.193,-2.346 -1.21,-2.321 -1.21,-2.291M-0.474,-2.219C-0.474,-2.15 -0.458,-2.082 -0.437,-2.07C-0.415,-2.056 -0.401,-2.106 -0.401,-2.197C-0.401,-2.279 -0.417,-2.346 -0.437,-2.346C-0.458,-2.346 -0.474,-2.289 -0.474,-2.219M-0.143,-2.239C-0.143,-2.159 -0.129,-2.133 -0.092,-2.147C-0.062,-2.159 -0.049,-2.197 -0.059,-2.238C-0.091,-2.358 -0.143,-2.358 -0.143,-2.239M2.478,-2.236C2.478,-2.165 2.485,-2.136 2.494,-2.171C2.504,-2.207 2.504,-2.265 2.494,-2.3C2.485,-2.335 2.478,-2.306 2.478,-2.236M4.535,-2.256C4.487,-2.209 4.462,-2.163 4.48,-2.153C4.497,-2.143 4.55,-2.182 4.597,-2.24C4.699,-2.366 4.657,-2.377 4.535,-2.256M1.358,-2.079C1.342,-1.864 1.359,-1.749 1.403,-1.776C1.441,-1.8 1.44,-2.23 1.402,-2.254C1.386,-2.264 1.366,-2.185 1.358,-2.079M1.071,-2.125C1.071,-2.085 1.086,-2.051 1.104,-2.051C1.123,-2.051 1.129,-2.085 1.118,-2.125C1.108,-2.166 1.093,-2.199 1.085,-2.199C1.077,-2.199 1.071,-2.166 1.071,-2.125M0.501,-2.088C0.514,-2.067 0.54,-2.06 0.559,-2.072C0.61,-2.103 0.6,-2.125 0.535,-2.125C0.504,-2.125 0.489,-2.108 0.501,-2.088M1.2,-2.088C1.187,-2.068 1.212,-2.051 1.255,-2.051C1.298,-2.051 1.323,-2.068 1.31,-2.088C1.298,-2.109 1.273,-2.125 1.255,-2.125C1.237,-2.125 1.212,-2.109 1.2,-2.088M-1.21,-2.035C-1.21,-2.004 -1.193,-1.978 -1.173,-1.978C-1.153,-1.978 -1.136,-1.994 -1.136,-2.013C-1.136,-2.032 -1.153,-2.057 -1.173,-2.07C-1.193,-2.082 -1.21,-2.067 -1.21,-2.035M3.227,-2.029C3.212,-1.99 3.232,-1.94 3.28,-1.895L3.357,-1.823L3.346,-1.944C3.332,-2.077 3.264,-2.126 3.227,-2.029M1.807,-1.957C1.807,-1.904 1.823,-1.873 1.844,-1.886C1.864,-1.898 1.88,-1.941 1.88,-1.98C1.88,-2.02 1.864,-2.051 1.844,-2.051C1.823,-2.051 1.807,-2.009 1.807,-1.957M-0.143,-1.923C-0.143,-1.892 -0.126,-1.868 -0.106,-1.868C-0.086,-1.868 -0.069,-1.892 -0.069,-1.923C-0.069,-1.953 -0.086,-1.978 -0.106,-1.978C-0.126,-1.978 -0.143,-1.953 -0.143,-1.923M0.114,-1.939C0.114,-1.918 0.131,-1.91 0.151,-1.923C0.172,-1.935 0.188,-1.953 0.188,-1.962C0.188,-1.971 0.172,-1.978 0.151,-1.978C0.131,-1.978 0.114,-1.96 0.114,-1.939M1.218,-1.941C1.218,-1.921 1.235,-1.904 1.255,-1.904C1.275,-1.904 1.292,-1.921 1.292,-1.941C1.292,-1.961 1.275,-1.978 1.255,-1.978C1.235,-1.978 1.218,-1.961 1.218,-1.941M-1.504,-1.847C-1.504,-1.815 -1.488,-1.8 -1.467,-1.812C-1.447,-1.825 -1.431,-1.851 -1.431,-1.87C-1.431,-1.889 -1.447,-1.904 -1.467,-1.904C-1.488,-1.904 -1.504,-1.879 -1.504,-1.847M-0.971,-1.868C-0.958,-1.847 -0.941,-1.831 -0.932,-1.831C-0.923,-1.831 -0.916,-1.847 -0.916,-1.868C-0.916,-1.888 -0.933,-1.904 -0.955,-1.904C-0.976,-1.904 -0.983,-1.888 -0.971,-1.868M0.225,-1.829C0.225,-1.787 0.241,-1.763 0.26,-1.775C0.279,-1.787 0.286,-1.821 0.274,-1.85C0.245,-1.926 0.225,-1.918 0.225,-1.829M-0.587,-1.858C-0.61,-1.786 -0.607,-1.721 -0.581,-1.679C-0.559,-1.644 -0.549,-1.665 -0.548,-1.748C-0.548,-1.814 -0.556,-1.868 -0.566,-1.868C-0.576,-1.868 -0.586,-1.863 -0.587,-1.858M0.515,-1.858C0.489,-1.799 0.5,-1.61 0.529,-1.619C0.578,-1.636 0.603,-1.868 0.556,-1.868C0.536,-1.868 0.517,-1.863 0.515,-1.858M-0.456,-1.794C-0.468,-1.774 -0.453,-1.757 -0.421,-1.757C-0.39,-1.757 -0.364,-1.774 -0.364,-1.794C-0.364,-1.814 -0.379,-1.831 -0.398,-1.831C-0.417,-1.831 -0.443,-1.814 -0.456,-1.794M1.218,-1.794C1.218,-1.774 1.235,-1.757 1.255,-1.757C1.275,-1.757 1.292,-1.774 1.292,-1.794C1.292,-1.814 1.275,-1.831 1.255,-1.831C1.235,-1.831 1.218,-1.814 1.218,-1.794M1.807,-1.794C1.807,-1.774 1.822,-1.757 1.841,-1.757C1.861,-1.757 1.886,-1.774 1.899,-1.794C1.911,-1.814 1.896,-1.831 1.864,-1.831C1.833,-1.831 1.807,-1.814 1.807,-1.794M-0.958,-1.787C-0.985,-1.725 -0.969,-1.5 -0.937,-1.511C-0.89,-1.527 -0.876,-1.751 -0.921,-1.779C-0.938,-1.79 -0.955,-1.793 -0.958,-1.787M-0.842,-1.759C-0.842,-1.74 -0.828,-1.716 -0.811,-1.706C-0.795,-1.695 -0.781,-1.711 -0.781,-1.74C-0.781,-1.77 -0.795,-1.794 -0.811,-1.794C-0.828,-1.794 -0.842,-1.778 -0.842,-1.759M0.372,-1.757C0.372,-1.737 0.389,-1.72 0.409,-1.72C0.429,-1.72 0.446,-1.737 0.446,-1.757C0.446,-1.777 0.429,-1.794 0.409,-1.794C0.389,-1.794 0.372,-1.777 0.372,-1.757M0.666,-1.757C0.666,-1.737 0.683,-1.72 0.703,-1.72C0.723,-1.72 0.74,-1.737 0.74,-1.757C0.74,-1.777 0.723,-1.794 0.703,-1.794C0.683,-1.794 0.666,-1.777 0.666,-1.757M0.837,-1.739C0.849,-1.708 0.865,-1.684 0.873,-1.684C0.881,-1.684 0.887,-1.708 0.887,-1.739C0.887,-1.769 0.871,-1.794 0.851,-1.794C0.832,-1.794 0.825,-1.769 0.837,-1.739M-0.112,-1.73C-0.13,-1.643 -0.129,-1.5 -0.11,-1.5C-0.098,-1.501 -0.064,-1.516 -0.035,-1.534C0.008,-1.561 0.009,-1.578 -0.029,-1.624C-0.055,-1.655 -0.065,-1.698 -0.052,-1.719C-0.039,-1.74 -0.046,-1.757 -0.067,-1.757C-0.089,-1.757 -0.109,-1.745 -0.112,-1.73M1.071,-1.72C1.071,-1.7 1.088,-1.684 1.108,-1.684C1.128,-1.684 1.145,-1.7 1.145,-1.72C1.145,-1.741 1.128,-1.757 1.108,-1.757C1.088,-1.757 1.071,-1.741 1.071,-1.72M1.24,-1.689C1.224,-1.663 1.221,-1.632 1.233,-1.62C1.266,-1.587 1.302,-1.635 1.284,-1.689C1.271,-1.726 1.263,-1.726 1.24,-1.689M2.942,-1.645C2.917,-1.573 2.962,-1.397 2.993,-1.448C3.007,-1.47 3.005,-1.535 2.989,-1.593C2.971,-1.662 2.954,-1.68 2.942,-1.645M3.223,-1.647C3.236,-1.627 3.253,-1.61 3.262,-1.61C3.271,-1.61 3.278,-1.627 3.278,-1.647C3.278,-1.667 3.261,-1.684 3.24,-1.684C3.218,-1.684 3.211,-1.667 3.223,-1.647M0.372,-1.589C0.372,-1.558 0.389,-1.542 0.409,-1.555C0.429,-1.567 0.446,-1.593 0.446,-1.612C0.446,-1.631 0.429,-1.647 0.409,-1.647C0.389,-1.647 0.372,-1.621 0.372,-1.589M1.807,-1.61C1.807,-1.59 1.823,-1.573 1.844,-1.573C1.864,-1.573 1.88,-1.59 1.88,-1.61C1.88,-1.63 1.864,-1.647 1.844,-1.647C1.823,-1.647 1.807,-1.63 1.807,-1.61M1.352,-1.555C1.364,-1.525 1.38,-1.5 1.388,-1.5C1.396,-1.5 1.402,-1.525 1.402,-1.555C1.402,-1.585 1.386,-1.61 1.367,-1.61C1.347,-1.61 1.34,-1.585 1.352,-1.555M0.52,-1.512C0.519,-1.488 0.509,-1.443 0.497,-1.411C0.485,-1.379 0.491,-1.353 0.511,-1.353C0.566,-1.353 0.591,-1.443 0.553,-1.503C0.533,-1.535 0.52,-1.538 0.52,-1.512M0.681,-1.425C0.7,-1.261 0.74,-1.245 0.74,-1.402C0.74,-1.476 0.724,-1.537 0.704,-1.537C0.684,-1.537 0.674,-1.486 0.681,-1.425M2.506,-1.442C2.506,-1.411 2.523,-1.395 2.543,-1.408C2.564,-1.421 2.571,-1.447 2.559,-1.465C2.528,-1.517 2.506,-1.507 2.506,-1.442M1.071,-1.332C1.071,-1.254 1.086,-1.21 1.108,-1.224C1.128,-1.236 1.145,-1.295 1.145,-1.355C1.145,-1.414 1.128,-1.463 1.108,-1.463C1.088,-1.463 1.071,-1.404 1.071,-1.332M1.999,-1.354C2.002,-1.245 2.079,-1.177 2.122,-1.246C2.159,-1.305 2.105,-1.463 2.048,-1.463C2.014,-1.463 1.997,-1.425 1.999,-1.354M1.353,-1.402C1.315,-1.363 1.324,-1.242 1.365,-1.242C1.386,-1.242 1.402,-1.284 1.402,-1.334C1.402,-1.43 1.394,-1.442 1.353,-1.402M1.736,-1.311C1.734,-1.277 1.707,-1.24 1.676,-1.228C1.644,-1.216 1.63,-1.187 1.644,-1.165C1.659,-1.14 1.678,-1.138 1.692,-1.159C1.705,-1.179 1.733,-1.201 1.756,-1.209C1.781,-1.218 1.786,-1.252 1.768,-1.297C1.745,-1.354 1.738,-1.357 1.736,-1.311M2.506,-1.297C2.506,-1.267 2.512,-1.242 2.52,-1.242C2.528,-1.242 2.544,-1.267 2.556,-1.297C2.568,-1.328 2.561,-1.353 2.542,-1.353C2.522,-1.353 2.506,-1.328 2.506,-1.297M0.473,-1.272C0.463,-1.244 0.466,-1.156 0.48,-1.076L0.506,-0.929L0.535,-1.089C0.563,-1.244 0.516,-1.383 0.473,-1.272M3.558,-1.258C3.516,-1.148 3.536,-1.121 3.61,-1.187C3.65,-1.224 3.683,-1.268 3.683,-1.285C3.683,-1.34 3.581,-1.318 3.558,-1.258M2.393,-1.27C2.369,-1.194 2.372,-1.132 2.399,-1.132C2.417,-1.132 2.432,-1.165 2.432,-1.205C2.432,-1.264 2.405,-1.309 2.393,-1.27M1.347,-1.132C1.334,-1.111 1.342,-1.095 1.363,-1.095C1.385,-1.095 1.402,-1.111 1.402,-1.132C1.402,-1.152 1.395,-1.169 1.386,-1.169C1.377,-1.169 1.36,-1.152 1.347,-1.132M0.694,-1.066C0.683,-1.021 0.687,-0.976 0.704,-0.966C0.751,-0.937 0.771,-0.994 0.742,-1.075C0.717,-1.143 0.715,-1.142 0.694,-1.066M1.623,-1.058C1.623,-1.038 1.639,-1.021 1.66,-1.021C1.68,-1.021 1.697,-1.038 1.697,-1.058C1.697,-1.078 1.68,-1.095 1.66,-1.095C1.639,-1.095 1.623,-1.078 1.623,-1.058M2.513,-0.929C2.514,-0.869 2.522,-0.848 2.531,-0.884C2.541,-0.92 2.54,-0.97 2.53,-0.995C2.52,-1.019 2.512,-0.99 2.513,-0.929M2.38,-0.953C2.364,-0.927 2.361,-0.896 2.373,-0.884C2.406,-0.851 2.442,-0.9 2.425,-0.953C2.412,-0.99 2.403,-0.99 2.38,-0.953M1.789,-0.875C1.762,-0.791 1.795,-0.716 1.846,-0.747C1.891,-0.774 1.891,-0.9 1.846,-0.928C1.828,-0.939 1.802,-0.916 1.789,-0.875M1.354,-0.86C1.339,-0.822 1.335,-0.781 1.346,-0.771C1.38,-0.737 1.409,-0.792 1.395,-0.862C1.382,-0.926 1.38,-0.926 1.354,-0.86M1.699,-0.779C1.701,-0.736 1.71,-0.728 1.722,-0.757C1.732,-0.783 1.731,-0.815 1.719,-0.828C1.707,-0.84 1.698,-0.818 1.699,-0.779M2.38,-0.805C2.346,-0.75 2.452,-0.624 2.495,-0.667C2.51,-0.682 2.504,-0.706 2.483,-0.72C2.461,-0.734 2.436,-0.769 2.426,-0.799C2.412,-0.841 2.403,-0.843 2.38,-0.805M3.185,-0.798C3.147,-0.737 3.181,-0.729 3.234,-0.786C3.26,-0.814 3.265,-0.837 3.245,-0.837C3.226,-0.837 3.198,-0.82 3.185,-0.798M1.807,-0.619C1.807,-0.577 1.823,-0.543 1.844,-0.543C1.864,-0.543 1.88,-0.567 1.88,-0.596C1.88,-0.625 1.864,-0.659 1.844,-0.672C1.823,-0.684 1.807,-0.66 1.807,-0.619M1.699,-0.559C1.701,-0.516 1.71,-0.507 1.722,-0.536C1.732,-0.563 1.731,-0.594 1.719,-0.607C1.707,-0.619 1.698,-0.597 1.699,-0.559" style="fill:rgb(35,31,32);"/>
            </g>
        </g>
    </g>
</svg>
