<?xml version="1.0" encoding="UTF-8" standalone="no"?>
<svg
   width="100%"
   height="100%"
   viewBox="0 0 44 53"
   version="1.1"
   xml:space="preserve"
   style="fill-rule:evenodd;clip-rule:evenodd;stroke-linejoin:round;stroke-miterlimit:2;"
   id="svg12"
   sodipodi:docname="flagnostaroutline.svg"
   inkscape:version="1.2.1 (9c6d41e410, 2022-07-14)"
   xmlns:inkscape="http://www.inkscape.org/namespaces/inkscape"
   xmlns:sodipodi="http://sodipodi.sourceforge.net/DTD/sodipodi-0.dtd"
   xmlns="http://www.w3.org/2000/svg"
   xmlns:svg="http://www.w3.org/2000/svg"><defs
   id="defs16" /><sodipodi:namedview
   id="namedview14"
   pagecolor="#ffffff"
   bordercolor="#666666"
   borderopacity="1.0"
   inkscape:showpageshadow="2"
   inkscape:pageopacity="0.0"
   inkscape:pagecheckerboard="0"
   inkscape:deskcolor="#d1d1d1"
   showgrid="false"
   inkscape:zoom="16.792453"
   inkscape:cx="16.733708"
   inkscape:cy="26.529775"
   inkscape:window-width="1920"
   inkscape:window-height="1051"
   inkscape:window-x="-9"
   inkscape:window-y="-9"
   inkscape:window-maximized="1"
   inkscape:current-layer="svg12" />
    <g
   transform="matrix(1,0,0,1,-889.511,-1637.57)"
   id="g10">
        <g
   transform="matrix(2.16634,0,0,2.16634,0,1362.44)"
   id="g4">
            <path
   d="M418.218,129.078L411.922,130.901L411.922,140.205L412.614,150.269C412.614,150.269 413.335,150.54 413.589,150.547C413.904,150.556 414.821,150.269 414.821,150.269L415.183,148.146L416.399,142.259L427.308,140.895L429.227,139.348L428.377,128.896L426.938,127.755L418.218,129.078Z"
   style="fill:none;fill-rule:nonzero"
   id="path2" />
        </g>
        <g
   transform="matrix(2.66667,0,0,2.66667,894.242,1641.61)"
   id="g8">
            <path
   d="M0,16.69C0.279,16.779 0.316,16.715 0.261,16.238C0.185,15.591 0.022,15.342 0.022,15.876C0.022,16.303 -0.315,16.587 -0.347,16.186C-0.359,16.037 -0.383,15.818 -0.401,15.698C-0.419,15.579 -0.356,15.376 -0.261,15.25C-0.139,15.089 -0.162,14.973 -0.336,14.866C-0.549,14.734 -0.547,14.68 -0.316,14.488C-0.168,14.365 0.06,14.122 0.192,13.949C0.412,13.659 0.391,13.642 -0.078,13.733C-0.357,13.787 -0.488,13.786 -0.369,13.729C-0.249,13.673 -0.15,13.458 -0.149,13.25C-0.147,12.976 -0.106,12.937 0.002,13.107C0.111,13.28 0.168,13.235 0.223,12.934C0.319,12.399 0.209,11.89 0.021,12.006C-0.24,12.167 -0.324,11.813 -0.428,10.109C-0.525,8.53 -0.513,8.442 -0.187,8.442C0.061,8.442 0.178,8.299 0.232,7.928C0.314,7.371 -0.093,7.029 -0.353,7.437C-0.439,7.575 -0.495,7.414 -0.496,7.014C-0.499,6.51 -0.442,6.39 -0.239,6.468C-0.048,6.541 0.022,6.446 0.022,6.114C0.022,5.586 -0.11,5.543 -0.431,5.966C-0.632,6.23 -0.666,6.134 -0.691,5.227C-0.749,3.242 -0.602,2.14 -0.24,1.84C-0.119,1.739 0.582,1.477 1.318,1.259C2.385,0.942 3.156,0.851 5.113,0.815C6.464,0.789 7.701,0.698 7.861,0.611C8.022,0.525 8.606,0.402 9.16,0.337C9.712,0.272 10.483,0.119 10.872,-0.003C11.805,-0.295 11.723,-0.307 12.182,0.182L12.585,0.611L12.159,0.773C11.569,0.997 9.523,1.288 7.147,1.485C4.331,1.718 3.68,1.828 2.89,2.212L2.194,2.549L2.977,2.451C5.552,2.128 6.887,1.992 8.277,1.914C9.665,1.836 11.625,1.585 12.361,1.391C12.58,1.334 12.63,1.642 12.674,3.275C12.702,4.348 12.749,5.895 12.778,6.711C12.807,7.527 12.771,8.357 12.697,8.554C12.6,8.817 12.178,9.033 11.116,9.359C9.366,9.899 9.024,9.958 6.267,10.199C2.014,10.571 2.184,10.57 2.16,10.228C2.105,9.462 2.023,9.137 1.886,9.137C1.804,9.137 1.749,10.213 1.763,11.527C1.777,12.841 1.773,13.956 1.755,14.003C1.737,14.051 1.708,14.726 1.692,15.504C1.661,16.989 1.422,17.677 0.87,17.479C0.106,17.206 0,16.69 0,16.69M1.748,18.026C2.144,17.909 2.57,18.026 2.57,17.206L2.934,16.017L2.977,14.463L2.977,13.549C2.977,13.046 3.05,12.442 3.141,12.205C3.317,11.741 3.505,11.705 6.813,11.496C9.034,11.356 13.22,10.291 13.376,9.827C13.409,9.73 13.658,9.536 13.93,9.396L14.425,9.14L14.35,7.184C14.135,1.491 14.072,0.486 13.892,-0.114C13.784,-0.474 13.61,-0.769 13.503,-0.769C13.398,-0.769 13.039,-0.949 12.706,-1.169C12.372,-1.389 11.944,-1.543 11.753,-1.51C11.562,-1.476 10.792,-1.29 10.043,-1.096C9.294,-0.902 8.588,-0.779 8.476,-0.822C8.363,-0.865 7.765,-0.792 7.145,-0.659C6.525,-0.526 5.236,-0.408 4.28,-0.398C2.107,-0.372 -1.033,0.311 -1.606,0.884C-1.806,1.085 -1.832,6.004 -1.66,11.223C-1.576,13.786 -1.536,14.16 -1.536,15.563L-1.536,17.206C-1.45,18.156 0.212,18.204 0.818,18.225C1.023,18.233 1.552,18.086 1.748,18.026M0.217,2.864C0.085,2.948 0.032,3.103 0.098,3.209C0.17,3.327 0.077,3.402 -0.141,3.402C-0.4,3.402 -0.499,3.514 -0.499,3.808C-0.499,4.294 -0.346,4.48 -0.084,4.313C0.022,4.245 0.188,4.188 0.283,4.187C0.379,4.186 0.466,3.988 0.476,3.75C0.486,3.511 0.553,3.179 0.625,3.011C0.765,2.682 0.599,2.622 0.217,2.864M-0.037,4.763C-0.365,5.125 -0.405,5.314 -0.152,5.314C-0.056,5.314 0.022,5.225 0.022,5.116C0.022,5.007 0.159,4.814 0.327,4.687C0.494,4.56 0.545,4.453 0.44,4.451C0.336,4.447 0.12,4.588 -0.037,4.763M1.76,7.052C1.76,7.434 1.838,7.747 1.934,7.747C2.029,7.747 2.108,7.434 2.108,7.052C2.108,6.669 2.029,6.357 1.934,6.357C1.838,6.357 1.76,6.669 1.76,7.052M-0.239,6.878C-0.18,6.974 -0.019,7.052 0.119,7.052C0.258,7.052 0.37,6.974 0.37,6.878C0.37,6.782 0.209,6.704 0.012,6.704C-0.184,6.704 -0.297,6.782 -0.239,6.878M0.957,16.354C0.887,16.543 0.746,16.755 0.643,16.825C0.537,16.898 0.617,16.954 0.829,16.955C1.252,16.958 1.453,16.609 1.232,16.251C1.114,16.061 1.058,16.082 0.957,16.354"
   id="path6" />
        </g>
    </g>
</svg>
