<?xml version="1.0" encoding="UTF-8" standalone="no"?>
<!DOCTYPE svg PUBLIC "-//W3C//DTD SVG 1.1//EN" "http://www.w3.org/Graphics/SVG/1.1/DTD/svg11.dtd">
<svg width="100%" height="100%" viewBox="0 0 61 41" version="1.1" xmlns="http://www.w3.org/2000/svg" xmlns:xlink="http://www.w3.org/1999/xlink" xml:space="preserve" xmlns:serif="http://www.serif.com/" style="fill-rule:evenodd;clip-rule:evenodd;stroke-linejoin:round;stroke-miterlimit:2;">
    <g transform="matrix(1,0,0,1,-980.088,-1663.45)">
        <g transform="matrix(2.66667,0,0,2.66667,1010.87,1664.22)">
            <path d="M0,14.626L8.335,12.149L10.701,7.635L10.282,6.631C9.876,6.106 9.403,5.521 9.121,5.209C7.546,3.467 6.698,2.763 6.171,2.762C5.793,2.761 5.383,2.531 5.064,2.141C4.313,1.225 3.366,0.591 2.294,0.276L-1.526,0.088L-2.566,0C-3.535,0.325 -4.31,0.782 -5.015,1.471C-5.413,1.86 -5.739,2.235 -5.739,2.305C-5.739,2.532 -6.104,2.771 -6.843,3.028C-7.75,3.343 -8.282,3.69 -8.439,4.071C-8.507,4.232 -8.612,4.397 -8.674,4.438C-8.736,4.477 -8.905,4.692 -9.049,4.916C-9.194,5.139 -9.485,5.526 -9.698,5.777C-10.001,6.136 -10.537,6.831 -11.048,7.524L-9.943,10.551L-8.188,12.849L0,14.626Z" style="fill:rgb(187,98,40);"/>
        </g>
        <g transform="matrix(2.66667,0,0,2.66667,998.496,1673.98)">
            <path d="M0,0.2C0.055,0.2 0.1,0.155 0.1,0.1C0.1,0.045 0.055,0 0,0C-0.055,0 -0.1,0.045 -0.1,0.1C-0.1,0.155 -0.055,0.2 0,0.2" style="fill:rgb(35,31,32);fill-rule:nonzero;"/>
        </g>
        <g transform="matrix(2.66667,0,0,2.66667,996.898,1680.57)">
            <path d="M0,0.027C-0.195,-0.099 -0.328,-0.099 -0.25,0.027C-0.216,0.082 -0.112,0.126 -0.019,0.125C0.126,0.124 0.129,0.111 0,0.027" style="fill:rgb(35,31,32);fill-rule:nonzero;"/>
        </g>
        <g transform="matrix(2.66667,0,0,2.66667,997.43,1676.63)">
            <path d="M0,-0.078C-0.137,-0.078 -0.193,-0.055 -0.125,-0.028C-0.056,0 0.056,0 0.125,-0.028C0.193,-0.055 0.137,-0.078 0,-0.078" style="fill:rgb(35,31,32);fill-rule:nonzero;"/>
        </g>
        <g transform="matrix(2.53307,-0.833462,-0.833462,-2.53307,1000.99,1681.48)">
            <path d="M-0.019,-0.001C0.063,0.041 0.115,0.105 0.097,0.14C0.078,0.176 0.026,0.187 -0.019,0.163C-0.066,0.139 -0.118,0.076 -0.136,0.022C-0.156,-0.037 -0.11,-0.046 -0.019,-0.001" style="fill:rgb(35,31,32);fill-rule:nonzero;"/>
        </g>
        <g transform="matrix(2.66667,0,0,2.66667,999.901,1677.11)">
            <path d="M0,0.287C0.026,0.313 0.074,0.265 0.107,0.18C0.174,0.004 0.117,-0.026 0.018,0.133C-0.018,0.191 -0.026,0.261 0,0.287" style="fill:rgb(35,31,32);fill-rule:nonzero;"/>
        </g>
        <g transform="matrix(2.66667,0,0,2.66667,1000.42,1688.16)">
            <path d="M0,-0.226C-0.074,-0.108 -0.084,-0.026 -0.024,-0.026C0.031,-0.026 0.076,0.042 0.076,0.124C0.076,0.206 0.147,0.274 0.233,0.274C0.348,0.274 0.381,0.191 0.357,-0.043C0.32,-0.424 0.171,-0.5 0,-0.226" style="fill:rgb(35,31,32);fill-rule:nonzero;"/>
        </g>
        <g transform="matrix(2.66667,0,0,2.66667,998.679,1678.72)">
            <path d="M0,-0.552C-0.036,-0.691 -0.048,-0.683 -0.057,-0.514C-0.064,-0.397 -0.136,-0.246 -0.218,-0.177C-0.301,-0.109 -0.368,-0.003 -0.367,0.06C-0.366,0.136 -0.342,0.139 -0.292,0.066C-0.251,0.008 -0.108,-0.116 0.028,-0.208C0.164,-0.301 0.224,-0.377 0.16,-0.377C0.097,-0.377 0.025,-0.456 0,-0.552" style="fill:rgb(35,31,32);fill-rule:nonzero;"/>
        </g>
        <g transform="matrix(2.66667,0,0,2.66667,999.702,1681.71)">
            <path d="M0,-0.172C-0.043,-0.073 -0.05,0.035 -0.016,0.07C0.086,0.171 0.168,0.029 0.121,-0.169C0.08,-0.343 0.074,-0.343 0,-0.172" style="fill:rgb(35,31,32);fill-rule:nonzero;"/>
        </g>
        <g transform="matrix(0.838243,-2.53149,-2.53149,-0.838243,1000.48,1679.1)">
            <path d="M-0.091,-0.109C0.094,-0.071 0.244,-0.03 0.24,-0.017C0.236,-0.006 0.086,0.024 -0.091,0.05C-0.351,0.087 -0.417,0.07 -0.422,-0.041C-0.427,-0.133 -0.316,-0.155 -0.091,-0.109" style="fill:rgb(35,31,32);fill-rule:nonzero;"/>
        </g>
        <g transform="matrix(2.66667,0,0,2.66667,1007.81,1685.14)">
            <path d="M0,0.658C0,0.417 -0.353,-0.145 -0.428,-0.024C-0.457,0.024 -0.373,0.241 -0.241,0.46C-0.066,0.749 0,0.803 0,0.658" style="fill:rgb(35,31,32);fill-rule:nonzero;"/>
        </g>
        <g transform="matrix(2.66667,0,0,2.66667,999.327,1675.61)">
            <path d="M0,-0.276C-0.061,-0.203 -0.078,-0.111 -0.039,-0.072C0,-0.033 -0.034,0.044 -0.115,0.099C-0.235,0.181 -0.227,0.194 -0.074,0.169C0.03,0.152 0.152,0.039 0.197,-0.083C0.292,-0.342 0.161,-0.47 0,-0.276" style="fill:rgb(35,31,32);fill-rule:nonzero;"/>
        </g>
        <g transform="matrix(-2.54709,-0.789597,-0.789597,2.54709,990.06,1694.17)">
            <path d="M-0.064,-0.21C-0.041,-0.203 -0.009,-0.145 0.007,-0.083C0.024,-0.02 -0.009,0.017 -0.064,-0C-0.12,-0.018 -0.152,-0.075 -0.136,-0.127C-0.12,-0.18 -0.087,-0.217 -0.064,-0.21" style="fill:rgb(35,31,32);fill-rule:nonzero;"/>
        </g>
        <g transform="matrix(2.66667,0,0,2.66667,985.114,1685.34)">
            <path d="M0,-0.15C-0.252,-0.058 -0.383,0.134 -0.194,0.134C-0.05,0.134 0.423,-0.115 0.424,-0.191C0.425,-0.284 0.348,-0.277 0,-0.15" style="fill:rgb(35,31,32);fill-rule:nonzero;"/>
        </g>
        <g transform="matrix(2.66667,0,0,2.66667,1010.5,1687.81)">
            <path d="M0,0.089C0.155,0.145 0.103,0.405 -0.063,0.405C-0.149,0.405 -0.19,0.452 -0.154,0.51C-0.11,0.582 -0.047,0.579 0.047,0.501C0.122,0.439 0.23,0.417 0.288,0.452C0.495,0.581 0.382,0.051 0.144,-0.219C0.011,-0.37 -0.127,-0.493 -0.163,-0.493C-0.199,-0.493 -0.198,-0.37 -0.16,-0.219C-0.123,-0.068 -0.051,0.071 0,0.089" style="fill:rgb(35,31,32);fill-rule:nonzero;"/>
        </g>
        <g transform="matrix(2.66667,0,0,2.66667,1014.87,1690.33)">
            <path d="M0,0.396C0.134,0.345 0.222,-0.04 0.1,-0.04C0.072,-0.04 0.05,0.008 0.05,0.066C0.05,0.124 0.005,0.144 -0.05,0.11C-0.105,0.076 -0.15,0.14 -0.15,0.251C-0.15,0.39 -0.103,0.436 0,0.396" style="fill:rgb(35,31,32);fill-rule:nonzero;"/>
        </g>
        <g transform="matrix(2.66667,0,0,2.66667,1007.97,1681.57)">
            <path d="M0,0.438C0.042,0.369 0.027,0.297 -0.035,0.276C-0.097,0.256 -0.125,0.182 -0.098,0.111C-0.071,0.042 -0.109,-0.066 -0.183,-0.127C-0.284,-0.21 -0.34,-0.196 -0.416,-0.068C-0.541,0.146 -0.129,0.648 0,0.438" style="fill:rgb(35,31,32);fill-rule:nonzero;"/>
        </g>
        <g transform="matrix(2.66667,0,0,2.66667,1009.55,1690.31)">
            <path d="M0,0.147C0.031,0.116 -0.025,0.061 -0.123,0.023C-0.265,-0.031 -0.277,-0.02 -0.179,0.079C-0.111,0.147 -0.031,0.178 0,0.147" style="fill:rgb(35,31,32);fill-rule:nonzero;"/>
        </g>
        <g transform="matrix(2.66667,0,0,2.66667,1012.88,1688.12)">
            <path d="M0,0.42C0.231,0.48 0.247,0.412 0.061,0.166C-0.111,-0.06 -0.2,-0.055 -0.2,0.18C-0.2,0.284 -0.11,0.391 0,0.42" style="fill:rgb(35,31,32);fill-rule:nonzero;"/>
        </g>
        <g transform="matrix(0,-2.66667,-2.66667,0,992.237,1676.91)">
            <path d="M-0.1,-0.1C-0.045,-0.134 0,-0.117 0,-0.062C0,-0.007 -0.045,0.066 -0.1,0.1C-0.155,0.134 -0.2,0.117 -0.2,0.061C-0.2,0.007 -0.155,-0.066 -0.1,-0.1" style="fill:rgb(35,31,32);fill-rule:nonzero;"/>
        </g>
        <g transform="matrix(0,-2.66667,-2.66667,0,992.504,1676.02)">
            <path d="M-0.086,-0.086C-0.003,-0.118 0.064,-0.105 0.064,-0.058C0.064,-0.01 -0.003,0.055 -0.086,0.086C-0.169,0.118 -0.236,0.105 -0.236,0.057C-0.236,0.01 -0.169,-0.054 -0.086,-0.086" style="fill:rgb(35,31,32);fill-rule:nonzero;"/>
        </g>
        <g transform="matrix(2.66667,0,0,2.66667,991.789,1677.8)">
            <path d="M0,0.036C0.072,0.065 0.158,0.061 0.191,0.028C0.225,-0.005 0.166,-0.029 0.06,-0.024C-0.056,-0.02 -0.08,0.004 0,0.036" style="fill:rgb(35,31,32);fill-rule:nonzero;"/>
        </g>
        <g transform="matrix(0,2.66667,2.66667,0,992.371,1683.3)">
            <path d="M0.1,-0.1C0.155,-0.1 0.2,-0.055 0.2,0C0.2,0.055 0.155,0.1 0.1,0.1C0.045,0.1 0,0.055 0,0C0,-0.055 0.045,-0.1 0.1,-0.1" style="fill:rgb(35,31,32);fill-rule:nonzero;"/>
        </g>
        <g transform="matrix(2.66667,0,0,2.66667,992.371,1681.89)">
            <path d="M0,-0.126C0,-0.319 -0.39,-0.309 -0.465,-0.115C-0.497,-0.03 -0.499,0.064 -0.469,0.094C-0.37,0.193 0,0.02 0,-0.126" style="fill:rgb(35,31,32);fill-rule:nonzero;"/>
        </g>
        <g transform="matrix(2.66667,0,0,2.66667,1002.25,1685.67)">
            <path d="M0,-0.894C0.124,-0.971 0.028,-1.387 -0.114,-1.387C-0.164,-1.387 -0.18,-1.324 -0.151,-1.247C-0.121,-1.171 -0.145,-1.078 -0.203,-1.042C-0.262,-1.005 -0.31,-0.875 -0.31,-0.752C-0.31,-0.629 -0.359,-0.48 -0.418,-0.42C-0.495,-0.343 -0.482,-0.188 -0.373,0.124C-0.289,0.364 -0.214,0.493 -0.206,0.411C-0.199,0.328 -0.175,0.016 -0.152,-0.282C-0.129,-0.581 -0.061,-0.856 0,-0.894" style="fill:rgb(35,31,32);fill-rule:nonzero;"/>
        </g>
        <g transform="matrix(2.66667,0,0,2.66667,987.349,1679.32)">
            <path d="M0,0.51C0.173,0.402 0.235,0.409 0.395,0.554C0.569,0.712 0.585,0.712 0.585,0.561C0.585,0.47 0.629,0.396 0.682,0.396C0.735,0.396 0.749,0.317 0.713,0.221C0.657,0.073 0.671,0.066 0.805,0.174C0.91,0.259 1.1,0.28 1.375,0.236C1.946,0.144 2.014,-0.027 1.466,0.007C1.224,0.022 0.976,0.003 0.914,-0.035C0.853,-0.073 0.731,-0.077 0.644,-0.043C0.557,-0.01 0.485,-0.032 0.485,-0.093C0.485,-0.154 0.407,-0.202 0.31,-0.2C0.144,-0.197 0.144,-0.191 0.31,-0.064C0.572,0.134 0.522,0.263 0.182,0.263C-0.134,0.263 -0.403,0.44 -0.277,0.565C-0.237,0.605 -0.112,0.58 0,0.51" style="fill:rgb(35,31,32);fill-rule:nonzero;"/>
        </g>
        <g transform="matrix(0,2.66667,2.66667,0,987.711,1681.44)">
            <path d="M0.1,-0.1C0.155,-0.134 0.2,-0.117 0.2,-0.062C0.2,-0.007 0.155,0.066 0.1,0.1C0.045,0.134 0,0.117 0,0.061C0,0.007 0.045,-0.066 0.1,-0.1" style="fill:rgb(35,31,32);fill-rule:nonzero;"/>
        </g>
        <g transform="matrix(2.66667,0,0,2.66667,991.039,1677.37)">
            <path d="M0,0.132C0,0.043 -0.313,-0.171 -0.444,-0.171C-0.475,-0.171 -0.445,-0.081 -0.377,0.029C-0.248,0.234 0,0.303 0,0.132" style="fill:rgb(35,31,32);fill-rule:nonzero;"/>
        </g>
        <g transform="matrix(0,-2.66667,-2.66667,0,989.218,1677.62)">
            <path d="M-0.084,-0.084C-0.001,-0.084 0.066,-0.067 0.066,-0.045C0.066,-0.023 -0.001,0.02 -0.084,0.052C-0.167,0.084 -0.234,0.066 -0.234,0.013C-0.234,-0.041 -0.167,-0.084 -0.084,-0.084" style="fill:rgb(35,31,32);fill-rule:nonzero;"/>
        </g>
        <g transform="matrix(2.66667,0,0,2.66667,1002.49,1687.95)">
            <path d="M0,-0.407C0,-0.057 -0.053,0.194 -0.147,0.288C-0.277,0.418 -0.277,0.442 -0.142,0.494C-0.058,0.526 -0.015,0.512 -0.045,0.462C-0.076,0.413 -0.055,0.356 0.002,0.338C0.125,0.297 0.197,-0.834 0.081,-0.905C0.036,-0.933 0,-0.709 0,-0.407" style="fill:rgb(35,31,32);fill-rule:nonzero;"/>
        </g>
        <g transform="matrix(2.66667,0,0,2.66667,1004.09,1681.23)">
            <path d="M0,0.521C0,0.545 -0.045,0.593 -0.1,0.627C-0.155,0.661 -0.2,0.641 -0.2,0.583C-0.2,0.525 -0.155,0.477 -0.1,0.477C-0.045,0.477 0,0.497 0,0.521M-0.2,0.115C-0.2,0.04 -0.248,-0.022 -0.306,-0.022C-0.365,-0.022 -0.387,-0.103 -0.356,-0.202C-0.324,-0.301 -0.359,-0.465 -0.433,-0.566C-0.558,-0.737 -0.571,-0.738 -0.633,-0.577C-0.756,-0.256 -0.703,-0.005 -0.499,0.049C-0.288,0.104 -0.221,0.277 -0.411,0.277C-0.494,0.277 -0.493,0.314 -0.41,0.414C-0.347,0.49 -0.323,0.622 -0.356,0.706C-0.401,0.823 -0.366,0.849 -0.215,0.809C-0.055,0.768 -0.007,0.815 0.027,1.041C0.06,1.259 0.074,1.23 0.085,0.914C0.094,0.654 0.044,0.455 -0.05,0.377C-0.132,0.309 -0.2,0.191 -0.2,0.115" style="fill:rgb(35,31,32);fill-rule:nonzero;"/>
        </g>
        <g transform="matrix(2.66667,0,0,2.66667,1003.66,1689.59)">
            <path d="M0,-0.199C-0.225,-0.285 -0.241,-0.277 -0.177,-0.11C-0.113,0.058 0.018,0.086 0.102,-0.049C0.133,-0.098 0.086,-0.166 0,-0.199" style="fill:rgb(35,31,32);fill-rule:nonzero;"/>
        </g>
        <g transform="matrix(2.66667,0,0,2.66667,1005.1,1686.99)">
            <path d="M0,-0.579C-0.034,-0.37 0.157,0.215 0.259,0.215C0.322,0.215 0.212,-0.516 0.126,-0.67C0.057,-0.794 0.032,-0.776 0,-0.579" style="fill:rgb(35,31,32);fill-rule:nonzero;"/>
        </g>
        <g transform="matrix(2.66667,0,0,2.66667,995.387,1687.13)">
            <path d="M0,0.197C0.069,0.128 -0.109,-0.137 -0.223,-0.137C-0.26,-0.137 -0.296,-0.047 -0.305,0.063C-0.319,0.255 -0.137,0.334 0,0.197" style="fill:rgb(35,31,32);fill-rule:nonzero;"/>
        </g>
        <g transform="matrix(2.66667,0,0,2.66667,993.591,1676.01)">
            <path d="M0,-0.174C-0.043,-0.104 -0.051,-0.021 -0.018,0.012C0.071,0.102 0.168,-0.03 0.12,-0.174C0.086,-0.276 0.063,-0.276 0,-0.174" style="fill:rgb(35,31,32);fill-rule:nonzero;"/>
        </g>
        <g transform="matrix(2.66667,0,0,2.66667,993.639,1674.58)">
            <path d="M0,0.205C0.309,0.264 0.373,0.236 0.277,0.082C0.198,-0.047 -0.143,-0.059 -0.219,0.064C-0.249,0.113 -0.151,0.176 0,0.205" style="fill:rgb(35,31,32);fill-rule:nonzero;"/>
        </g>
        <g transform="matrix(2.66667,0,0,2.66667,1001.01,1696.04)">
            <path d="M0,0.032C0.181,-0.319 0.192,-0.382 0.067,-0.382C0.017,-0.382 -0.073,-0.24 -0.133,-0.066C-0.279,0.353 -0.197,0.414 0,0.032" style="fill:rgb(35,31,32);fill-rule:nonzero;"/>
        </g>
        <g transform="matrix(2.66667,0,0,2.66667,995.263,1694.94)">
            <path d="M0,-0.716C-0.03,-0.746 -0.175,-0.627 -0.32,-0.451C-0.616,-0.094 -0.65,0.03 -0.451,0.03C-0.306,0.03 0.091,-0.626 0,-0.716" style="fill:rgb(35,31,32);fill-rule:nonzero;"/>
        </g>
        <g transform="matrix(-2.54709,0.789597,0.789597,2.54709,1004.53,1695.77)">
            <path d="M0.064,-0.21C0.087,-0.217 0.12,-0.18 0.136,-0.127C0.152,-0.075 0.12,-0.018 0.064,-0C0.009,0.017 -0.024,-0.02 -0.007,-0.083C0.009,-0.145 0.041,-0.203 0.064,-0.21" style="fill:rgb(35,31,32);fill-rule:nonzero;"/>
        </g>
        <g transform="matrix(2.66667,0,0,2.66667,1003.68,1698.61)">
            <path d="M0,-0.84C-0.036,-0.781 -0.043,-0.711 -0.016,-0.683C0.012,-0.656 -0.026,-0.516 -0.1,-0.372C-0.255,-0.075 -0.184,0.138 0.003,-0.063C0.163,-0.235 0.355,-0.812 0.279,-0.888C0.189,-0.978 0.073,-0.958 0,-0.84" style="fill:rgb(35,31,32);fill-rule:nonzero;"/>
        </g>
        <g transform="matrix(-1.65306,2.09248,2.09248,1.65306,993.397,1695.39)">
            <path d="M0.241,-0.046C0.418,-0.014 0.445,0.019 0.369,0.114C0.317,0.181 0.259,0.223 0.241,0.209C0.223,0.195 0.135,0.16 0.047,0.132C-0.188,0.059 -0.022,-0.092 0.241,-0.046" style="fill:rgb(35,31,32);fill-rule:nonzero;"/>
        </g>
        <g transform="matrix(2.66667,0,0,2.66667,1012.61,1684.19)">
            <path d="M0,0.116C0.055,0.082 0.1,0.034 0.1,0.01C0.1,-0.014 0.055,-0.034 0,-0.034C-0.055,-0.034 -0.1,0.014 -0.1,0.072C-0.1,0.13 -0.055,0.15 0,0.116" style="fill:rgb(35,31,32);fill-rule:nonzero;"/>
        </g>
        <g transform="matrix(2.54709,-0.789597,-0.789597,-2.54709,1013.9,1678.46)">
            <path d="M-0.032,-0.01C-0.009,-0.017 0.024,0.02 0.04,0.073C0.056,0.125 0.024,0.182 -0.032,0.2C-0.087,0.217 -0.12,0.18 -0.103,0.117C-0.087,0.055 -0.055,-0.003 -0.032,-0.01" style="fill:rgb(35,31,32);fill-rule:nonzero;"/>
        </g>
        <g transform="matrix(2.66667,0,0,2.66667,986.864,1688.07)">
            <path d="M0,-0.32C-0.045,-0.348 -0.218,-0.299 -0.382,-0.211C-0.614,-0.085 -0.643,-0.042 -0.508,-0.013C-0.315,0.028 0.129,-0.24 0,-0.32" style="fill:rgb(35,31,32);fill-rule:nonzero;"/>
        </g>
        <g transform="matrix(2.66667,0,0,2.66667,1009.35,1695.87)">
            <path d="M0,-0.246C-0.096,-0.224 -0.175,-0.167 -0.175,-0.12C-0.175,0.04 -0.025,0.062 0.157,-0.07C0.355,-0.215 0.272,-0.308 0,-0.246" style="fill:rgb(35,31,32);fill-rule:nonzero;"/>
        </g>
        <g transform="matrix(2.54709,0.789597,0.789597,-2.54709,1023.97,1683.25)">
            <path d="M0.032,-0.01C0.081,0.006 0.135,0.069 0.151,0.132C0.167,0.195 0.113,0.225 0.032,0.2C-0.05,0.174 -0.104,0.11 -0.088,0.058C-0.071,0.005 -0.018,-0.025 0.032,-0.01" style="fill:rgb(35,31,32);fill-rule:nonzero;"/>
        </g>
        <g transform="matrix(2.53307,-0.833462,-0.833462,-2.53307,1011.91,1684.41)">
            <path d="M-0.019,-0.001C0.063,0.041 0.115,0.105 0.097,0.14C0.078,0.176 0.026,0.187 -0.019,0.163C-0.066,0.139 -0.118,0.076 -0.136,0.022C-0.156,-0.037 -0.11,-0.046 -0.019,-0.001" style="fill:rgb(35,31,32);fill-rule:nonzero;"/>
        </g>
        <g transform="matrix(-2.54709,-0.789597,-0.789597,2.54709,1005.24,1698.7)">
            <path d="M-0.064,-0.21C-0.041,-0.203 -0.009,-0.145 0.007,-0.083C0.024,-0.02 -0.009,0.017 -0.064,-0C-0.12,-0.018 -0.152,-0.075 -0.136,-0.127C-0.12,-0.18 -0.087,-0.217 -0.064,-0.21" style="fill:rgb(35,31,32);fill-rule:nonzero;"/>
        </g>
        <g transform="matrix(2.53307,-0.833462,-0.833462,-2.53307,1025.49,1683.61)">
            <path d="M-0.019,-0.001C0.063,0.041 0.115,0.105 0.097,0.14C0.078,0.176 0.026,0.187 -0.019,0.163C-0.066,0.139 -0.118,0.076 -0.136,0.022C-0.156,-0.037 -0.11,-0.046 -0.019,-0.001" style="fill:rgb(35,31,32);fill-rule:nonzero;"/>
        </g>
        <g transform="matrix(2.66667,0,0,2.66667,1010.19,1701.62)">
            <path d="M0,-1.878C-0.051,-1.878 -0.069,-1.687 -0.041,-1.454C-0.012,-1.22 -0.016,-1.085 -0.048,-1.154C-0.144,-1.357 -0.29,-1.297 -0.289,-1.054C-0.287,-0.723 -0.18,-0.38 -0.079,-0.38C-0.03,-0.38 0.013,-0.481 0.017,-0.605C0.023,-0.791 0.045,-0.775 0.142,-0.512C0.308,-0.062 0.407,0 0.42,-0.338C0.445,-0.961 0.195,-1.878 0,-1.878" style="fill:rgb(35,31,32);fill-rule:nonzero;"/>
        </g>
        <g transform="matrix(2.66667,0,0,2.66667,1025.92,1678.51)">
            <path d="M0,0.2C0.055,0.2 0.1,0.155 0.1,0.1C0.1,0.045 0.055,0 0,0C-0.055,0 -0.1,0.045 -0.1,0.1C-0.1,0.155 -0.055,0.2 0,0.2" style="fill:rgb(35,31,32);fill-rule:nonzero;"/>
        </g>
        <g transform="matrix(2.66667,0,0,2.66667,1005.42,1677.92)">
            <path d="M0,0.022C-0.111,0.23 -0.042,0.27 0.242,0.161C0.328,0.128 0.4,0.038 0.4,-0.038C0.4,-0.248 0.122,-0.206 0,0.022" style="fill:rgb(35,31,32);fill-rule:nonzero;"/>
        </g>
        <g transform="matrix(0.506182,2.61818,2.61818,-0.506182,1003.58,1668.49)">
            <path d="M0.134,-0.137C0.186,-0.147 0.217,-0.084 0.201,0.003C0.186,0.09 0.156,0.165 0.134,0.169C0.114,0.173 0.083,0.109 0.068,0.029C0.052,-0.053 0.082,-0.127 0.134,-0.137" style="fill:rgb(35,31,32);fill-rule:nonzero;"/>
        </g>
        <g transform="matrix(2.66667,0,0,2.66667,1008.33,1679.04)">
            <path d="M0,-0.4C-0.058,-0.4 -0.078,-0.355 -0.044,-0.3C-0.01,-0.245 -0.03,-0.2 -0.088,-0.2C-0.146,-0.2 -0.194,-0.155 -0.194,-0.1C-0.194,-0.046 -0.126,0 -0.044,0C0.039,0 0.106,-0.09 0.106,-0.2C0.106,-0.31 0.058,-0.4 0,-0.4" style="fill:rgb(35,31,32);fill-rule:nonzero;"/>
        </g>
        <g transform="matrix(2.66667,0,0,2.66667,1007.13,1678.5)">
            <path d="M0,-0.318C-0.188,-0.189 -0.251,0.105 -0.09,0.105C-0.008,0.105 0.057,0.014 0.057,-0.101C0.057,-0.214 0.102,-0.278 0.157,-0.244C0.212,-0.211 0.257,-0.231 0.257,-0.289C0.257,-0.411 0.153,-0.423 0,-0.318" style="fill:rgb(35,31,32);fill-rule:nonzero;"/>
        </g>
        <g transform="matrix(2.66667,0,0,2.66667,1023.66,1674.49)">
            <path d="M0,-0.189C-0.076,-0.312 -0.35,-0.322 -0.35,-0.201C-0.35,-0.153 -0.286,-0.061 -0.209,0.003C-0.052,0.133 0.108,-0.014 0,-0.189" style="fill:rgb(35,31,32);fill-rule:nonzero;"/>
        </g>
        <g transform="matrix(-2.54709,-0.789597,-0.789597,2.54709,1001.78,1669.14)">
            <path d="M-0.064,-0.21C-0.041,-0.203 -0.009,-0.145 0.007,-0.083C0.024,-0.02 -0.009,0.017 -0.064,-0C-0.12,-0.018 -0.152,-0.075 -0.136,-0.127C-0.12,-0.18 -0.087,-0.217 -0.064,-0.21" style="fill:rgb(35,31,32);fill-rule:nonzero;"/>
        </g>
        <g transform="matrix(2.66667,0,0,2.66667,997.697,1686.32)">
            <path d="M0,0.116C0.055,0.082 0.1,0.034 0.1,0.01C0.1,-0.014 0.055,-0.034 0,-0.034C-0.055,-0.034 -0.1,0.014 -0.1,0.072C-0.1,0.13 -0.055,0.15 0,0.116" style="fill:rgb(35,31,32);fill-rule:nonzero;"/>
        </g>
        <g transform="matrix(2.66667,0,0,2.66667,1009.38,1679.07)">
            <path d="M0,-0.499C-0.206,-0.287 -0.134,0.191 0.105,0.191C0.239,0.191 0.266,0.115 0.236,-0.184C0.185,-0.69 0.185,-0.69 0,-0.499" style="fill:rgb(35,31,32);fill-rule:nonzero;"/>
        </g>
        <g transform="matrix(2.66667,0,0,2.66667,1009.48,1683.59)">
            <path d="M0,-0.192C-0.152,0.211 -0.072,0.303 0.153,-0.016C0.35,-0.294 0.37,-0.427 0.223,-0.477C0.167,-0.495 0.066,-0.368 0,-0.192" style="fill:rgb(35,31,32);fill-rule:nonzero;"/>
        </g>
        <g transform="matrix(2.66667,0,0,2.66667,1011.2,1677.21)">
            <path d="M0,0.347C0.044,0.3 0.024,0.241 -0.045,0.217C-0.114,0.192 -0.147,0.134 -0.118,0.087C-0.09,0.041 -0.112,-0.025 -0.168,-0.06C-0.224,-0.094 -0.268,-0.064 -0.268,0.008C-0.265,0.216 -0.088,0.441 0,0.347" style="fill:rgb(35,31,32);fill-rule:nonzero;"/>
        </g>
        <g transform="matrix(2.6089,0.552029,0.552029,-2.6089,1010.51,1668.05)">
            <path d="M0.055,-0.014C0.293,0.034 0.364,0.255 0.197,0.429C0.109,0.523 0.079,0.504 0.055,0.339C0.038,0.225 -0.016,0.088 -0.065,0.037C-0.116,-0.017 -0.065,-0.038 0.055,-0.014" style="fill:rgb(35,31,32);fill-rule:nonzero;"/>
        </g>
        <g transform="matrix(2.54709,-0.789597,-0.789597,-2.54709,1024.81,1689.11)">
            <path d="M-0.032,-0.01C-0.009,-0.017 0.024,0.02 0.04,0.073C0.056,0.125 0.024,0.182 -0.032,0.2C-0.087,0.217 -0.12,0.18 -0.103,0.117C-0.087,0.055 -0.055,-0.003 -0.032,-0.01" style="fill:rgb(35,31,32);fill-rule:nonzero;"/>
        </g>
        <g transform="matrix(2.66667,0,0,2.66667,1032.52,1678.87)">
            <path d="M0,0.563C0.315,0.563 0.275,0.395 -0.053,0.338C-0.204,0.312 -0.494,0.218 -0.697,0.128C-0.946,0.018 -1.087,0 -1.132,0.071C-1.167,0.129 -1.181,0.188 -1.162,0.202C-1.029,0.3 -0.18,0.563 0,0.563" style="fill:rgb(35,31,32);fill-rule:nonzero;"/>
        </g>
        <g transform="matrix(2.66667,0,0,2.66667,1034.67,1682.45)">
            <path d="M0,0.254C0.119,0.223 0.216,0.163 0.216,0.12C0.216,0.017 -0.482,-0.061 -0.542,0.036C-0.618,0.159 -0.233,0.315 0,0.254" style="fill:rgb(35,31,32);fill-rule:nonzero;"/>
        </g>
        <g transform="matrix(2.54709,-0.789597,-0.789597,-2.54709,1028.95,1682.75)">
            <path d="M-0.03,0C0.025,-0.017 0.058,0.02 0.041,0.083C0.025,0.145 -0.006,0.202 -0.03,0.21C-0.053,0.217 -0.086,0.18 -0.102,0.127C-0.118,0.075 -0.086,0.018 -0.03,0" style="fill:rgb(35,31,32);fill-rule:nonzero;"/>
        </g>
        <g transform="matrix(2.66667,0,0,2.66667,1030.32,1681.17)">
            <path d="M0,0.2C0.083,0.2 0.15,0.155 0.15,0.1C0.15,0.045 0.083,0 0,0C-0.083,0 -0.15,0.045 -0.15,0.1C-0.15,0.155 -0.083,0.2 0,0.2" style="fill:rgb(35,31,32);fill-rule:nonzero;"/>
        </g>
        <g transform="matrix(2.66667,0,0,2.66667,1031.63,1682.01)">
            <path d="M0,-0.153C-0.223,-0.239 -0.242,-0.232 -0.242,-0.064C-0.242,0.019 -0.153,0.086 -0.042,0.086C0.196,0.086 0.223,-0.068 0,-0.153" style="fill:rgb(35,31,32);fill-rule:nonzero;"/>
        </g>
        <g transform="matrix(-1.88562,1.88562,1.88562,1.88562,1028.68,1684.93)">
            <path d="M0.15,-0.362C0.199,-0.362 0.241,-0.267 0.241,-0.151C0.241,-0.034 0.2,0.061 0.15,0.062C0.1,0.061 0.059,-0.034 0.059,-0.151C0.059,-0.267 0.101,-0.362 0.15,-0.362" style="fill:rgb(35,31,32);fill-rule:nonzero;"/>
        </g>
        <g transform="matrix(-2.66667,0,0,2.66667,1021.93,1695.82)">
            <path d="M0,-0.2C0.055,-0.2 0.1,-0.155 0.1,-0.1C0.1,-0.045 0.055,0 0,0C-0.055,0 -0.1,-0.045 -0.1,-0.1C-0.1,-0.155 -0.055,-0.2 0,-0.2" style="fill:rgb(35,31,32);fill-rule:nonzero;"/>
        </g>
        <g transform="matrix(2.66667,0,0,2.66667,1030.41,1685.34)">
            <path d="M0,0.382C0.059,0.323 -0.287,-0.066 -0.4,-0.066C-0.446,-0.066 -0.484,-0.023 -0.484,0.029C-0.484,0.143 -0.066,0.448 0,0.382" style="fill:rgb(35,31,32);fill-rule:nonzero;"/>
        </g>
        <g transform="matrix(2.66667,0,0,2.66667,1022.86,1696.55)">
            <path d="M0,0.025C0.034,0.081 0.105,0.101 0.156,0.069C0.294,-0.017 0.268,-0.076 0.093,-0.076C0.008,-0.076 -0.034,-0.031 0,0.025" style="fill:rgb(35,31,32);fill-rule:nonzero;"/>
        </g>
        <g transform="matrix(2.66667,0,0,2.66667,1021.09,1682.03)">
            <path d="M0,2.925C-0.25,2.967 -0.384,3.043 -0.384,3.143C-0.384,3.252 -0.32,3.278 -0.159,3.235C-0.036,3.202 0.145,3.174 0.243,3.174C0.462,3.172 1.414,2.19 1.414,1.964C1.414,1.873 1.476,1.747 1.552,1.683C1.629,1.62 1.747,1.434 1.815,1.27C1.888,1.093 2.038,0.947 2.185,0.911C2.337,0.872 2.387,0.822 2.316,0.778C2.176,0.691 2.279,0.206 2.46,0.1C2.54,0.053 2.557,-0.045 2.507,-0.173C2.436,-0.353 2.415,-0.341 2.298,-0.049C2.227,0.13 2.133,0.276 2.091,0.276C2.048,0.276 2.012,0.343 2.012,0.426C2.012,0.508 1.973,0.576 1.925,0.576C1.877,0.576 1.783,0.707 1.716,0.868C1.65,1.029 1.509,1.238 1.405,1.332C1.26,1.464 1.241,1.537 1.326,1.639C1.414,1.745 1.392,1.774 1.226,1.774C1.065,1.774 1.014,1.836 1.014,2.029C1.014,2.376 0.485,2.843 0,2.925" style="fill:rgb(35,31,32);fill-rule:nonzero;"/>
        </g>
        <g transform="matrix(2.66667,0,0,2.66667,1025.26,1692.46)">
            <path d="M0,-0.039C-0.083,-0.039 -0.15,-0.084 -0.15,-0.139C-0.15,-0.194 -0.251,-0.239 -0.375,-0.238C-0.573,-0.238 -0.562,-0.215 -0.272,-0.039C0.1,0.188 0.15,0.2 0.15,0.061C0.15,0.006 0.083,-0.039 0,-0.039" style="fill:rgb(35,31,32);fill-rule:nonzero;"/>
        </g>
        <g transform="matrix(2.66667,0,0,2.66667,1031.56,1684.64)">
            <path d="M0,0.015C-0.119,-0.002 -0.217,-0.059 -0.217,-0.11C-0.217,-0.227 -0.325,-0.226 -0.513,-0.107C-0.697,0.009 -0.668,0.03 -0.138,0.163C0.177,0.242 0.281,0.242 0.254,0.159C0.234,0.098 0.119,0.032 0,0.015" style="fill:rgb(35,31,32);fill-rule:nonzero;"/>
        </g>
        <g transform="matrix(2.66667,0,0,2.66667,1030.18,1684.4)">
            <path d="M0,-0.434C0,-0.275 1.286,0.12 1.831,0.128C2.096,0.133 2.355,0.086 2.407,0.024C2.474,-0.057 2.336,-0.088 1.91,-0.085C1.557,-0.082 1.178,-0.148 0.967,-0.248C0.498,-0.471 0,-0.567 0,-0.434" style="fill:rgb(35,31,32);fill-rule:nonzero;"/>
        </g>
        <g transform="matrix(2.66667,0,0,2.66667,1033.94,1688.56)">
            <path d="M0,-0.169C-0.144,-0.246 -0.208,-0.248 -0.208,-0.174C-0.208,-0.053 0.072,0.079 0.154,-0.003C0.184,-0.033 0.115,-0.108 0,-0.169" style="fill:rgb(35,31,32);fill-rule:nonzero;"/>
        </g>
        <g transform="matrix(2.66667,0,0,2.66667,987.835,1687.57)">
            <path d="M0,-2.831C0.34,-2.831 0.39,-2.959 0.128,-3.158C-0.038,-3.284 -0.038,-3.291 0.128,-3.294C0.224,-3.296 0.303,-3.247 0.303,-3.186C0.303,-3.126 0.374,-3.103 0.461,-3.137C0.549,-3.17 0.671,-3.166 0.732,-3.129C0.794,-3.091 1.042,-3.072 1.283,-3.087C1.831,-3.12 1.763,-2.949 1.193,-2.858C0.917,-2.814 0.728,-2.834 0.622,-2.92C0.489,-3.028 0.475,-3.021 0.531,-2.873C0.567,-2.777 0.553,-2.698 0.5,-2.698C0.446,-2.698 0.403,-2.623 0.403,-2.533C0.403,-2.381 0.387,-2.382 0.213,-2.539C0.052,-2.684 -0.01,-2.691 -0.182,-2.584C-0.295,-2.513 -0.42,-2.488 -0.46,-2.529C-0.585,-2.654 -0.316,-2.831 0,-2.831M0.467,-3.646C0.498,-3.729 0.542,-3.796 0.563,-3.796C0.585,-3.796 0.603,-3.729 0.603,-3.646C0.603,-3.564 0.559,-3.497 0.506,-3.497C0.453,-3.497 0.435,-3.564 0.467,-3.646M0.758,-3.996C0.889,-3.996 1.202,-3.782 1.202,-3.693C1.202,-3.522 0.954,-3.59 0.825,-3.796C0.757,-3.906 0.726,-3.996 0.758,-3.996M1.543,-3.688C1.648,-3.693 1.707,-3.669 1.674,-3.636C1.641,-3.603 1.554,-3.599 1.483,-3.628C1.403,-3.66 1.426,-3.684 1.543,-3.688M1.551,-3.896C1.585,-3.951 1.658,-3.996 1.713,-3.996C1.768,-3.996 1.785,-3.951 1.751,-3.896C1.717,-3.841 1.644,-3.796 1.589,-3.796C1.534,-3.796 1.517,-3.841 1.551,-3.896M1.665,-4.246C1.696,-4.328 1.761,-4.396 1.808,-4.396C1.855,-4.396 1.869,-4.328 1.837,-4.246C1.805,-4.163 1.741,-4.096 1.694,-4.096C1.646,-4.096 1.633,-4.163 1.665,-4.246M1.801,-1.499C1.801,-1.445 1.756,-1.4 1.701,-1.4C1.646,-1.4 1.601,-1.445 1.601,-1.499C1.601,-1.555 1.646,-1.599 1.701,-1.599C1.756,-1.599 1.801,-1.555 1.801,-1.499M1.232,-2.035C1.202,-2.066 1.204,-2.16 1.236,-2.244C1.31,-2.438 1.701,-2.448 1.701,-2.255C1.701,-2.11 1.331,-1.936 1.232,-2.035M0.053,-2.199C0.019,-2.144 -0.053,-2.099 -0.109,-2.099C-0.163,-2.099 -0.18,-2.144 -0.147,-2.199C-0.113,-2.253 -0.04,-2.298 0.015,-2.298C0.07,-2.298 0.087,-2.253 0.053,-2.199M2.454,-4.788C2.549,-4.634 2.485,-4.606 2.176,-4.666C2.026,-4.694 1.928,-4.758 1.958,-4.806C2.034,-4.929 2.374,-4.917 2.454,-4.788M2.14,-4.322C2.107,-4.355 2.115,-4.439 2.159,-4.509C2.222,-4.61 2.245,-4.61 2.279,-4.509C2.327,-4.365 2.23,-4.233 2.14,-4.322M2.608,-0.301C2.724,-0.301 2.901,-0.036 2.832,0.033C2.694,0.17 2.513,0.09 2.527,-0.102C2.535,-0.211 2.572,-0.301 2.608,-0.301M5.006,2.795C5.131,2.795 5.12,2.858 4.939,3.208C4.742,3.59 4.66,3.529 4.806,3.11C4.866,2.937 4.956,2.795 5.006,2.795M6.732,-0.002C6.631,-0.002 6.44,-0.587 6.474,-0.796C6.506,-0.993 6.531,-1.011 6.599,-0.887C6.686,-0.733 6.796,-0.002 6.732,-0.002M6.122,-1.334C6.088,-1.562 6.039,-1.608 5.879,-1.566C5.729,-1.527 5.694,-1.552 5.739,-1.669C5.772,-1.755 5.747,-1.886 5.685,-1.961C5.601,-2.062 5.601,-2.099 5.683,-2.099C5.873,-2.099 5.807,-2.272 5.595,-2.328C5.392,-2.38 5.339,-2.632 5.462,-2.953C5.523,-3.114 5.537,-3.113 5.662,-2.942C5.736,-2.841 5.77,-2.677 5.739,-2.578C5.708,-2.479 5.73,-2.398 5.788,-2.398C5.847,-2.398 5.895,-2.336 5.895,-2.261C5.895,-2.185 5.962,-2.067 6.045,-1.999C6.139,-1.92 6.189,-1.723 6.179,-1.463C6.168,-1.146 6.155,-1.117 6.122,-1.334M6.038,0.708C5.954,0.843 5.823,0.815 5.759,0.648C5.695,0.48 5.711,0.472 5.936,0.558C6.023,0.591 6.069,0.659 6.038,0.708M5.497,0.481C5.441,0.499 5.42,0.555 5.45,0.605C5.481,0.655 5.437,0.669 5.354,0.637C5.219,0.585 5.219,0.561 5.349,0.431C5.442,0.337 5.496,0.086 5.496,-0.264C5.496,-0.566 5.532,-0.79 5.576,-0.762C5.692,-0.691 5.62,0.439 5.497,0.481M5.034,-0.588C4.924,-0.9 4.912,-1.055 4.988,-1.132C5.047,-1.191 5.096,-1.34 5.096,-1.464C5.096,-1.587 5.144,-1.717 5.203,-1.753C5.262,-1.79 5.285,-1.882 5.256,-1.959C5.226,-2.036 5.243,-2.099 5.292,-2.099C5.434,-2.099 5.53,-1.682 5.406,-1.606C5.345,-1.568 5.277,-1.293 5.255,-0.994C5.232,-0.695 5.207,-0.383 5.2,-0.301C5.192,-0.219 5.118,-0.348 5.034,-0.588M4.953,0.498C4.867,0.498 4.796,0.43 4.796,0.348C4.796,0.265 4.751,0.198 4.696,0.198C4.636,0.198 4.646,0.117 4.72,-0.002C4.891,-0.275 5.04,-0.199 5.078,0.181C5.101,0.415 5.068,0.498 4.953,0.498M4.665,-3.104C4.745,-3.265 4.821,-3.397 4.834,-3.397C4.846,-3.397 4.838,-3.243 4.816,-3.054C4.79,-2.826 4.733,-2.729 4.648,-2.761C4.544,-2.801 4.548,-2.869 4.665,-3.104M4.435,-2.127C4.401,-2.162 4.408,-2.27 4.45,-2.369C4.525,-2.54 4.53,-2.54 4.571,-2.366C4.618,-2.169 4.536,-2.026 4.435,-2.127M4.236,-4.315C4.082,-4.29 4.075,-4.303 4.194,-4.385C4.276,-4.44 4.31,-4.516 4.27,-4.556C4.231,-4.595 4.249,-4.686 4.31,-4.759C4.47,-4.953 4.602,-4.825 4.506,-4.567C4.461,-4.445 4.34,-4.332 4.236,-4.315M4.095,-3.527C3.959,-3.435 3.815,-3.311 3.774,-3.253C3.724,-3.18 3.701,-3.183 3.699,-3.26C3.699,-3.322 3.765,-3.428 3.848,-3.497C3.93,-3.565 4.003,-3.717 4.009,-3.834C4.018,-4.002 4.03,-4.01 4.066,-3.871C4.091,-3.775 4.164,-3.696 4.227,-3.696C4.29,-3.696 4.231,-3.62 4.095,-3.527M3.473,-4.13C3.405,-4.157 3.461,-4.18 3.598,-4.18C3.736,-4.18 3.792,-4.157 3.723,-4.13C3.655,-4.102 3.542,-4.102 3.473,-4.13M3.379,-2.5C3.286,-2.499 3.183,-2.543 3.149,-2.598C3.071,-2.724 3.203,-2.724 3.398,-2.598C3.528,-2.515 3.525,-2.501 3.379,-2.5M3.998,-5.095C4.053,-5.095 4.098,-5.05 4.098,-4.994C4.098,-4.94 4.053,-4.895 3.998,-4.895C3.943,-4.895 3.898,-4.94 3.898,-4.994C3.898,-5.05 3.943,-5.095 3.998,-5.095M4.631,-3.742C4.599,-3.657 4.551,-3.61 4.525,-3.636C4.498,-3.662 4.507,-3.731 4.543,-3.79C4.641,-3.949 4.699,-3.918 4.631,-3.742M4.981,-2.446C5.01,-2.418 4.98,-2.342 4.915,-2.277C4.843,-2.205 4.796,-2.199 4.796,-2.262C4.796,-2.319 4.827,-2.395 4.863,-2.431C4.9,-2.468 4.953,-2.475 4.981,-2.446M7.064,-0.933C7.139,-1.054 7.492,-0.492 7.492,-0.251C7.492,-0.106 7.426,-0.161 7.251,-0.449C7.118,-0.668 7.034,-0.886 7.064,-0.933M7.135,-2.319C7.21,-2.446 7.268,-2.461 7.369,-2.377C7.442,-2.316 7.48,-2.209 7.453,-2.139C7.426,-2.069 7.454,-1.995 7.516,-1.975C7.578,-1.954 7.594,-1.882 7.551,-1.813C7.422,-1.603 7.01,-2.104 7.135,-2.319M8.021,1.053C8.12,1.091 8.175,1.147 8.144,1.177C8.114,1.208 8.033,1.177 7.965,1.109C7.868,1.01 7.879,0.999 8.021,1.053M8.335,-0.401C8.372,-0.401 8.51,-0.278 8.643,-0.126C8.88,0.144 8.994,0.673 8.786,0.545C8.729,0.509 8.621,0.531 8.546,0.594C8.452,0.672 8.389,0.674 8.345,0.602C8.309,0.545 8.35,0.498 8.435,0.498C8.602,0.498 8.654,0.237 8.499,0.181C8.448,0.163 8.376,0.025 8.338,-0.126C8.3,-0.278 8.3,-0.401 8.335,-0.401M9.451,0.373C9.637,0.619 9.621,0.687 9.39,0.626C9.28,0.598 9.19,0.49 9.19,0.386C9.19,0.151 9.279,0.146 9.451,0.373M10.089,1.147C10.144,1.181 10.189,1.161 10.189,1.103C10.189,1.045 10.212,0.997 10.239,0.997C10.362,0.997 10.273,1.381 10.139,1.433C10.036,1.472 9.989,1.427 9.989,1.287C9.989,1.176 10.034,1.113 10.089,1.147M0.896,2.495C0.838,2.495 0.818,2.45 0.852,2.395C0.886,2.34 0.934,2.295 0.958,2.295C0.982,2.295 1.002,2.34 1.002,2.395C1.002,2.45 0.954,2.495 0.896,2.495M-1.215,-0.701C-1.404,-0.701 -1.272,-0.892 -1.02,-0.984C-0.673,-1.111 -0.595,-1.119 -0.596,-1.025C-0.597,-0.949 -1.07,-0.701 -1.215,-0.701M8.189,-9.02C7.418,-9.106 6.623,-8.923 6.317,-8.84C5.227,-8.514 4.388,-8.033 3.623,-7.285C3.225,-6.896 2.899,-6.52 2.899,-6.451C2.899,-6.224 2.534,-5.985 1.795,-5.728C0.888,-5.413 0.356,-5.065 0.199,-4.685C0.132,-4.524 0.026,-4.358 -0.036,-4.318C-0.098,-4.278 -0.267,-4.063 -0.411,-3.84C-0.555,-3.617 -0.847,-3.23 -1.059,-2.979C-1.422,-2.55 -2.116,-1.642 -2.703,-0.831C-2.943,-0.497 -2.952,-0.45 -2.82,-0.187C-2.742,-0.03 -2.637,0.098 -2.586,0.098C-2.535,0.098 -2.493,0.154 -2.492,0.223C-2.49,0.326 -1.639,1.684 -1.15,2.395C-1.15,2.395 -1.123,2.434 -1.086,2.488C-0.98,2.638 -0.897,2.751 -0.851,2.798C-0.83,2.821 -0.809,2.867 -0.789,2.939C-0.655,3.151 -0.528,3.372 -0.491,3.493C-0.407,3.776 0.261,4.554 0.429,4.606C0.488,4.624 1.424,4.835 2.633,5.101L2.839,5.146C3.699,5.335 4.674,5.546 5.567,5.735C5.611,5.731 5.652,5.726 5.699,5.723C6.371,5.68 6.621,5.702 6.805,5.818C6.936,5.9 7.279,6.022 7.568,6.089L8.092,6.209L8.092,6.237C8.237,6.261 8.34,6.275 8.385,6.275C8.532,6.275 9.327,6.067 10.384,5.769C10.488,5.723 10.593,5.675 10.688,5.626L11.587,5.299C11.656,5.248 11.919,5.217 12.309,5.211C12.939,5.025 13.582,4.832 14.188,4.648L14.572,4.53C14.681,4.497 14.79,4.463 14.897,4.43L15.218,4.331C15.277,4.312 15.335,4.295 15.392,4.277C15.438,4.213 15.405,4.225 15.455,4.231C15.482,4.234 15.502,4.223 15.515,4.238C15.614,4.207 15.709,4.177 15.802,4.148C15.81,4.143 15.817,4.141 15.821,4.141C16.021,4.078 16.205,4.019 16.371,3.965C16.525,3.9 16.534,3.942 16.6,3.918C16.713,3.878 16.713,3.878 16.797,3.824C17.072,3.73 17.245,3.665 17.267,3.643C17.358,3.555 17.505,3.253 17.647,2.959L17.647,2.944L17.715,2.819C17.812,2.619 17.902,2.44 17.964,2.359L18.081,2.145C18.592,1.204 19.676,-0.978 19.676,-1.068C19.676,-1.174 18.328,-2.919 17.76,-3.547C16.185,-5.288 15.336,-5.992 14.809,-5.994C14.432,-5.995 14.022,-6.224 13.702,-6.615C12.826,-7.684 11.683,-8.373 10.383,-8.614L9.79,-8.725C9.554,-8.768 9.377,-8.825 9.078,-8.887L8.189,-9.02ZM8,-6.553C8.102,-6.54 8.138,-6.61 8.385,-6.518C8.57,-6.449 8.734,-6.651 9.044,-6.854C9.243,-6.984 9.322,-7.099 9.29,-7.446C9.261,-7.769 8.876,-8.005 8.876,-8.005L9.765,-7.832C10.691,-7.744 11.704,-7.382 11.992,-7.035C12.057,-6.956 12.164,-6.892 12.228,-6.892C12.329,-6.892 12.902,-6.318 13.833,-5.283C14.29,-4.777 14.927,-3.414 14.93,-2.94C14.931,-2.692 14.976,-2.513 15.032,-2.531C15.202,-2.586 15.207,-3.294 15.039,-3.551C14.952,-3.683 14.862,-3.949 14.837,-4.145C14.812,-4.34 14.722,-4.598 14.637,-4.719C14.404,-5.053 14.448,-5.126 14.845,-5.062C15.23,-4.999 15.581,-4.748 15.581,-4.535C15.581,-4.464 15.644,-4.369 15.72,-4.325C15.797,-4.281 16.339,-3.706 16.925,-3.047C17.511,-2.388 18.167,-1.669 18.383,-1.45C18.773,-1.053 18.775,-1.048 18.616,-0.751C18.528,-0.586 18.197,0.043 17.88,0.648C17.564,1.252 17.162,1.993 16.988,2.295C16.814,2.597 16.602,2.839 16.544,2.99C16.458,3.213 16.275,3.252 15.819,3.374C15.508,3.457 14.843,3.725 14.569,3.802C13.262,4.17 12.744,4.394 11.687,4.596C11.055,4.717 10.468,4.878 10.381,4.954C10.294,5.029 10.133,5.091 10.023,5.091C9.913,5.091 9.793,5.121 9.756,5.158C9.719,5.195 9.523,5.242 9.319,5.263C9.116,5.284 8.89,5.35 8.819,5.41C8.663,5.538 7.916,5.466 7.166,5.248C6.124,4.947 3.328,4.27 2.472,4.112C1.843,3.996 1.61,3.915 1.645,3.822C1.672,3.751 1.651,3.693 1.598,3.693C1.545,3.693 1.501,3.742 1.501,3.801C1.501,3.861 1.445,3.889 1.376,3.864C1.308,3.839 1.263,3.767 1.276,3.706C1.29,3.644 1.187,3.593 1.047,3.593C0.738,3.593 0.34,3.189 0.251,2.786C0.216,2.626 0.129,2.495 0.058,2.495C-0.014,2.495 -0.125,2.369 -0.188,2.215C-0.252,2.061 -0.41,1.821 -0.539,1.682C-0.668,1.543 -0.842,1.297 -0.925,1.136C-1.008,0.975 -1.186,0.732 -1.32,0.595C-1.453,0.459 -1.681,0.144 -1.825,-0.105L-2.087,-0.558L-1.893,-0.854C-1.785,-1.017 -1.641,-1.236 -1.571,-1.342C-1.4,-1.6 -1.191,-1.865 -0.917,-2.166C-0.731,-2.37 -0.661,-2.394 -0.542,-2.295C-0.325,-2.115 -0.365,-1.999 -0.646,-1.999C-0.783,-1.999 -0.896,-1.954 -0.896,-1.899C-0.896,-1.787 -0.566,-1.762 -0.462,-1.867C-0.425,-1.903 -0.126,-1.923 0.204,-1.909C0.596,-1.893 0.802,-1.924 0.802,-1.998C0.802,-2.06 0.854,-2.078 0.918,-2.039C1.068,-1.946 0.477,-1.691 -0.546,-1.408C-1.406,-1.17 -1.794,-0.971 -1.794,-0.768C-1.794,-0.566 -1.576,-0.401 -1.306,-0.401C-1.073,-0.401 -1.069,-0.392 -1.241,-0.266C-1.47,-0.099 -1.323,0.004 -1.02,-0.11C-0.774,-0.203 -0.725,-0.359 -0.921,-0.43C-0.991,-0.455 -0.919,-0.534 -0.754,-0.611C-0.526,-0.718 -0.453,-0.721 -0.421,-0.625C-0.398,-0.557 -0.334,-0.501 -0.277,-0.501C-0.221,-0.501 -0.201,-0.568 -0.233,-0.651C-0.271,-0.752 -0.228,-0.801 -0.1,-0.801C0.006,-0.801 0.12,-0.848 0.156,-0.905C0.2,-0.977 0.266,-0.972 0.364,-0.892C0.475,-0.799 0.544,-0.805 0.679,-0.919C0.899,-1.104 1.224,-1.039 1.18,-0.817C1.157,-0.705 1.046,-0.651 0.84,-0.651C0.629,-0.651 0.536,-0.604 0.543,-0.501C0.55,-0.394 0.452,-0.351 0.203,-0.351C-0.095,-0.351 -0.143,-0.319 -0.125,-0.137C-0.109,0.018 -0.172,0.095 -0.349,0.14C-0.597,0.202 -0.696,0.398 -0.48,0.398C-0.415,0.398 -0.444,0.485 -0.546,0.598C-0.786,0.862 -0.667,0.965 -0.322,0.791C0.144,0.558 0.165,0.57 -0.171,0.877C-0.35,1.04 -0.496,1.223 -0.496,1.285C-0.496,1.451 -0.227,1.42 -0.16,1.246C-0.129,1.164 -0.049,1.097 0.017,1.097C0.084,1.097 0.04,1.201 -0.079,1.328C-0.199,1.455 -0.296,1.59 -0.296,1.628C-0.296,1.772 -0.019,1.687 0.162,1.485C0.267,1.369 0.569,1.093 0.833,0.872C1.193,0.57 1.341,0.498 1.427,0.583C1.513,0.669 1.508,0.698 1.408,0.698C1.238,0.698 0.006,1.903 0.005,2.071C0.004,2.139 0.074,2.195 0.159,2.195C0.399,2.195 0.702,2.005 0.702,1.854C0.702,1.78 0.823,1.64 0.971,1.543C1.119,1.446 1.503,1.093 1.825,0.758C2.147,0.422 2.381,0.227 2.345,0.323C2.308,0.419 2.238,0.498 2.189,0.498C2.14,0.498 2.1,0.561 2.1,0.639C2.1,0.717 1.886,0.998 1.623,1.263C1.024,1.869 0.503,2.536 0.503,2.696C0.503,2.788 0.547,2.784 0.677,2.682C0.838,2.556 0.84,2.56 0.706,2.73C0.576,2.896 0.581,2.931 0.753,3.057C0.859,3.135 1.007,3.175 1.081,3.147C1.156,3.118 1.301,3.14 1.406,3.197C1.566,3.282 1.606,3.257 1.66,3.046C1.694,2.908 1.758,2.795 1.802,2.795C1.884,2.795 2.227,2.272 2.492,1.746C2.575,1.581 2.698,1.402 2.764,1.346C2.952,1.192 3.013,0.598 2.841,0.598C2.663,0.598 2.662,0.521 2.837,0.347C2.953,0.23 3.018,0.262 3.261,0.553C3.418,0.742 3.604,0.897 3.672,0.897C3.885,0.897 3.813,1.206 3.477,1.737C3.3,2.016 3.131,2.267 3.102,2.295C3.072,2.323 2.903,2.583 2.726,2.873C2.459,3.309 2.43,3.411 2.556,3.46C2.64,3.492 2.721,3.501 2.736,3.481C2.751,3.46 2.892,3.22 3.049,2.946C3.205,2.673 3.353,2.508 3.376,2.578C3.4,2.648 3.353,2.782 3.271,2.875C3.19,2.968 3.049,3.19 2.959,3.369C2.803,3.675 2.804,3.693 2.971,3.692C3.143,3.69 3.636,2.958 4.179,1.898C4.306,1.649 4.383,1.559 4.349,1.696C4.315,1.833 4.276,1.99 4.263,2.046C4.249,2.1 4.182,2.247 4.113,2.372C4.044,2.497 4.014,2.64 4.045,2.69C4.075,2.74 4.051,2.811 3.991,2.848C3.857,2.931 3.474,3.802 3.541,3.869C3.568,3.896 3.655,3.893 3.736,3.861C3.864,3.812 3.992,3.591 4.238,2.994C4.37,2.672 4.661,2.257 4.784,2.216C4.88,2.184 4.887,2.22 4.812,2.359C4.756,2.461 4.614,2.77 4.495,3.044C4.376,3.319 4.233,3.64 4.176,3.759C4.065,3.993 4.15,4.233 4.31,4.135C4.365,4.101 4.457,3.954 4.515,3.808C4.573,3.663 4.641,3.597 4.665,3.663C4.69,3.728 4.663,3.868 4.607,3.974C4.506,4.162 4.549,4.292 4.711,4.292C4.755,4.292 4.888,4.079 5.005,3.818C5.451,2.822 5.535,2.664 5.567,2.761C5.586,2.816 5.465,3.18 5.299,3.571C4.954,4.38 4.952,4.392 5.122,4.392C5.25,4.392 5.627,3.658 5.747,3.176C5.784,3.029 5.88,2.883 5.961,2.852C6.05,2.818 6.086,2.724 6.051,2.615C6.02,2.516 6.06,2.347 6.141,2.24C6.224,2.131 6.289,2.1 6.291,2.17C6.293,2.239 6.396,2.296 6.519,2.297C6.698,2.298 6.714,2.317 6.596,2.392C6.493,2.457 6.452,2.642 6.462,2.997C6.483,3.772 6.699,3.856 6.728,3.102C6.737,2.878 6.778,2.694 6.819,2.694C6.949,2.694 6.9,2.195 6.769,2.193C6.7,2.192 6.756,2.105 6.893,1.999C7.271,1.709 8.292,1.891 8.292,2.249C8.292,2.329 8.31,2.395 8.334,2.395C8.356,2.395 8.45,2.424 8.541,2.459C8.664,2.506 8.698,2.474 8.674,2.334C8.648,2.186 8.711,2.139 8.966,2.114C9.268,2.085 9.29,2.104 9.29,2.389C9.29,2.725 9.427,2.79 9.575,2.524C9.645,2.401 9.626,2.321 9.509,2.235C9.372,2.135 9.368,2.092 9.483,1.954C9.676,1.721 9.601,1.696 9.053,1.814C8.723,1.884 8.496,1.884 8.345,1.815C8.223,1.76 7.868,1.682 7.558,1.644C7.247,1.605 6.993,1.533 6.993,1.485C6.993,1.436 7.054,1.396 7.128,1.396C7.235,1.396 7.246,1.287 7.182,0.882C7.137,0.599 7.122,0.332 7.148,0.289C7.175,0.247 7.151,0.184 7.095,0.149C6.977,0.076 6.958,-0.102 7.068,-0.101C7.223,-0.101 7.693,0.781 7.693,1.072C7.693,1.387 7.876,1.535 8.142,1.433C8.224,1.401 8.292,1.425 8.292,1.486C8.292,1.546 8.334,1.596 8.385,1.596C8.504,1.596 8.487,1.187 8.362,1.022C8.3,0.941 8.305,0.897 8.374,0.897C8.432,0.897 8.507,0.942 8.541,0.997C8.635,1.148 8.791,1.117 8.791,0.947C8.791,0.686 8.94,0.786 8.956,1.057C8.976,1.401 9.149,1.577 9.31,1.416C9.403,1.323 9.403,1.27 9.31,1.177C9.075,0.941 9.196,0.867 9.44,1.097C9.577,1.226 9.69,1.411 9.69,1.508C9.69,1.78 10.026,1.957 10.462,1.915C10.787,1.884 10.851,1.842 10.845,1.662C10.841,1.544 10.787,1.402 10.724,1.346C10.662,1.292 10.581,1.075 10.544,0.866C10.481,0.509 10.489,0.491 10.674,0.59C10.782,0.648 10.894,0.752 10.922,0.821C10.96,0.917 10.998,0.911 11.079,0.797C11.248,0.558 11.149,0.449 10.742,0.426C10.344,0.404 10.152,0.302 10.364,0.226C10.552,0.159 10.514,0.02 10.289,-0.052C10.179,-0.087 10.089,-0.198 10.089,-0.301C10.089,-0.403 10.03,-0.546 9.959,-0.619C9.887,-0.691 9.797,-0.832 9.759,-0.932C9.662,-1.19 9.49,-1.041 9.49,-0.698C9.49,-0.509 9.533,-0.423 9.615,-0.451C9.783,-0.511 10.09,-0.072 10.136,0.295C10.157,0.458 10.202,0.638 10.237,0.695C10.272,0.751 10.261,0.797 10.212,0.797C10.118,0.797 9.992,0.566 9.785,0.018C9.701,-0.205 9.628,-0.28 9.56,-0.211C9.491,-0.143 9.5,-0.06 9.586,0.044C9.664,0.138 9.673,0.198 9.609,0.198C9.504,0.198 9.332,-0.182 9.371,-0.329C9.382,-0.372 9.324,-0.433 9.241,-0.465C9.158,-0.496 9.09,-0.63 9.09,-0.761C9.09,-0.915 9.033,-1 8.929,-1C8.811,-1 8.78,-0.934 8.816,-0.748C8.881,-0.407 8.719,-0.331 8.579,-0.637C8.518,-0.772 8.394,-0.91 8.304,-0.942C8.215,-0.974 8.081,-1.028 8.007,-1.062C7.904,-1.109 7.889,-1.066 7.943,-0.887C7.995,-0.716 7.984,-0.679 7.904,-0.755C7.789,-0.863 7.78,-0.975 7.806,-1.899C7.814,-2.201 7.84,-2.37 7.864,-2.273C7.908,-2.093 8.092,-2.026 8.092,-2.19C8.092,-2.241 8.116,-2.345 8.146,-2.423C8.185,-2.526 8.112,-2.564 7.871,-2.567C7.69,-2.57 7.392,-2.604 7.208,-2.642C6.978,-2.691 6.893,-2.68 6.939,-2.606C6.976,-2.546 6.934,-2.498 6.844,-2.498C6.755,-2.498 6.71,-2.543 6.744,-2.598C6.778,-2.653 6.713,-2.698 6.6,-2.698C6.348,-2.698 6.335,-2.527 6.569,-2.31C6.665,-2.221 6.751,-2.104 6.759,-2.049C6.808,-1.744 6.816,-1.631 6.806,-1.455C6.783,-1.092 6.544,-1.481 6.544,-1.879C6.544,-2.121 6.501,-2.24 6.419,-2.224C6.296,-2.199 6.253,-2.319 6.289,-2.583C6.299,-2.657 6.263,-2.69 6.208,-2.656C6.022,-2.541 5.97,-2.816 6.147,-2.982C6.244,-3.073 6.291,-3.091 6.253,-3.023C6.214,-2.954 6.23,-2.898 6.288,-2.898C6.411,-2.898 6.428,-3.03 6.32,-3.139C6.278,-3.18 6.242,-3.322 6.24,-3.455C6.237,-3.622 6.29,-3.696 6.414,-3.696C6.514,-3.696 6.594,-3.741 6.594,-3.795C6.594,-3.85 6.486,-3.885 6.354,-3.874C6.159,-3.858 6.103,-3.784 6.054,-3.482C6.021,-3.276 5.938,-3.076 5.87,-3.037C5.801,-2.998 5.778,-3.002 5.819,-3.047C5.86,-3.092 5.843,-3.189 5.782,-3.263C5.719,-3.339 5.697,-3.532 5.732,-3.705C5.827,-4.179 5.573,-4.016 5.405,-3.495C5.274,-3.088 5.259,-3.074 5.177,-3.294C5.123,-3.442 5.129,-3.569 5.193,-3.634C5.396,-3.837 5.291,-3.897 5.031,-3.728C4.767,-3.554 4.767,-3.554 4.889,-3.783C4.991,-3.973 4.985,-4.043 4.854,-4.187C4.656,-4.407 4.653,-4.666 4.846,-4.859C5.033,-5.045 5.055,-5.267 4.871,-5.115C4.675,-4.952 4.192,-5.408 4.319,-5.636C4.372,-5.731 4.391,-5.833 4.36,-5.864C4.277,-5.946 4.486,-6.293 4.618,-6.293C4.779,-6.293 5.096,-6.599 5.096,-6.755C5.096,-7.126 4.398,-6.488 3.717,-5.494C2.932,-4.349 2.046,-2.181 2.525,-2.578C2.625,-2.66 2.704,-2.671 2.744,-2.607C2.837,-2.456 2.7,-2.021 2.541,-1.959C2.325,-1.876 2.372,-1.606 2.669,-1.209C2.992,-0.779 3.092,-0.704 3.254,-0.767C3.323,-0.793 3.408,-0.766 3.444,-0.708C3.562,-0.518 3.785,-0.594 3.79,-0.826C3.799,-1.322 3.814,-1.4 3.896,-1.4C3.943,-1.4 3.981,-1.196 3.981,-0.945C3.981,-0.696 4.031,-0.431 4.093,-0.357C4.176,-0.256 4.168,-0.186 4.06,-0.078C3.888,0.094 3.965,0.245 4.272,0.341C4.396,0.38 4.497,0.475 4.497,0.552C4.497,0.63 4.62,0.721 4.771,0.755C4.923,0.789 5.188,0.879 5.361,0.957C5.75,1.13 5.964,1.135 6.026,0.972C6.058,0.89 6.133,0.927 6.248,1.084C6.402,1.293 6.433,1.302 6.514,1.158C6.564,1.068 6.574,0.946 6.538,0.886C6.491,0.811 6.535,0.812 6.682,0.891C6.813,0.961 6.893,1.101 6.893,1.261C6.893,1.492 6.866,1.511 6.619,1.448C6.468,1.409 6.232,1.362 6.095,1.342C5.366,1.238 4.743,1.082 4.713,0.994C4.695,0.94 4.639,0.921 4.589,0.951C4.404,1.066 3.787,0.659 3.449,0.198C3.256,-0.064 3.099,-0.309 3.099,-0.347C3.099,-0.384 3.027,-0.487 2.94,-0.574C2.853,-0.661 2.597,-0.977 2.372,-1.276C2.067,-1.679 1.964,-1.907 1.971,-2.159C1.978,-2.388 1.935,-2.498 1.841,-2.498C1.764,-2.498 1.701,-2.545 1.701,-2.603C1.701,-2.66 1.777,-2.693 1.87,-2.677C1.987,-2.657 2.069,-2.753 2.14,-2.998C2.197,-3.19 2.428,-3.706 2.654,-4.146C3.605,-5.992 4.18,-6.739 5.041,-7.244C5.677,-7.617 6.845,-8.008 7.216,-7.972C7.535,-7.941 7.297,-7.85 7.346,-7.314C7.346,-7.314 7.455,-6.983 7.558,-6.892C7.662,-6.801 7.771,-6.638 7.864,-6.618C7.958,-6.599 7.889,-6.566 8,-6.553" style="fill:rgb(35,31,32);fill-rule:nonzero;"/>
        </g>
    </g>
</svg>
