<?xml version="1.0" encoding="UTF-8" standalone="no"?>
<!DOCTYPE svg PUBLIC "-//W3C//DTD SVG 1.1//EN" "http://www.w3.org/Graphics/SVG/1.1/DTD/svg11.dtd">
<svg width="100%" height="100%" viewBox="0 0 58 54" version="1.1" xmlns="http://www.w3.org/2000/svg" xmlns:xlink="http://www.w3.org/1999/xlink" xml:space="preserve" xmlns:serif="http://www.serif.com/" style="fill-rule:evenodd;clip-rule:evenodd;stroke-linejoin:round;stroke-miterlimit:2;">
    <g transform="matrix(1,0,0,1,-1138.55,-991.262)">
        <g transform="matrix(2.66667,0,0,2.66667,1144.57,1044.5)">
            <path d="M0,-10.19L17.013,-10.19C16.976,-9.342 16.927,-8.43 16.895,-7.99C16.855,-7.457 16.855,-6.785 16.895,-6.494C16.966,-5.966 16.966,-5.965 16.382,-5.014C16.06,-4.491 15.69,-3.877 15.559,-3.651C15.429,-3.424 15.258,-3.16 15.179,-3.064C14.977,-2.819 14.611,-2.288 14.611,-2.241C14.611,-2.219 14.465,-2.042 14.287,-1.847C14.048,-1.587 13.827,-1.459 13.457,-1.367C13.18,-1.297 12.568,-1.136 12.099,-1.009C11.629,-0.882 10.819,-0.683 10.297,-0.568C9.776,-0.453 9.115,-0.277 8.83,-0.179L8.31,0L7.55,-0.231C7.131,-0.359 6.533,-0.532 6.22,-0.617C5.444,-0.829 4.459,-1.131 4.229,-1.23C4.125,-1.274 3.933,-1.333 3.802,-1.36C3.109,-1.506 2.978,-1.555 2.774,-1.74C2.652,-1.85 2.442,-2.133 2.308,-2.367C2.174,-2.602 1.989,-2.88 1.897,-2.984C1.805,-3.088 1.629,-3.389 1.508,-3.652C1.386,-3.915 1.191,-4.252 1.075,-4.4C0.958,-4.548 0.863,-4.721 0.863,-4.784C0.863,-4.848 0.671,-5.192 0.436,-5.549C0.053,-6.133 -0.049,-6.4 0.005,-6.677C0.015,-6.726 0.015,-7.729 0.007,-8.905C0.004,-9.375 0.001,-9.819 0,-10.19" style="fill:rgb(187,98,40);"/>
        </g>
        <g transform="matrix(2.66667,0,0,2.66667,1157.69,1026.91)">
            <path d="M0,-2.202C0.194,-2.193 0.584,-2.162 0.866,-2.131C1.41,-2.072 1.542,-1.951 1.311,-1.72C1.234,-1.643 1.148,-1.323 1.119,-1.008C1.09,-0.694 1.038,-0.365 1.004,-0.276C0.892,0.014 0.783,-0.333 0.836,-0.81C0.865,-1.071 0.844,-1.276 0.784,-1.313C0.729,-1.348 0.685,-1.454 0.685,-1.551C0.685,-1.669 0.631,-1.713 0.518,-1.685C0.233,-1.616 -0.194,-1.79 -0.275,-2.008C-0.347,-2.202 -0.326,-2.216 0,-2.202" style="fill:rgb(35,31,32);fill-rule:nonzero;"/>
        </g>
        <g transform="matrix(2.66667,0,0,2.66667,1152.29,1023.64)">
            <path d="M0,-0.813C0.029,-0.766 0.046,-0.553 0.038,-0.339C0.016,0.218 -0.185,0.149 -0.211,-0.424C-0.229,-0.856 -0.134,-1.031 0,-0.813" style="fill:rgb(35,31,32);fill-rule:nonzero;"/>
        </g>
        <g transform="matrix(2.66667,0,0,2.66667,1162.96,1023.89)">
            <path d="M0,-2.303C0.28,-2.025 0.534,-1.722 0.564,-1.631C0.647,-1.376 0.819,-1.547 0.751,-1.817C0.719,-1.947 0.738,-2.109 0.795,-2.178C0.867,-2.264 0.868,-2.321 0.8,-2.364C0.775,-2.379 0.752,-2.416 0.735,-2.462L0.965,-2.462C0.969,-2.406 0.973,-2.344 0.978,-2.272C1.06,-1.129 1.03,-0.05 0.911,0.068C0.819,0.159 0.795,0.093 0.795,-0.25C0.795,-0.488 0.768,-0.816 0.736,-0.978C0.678,-1.27 -0.02,-2.031 -0.573,-2.462L-0.165,-2.462C-0.114,-2.414 -0.06,-2.363 0,-2.303" style="fill:rgb(35,31,32);fill-rule:nonzero;"/>
        </g>
        <g transform="matrix(-2.66667,0,0,2.66667,1157.49,1026.05)">
            <path d="M0,-0.474C-0.052,-0.474 -0.095,-0.367 -0.095,-0.237C-0.095,-0.107 -0.052,0 0,0C0.052,0 0.095,-0.107 0.095,-0.237C0.095,-0.367 0.052,-0.474 0,-0.474" style="fill:rgb(35,31,32);fill-rule:nonzero;"/>
        </g>
        <g transform="matrix(2.63315,-0.421435,-0.421435,-2.63315,1152.18,1019.46)">
            <path d="M-0.064,0.004C-0.166,0.02 -0.169,0.188 -0.075,0.75C-0.071,0.775 -0.068,0.797 -0.064,0.82L0.178,0.782C0.081,0.147 0.027,-0.011 -0.064,0.004" style="fill:rgb(35,31,32);fill-rule:nonzero;"/>
        </g>
        <g transform="matrix(2.55814,0.753022,0.753022,-2.55814,1153.51,1024.72)">
            <path d="M0.079,-0.003C-0.205,0.057 -0.316,0.506 -0.076,0.628C0.052,0.694 0.083,0.668 0.079,0.497C0.076,0.376 0.14,0.24 0.225,0.183C0.433,0.043 0.352,-0.06 0.079,-0.003" style="fill:rgb(35,31,32);fill-rule:nonzero;"/>
        </g>
        <g transform="matrix(2.66667,0,0,2.66667,1154.3,1017.45)">
            <path d="M0,0.07C-0.023,0.047 0.014,0.002 0.084,-0.045L0.389,-0.045C0.207,0.059 0.045,0.115 0,0.07" style="fill:rgb(35,31,32);fill-rule:nonzero;"/>
        </g>
        <g transform="matrix(2.66667,0,0,2.66667,1153.7,1018.2)">
            <path d="M0,0.763C-0.007,0.685 -0.032,0.461 -0.056,0.265C-0.082,0.057 -0.059,-0.09 -0.002,-0.09C0.052,-0.09 0.099,-0.08 0.102,-0.067C0.164,0.157 0.161,0.538 0.096,0.699C0.043,0.83 0.008,0.853 0,0.763" style="fill:rgb(35,31,32);fill-rule:nonzero;"/>
        </g>
        <g transform="matrix(2.66667,0,0,2.66667,1166.97,1024.29)">
            <path d="M0,0.588C-0.141,0.553 -0.115,0.065 0.03,0.017C0.121,-0.013 0.147,0.062 0.125,0.293C0.108,0.468 0.052,0.601 0,0.588" style="fill:rgb(35,31,32);fill-rule:nonzero;"/>
        </g>
        <g transform="matrix(2.66667,0,0,2.66667,1166.77,1020.26)">
            <path d="M0,0.275C0.017,-0.012 0.043,-0.414 0.055,-0.618C0.068,-0.822 0.133,-1.008 0.199,-1.03C0.293,-1.061 0.313,-0.816 0.287,0.094C0.267,0.796 0.215,1.272 0.155,1.292C0.024,1.336 -0.039,0.921 0,0.275" style="fill:rgb(35,31,32);fill-rule:nonzero;"/>
        </g>
        <g transform="matrix(2.66667,0,0,2.66667,1170.39,1022.22)">
            <path d="M0,-0.076C0,-0.125 0.043,-0.192 0.095,-0.224C0.147,-0.256 0.19,-0.216 0.19,-0.135C0.19,-0.053 0.147,0.013 0.095,0.013C0.043,0.013 0,-0.027 0,-0.076M0.804,-0.364C0.9,-0.444 0.948,-0.652 0.948,-0.984C0.948,-1.352 0.987,-1.499 1.098,-1.541C1.323,-1.627 1.327,-1.623 1.337,-1.291C1.342,-1.121 1.376,-0.876 1.412,-0.745C1.47,-0.537 1.434,-0.489 1.104,-0.341C0.702,-0.16 0.57,-0.171 0.804,-0.364M1.517,-0.893C1.517,-0.916 1.56,-0.935 1.612,-0.935C1.664,-0.935 1.707,-0.89 1.707,-0.835C1.707,-0.779 1.664,-0.761 1.612,-0.793C1.56,-0.825 1.517,-0.87 1.517,-0.893M1.701,-0.366C1.808,-0.366 1.896,-0.349 1.896,-0.329C1.896,-0.239 1.612,-0.193 1.562,-0.275C1.531,-0.325 1.594,-0.366 1.701,-0.366M-0.284,-1.836C-0.283,-1.701 -0.284,-1.523 -0.288,-1.283C-0.296,-0.753 -0.272,-0.242 -0.234,-0.149C-0.197,-0.055 -0.19,0.171 -0.22,0.355C-0.262,0.609 -0.23,0.731 -0.084,0.877C0.089,1.051 0.091,1.064 -0.066,1.038C-0.197,1.015 -0.244,1.08 -0.267,1.317C-0.284,1.499 -0.253,1.625 -0.19,1.625C-0.132,1.625 -0.108,1.664 -0.138,1.712C-0.167,1.76 -0.065,1.751 0.088,1.693C0.242,1.635 0.346,1.553 0.319,1.51C0.293,1.467 0.232,1.457 0.183,1.487C0.134,1.517 0.095,1.475 0.095,1.394C0.095,1.312 0.159,1.246 0.237,1.246C0.443,1.246 0.424,0.712 0.213,0.59C0.083,0.514 0.078,0.493 0.19,0.49C0.301,0.488 0.336,0.337 0.352,-0.2C0.371,-0.858 0.365,-0.876 0.23,-0.627C0.152,-0.483 0.044,-0.366 -0.009,-0.366C-0.137,-0.366 0.19,-0.82 0.535,-1.124C0.72,-1.287 0.753,-1.3 0.639,-1.164C0.507,-1.007 0.484,-0.861 0.53,-0.453C0.595,0.126 0.655,0.275 0.758,0.109C0.797,0.047 0.833,0.211 0.839,0.475C0.847,0.841 0.819,0.942 0.722,0.905C0.582,0.851 0.49,1.096 0.547,1.364C0.603,1.624 0.759,1.558 0.759,1.275C0.759,1.032 0.765,1.028 0.893,1.204C0.967,1.305 1.051,1.364 1.08,1.335C1.131,1.285 1.241,0.737 1.277,0.354C1.289,0.226 1.431,0.131 1.761,0.029C2.349,-0.152 2.362,-0.164 2.139,-0.326C2.038,-0.4 2.004,-0.461 2.065,-0.461C2.127,-0.461 2.149,-0.527 2.116,-0.614C2.07,-0.733 2.099,-0.754 2.245,-0.707C2.399,-0.659 2.429,-0.687 2.41,-0.862C2.397,-0.981 2.383,-1.109 2.378,-1.148C2.374,-1.188 2.322,-1.209 2.263,-1.196C2.205,-1.183 2.139,-1.3 2.117,-1.456C2.096,-1.605 2.021,-1.768 1.947,-1.836L1.271,-1.836C1.003,-1.644 0.423,-1.314 0.337,-1.314C0.293,-1.314 0.289,-1.574 0.309,-1.836L-0.284,-1.836Z" style="fill:rgb(35,31,32);fill-rule:nonzero;"/>
        </g>
        <g transform="matrix(-2.54671,0.790819,0.790819,2.54671,1152.23,1020.69)">
            <path d="M0.061,-0.199C0.014,-0.185 -0.037,-0.124 -0.052,-0.065C-0.068,-0.005 -0.017,0.024 0.061,-0C0.138,-0.024 0.189,-0.085 0.174,-0.135C0.159,-0.185 0.108,-0.214 0.061,-0.199" style="fill:rgb(35,31,32);fill-rule:nonzero;"/>
        </g>
        <g transform="matrix(2.66667,0,0,2.66667,1166.85,1026.37)">
            <path d="M0,0.735C-0.128,0.735 -0.197,0.432 -0.097,0.311C-0.044,0.248 -0.025,0.172 -0.054,0.143C-0.083,0.114 -0.064,0.064 -0.012,0.032C0.04,0 0.102,0.006 0.125,0.046C0.19,0.156 0.085,0.735 0,0.735" style="fill:rgb(35,31,32);fill-rule:nonzero;"/>
        </g>
        <g transform="matrix(2.66667,0,0,2.66667,1168.58,1019.48)">
            <path d="M0,0C0,0.13 -0.022,0.184 -0.048,0.119C-0.074,0.053 -0.074,-0.053 -0.048,-0.119C-0.022,-0.184 0,-0.13 0,0" style="fill:rgb(35,31,32);fill-rule:nonzero;"/>
        </g>
        <g transform="matrix(-2.63284,-0.423372,-0.423372,2.63284,1168.11,1018.44)">
            <path d="M-0.124,-0.441C-0.127,-0.415 -0.128,-0.396 -0.133,-0.367C-0.166,-0.158 -0.163,-0.011 -0.124,-0.038C-0.074,-0.073 -0.037,-0.161 0.033,-0.416L-0.124,-0.441Z" style="fill:rgb(35,31,32);fill-rule:nonzero;"/>
        </g>
        <g transform="matrix(2.66667,0,0,2.66667,1165.44,1025.4)">
            <path d="M0,0.849C-0.107,0.89 -0.136,0.8 -0.136,0.43C-0.136,0.171 -0.093,-0.041 -0.041,-0.041C0.011,-0.041 0.059,0.034 0.065,0.125C0.07,0.216 0.089,0.405 0.106,0.544C0.124,0.698 0.083,0.817 0,0.849" style="fill:rgb(35,31,32);fill-rule:nonzero;"/>
        </g>
        <g transform="matrix(2.66667,0,0,2.66667,1177.84,1023.59)">
            <path d="M0,-0.504C0.078,-0.378 0.026,0.166 -0.064,0.166C-0.105,0.166 -0.138,-0.005 -0.138,-0.214C-0.138,-0.594 -0.103,-0.67 0,-0.504" style="fill:rgb(35,31,32);fill-rule:nonzero;"/>
        </g>
        <g transform="matrix(0,-2.66667,-2.66667,0,1172.16,1023.52)">
            <path d="M-0.095,-0.095C-0.147,-0.095 -0.19,-0.052 -0.19,0C-0.19,0.052 -0.147,0.095 -0.095,0.095C-0.043,0.095 0,0.052 0,0C0,-0.052 -0.043,-0.095 -0.095,-0.095" style="fill:rgb(35,31,32);fill-rule:nonzero;"/>
        </g>
        <g transform="matrix(2.66667,0,0,2.66667,1174.79,1024.33)">
            <path d="M0,-0.147C0.079,0.06 -0.026,0.156 -0.138,-0.021C-0.25,-0.199 -0.253,-0.303 -0.145,-0.303C-0.098,-0.303 -0.033,-0.233 0,-0.147" style="fill:rgb(35,31,32);fill-rule:nonzero;"/>
        </g>
        <g transform="matrix(2.66667,0,0,2.66667,1178.22,1021.94)">
            <path d="M0,-1.48C0.129,-1.428 0.31,-1.318 0.403,-1.234C0.589,-1.066 0.637,-0.775 0.461,-0.884C0.393,-0.926 0.378,-0.91 0.42,-0.842C0.457,-0.782 0.46,-0.688 0.426,-0.633C0.319,-0.461 0.126,-0.708 0.117,-1.026C0.113,-1.188 0.085,-1.345 0.056,-1.374C-0.053,-1.483 -0.11,-1.303 -0.129,-0.791C-0.165,0.146 -0.353,-0.122 -0.371,-1.135C-0.379,-1.614 -0.366,-1.626 0,-1.48" style="fill:rgb(35,31,32);fill-rule:nonzero;"/>
        </g>
        <g transform="matrix(2.66667,0,0,2.66667,1178.71,1018.67)">
            <path d="M0,-0.504C0.043,-0.487 0.086,-0.469 0.124,-0.449L0.476,-0.273L0.43,-0.504L0.569,-0.504C0.56,-0.401 0.541,-0.284 0.52,-0.204L0.465,0L0.14,-0.22C-0.038,-0.341 -0.354,-0.469 -0.562,-0.504L0,-0.504Z" style="fill:rgb(35,31,32);fill-rule:nonzero;"/>
        </g>
        <g transform="matrix(2.66667,0,0,2.66667,1173.6,1035.41)">
            <path d="M0,-0.379C0.111,-0.379 0.279,-0.403 0.375,-0.432C0.47,-0.462 0.426,-0.415 0.277,-0.329C0.082,-0.216 -0.023,-0.201 -0.098,-0.276C-0.172,-0.35 -0.145,-0.379 0,-0.379M-0.447,0.095C-0.447,0.2 -0.384,0.285 -0.305,0.285C-0.227,0.285 -0.163,0.247 -0.163,0.202C-0.163,0.134 0.161,0.061 0.927,-0.043C0.98,-0.05 1.011,-0.109 0.997,-0.174C0.983,-0.239 1.017,-0.375 1.072,-0.478C1.151,-0.625 1.141,-0.664 1.026,-0.664C0.946,-0.664 0.88,-0.618 0.88,-0.562C0.88,-0.503 0.798,-0.487 0.681,-0.524C0.572,-0.559 0.292,-0.559 0.06,-0.524C-0.301,-0.47 -0.353,-0.435 -0.303,-0.278C-0.271,-0.175 -0.289,-0.095 -0.346,-0.095C-0.402,-0.095 -0.447,-0.009 -0.447,0.095" style="fill:rgb(35,31,32);fill-rule:nonzero;"/>
        </g>
        <g transform="matrix(2.66667,0,0,2.66667,1173.23,1039.68)">
            <path d="M0,-0.978C0.106,-0.872 0.086,0.104 -0.022,0.104C-0.073,0.104 -0.142,-0.001 -0.174,-0.131C-0.243,-0.406 -0.104,-1.082 0,-0.978" style="fill:rgb(35,31,32);fill-rule:nonzero;"/>
        </g>
        <g transform="matrix(-2.54671,0.790819,0.790819,2.54671,1169.55,1039.91)">
            <path d="M0.061,-0.199C0.039,-0.192 0.009,-0.138 -0.007,-0.079C-0.023,-0.019 0.008,0.016 0.061,-0C0.113,-0.017 0.144,-0.071 0.129,-0.121C0.114,-0.171 0.083,-0.206 0.061,-0.199" style="fill:rgb(35,31,32);fill-rule:nonzero;"/>
        </g>
        <g transform="matrix(2.66667,0,0,2.66667,1177.38,1032.5)">
            <path d="M0,-0.09C0.031,-0.009 0.032,0.08 0.003,0.109C-0.08,0.192 -0.252,0.052 -0.252,-0.1C-0.252,-0.282 -0.071,-0.275 0,-0.09" style="fill:rgb(35,31,32);fill-rule:nonzero;"/>
        </g>
        <g transform="matrix(2.66667,0,0,2.66667,1160.55,1039.61)">
            <path d="M0,-0.437C0.047,-0.437 0.085,-0.351 0.085,-0.247C0.085,-0.062 -0.016,0 -0.13,-0.114C-0.206,-0.19 -0.107,-0.437 0,-0.437" style="fill:rgb(35,31,32);fill-rule:nonzero;"/>
        </g>
        <g transform="matrix(2.66667,0,0,2.66667,1178.21,1035.49)">
            <path d="M0,0.023C-0.004,0.134 -0.027,0.156 -0.057,0.08C-0.085,0.012 -0.081,-0.07 -0.05,-0.102C-0.018,-0.133 0.004,-0.077 0,0.023" style="fill:rgb(35,31,32);fill-rule:nonzero;"/>
        </g>
        <g transform="matrix(2.66667,0,0,2.66667,1176,1032.02)">
            <path d="M0,-0.166C0.032,-0.262 0.054,-0.262 0.114,-0.166C0.155,-0.1 0.163,-0.02 0.131,0.011C0.047,0.096 -0.046,-0.028 0,-0.166" style="fill:rgb(35,31,32);fill-rule:nonzero;"/>
        </g>
        <g transform="matrix(2.66667,0,0,2.66667,1157.34,1038.1)">
            <path d="M0,-0.86C0.085,-0.64 -0.035,0.14 -0.143,0.073C-0.25,0.007 -0.25,-0.732 -0.144,-0.9C-0.081,-1 -0.051,-0.992 0,-0.86" style="fill:rgb(35,31,32);fill-rule:nonzero;"/>
        </g>
        <g transform="matrix(2.66667,0,0,2.66667,1148.39,1027.89)">
            <path d="M0,-0.698C0,-0.853 0.262,-0.792 0.335,-0.62C0.517,-0.194 0.335,0.155 0.069,-0.11C-0.01,-0.19 0.003,-0.217 0.123,-0.217C0.322,-0.217 0.327,-0.283 0.142,-0.468C0.064,-0.546 0,-0.65 0,-0.698" style="fill:rgb(35,31,32);fill-rule:nonzero;"/>
        </g>
        <g transform="matrix(2.66667,0,0,2.66667,1147.35,1043.43)">
            <path d="M0,-9.384C-0.081,-9.678 -0.074,-9.69 0.086,-9.531C0.148,-9.468 0.199,-9.36 0.199,-9.289C0.199,-9.219 0.349,-8.928 0.531,-8.643C0.714,-8.358 0.863,-8.1 0.863,-8.071C0.863,-8.041 1.018,-7.754 1.207,-7.432C1.449,-7.022 1.551,-6.735 1.55,-6.468C1.55,-6.26 1.589,-6.039 1.638,-5.979C1.694,-5.909 1.686,-5.845 1.616,-5.802C1.54,-5.754 1.529,-5.546 1.578,-5.106C1.661,-4.365 1.69,-3.007 1.622,-3.009C1.596,-3.009 1.497,-3.172 1.402,-3.37C1.254,-3.68 1.231,-3.973 1.238,-5.489C1.246,-7.317 1.221,-7.442 0.84,-7.435C0.589,-7.431 0.582,-6.874 0.83,-6.597C0.933,-6.482 0.965,-6.231 0.953,-5.648C0.943,-5.213 0.934,-4.741 0.933,-4.599C0.931,-4.357 0.914,-4.368 0.66,-4.768C0.348,-5.26 0.322,-5.441 0.555,-5.503C0.696,-5.541 0.689,-5.558 0.508,-5.616C0.375,-5.659 0.294,-5.761 0.293,-5.887C0.292,-6.039 0.271,-6.057 0.208,-5.958C0.049,-5.706 -0.077,-6.168 -0.024,-6.808C0.063,-7.85 0.075,-9.112 0,-9.384M1.914,-5.077C1.881,-5.268 1.855,-5.639 1.857,-5.9C1.859,-6.335 1.878,-6.376 2.096,-6.397C2.226,-6.41 2.397,-6.384 2.475,-6.341C2.553,-6.298 2.98,-6.186 3.423,-6.094C3.866,-6.002 4.549,-5.843 4.94,-5.742C5.331,-5.641 5.944,-5.519 6.303,-5.472C6.661,-5.426 6.978,-5.363 7.008,-5.333C7.068,-5.273 7.056,-0.92 6.996,-0.86C6.976,-0.839 6.891,-0.849 6.807,-0.88C6.636,-0.946 6.62,-1.133 6.656,-2.747C6.672,-3.452 6.609,-3.69 6.367,-3.85C6.144,-3.997 6.138,-3.996 6.222,-3.814C6.301,-3.64 6.335,-1.909 6.271,-1.268C6.241,-0.97 6.204,-0.969 5.414,-1.246C5.18,-1.329 4.668,-1.486 4.277,-1.596C3.886,-1.707 3.433,-1.855 3.271,-1.927C3.108,-1.997 2.878,-2.092 2.758,-2.136C2.531,-2.221 2.517,-2.423 2.604,-4.396C2.625,-4.852 2.871,-5.048 3.594,-5.185C4.198,-5.299 4.265,-5.294 4.707,-5.094C4.966,-4.977 5.361,-4.733 5.586,-4.551C6.133,-4.106 6.203,-4.224 5.685,-4.718C4.797,-5.566 3.875,-5.745 3.008,-5.238C2.382,-4.871 2.284,-4.685 2.301,-3.902C2.329,-2.682 2.296,-2.344 2.149,-2.344C2.074,-2.344 1.986,-2.386 1.954,-2.438C1.85,-2.606 1.849,-4.142 1.952,-4.177C2.014,-4.198 2.008,-4.259 1.935,-4.346C1.873,-4.423 1.856,-4.538 1.898,-4.606C1.939,-4.673 1.947,-4.885 1.914,-5.077M7.601,-5.381C7.702,-5.435 7.787,-5.467 7.79,-5.453C7.793,-5.438 7.804,-4.628 7.814,-3.652C7.828,-2.312 7.863,-1.849 7.96,-1.756C8.066,-1.653 8.078,-1.785 8.034,-2.557C8,-3.144 8.015,-3.482 8.076,-3.482C8.128,-3.482 8.195,-3.418 8.224,-3.34C8.255,-3.261 8.337,-3.197 8.409,-3.197C8.482,-3.197 8.515,-3.139 8.485,-3.061C8.456,-2.986 8.476,-2.847 8.529,-2.753C8.62,-2.59 8.629,-2.591 8.698,-2.771C8.737,-2.875 8.824,-3.015 8.89,-3.082C9.015,-3.208 8.962,-3.479 8.788,-3.6C8.719,-3.648 8.731,-3.7 8.825,-3.761C9.023,-3.889 8.916,-3.949 8.662,-3.853C8.545,-3.808 8.448,-3.707 8.448,-3.627C8.448,-3.547 8.406,-3.482 8.354,-3.482C8.218,-3.482 8.242,-3.784 8.395,-3.985C8.466,-4.079 8.614,-4.163 8.723,-4.171C8.958,-4.189 8.984,-4.291 8.774,-4.372C8.599,-4.439 8.215,-4.179 8.087,-3.908C8.023,-3.772 7.994,-3.965 7.986,-4.588L7.974,-5.457L8.283,-5.518C8.452,-5.552 8.676,-5.614 8.78,-5.657C8.959,-5.731 9.107,-5.772 10.155,-6.04C10.39,-6.1 10.71,-6.186 10.866,-6.232C11.023,-6.277 11.311,-6.343 11.506,-6.379C11.835,-6.437 11.862,-6.425 11.863,-6.218C11.865,-5.924 11.963,-5.568 12.042,-5.568C12.076,-5.568 12.088,-5.738 12.068,-5.947C12.042,-6.22 12.068,-6.327 12.16,-6.328C12.261,-6.329 12.258,-6.348 12.149,-6.417C12.072,-6.466 12.038,-6.534 12.073,-6.569C12.109,-6.604 12.206,-6.564 12.291,-6.48C12.38,-6.391 12.399,-6.326 12.336,-6.326C12.276,-6.326 12.242,-6.251 12.259,-6.16C12.298,-5.958 12.569,-5.938 12.582,-6.137C12.587,-6.215 12.598,-6.396 12.606,-6.539C12.62,-6.792 12.711,-6.868 12.842,-6.737C12.876,-6.702 12.905,-6.497 12.905,-6.282C12.905,-6.066 12.956,-5.839 13.019,-5.776C13.107,-5.688 13.107,-5.663 13.016,-5.663C12.931,-5.663 12.903,-5.425 12.913,-4.794C12.923,-4.198 12.955,-3.975 13.016,-4.083C13.065,-4.17 13.079,-4.284 13.046,-4.336C13.015,-4.388 13.034,-4.43 13.089,-4.43C13.144,-4.43 13.19,-4.376 13.191,-4.311C13.192,-4.23 13.219,-4.236 13.279,-4.33C13.384,-4.496 13.309,-4.649 13.152,-4.589C13.017,-4.537 12.954,-5.054 13.085,-5.135C13.133,-5.164 13.15,-5.108 13.125,-5.009C13.055,-4.742 13.271,-4.666 13.374,-4.922C13.44,-5.086 13.07,-4.954 13.481,-5.325C13.64,-5.469 13.61,-5.532 13.94,-6.164C14.093,-6.456 14.267,-6.786 14.327,-6.246L14.611,-6.042L14.517,-5.524C14.562,-5.268 14.27,-4.75 14.33,-4.713C14.403,-4.667 14.322,-4.474 14.078,-4.111C13.88,-3.817 13.684,-3.577 13.643,-3.577C13.602,-3.577 13.568,-3.494 13.568,-3.393C13.568,-3.096 13.38,-3.062 13.37,-3.358C13.348,-3.975 13.326,-4.083 13.212,-4.121C13.131,-4.149 13.098,-4.074 13.111,-3.893C13.121,-3.745 13.121,-3.402 13.112,-3.129C13.098,-2.742 13.065,-2.646 12.959,-2.686C12.858,-2.725 12.815,-2.646 12.792,-2.383C12.776,-2.185 12.704,-2.008 12.631,-1.984C12.551,-1.957 12.525,-1.982 12.565,-2.047C12.602,-2.106 12.57,-2.241 12.495,-2.348C12.381,-2.511 12.351,-2.519 12.303,-2.396C12.272,-2.315 12.27,-2.19 12.298,-2.117C12.366,-1.939 12.258,-1.884 11.607,-1.764C11.304,-1.708 11.003,-1.619 10.938,-1.565C10.847,-1.491 10.819,-1.535 10.819,-1.752C10.819,-1.962 10.766,-2.051 10.62,-2.089C10.51,-2.118 10.449,-2.187 10.483,-2.243C10.517,-2.298 10.479,-2.344 10.398,-2.344C10.23,-2.344 10.2,-2.196 10.349,-2.104C10.403,-2.071 10.422,-1.962 10.39,-1.862C10.349,-1.734 10.378,-1.68 10.486,-1.68C10.842,-1.68 10.471,-1.487 9.567,-1.2C9.036,-1.032 8.535,-0.887 8.454,-0.877C8.373,-0.868 8.242,-0.835 8.164,-0.803C8.086,-0.772 7.887,-0.729 7.721,-0.709L7.42,-0.672L7.419,-2.978C7.418,-5.161 7.427,-5.288 7.601,-5.381M14.382,-6.759C14.269,-6.872 14.257,-6.953 14.331,-7.091C14.478,-7.367 14.564,-7.312 14.564,-6.943C14.564,-6.76 14.557,-6.611 14.547,-6.611C14.538,-6.611 14.464,-6.677 14.382,-6.759M14.469,-7.843C14.391,-7.843 14.327,-7.886 14.327,-7.938C14.327,-7.99 14.391,-8.033 14.469,-8.033C14.548,-8.033 14.611,-7.99 14.611,-7.938C14.611,-7.886 14.548,-7.843 14.469,-7.843M14.665,-5.44C14.71,-5.721 14.768,-5.811 14.905,-5.811C15.004,-5.811 15.086,-5.772 15.086,-5.725C15.086,-5.601 14.693,-4.981 14.645,-5.029C14.623,-5.05 14.632,-5.236 14.665,-5.44M15.08,-9.171C15.025,-9.171 15.006,-9.213 15.038,-9.266C15.071,-9.318 15.115,-9.36 15.139,-9.36C15.162,-9.36 15.18,-9.318 15.18,-9.266C15.18,-9.213 15.135,-9.171 15.08,-9.171M15.08,-7.955C15.074,-7.712 15.07,-7.71 14.989,-7.911C14.943,-8.026 14.818,-8.175 14.711,-8.242C14.505,-8.37 14.454,-8.507 14.611,-8.507C14.664,-8.507 14.706,-8.467 14.706,-8.418C14.706,-8.37 14.792,-8.303 14.896,-8.27C15.026,-8.229 15.084,-8.13 15.08,-7.955M14.706,-9.36C14.706,-9.308 14.664,-9.266 14.611,-9.266C14.559,-9.266 14.517,-9.308 14.517,-9.36C14.517,-9.413 14.559,-9.455 14.611,-9.455C14.664,-9.455 14.706,-9.413 14.706,-9.36M14.043,-7.606C14.097,-7.731 14.126,-7.747 14.129,-7.654C14.132,-7.575 14.093,-7.447 14.043,-7.369C13.931,-7.196 13.931,-7.345 14.043,-7.606M14.247,-8.812C14.187,-8.792 14.137,-8.726 14.136,-8.665C14.134,-8.604 14.055,-8.453 13.96,-8.329C13.82,-8.147 13.777,-8.131 13.732,-8.25C13.701,-8.331 13.758,-8.468 13.861,-8.561C13.974,-8.664 14.024,-8.796 13.99,-8.902C13.96,-9 13.999,-9.141 14.081,-9.222C14.212,-9.354 14.233,-9.342 14.292,-9.108C14.333,-8.944 14.317,-8.836 14.247,-8.812M13.392,-6.326C13.431,-6.326 13.479,-6.486 13.499,-6.682C13.522,-6.901 14.395,-7.021 14.129,-6.733C13.807,-6.385 13.427,-5.431 13.361,-5.995C13.339,-6.177 13.354,-6.326 13.392,-6.326M13.471,-7.748C13.424,-7.748 13.408,-7.808 13.436,-7.881C13.464,-7.954 13.44,-8.042 13.384,-8.077C13.327,-8.112 13.305,-8.181 13.335,-8.229C13.426,-8.375 13.552,-8.329 13.616,-8.129C13.68,-7.927 13.612,-7.748 13.471,-7.748M-1.038,-6.274C-1.092,-5.997 -0.99,-5.73 -0.606,-5.146C-0.372,-4.789 -0.18,-4.445 -0.18,-4.381C-0.18,-4.318 -0.084,-4.145 0.032,-3.997C0.148,-3.849 0.343,-3.513 0.465,-3.249C0.586,-2.986 0.762,-2.685 0.854,-2.581C0.946,-2.477 1.131,-2.199 1.265,-1.965C1.399,-1.73 1.609,-1.447 1.731,-1.337C1.935,-1.152 2.067,-1.104 2.76,-0.958C2.89,-0.93 3.082,-0.871 3.186,-0.827C3.416,-0.729 4.401,-0.426 5.177,-0.214C5.491,-0.129 6.089,0.044 6.507,0.172L7.267,0.403L7.787,0.224C8.073,0.125 8.733,-0.05 9.254,-0.165C9.776,-0.281 10.587,-0.479 11.056,-0.606C11.525,-0.734 12.137,-0.894 12.414,-0.964C12.785,-1.056 13.006,-1.184 13.244,-1.445C13.422,-1.639 13.568,-1.816 13.568,-1.838C13.568,-1.885 13.934,-2.416 14.136,-2.661C14.215,-2.757 14.387,-3.021 14.517,-3.248C14.647,-3.475 15.017,-4.088 15.339,-4.612C15.923,-5.562 15.923,-5.564 15.852,-6.091C15.812,-6.382 15.813,-7.055 15.852,-7.587C15.884,-8.027 15.933,-8.939 15.97,-9.787L14.188,-9.787C14.187,-9.751 14.174,-9.715 14.139,-9.693C14.086,-9.66 14.043,-9.7 14.043,-9.781L14.043,-9.787L13.219,-9.787C13.239,-9.758 13.266,-9.74 13.296,-9.74C13.37,-9.74 13.366,-9.695 13.284,-9.597C13.186,-9.479 13.197,-9.455 13.344,-9.452C13.51,-9.449 13.511,-9.443 13.355,-9.353C13.165,-9.242 13.132,-9.064 13.308,-9.099C13.373,-9.112 13.422,-9.07 13.417,-9.005C13.412,-8.94 13.401,-8.802 13.393,-8.699C13.384,-8.58 13.331,-8.531 13.244,-8.565C13.145,-8.603 13.122,-8.564 13.16,-8.421C13.193,-8.293 13.158,-8.204 13.059,-8.166C12.972,-8.133 12.936,-8.061 12.976,-7.999C13.076,-7.844 13.072,-7.464 12.97,-7.464C12.923,-7.464 12.908,-7.403 12.937,-7.328C12.992,-7.183 12.75,-6.923 12.651,-7.022C12.619,-7.055 12.595,-7.22 12.6,-7.389C12.605,-7.559 12.56,-7.727 12.501,-7.764C12.421,-7.813 12.427,-7.895 12.522,-8.074C12.676,-8.362 12.639,-8.424 12.356,-8.35C12.214,-8.313 12.146,-8.223 12.146,-8.069C12.146,-7.945 12.104,-7.843 12.051,-7.843C11.999,-7.843 11.957,-7.992 11.957,-8.175C11.957,-8.358 11.913,-8.507 11.86,-8.507C11.801,-8.507 11.771,-8.245 11.785,-7.837C11.806,-7.19 11.878,-6.975 12.003,-7.179C12.042,-7.24 12.118,-7.221 12.211,-7.128C12.292,-7.047 12.34,-6.962 12.316,-6.939C12.256,-6.878 11.289,-6.681 11.008,-6.672C10.878,-6.668 10.75,-6.641 10.724,-6.612C10.698,-6.583 10.573,-6.493 10.446,-6.412C10.242,-6.281 10.182,-6.28 9.942,-6.4C9.792,-6.475 9.64,-6.504 9.604,-6.465C9.568,-6.427 9.594,-6.376 9.662,-6.351C9.755,-6.318 9.758,-6.276 9.674,-6.176C9.614,-6.103 9.535,-6.062 9.498,-6.085C9.461,-6.108 9.114,-6.044 8.727,-5.944C8.339,-5.843 8.008,-5.76 7.991,-5.759C7.974,-5.758 7.967,-6.237 7.978,-6.824C8.003,-8.326 7.988,-8.602 7.879,-8.602C7.819,-8.602 7.788,-8.073 7.793,-7.169C7.799,-6.31 7.764,-5.699 7.706,-5.641C7.595,-5.53 6.585,-5.629 6.504,-5.759C6.476,-5.804 6.251,-5.87 6.005,-5.906C5.758,-5.941 5.194,-6.051 4.751,-6.15C4.308,-6.248 3.539,-6.414 3.044,-6.519C1.813,-6.779 1.811,-6.78 1.811,-7.044C1.811,-7.171 1.769,-7.274 1.718,-7.274C1.667,-7.274 1.496,-7.531 1.337,-7.843C1.179,-8.156 1.094,-8.412 1.147,-8.412C1.207,-8.412 1.242,-8.917 1.242,-9.777L1.242,-9.787L0.97,-9.787C0.976,-9.505 0.977,-9.22 0.969,-8.984C0.959,-8.674 0.949,-8.665 0.796,-8.819C0.671,-8.944 0.628,-9.263 0.665,-9.787L0.382,-9.787L0.383,-9.787L-1.043,-9.787C-1.042,-9.416 -1.039,-8.973 -1.036,-8.502C-1.027,-7.326 -1.028,-6.324 -1.038,-6.274" style="fill:rgb(35,31,32);fill-rule:nonzero;"/>
        </g>
        <g transform="matrix(2.66667,0,0,2.66667,1148.03,1027.15)">
            <path d="M0,-0.318C0.082,-0.318 0.133,-0.267 0.112,-0.205C0.054,-0.029 -0.15,0 -0.15,-0.168C-0.15,-0.25 -0.082,-0.318 0,-0.318" style="fill:rgb(35,31,32);fill-rule:nonzero;"/>
        </g>
        <g transform="matrix(2.66667,0,0,2.66667,1148.15,1021.4)">
            <path d="M0,0.184C-0.055,0.15 -0.099,0.082 -0.099,0.033C-0.099,-0.086 0.253,-0.081 0.327,0.04C0.399,0.155 0.139,0.27 0,0.184" style="fill:rgb(35,31,32);fill-rule:nonzero;"/>
        </g>
        <g transform="matrix(2.66667,0,0,2.66667,1161.29,1035.01)">
            <path d="M0,-0.279C-0.052,-0.247 -0.095,-0.098 -0.095,0.053C-0.095,0.385 -0.272,0.518 -0.428,0.304C-0.491,0.217 -0.672,0.148 -0.836,0.148C-1.014,0.148 -1.167,0.083 -1.226,-0.018C-1.293,-0.132 -1.347,-0.151 -1.397,-0.077C-1.447,-0.005 -1.545,0.001 -1.707,-0.06C-1.929,-0.144 -1.933,-0.158 -1.773,-0.275C-1.68,-0.344 -1.509,-0.383 -1.394,-0.361L-1.185,-0.321L-1.399,-0.416C-1.516,-0.468 -1.612,-0.575 -1.612,-0.655C-1.612,-0.735 -1.601,-0.797 -1.588,-0.792C-1.575,-0.787 -1.351,-0.702 -1.09,-0.602C-0.787,-0.486 -0.488,-0.438 -0.261,-0.469C0.072,-0.515 0.214,-0.412 0,-0.279" style="fill:rgb(35,31,32);fill-rule:nonzero;"/>
        </g>
        <g transform="matrix(2.66667,0,0,2.66667,1175.42,1032.49)">
            <path d="M0,-1.096C-0.125,-1.046 -0.164,-1.002 -0.086,-0.998C0.074,-0.992 0.168,-0.329 0.009,-0.329C-0.043,-0.329 -0.087,-0.446 -0.089,-0.59C-0.091,-0.733 -0.149,-0.925 -0.218,-1.016C-0.352,-1.192 -0.845,-1.248 -0.845,-1.087C-0.845,-1.036 -0.898,-0.994 -0.963,-0.996C-1.028,-0.997 -0.981,-1.083 -0.858,-1.186C-0.608,-1.394 0.078,-1.431 0.483,-1.258C0.613,-1.202 0.848,-1.101 1.004,-1.033C1.161,-0.965 1.368,-0.815 1.465,-0.701C1.599,-0.542 1.659,-0.522 1.717,-0.616C1.778,-0.714 1.824,-0.708 1.945,-0.587C2.085,-0.447 2.084,-0.427 1.93,-0.337C1.838,-0.284 1.816,-0.238 1.881,-0.237C1.947,-0.235 2,-0.197 2,-0.152C2,-0.108 1.887,-0.092 1.749,-0.119C1.518,-0.163 1.504,-0.147 1.561,0.084C1.599,0.232 1.585,0.335 1.528,0.335C1.474,0.335 1.431,0.193 1.431,0.02C1.431,-0.319 1.295,-0.476 0.616,-0.929C0.302,-1.138 0.185,-1.17 0,-1.096" style="fill:rgb(35,31,32);fill-rule:nonzero;"/>
        </g>
        <g transform="matrix(0,-2.66667,-2.66667,0,1173.15,1033.24)">
            <path d="M-0.055,-0.055C-0.107,-0.087 -0.15,-0.068 -0.15,-0.013C-0.15,0.042 -0.107,0.087 -0.055,0.087C-0.003,0.087 0.04,0.068 0.04,0.045C0.04,0.023 -0.003,-0.023 -0.055,-0.055" style="fill:rgb(35,31,32);fill-rule:nonzero;"/>
        </g>
        <g transform="matrix(0,2.66667,2.66667,0,1173.04,1030.1)">
            <path d="M0.095,-0.095C0.043,-0.063 0,-0.02 0,0C0,0.02 0.043,0.062 0.095,0.094C0.147,0.127 0.19,0.084 0.19,0C0.19,-0.085 0.147,-0.127 0.095,-0.095" style="fill:rgb(35,31,32);fill-rule:nonzero;"/>
        </g>
        <g transform="matrix(0,2.66667,2.66667,0,1177.95,1027.08)">
            <path d="M0.087,-0.087C0.035,-0.087 -0.008,-0.068 -0.008,-0.045C-0.008,-0.022 0.035,0.023 0.087,0.055C0.139,0.087 0.182,0.068 0.182,0.013C0.182,-0.042 0.139,-0.087 0.087,-0.087" style="fill:rgb(35,31,32);fill-rule:nonzero;"/>
        </g>
        <g transform="matrix(2.66667,0,0,2.66667,1180.61,1027.74)">
            <path d="M0,0.542C-0.084,0.574 -0.122,0.559 -0.089,0.505C-0.057,0.453 -0.072,0.411 -0.121,0.411C-0.17,0.411 -0.233,0.326 -0.26,0.221C-0.325,-0.027 -0.083,-0.032 0.049,0.215C0.177,0.455 0.174,0.475 0,0.542" style="fill:rgb(35,31,32);fill-rule:nonzero;"/>
        </g>
        <g transform="matrix(-2.66667,0,0,2.66667,1181.77,1033.59)">
            <path d="M0,-0.174C-0.052,-0.174 -0.095,-0.129 -0.095,-0.074C-0.095,-0.019 -0.052,0 0,-0.032C0.052,-0.064 0.095,-0.109 0.095,-0.132C0.095,-0.155 0.052,-0.174 0,-0.174" style="fill:rgb(35,31,32);fill-rule:nonzero;"/>
        </g>
        <g transform="matrix(-2.54671,0.790819,0.790819,2.54671,1173.34,1031.57)">
            <path d="M0.061,-0.199C0.039,-0.192 0.009,-0.138 -0.007,-0.079C-0.023,-0.019 0.008,0.016 0.061,-0C0.113,-0.017 0.144,-0.071 0.129,-0.121C0.114,-0.171 0.083,-0.206 0.061,-0.199" style="fill:rgb(35,31,32);fill-rule:nonzero;"/>
        </g>
        <g transform="matrix(2.66667,0,0,2.66667,1180.93,1035.28)">
            <path d="M0,0.089C0.007,0.324 -0.026,0.401 -0.117,0.365C-0.187,0.339 -0.221,0.257 -0.193,0.183C-0.164,0.109 -0.194,0.048 -0.258,0.048C-0.349,0.048 -0.349,0.018 -0.256,-0.094C-0.075,-0.312 -0.01,-0.266 0,0.089" style="fill:rgb(35,31,32);fill-rule:nonzero;"/>
        </g>
        <g transform="matrix(2.66667,0,0,2.66667,1180.75,1029.8)">
            <path d="M0,0.07C0,0.151 -0.043,0.191 -0.096,0.158C-0.149,0.126 -0.168,0.059 -0.138,0.01C-0.057,-0.121 0,-0.097 0,0.07" style="fill:rgb(35,31,32);fill-rule:nonzero;"/>
        </g>
        <g transform="matrix(2.66667,0,0,2.66667,1180.59,1033)">
            <path d="M0,-0.173C0.102,-0.07 0.073,0.024 -0.079,0.082C-0.176,0.12 -0.221,0.077 -0.221,-0.049C-0.221,-0.236 -0.12,-0.293 0,-0.173" style="fill:rgb(35,31,32);fill-rule:nonzero;"/>
        </g>
        <g transform="matrix(0,-2.66667,-2.66667,0,1175.44,1032.12)">
            <path d="M-0.095,-0.095C-0.147,-0.095 -0.19,-0.052 -0.19,0C-0.19,0.052 -0.147,0.095 -0.095,0.095C-0.043,0.095 0,0.052 0,0C0,-0.052 -0.043,-0.095 -0.095,-0.095" style="fill:rgb(35,31,32);fill-rule:nonzero;"/>
        </g>
        <g transform="matrix(-2.66667,0,0,2.66667,1181.77,1034.35)">
            <path d="M0,-0.174C-0.052,-0.174 -0.095,-0.129 -0.095,-0.074C-0.095,-0.019 -0.052,0 0,-0.032C0.052,-0.064 0.095,-0.109 0.095,-0.132C0.095,-0.155 0.052,-0.174 0,-0.174" style="fill:rgb(35,31,32);fill-rule:nonzero;"/>
        </g>
        <g transform="matrix(1.68446,2.06729,2.06729,-1.68446,1180,1034.17)">
            <path d="M0.116,-0.024C0.123,0.045 0.092,0.156 0.05,0.223C-0.014,0.32 -0.001,0.34 0.116,0.325C0.203,0.313 0.254,0.245 0.243,0.152C0.22,-0.034 0.099,-0.203 0.116,-0.024" style="fill:rgb(35,31,32);fill-rule:nonzero;"/>
        </g>
        <g transform="matrix(0,2.66667,2.66667,0,1176.18,1032.64)">
            <path d="M0.088,-0.088C0.036,-0.088 -0.007,-0.069 -0.007,-0.046C-0.007,-0.023 0.036,0.022 0.088,0.055C0.14,0.088 0.183,0.068 0.183,0.012C0.183,-0.043 0.14,-0.088 0.088,-0.088" style="fill:rgb(35,31,32);fill-rule:nonzero;"/>
        </g>
        <g transform="matrix(2.66667,0,0,2.66667,1167.78,991.989)">
            <path d="M0,13.887L7.914,11.535L10.161,7.25L9.762,6.296C9.377,5.797 8.928,5.241 8.661,4.946C7.165,3.292 6.359,2.623 5.859,2.622C5.5,2.621 5.111,2.403 4.808,2.033C4.095,1.163 3.196,0.561 2.178,0.262L-1.449,0.084L-2.436,0C-3.356,0.308 -4.092,0.742 -4.762,1.397C-5.14,1.766 -5.449,2.122 -5.449,2.189C-5.449,2.404 -5.796,2.63 -6.498,2.875C-7.359,3.174 -7.864,3.504 -8.013,3.865C-8.077,4.018 -8.177,4.175 -8.236,4.213C-8.295,4.251 -8.455,4.455 -8.592,4.667C-8.729,4.879 -9.006,5.247 -9.208,5.485C-9.496,5.826 -10.005,6.486 -10.49,7.144L-9.44,10.018L-7.774,12.199L0,13.887Z" style="fill:rgb(187,98,40);"/>
        </g>
        <g transform="matrix(2.66667,0,0,2.66667,1156.03,1001.26)">
            <path d="M0,0.19C0.052,0.19 0.095,0.147 0.095,0.095C0.095,0.043 0.052,0 0,0C-0.052,0 -0.095,0.043 -0.095,0.095C-0.095,0.147 -0.052,0.19 0,0.19" style="fill:rgb(35,31,32);fill-rule:nonzero;"/>
        </g>
        <g transform="matrix(2.66667,0,0,2.66667,1154.51,1007.51)">
            <path d="M0,0.026C-0.185,-0.094 -0.311,-0.094 -0.237,0.026C-0.205,0.078 -0.106,0.12 -0.018,0.119C0.12,0.118 0.123,0.105 0,0.026" style="fill:rgb(35,31,32);fill-rule:nonzero;"/>
        </g>
        <g transform="matrix(2.66667,0,0,2.66667,1155.01,1003.77)">
            <path d="M0,-0.074C-0.13,-0.074 -0.184,-0.052 -0.119,-0.026C-0.053,0 0.053,0 0.119,-0.026C0.184,-0.052 0.13,-0.074 0,-0.074" style="fill:rgb(35,31,32);fill-rule:nonzero;"/>
        </g>
        <g transform="matrix(2.52982,-0.843274,-0.843274,-2.52982,1158.39,1008.38)">
            <path d="M-0.019,-0.001C0.06,0.039 0.109,0.098 0.092,0.132C0.075,0.166 0.026,0.177 -0.019,0.154C-0.063,0.132 -0.112,0.073 -0.129,0.022C-0.148,-0.034 -0.105,-0.044 -0.019,-0.001" style="fill:rgb(35,31,32);fill-rule:nonzero;"/>
        </g>
        <g transform="matrix(2.66667,0,0,2.66667,1157.36,1004.23)">
            <path d="M0,0.272C0.025,0.297 0.07,0.251 0.101,0.171C0.165,0.004 0.111,-0.025 0.017,0.126C-0.017,0.181 -0.025,0.247 0,0.272" style="fill:rgb(35,31,32);fill-rule:nonzero;"/>
        </g>
        <g transform="matrix(2.66667,0,0,2.66667,1157.86,1014.72)">
            <path d="M0,-0.214C-0.07,-0.102 -0.08,-0.024 -0.023,-0.024C0.03,-0.024 0.073,0.04 0.073,0.118C0.073,0.196 0.139,0.26 0.221,0.26C0.331,0.26 0.362,0.182 0.339,-0.041C0.304,-0.402 0.162,-0.474 0,-0.214" style="fill:rgb(35,31,32);fill-rule:nonzero;"/>
        </g>
        <g transform="matrix(2.66667,0,0,2.66667,1156.2,1005.75)">
            <path d="M0,-0.524C-0.035,-0.656 -0.046,-0.649 -0.054,-0.488C-0.06,-0.377 -0.129,-0.233 -0.207,-0.168C-0.286,-0.103 -0.349,-0.002 -0.349,0.057C-0.347,0.13 -0.325,0.132 -0.277,0.063C-0.239,0.008 -0.102,-0.11 0.027,-0.198C0.156,-0.286 0.212,-0.358 0.152,-0.358C0.092,-0.358 0.024,-0.433 0,-0.524" style="fill:rgb(35,31,32);fill-rule:nonzero;"/>
        </g>
        <g transform="matrix(2.66667,0,0,2.66667,1157.17,1008.59)">
            <path d="M0,-0.163C-0.041,-0.069 -0.047,0.034 -0.015,0.066C0.082,0.162 0.16,0.027 0.115,-0.16C0.076,-0.325 0.07,-0.325 0,-0.163" style="fill:rgb(35,31,32);fill-rule:nonzero;"/>
        </g>
        <g transform="matrix(0.827413,-2.53505,-2.53505,-0.827413,1157.91,1006.12)">
            <path d="M-0.086,-0.104C0.09,-0.069 0.231,-0.03 0.228,-0.019C0.224,-0.007 0.083,0.022 -0.086,0.047C-0.333,0.084 -0.396,0.066 -0.4,-0.038C-0.406,-0.125 -0.301,-0.147 -0.086,-0.104" style="fill:rgb(35,31,32);fill-rule:nonzero;"/>
        </g>
        <g transform="matrix(2.66667,0,0,2.66667,1164.87,1011.85)">
            <path d="M0,0.625C0,0.396 -0.335,-0.138 -0.406,-0.022C-0.434,0.023 -0.354,0.229 -0.229,0.437C-0.063,0.711 0,0.763 0,0.625" style="fill:rgb(35,31,32);fill-rule:nonzero;"/>
        </g>
        <g transform="matrix(2.66667,0,0,2.66667,1156.82,1002.81)">
            <path d="M0,-0.262C-0.058,-0.193 -0.074,-0.105 -0.037,-0.068C0,-0.031 -0.032,0.042 -0.109,0.094C-0.223,0.172 -0.216,0.184 -0.07,0.16C0.029,0.144 0.144,0.037 0.187,-0.079C0.277,-0.324 0.153,-0.446 0,-0.262" style="fill:rgb(35,31,32);fill-rule:nonzero;"/>
        </g>
        <g transform="matrix(-2.54671,-0.790819,-0.790819,2.54671,1148.02,1020.43)">
            <path d="M-0.061,-0.199C-0.039,-0.192 -0.009,-0.138 0.007,-0.079C0.023,-0.019 -0.008,0.016 -0.061,-0C-0.113,-0.017 -0.144,-0.071 -0.129,-0.121C-0.114,-0.171 -0.083,-0.206 -0.061,-0.199" style="fill:rgb(35,31,32);fill-rule:nonzero;"/>
        </g>
        <g transform="matrix(2.66667,0,0,2.66667,1143.32,1012.04)">
            <path d="M0,-0.141C-0.239,-0.054 -0.364,0.128 -0.185,0.128C-0.048,0.128 0.401,-0.107 0.402,-0.18C0.403,-0.269 0.33,-0.262 0,-0.141" style="fill:rgb(35,31,32);fill-rule:nonzero;"/>
        </g>
        <g transform="matrix(2.66667,0,0,2.66667,1167.42,1014.39)">
            <path d="M0,0.085C0.147,0.138 0.098,0.385 -0.06,0.385C-0.141,0.385 -0.18,0.43 -0.146,0.485C-0.104,0.553 -0.044,0.55 0.045,0.477C0.116,0.417 0.219,0.396 0.273,0.43C0.47,0.552 0.362,0.049 0.137,-0.207C0.01,-0.351 -0.121,-0.468 -0.155,-0.468C-0.189,-0.468 -0.188,-0.351 -0.152,-0.207C-0.117,-0.064 -0.048,0.068 0,0.085" style="fill:rgb(35,31,32);fill-rule:nonzero;"/>
        </g>
        <g transform="matrix(2.66667,0,0,2.66667,1171.58,1016.78)">
            <path d="M0,0.376C0.128,0.327 0.211,-0.038 0.095,-0.038C0.069,-0.038 0.047,0.008 0.047,0.063C0.047,0.118 0.005,0.137 -0.047,0.105C-0.099,0.072 -0.142,0.133 -0.142,0.238C-0.142,0.37 -0.098,0.414 0,0.376" style="fill:rgb(35,31,32);fill-rule:nonzero;"/>
        </g>
        <g transform="matrix(2.66667,0,0,2.66667,1165.02,1008.46)">
            <path d="M0,0.417C0.04,0.352 0.026,0.283 -0.033,0.263C-0.092,0.244 -0.119,0.174 -0.093,0.107C-0.068,0.041 -0.104,-0.061 -0.173,-0.119C-0.269,-0.199 -0.323,-0.185 -0.395,-0.063C-0.514,0.14 -0.123,0.616 0,0.417" style="fill:rgb(35,31,32);fill-rule:nonzero;"/>
        </g>
        <g transform="matrix(2.66667,0,0,2.66667,1166.53,1016.77)">
            <path d="M0,0.14C0.029,0.111 -0.023,0.058 -0.117,0.022C-0.252,-0.029 -0.263,-0.019 -0.17,0.075C-0.106,0.14 -0.029,0.169 0,0.14" style="fill:rgb(35,31,32);fill-rule:nonzero;"/>
        </g>
        <g transform="matrix(2.66667,0,0,2.66667,1169.68,1014.68)">
            <path d="M0,0.399C0.219,0.456 0.235,0.391 0.058,0.158C-0.105,-0.057 -0.19,-0.052 -0.19,0.171C-0.19,0.27 -0.105,0.372 0,0.399" style="fill:rgb(35,31,32);fill-rule:nonzero;"/>
        </g>
        <g transform="matrix(0,-2.66667,-2.66667,0,1150.08,1004.04)">
            <path d="M-0.095,-0.095C-0.043,-0.127 0,-0.111 0,-0.059C0,-0.007 -0.043,0.062 -0.095,0.095C-0.147,0.127 -0.19,0.111 -0.19,0.058C-0.19,0.006 -0.147,-0.063 -0.095,-0.095" style="fill:rgb(35,31,32);fill-rule:nonzero;"/>
        </g>
        <g transform="matrix(0,-2.66667,-2.66667,0,1150.34,1003.19)">
            <path d="M-0.082,-0.082C-0.004,-0.112 0.06,-0.1 0.06,-0.055C0.06,-0.01 -0.004,0.052 -0.082,0.082C-0.16,0.112 -0.224,0.099 -0.224,0.054C-0.224,0.009 -0.16,-0.052 -0.082,-0.082" style="fill:rgb(35,31,32);fill-rule:nonzero;"/>
        </g>
        <g transform="matrix(2.66667,0,0,2.66667,1149.66,1004.88)">
            <path d="M0,0.034C0.069,0.061 0.15,0.058 0.181,0.026C0.213,-0.005 0.157,-0.027 0.057,-0.023C-0.053,-0.019 -0.076,0.004 0,0.034" style="fill:rgb(35,31,32);fill-rule:nonzero;"/>
        </g>
        <g transform="matrix(0,2.66667,2.66667,0,1150.21,1010.11)">
            <path d="M0.095,-0.095C0.147,-0.095 0.19,-0.052 0.19,0C0.19,0.052 0.147,0.095 0.095,0.095C0.043,0.095 0,0.052 0,0C0,-0.052 0.043,-0.095 0.095,-0.095" style="fill:rgb(35,31,32);fill-rule:nonzero;"/>
        </g>
        <g transform="matrix(2.66667,0,0,2.66667,1150.21,1008.77)">
            <path d="M0,-0.12C0,-0.303 -0.371,-0.294 -0.441,-0.11C-0.472,-0.029 -0.474,0.06 -0.445,0.089C-0.351,0.183 0,0.018 0,-0.12" style="fill:rgb(35,31,32);fill-rule:nonzero;"/>
        </g>
        <g transform="matrix(2.66667,0,0,2.66667,1159.59,1012.36)">
            <path d="M0,-0.849C0.118,-0.922 0.026,-1.317 -0.108,-1.317C-0.155,-1.317 -0.171,-1.257 -0.143,-1.184C-0.115,-1.112 -0.138,-1.024 -0.193,-0.989C-0.249,-0.955 -0.294,-0.831 -0.294,-0.714C-0.294,-0.597 -0.341,-0.456 -0.397,-0.399C-0.47,-0.326 -0.458,-0.179 -0.354,0.117C-0.274,0.345 -0.203,0.468 -0.196,0.39C-0.189,0.311 -0.166,0.015 -0.144,-0.268C-0.123,-0.552 -0.058,-0.813 0,-0.849" style="fill:rgb(35,31,32);fill-rule:nonzero;"/>
        </g>
        <g transform="matrix(2.66667,0,0,2.66667,1145.44,1006.33)">
            <path d="M0,0.484C0.164,0.382 0.223,0.388 0.375,0.526C0.54,0.676 0.556,0.676 0.556,0.532C0.556,0.446 0.597,0.376 0.647,0.376C0.698,0.376 0.711,0.301 0.677,0.21C0.624,0.069 0.637,0.062 0.764,0.165C0.864,0.246 1.044,0.265 1.306,0.224C1.848,0.137 1.912,-0.026 1.392,0.006C1.162,0.02 0.927,0.002 0.868,-0.033C0.81,-0.07 0.694,-0.073 0.612,-0.041C0.529,-0.01 0.461,-0.031 0.461,-0.089C0.461,-0.146 0.386,-0.192 0.295,-0.19C0.137,-0.188 0.137,-0.181 0.295,-0.061C0.543,0.127 0.496,0.249 0.173,0.249C-0.127,0.249 -0.383,0.417 -0.263,0.536C-0.225,0.574 -0.107,0.551 0,0.484" style="fill:rgb(35,31,32);fill-rule:nonzero;"/>
        </g>
        <g transform="matrix(0,2.66667,2.66667,0,1145.79,1008.34)">
            <path d="M0.095,-0.095C0.147,-0.127 0.19,-0.111 0.19,-0.059C0.19,-0.007 0.147,0.062 0.095,0.095C0.043,0.127 0,0.111 0,0.058C0,0.006 0.043,-0.063 0.095,-0.095" style="fill:rgb(35,31,32);fill-rule:nonzero;"/>
        </g>
        <g transform="matrix(2.66667,0,0,2.66667,1148.95,1004.47)">
            <path d="M0,0.126C0,0.041 -0.297,-0.162 -0.421,-0.162C-0.451,-0.162 -0.422,-0.076 -0.358,0.028C-0.235,0.223 0,0.288 0,0.126" style="fill:rgb(35,31,32);fill-rule:nonzero;"/>
        </g>
        <g transform="matrix(0,-2.66667,-2.66667,0,1147.22,1004.71)">
            <path d="M-0.08,-0.08C-0.002,-0.08 0.063,-0.063 0.063,-0.043C0.063,-0.022 -0.002,0.019 -0.08,0.049C-0.158,0.08 -0.222,0.063 -0.222,0.012C-0.222,-0.039 -0.158,-0.08 -0.08,-0.08" style="fill:rgb(35,31,32);fill-rule:nonzero;"/>
        </g>
        <g transform="matrix(2.66667,0,0,2.66667,1159.82,1014.52)">
            <path d="M0,-0.387C0,-0.055 -0.051,0.184 -0.14,0.273C-0.263,0.396 -0.263,0.419 -0.135,0.468C-0.055,0.499 -0.014,0.485 -0.043,0.438C-0.072,0.391 -0.052,0.338 0.002,0.32C0.119,0.281 0.187,-0.792 0.077,-0.86C0.035,-0.886 0,-0.673 0,-0.387" style="fill:rgb(35,31,32);fill-rule:nonzero;"/>
        </g>
        <g transform="matrix(2.66667,0,0,2.66667,1161.34,1008.14)">
            <path d="M0,0.494C0,0.517 -0.043,0.562 -0.095,0.594C-0.147,0.627 -0.19,0.608 -0.19,0.553C-0.19,0.498 -0.147,0.452 -0.095,0.452C-0.043,0.452 0,0.471 0,0.494M-0.19,0.109C-0.19,0.037 -0.235,-0.022 -0.291,-0.022C-0.346,-0.022 -0.367,-0.099 -0.338,-0.193C-0.308,-0.287 -0.341,-0.442 -0.411,-0.538C-0.53,-0.7 -0.543,-0.701 -0.601,-0.549C-0.718,-0.244 -0.667,-0.005 -0.474,0.046C-0.273,0.098 -0.21,0.262 -0.391,0.262C-0.469,0.262 -0.468,0.297 -0.389,0.393C-0.33,0.464 -0.306,0.589 -0.338,0.67C-0.38,0.781 -0.347,0.805 -0.204,0.768C-0.052,0.728 -0.006,0.773 0.026,0.988C0.057,1.195 0.07,1.167 0.081,0.867C0.09,0.62 0.042,0.432 -0.047,0.357C-0.125,0.292 -0.19,0.18 -0.19,0.109" style="fill:rgb(35,31,32);fill-rule:nonzero;"/>
        </g>
        <g transform="matrix(2.66667,0,0,2.66667,1160.93,1016.07)">
            <path d="M0,-0.189C-0.214,-0.271 -0.229,-0.263 -0.168,-0.104C-0.107,0.055 0.017,0.082 0.097,-0.047C0.126,-0.094 0.082,-0.158 0,-0.189" style="fill:rgb(35,31,32);fill-rule:nonzero;"/>
        </g>
        <g transform="matrix(2.66667,0,0,2.66667,1162.3,1013.61)">
            <path d="M0,-0.55C-0.032,-0.352 0.149,0.204 0.246,0.204C0.306,0.204 0.202,-0.49 0.12,-0.636C0.054,-0.754 0.03,-0.737 0,-0.55" style="fill:rgb(35,31,32);fill-rule:nonzero;"/>
        </g>
        <g transform="matrix(2.66667,0,0,2.66667,1153.07,1013.74)">
            <path d="M0,0.187C0.065,0.122 -0.103,-0.13 -0.212,-0.13C-0.246,-0.13 -0.281,-0.045 -0.289,0.06C-0.303,0.242 -0.13,0.317 0,0.187" style="fill:rgb(35,31,32);fill-rule:nonzero;"/>
        </g>
        <g transform="matrix(2.66667,0,0,2.66667,1151.37,1003.18)">
            <path d="M0,-0.165C-0.041,-0.099 -0.049,-0.019 -0.017,0.012C0.068,0.097 0.16,-0.028 0.114,-0.165C0.082,-0.262 0.06,-0.262 0,-0.165" style="fill:rgb(35,31,32);fill-rule:nonzero;"/>
        </g>
        <g transform="matrix(2.66667,0,0,2.66667,1151.41,1001.83)">
            <path d="M0,0.195C0.293,0.251 0.354,0.225 0.263,0.079C0.188,-0.044 -0.135,-0.056 -0.208,0.061C-0.236,0.107 -0.143,0.168 0,0.195" style="fill:rgb(35,31,32);fill-rule:nonzero;"/>
        </g>
        <g transform="matrix(2.66667,0,0,2.66667,1158.41,1022.2)">
            <path d="M0,0.031C0.172,-0.302 0.182,-0.362 0.064,-0.362C0.017,-0.362 -0.069,-0.227 -0.126,-0.062C-0.265,0.336 -0.187,0.393 0,0.031" style="fill:rgb(35,31,32);fill-rule:nonzero;"/>
        </g>
        <g transform="matrix(2.66667,0,0,2.66667,1152.96,1021.15)">
            <path d="M0,-0.679C-0.029,-0.708 -0.166,-0.595 -0.304,-0.428C-0.585,-0.089 -0.617,0.029 -0.428,0.029C-0.291,0.029 0.086,-0.593 0,-0.679" style="fill:rgb(35,31,32);fill-rule:nonzero;"/>
        </g>
        <g transform="matrix(-2.54671,0.790819,0.790819,2.54671,1161.76,1021.95)">
            <path d="M0.061,-0.199C0.083,-0.206 0.114,-0.171 0.129,-0.121C0.144,-0.071 0.113,-0.017 0.061,-0C0.008,0.016 -0.023,-0.019 -0.007,-0.079C0.009,-0.138 0.039,-0.192 0.061,-0.199" style="fill:rgb(35,31,32);fill-rule:nonzero;"/>
        </g>
        <g transform="matrix(2.66667,0,0,2.66667,1160.95,1024.64)">
            <path d="M0,-0.797C-0.035,-0.741 -0.041,-0.674 -0.015,-0.648C0.012,-0.622 -0.025,-0.489 -0.095,-0.353C-0.242,-0.07 -0.175,0.131 0.003,-0.06C0.155,-0.223 0.337,-0.77 0.265,-0.843C0.18,-0.928 0.069,-0.909 0,-0.797" style="fill:rgb(35,31,32);fill-rule:nonzero;"/>
        </g>
        <g transform="matrix(-1.65238,2.09302,2.09302,1.65238,1151.19,1021.58)">
            <path d="M0.229,-0.043C0.398,-0.013 0.423,0.018 0.351,0.109C0.301,0.172 0.246,0.213 0.229,0.199C0.212,0.185 0.129,0.153 0.045,0.126C-0.178,0.057 -0.021,-0.088 0.229,-0.043" style="fill:rgb(35,31,32);fill-rule:nonzero;"/>
        </g>
        <g transform="matrix(2.66667,0,0,2.66667,1169.43,1010.95)">
            <path d="M0,0.11C0.052,0.078 0.095,0.032 0.095,0.01C0.095,-0.014 0.052,-0.032 0,-0.032C-0.052,-0.032 -0.095,0.013 -0.095,0.068C-0.095,0.123 -0.052,0.142 0,0.11" style="fill:rgb(35,31,32);fill-rule:nonzero;"/>
        </g>
        <g transform="matrix(2.54671,-0.790819,-0.790819,-2.54671,1170.65,1005.51)">
            <path d="M-0.03,-0.009C-0.008,-0.016 0.023,0.019 0.038,0.069C0.053,0.119 0.022,0.173 -0.03,0.19C-0.083,0.206 -0.114,0.171 -0.098,0.111C-0.082,0.052 -0.052,-0.002 -0.03,-0.009" style="fill:rgb(35,31,32);fill-rule:nonzero;"/>
        </g>
        <g transform="matrix(2.66667,0,0,2.66667,1144.98,1014.63)">
            <path d="M0,-0.303C-0.043,-0.33 -0.207,-0.283 -0.362,-0.199C-0.583,-0.08 -0.61,-0.039 -0.483,-0.011C-0.299,0.027 0.123,-0.227 0,-0.303" style="fill:rgb(35,31,32);fill-rule:nonzero;"/>
        </g>
        <g transform="matrix(2.66667,0,0,2.66667,1166.33,1022.05)">
            <path d="M0,-0.234C-0.091,-0.213 -0.166,-0.159 -0.166,-0.114C-0.166,0.038 -0.023,0.059 0.149,-0.067C0.337,-0.205 0.258,-0.293 0,-0.234" style="fill:rgb(35,31,32);fill-rule:nonzero;"/>
        </g>
        <g transform="matrix(2.54671,0.790819,0.790819,-2.54671,1180.21,1010.06)">
            <path d="M0.03,-0.009C0.077,0.005 0.128,0.066 0.143,0.125C0.159,0.185 0.108,0.214 0.03,0.19C-0.048,0.165 -0.098,0.105 -0.083,0.055C-0.068,0.005 -0.017,-0.024 0.03,-0.009" style="fill:rgb(35,31,32);fill-rule:nonzero;"/>
        </g>
        <g transform="matrix(2.52982,-0.843274,-0.843274,-2.52982,1168.76,1011.16)">
            <path d="M-0.019,-0.001C0.06,0.039 0.109,0.098 0.092,0.132C0.075,0.166 0.026,0.177 -0.019,0.154C-0.063,0.132 -0.112,0.073 -0.129,0.022C-0.148,-0.034 -0.105,-0.044 -0.019,-0.001" style="fill:rgb(35,31,32);fill-rule:nonzero;"/>
        </g>
        <g transform="matrix(-2.54671,-0.790819,-0.790819,2.54671,1162.43,1024.73)">
            <path d="M-0.061,-0.199C-0.039,-0.192 -0.009,-0.138 0.007,-0.079C0.023,-0.019 -0.008,0.016 -0.061,-0C-0.113,-0.017 -0.144,-0.071 -0.129,-0.121C-0.114,-0.171 -0.083,-0.206 -0.061,-0.199" style="fill:rgb(35,31,32);fill-rule:nonzero;"/>
        </g>
        <g transform="matrix(2.52982,-0.843274,-0.843274,-2.52982,1181.66,1010.4)">
            <path d="M-0.019,-0.001C0.06,0.039 0.109,0.098 0.092,0.132C0.075,0.166 0.026,0.177 -0.019,0.154C-0.063,0.132 -0.112,0.073 -0.129,0.022C-0.148,-0.034 -0.105,-0.044 -0.019,-0.001" style="fill:rgb(35,31,32);fill-rule:nonzero;"/>
        </g>
        <g transform="matrix(2.66667,0,0,2.66667,1167.13,1027.5)">
            <path d="M0,-1.783C-0.048,-1.783 -0.066,-1.602 -0.039,-1.38C-0.012,-1.158 -0.015,-1.03 -0.046,-1.096C-0.137,-1.288 -0.276,-1.231 -0.274,-1.001C-0.272,-0.687 -0.171,-0.361 -0.075,-0.361C-0.029,-0.361 0.012,-0.457 0.016,-0.574C0.022,-0.751 0.043,-0.736 0.135,-0.486C0.293,-0.059 0.387,0 0.399,-0.321C0.422,-0.912 0.185,-1.783 0,-1.783" style="fill:rgb(35,31,32);fill-rule:nonzero;"/>
        </g>
        <g transform="matrix(2.66667,0,0,2.66667,1182.07,1005.56)">
            <path d="M0,0.19C0.052,0.19 0.095,0.147 0.095,0.095C0.095,0.043 0.052,0 0,0C-0.052,0 -0.095,0.043 -0.095,0.095C-0.095,0.147 -0.052,0.19 0,0.19" style="fill:rgb(35,31,32);fill-rule:nonzero;"/>
        </g>
        <g transform="matrix(2.66667,0,0,2.66667,1162.6,1005)">
            <path d="M0,0.021C-0.105,0.218 -0.039,0.256 0.229,0.153C0.312,0.121 0.379,0.036 0.379,-0.036C0.379,-0.235 0.116,-0.195 0,0.021" style="fill:rgb(35,31,32);fill-rule:nonzero;"/>
        </g>
        <g transform="matrix(0.507012,2.61802,2.61802,-0.507012,1160.85,996.048)">
            <path d="M0.127,-0.129C0.177,-0.139 0.205,-0.079 0.191,0.003C0.176,0.085 0.148,0.156 0.127,0.16C0.108,0.164 0.079,0.104 0.064,0.028C0.049,-0.049 0.077,-0.12 0.127,-0.129" style="fill:rgb(35,31,32);fill-rule:nonzero;"/>
        </g>
        <g transform="matrix(2.66667,0,0,2.66667,1165.37,1006.06)">
            <path d="M0,-0.379C-0.055,-0.379 -0.074,-0.336 -0.042,-0.284C-0.009,-0.232 -0.028,-0.189 -0.084,-0.189C-0.139,-0.189 -0.184,-0.146 -0.184,-0.095C-0.184,-0.043 -0.12,0 -0.042,0C0.037,0 0.1,-0.084 0.1,-0.189C0.1,-0.293 0.055,-0.379 0,-0.379" style="fill:rgb(35,31,32);fill-rule:nonzero;"/>
        </g>
        <g transform="matrix(2.66667,0,0,2.66667,1164.23,1005.54)">
            <path d="M0,-0.301C-0.179,-0.179 -0.238,0.1 -0.085,0.1C-0.008,0.1 0.054,0.014 0.054,-0.095C0.054,-0.202 0.097,-0.263 0.149,-0.231C0.201,-0.199 0.244,-0.218 0.244,-0.273C0.244,-0.389 0.146,-0.401 0,-0.301" style="fill:rgb(35,31,32);fill-rule:nonzero;"/>
        </g>
        <g transform="matrix(2.66667,0,0,2.66667,1179.92,1001.74)">
            <path d="M0,-0.18C-0.072,-0.297 -0.332,-0.306 -0.332,-0.192C-0.332,-0.146 -0.271,-0.059 -0.198,0.002C-0.05,0.126 0.103,-0.014 0,-0.18" style="fill:rgb(35,31,32);fill-rule:nonzero;"/>
        </g>
        <g transform="matrix(-2.54671,-0.790819,-0.790819,2.54671,1159.14,996.661)">
            <path d="M-0.061,-0.199C-0.039,-0.192 -0.009,-0.138 0.007,-0.079C0.023,-0.019 -0.008,0.016 -0.061,-0C-0.113,-0.017 -0.144,-0.071 -0.129,-0.121C-0.114,-0.171 -0.083,-0.206 -0.061,-0.199" style="fill:rgb(35,31,32);fill-rule:nonzero;"/>
        </g>
        <g transform="matrix(2.66667,0,0,2.66667,1155.27,1012.98)">
            <path d="M0,0.11C0.052,0.078 0.095,0.033 0.095,0.01C0.095,-0.014 0.052,-0.032 0,-0.032C-0.052,-0.032 -0.095,0.013 -0.095,0.068C-0.095,0.123 -0.052,0.142 0,0.11" style="fill:rgb(35,31,32);fill-rule:nonzero;"/>
        </g>
        <g transform="matrix(2.66667,0,0,2.66667,1166.36,1006.09)">
            <path d="M0,-0.474C-0.196,-0.273 -0.127,0.181 0.099,0.181C0.227,0.181 0.252,0.109 0.224,-0.175C0.176,-0.655 0.176,-0.655 0,-0.474" style="fill:rgb(35,31,32);fill-rule:nonzero;"/>
        </g>
        <g transform="matrix(2.66667,0,0,2.66667,1166.45,1010.38)">
            <path d="M0,-0.182C-0.144,0.201 -0.069,0.288 0.145,-0.015C0.332,-0.279 0.352,-0.406 0.212,-0.452C0.158,-0.47 0.063,-0.349 0,-0.182" style="fill:rgb(35,31,32);fill-rule:nonzero;"/>
        </g>
        <g transform="matrix(2.66667,0,0,2.66667,1168.09,1004.32)">
            <path d="M0,0.33C0.042,0.285 0.023,0.23 -0.043,0.206C-0.108,0.183 -0.14,0.128 -0.112,0.084C-0.085,0.039 -0.106,-0.023 -0.16,-0.056C-0.212,-0.089 -0.255,-0.06 -0.254,0.008C-0.252,0.206 -0.083,0.419 0,0.33" style="fill:rgb(35,31,32);fill-rule:nonzero;"/>
        </g>
        <g transform="matrix(2.60955,0.54896,0.54896,-2.60955,1167.44,995.629)">
            <path d="M0.052,-0.013C0.278,0.032 0.346,0.242 0.188,0.408C0.103,0.496 0.076,0.478 0.052,0.322C0.036,0.213 -0.015,0.084 -0.061,0.035C-0.11,-0.016 -0.062,-0.036 0.052,-0.013" style="fill:rgb(35,31,32);fill-rule:nonzero;"/>
        </g>
        <g transform="matrix(2.54671,-0.790819,-0.790819,-2.54671,1181.02,1015.62)">
            <path d="M-0.03,-0.009C-0.008,-0.016 0.023,0.019 0.038,0.069C0.053,0.119 0.022,0.173 -0.03,0.19C-0.083,0.206 -0.114,0.171 -0.098,0.111C-0.082,0.052 -0.052,-0.002 -0.03,-0.009" style="fill:rgb(35,31,32);fill-rule:nonzero;"/>
        </g>
        <g transform="matrix(2.66667,0,0,2.66667,1188.34,1005.9)">
            <path d="M0,0.534C0.299,0.534 0.261,0.375 -0.051,0.321C-0.194,0.296 -0.469,0.206 -0.662,0.121C-0.898,0.017 -1.032,0 -1.074,0.067C-1.108,0.122 -1.121,0.178 -1.103,0.192C-0.977,0.284 -0.171,0.534 0,0.534" style="fill:rgb(35,31,32);fill-rule:nonzero;"/>
        </g>
        <g transform="matrix(2.66667,0,0,2.66667,1190.37,1009.3)">
            <path d="M0,0.241C0.113,0.211 0.205,0.155 0.205,0.114C0.205,0.016 -0.458,-0.058 -0.514,0.034C-0.587,0.151 -0.221,0.299 0,0.241" style="fill:rgb(35,31,32);fill-rule:nonzero;"/>
        </g>
        <g transform="matrix(2.54671,-0.790819,-0.790819,-2.54671,1184.94,1009.58)">
            <path d="M-0.029,0C0.024,-0.016 0.055,0.02 0.04,0.079C0.023,0.138 -0.006,0.192 -0.029,0.199C-0.051,0.206 -0.081,0.17 -0.096,0.121C-0.112,0.071 -0.081,0.017 -0.029,0" style="fill:rgb(35,31,32);fill-rule:nonzero;"/>
        </g>
        <g transform="matrix(2.66667,0,0,2.66667,1186.24,1008.08)">
            <path d="M0,0.19C0.078,0.19 0.142,0.147 0.142,0.095C0.142,0.043 0.078,0 0,0C-0.078,0 -0.142,0.043 -0.142,0.095C-0.142,0.147 -0.078,0.19 0,0.19" style="fill:rgb(35,31,32);fill-rule:nonzero;"/>
        </g>
        <g transform="matrix(2.66667,0,0,2.66667,1187.48,1008.88)">
            <path d="M0,-0.145C-0.212,-0.227 -0.229,-0.22 -0.229,-0.06C-0.229,0.019 -0.145,0.082 -0.04,0.082C0.186,0.082 0.212,-0.064 0,-0.145" style="fill:rgb(35,31,32);fill-rule:nonzero;"/>
        </g>
        <g transform="matrix(-1.88562,1.88562,1.88562,1.88562,1184.69,1011.65)">
            <path d="M0.142,-0.343C0.19,-0.343 0.228,-0.252 0.228,-0.142C0.228,-0.032 0.189,0.06 0.142,0.059C0.095,0.06 0.056,-0.032 0.056,-0.142C0.056,-0.252 0.094,-0.343 0.142,-0.343" style="fill:rgb(35,31,32);fill-rule:nonzero;"/>
        </g>
        <g transform="matrix(-2.66667,0,0,2.66667,1178.28,1021.99)">
            <path d="M0,-0.19C0.052,-0.19 0.095,-0.147 0.095,-0.095C0.095,-0.043 0.052,0 0,0C-0.052,0 -0.095,-0.043 -0.095,-0.095C-0.095,-0.147 -0.052,-0.19 0,-0.19" style="fill:rgb(35,31,32);fill-rule:nonzero;"/>
        </g>
        <g transform="matrix(2.66667,0,0,2.66667,1186.33,1012.05)">
            <path d="M0,0.362C0.056,0.306 -0.272,-0.063 -0.38,-0.063C-0.424,-0.063 -0.46,-0.023 -0.46,0.026C-0.46,0.135 -0.063,0.425 0,0.362" style="fill:rgb(35,31,32);fill-rule:nonzero;"/>
        </g>
        <g transform="matrix(2.66667,0,0,2.66667,1179.16,1022.69)">
            <path d="M0,0.024C0.033,0.077 0.099,0.096 0.148,0.066C0.279,-0.015 0.255,-0.072 0.088,-0.072C0.007,-0.072 -0.033,-0.029 0,0.024" style="fill:rgb(35,31,32);fill-rule:nonzero;"/>
        </g>
        <g transform="matrix(2.66667,0,0,2.66667,1177.48,1008.9)">
            <path d="M0,2.777C-0.237,2.817 -0.365,2.889 -0.365,2.984C-0.365,3.087 -0.304,3.113 -0.151,3.071C-0.034,3.04 0.138,3.014 0.23,3.013C0.439,3.011 1.342,2.079 1.342,1.865C1.342,1.778 1.401,1.658 1.474,1.598C1.547,1.538 1.659,1.361 1.723,1.206C1.793,1.038 1.935,0.899 2.074,0.864C2.219,0.828 2.267,0.78 2.199,0.738C2.066,0.656 2.164,0.195 2.336,0.095C2.412,0.05 2.428,-0.043 2.38,-0.165C2.313,-0.336 2.293,-0.324 2.182,-0.046C2.115,0.123 2.026,0.262 1.985,0.262C1.944,0.262 1.911,0.326 1.911,0.404C1.911,0.482 1.874,0.546 1.827,0.546C1.782,0.546 1.693,0.671 1.629,0.824C1.566,0.977 1.433,1.175 1.334,1.265C1.196,1.389 1.178,1.459 1.259,1.556C1.343,1.657 1.322,1.684 1.164,1.684C1.012,1.684 0.963,1.743 0.963,1.927C0.963,2.256 0.46,2.699 0,2.777" style="fill:rgb(35,31,32);fill-rule:nonzero;"/>
        </g>
        <g transform="matrix(2.66667,0,0,2.66667,1181.44,1018.8)">
            <path d="M0,-0.037C-0.078,-0.037 -0.142,-0.08 -0.142,-0.132C-0.142,-0.184 -0.238,-0.227 -0.356,-0.226C-0.544,-0.226 -0.534,-0.204 -0.259,-0.037C0.095,0.179 0.142,0.19 0.142,0.058C0.142,0.006 0.078,-0.037 0,-0.037" style="fill:rgb(35,31,32);fill-rule:nonzero;"/>
        </g>
        <g transform="matrix(2.66667,0,0,2.66667,1187.42,1011.38)">
            <path d="M0,0.014C-0.113,-0.003 -0.206,-0.056 -0.206,-0.104C-0.206,-0.216 -0.309,-0.215 -0.487,-0.102C-0.662,0.009 -0.634,0.028 -0.131,0.155C0.168,0.23 0.267,0.229 0.241,0.151C0.222,0.092 0.113,0.031 0,0.014" style="fill:rgb(35,31,32);fill-rule:nonzero;"/>
        </g>
        <g transform="matrix(2.66667,0,0,2.66667,1186.11,1011.15)">
            <path d="M0,-0.412C0,-0.261 1.221,0.114 1.738,0.122C1.991,0.126 2.237,0.081 2.285,0.023C2.349,-0.054 2.218,-0.083 1.814,-0.08C1.478,-0.078 1.119,-0.141 0.918,-0.235C0.473,-0.447 0,-0.538 0,-0.412" style="fill:rgb(35,31,32);fill-rule:nonzero;"/>
        </g>
        <g transform="matrix(2.66667,0,0,2.66667,1189.68,1015.1)">
            <path d="M0,-0.161C-0.137,-0.234 -0.198,-0.236 -0.198,-0.166C-0.198,-0.051 0.068,0.075 0.147,-0.004C0.175,-0.032 0.109,-0.103 0,-0.161" style="fill:rgb(35,31,32);fill-rule:nonzero;"/>
        </g>
        <g transform="matrix(2.66667,0,0,2.66667,1145.9,1014.16)">
            <path d="M0,-2.688C0.323,-2.688 0.37,-2.81 0.122,-2.998C-0.036,-3.119 -0.036,-3.125 0.122,-3.128C0.213,-3.129 0.288,-3.083 0.288,-3.025C0.288,-2.968 0.355,-2.947 0.438,-2.978C0.522,-3.01 0.637,-3.007 0.695,-2.971C0.754,-2.935 0.989,-2.916 1.219,-2.931C1.739,-2.963 1.674,-2.8 1.133,-2.714C0.871,-2.672 0.691,-2.691 0.591,-2.772C0.464,-2.875 0.451,-2.869 0.504,-2.727C0.538,-2.636 0.525,-2.562 0.474,-2.562C0.424,-2.562 0.383,-2.491 0.383,-2.405C0.383,-2.261 0.367,-2.261 0.202,-2.411C0.05,-2.549 -0.009,-2.555 -0.173,-2.453C-0.28,-2.386 -0.399,-2.363 -0.437,-2.401C-0.556,-2.52 -0.3,-2.688 0,-2.688M0.443,-3.462C0.473,-3.541 0.514,-3.605 0.535,-3.605C0.555,-3.605 0.572,-3.541 0.572,-3.462C0.572,-3.384 0.531,-3.32 0.48,-3.32C0.43,-3.32 0.413,-3.384 0.443,-3.462M0.72,-3.794C0.844,-3.794 1.141,-3.591 1.141,-3.507C1.141,-3.344 0.906,-3.409 0.784,-3.605C0.719,-3.709 0.69,-3.794 0.72,-3.794M1.465,-3.502C1.565,-3.507 1.621,-3.484 1.589,-3.452C1.558,-3.421 1.476,-3.417 1.408,-3.445C1.332,-3.475 1.354,-3.498 1.465,-3.502M1.473,-3.699C1.505,-3.752 1.574,-3.794 1.626,-3.794C1.678,-3.794 1.695,-3.752 1.663,-3.699C1.63,-3.647 1.561,-3.605 1.509,-3.605C1.457,-3.605 1.44,-3.647 1.473,-3.699M1.581,-4.031C1.611,-4.11 1.672,-4.174 1.717,-4.174C1.762,-4.174 1.774,-4.11 1.744,-4.031C1.714,-3.953 1.653,-3.889 1.608,-3.889C1.563,-3.889 1.551,-3.953 1.581,-4.031M1.71,-1.424C1.71,-1.372 1.667,-1.329 1.615,-1.329C1.563,-1.329 1.52,-1.372 1.52,-1.424C1.52,-1.476 1.563,-1.519 1.615,-1.519C1.667,-1.519 1.71,-1.476 1.71,-1.424M1.169,-1.933C1.141,-1.961 1.143,-2.05 1.174,-2.131C1.244,-2.315 1.615,-2.324 1.615,-2.141C1.615,-2.003 1.264,-1.838 1.169,-1.933M0.051,-2.088C0.018,-2.035 -0.051,-1.993 -0.103,-1.993C-0.155,-1.993 -0.171,-2.035 -0.139,-2.088C-0.107,-2.14 -0.038,-2.182 0.014,-2.182C0.066,-2.182 0.083,-2.14 0.051,-2.088M2.33,-4.546C2.42,-4.4 2.36,-4.373 2.066,-4.43C1.924,-4.457 1.83,-4.517 1.859,-4.563C1.931,-4.68 2.254,-4.669 2.33,-4.546M2.032,-4.104C2.001,-4.135 2.008,-4.215 2.05,-4.281C2.109,-4.378 2.132,-4.378 2.164,-4.281C2.21,-4.144 2.117,-4.019 2.032,-4.104M2.477,-0.286C2.586,-0.286 2.754,-0.034 2.689,0.031C2.558,0.161 2.386,0.085 2.4,-0.097C2.407,-0.201 2.442,-0.286 2.477,-0.286M4.753,2.653C4.871,2.653 4.862,2.713 4.689,3.046C4.502,3.408 4.424,3.351 4.563,2.953C4.62,2.788 4.706,2.653 4.753,2.653M6.392,-0.002C6.296,-0.002 6.115,-0.557 6.147,-0.756C6.177,-0.942 6.201,-0.96 6.266,-0.842C6.348,-0.696 6.452,-0.002 6.392,-0.002M5.813,-1.267C5.781,-1.483 5.734,-1.527 5.582,-1.487C5.439,-1.45 5.407,-1.474 5.449,-1.585C5.48,-1.666 5.457,-1.791 5.398,-1.862C5.319,-1.958 5.318,-1.993 5.396,-1.993C5.577,-1.993 5.513,-2.157 5.313,-2.21C5.12,-2.26 5.069,-2.499 5.186,-2.804C5.244,-2.956 5.257,-2.956 5.376,-2.793C5.446,-2.697 5.479,-2.542 5.449,-2.448C5.419,-2.354 5.44,-2.277 5.496,-2.277C5.552,-2.277 5.597,-2.218 5.597,-2.146C5.597,-2.075 5.661,-1.963 5.74,-1.898C5.829,-1.823 5.876,-1.636 5.867,-1.389C5.857,-1.089 5.844,-1.06 5.813,-1.267M5.733,0.672C5.654,0.801 5.529,0.774 5.468,0.615C5.407,0.456 5.423,0.448 5.636,0.53C5.719,0.562 5.762,0.626 5.733,0.672M5.219,0.456C5.166,0.474 5.146,0.527 5.175,0.575C5.204,0.622 5.163,0.635 5.083,0.605C4.956,0.556 4.955,0.532 5.078,0.409C5.168,0.32 5.218,0.081 5.218,-0.251C5.218,-0.537 5.253,-0.75 5.295,-0.724C5.405,-0.656 5.336,0.417 5.219,0.456M4.78,-0.558C4.676,-0.855 4.663,-1.002 4.737,-1.075C4.793,-1.131 4.839,-1.273 4.839,-1.39C4.839,-1.507 4.884,-1.63 4.94,-1.665C4.996,-1.699 5.018,-1.787 4.991,-1.86C4.962,-1.933 4.978,-1.993 5.025,-1.993C5.159,-1.993 5.251,-1.598 5.133,-1.525C5.075,-1.489 5.011,-1.228 4.989,-0.944C4.968,-0.66 4.944,-0.364 4.937,-0.286C4.93,-0.208 4.859,-0.33 4.78,-0.558M4.702,0.472C4.621,0.472 4.554,0.408 4.554,0.33C4.554,0.252 4.511,0.188 4.459,0.188C4.402,0.188 4.411,0.111 4.482,-0.002C4.644,-0.261 4.785,-0.189 4.821,0.172C4.843,0.394 4.812,0.472 4.702,0.472M4.429,-2.947C4.506,-3.1 4.578,-3.225 4.59,-3.225C4.601,-3.225 4.594,-3.079 4.573,-2.9C4.548,-2.684 4.494,-2.591 4.413,-2.622C4.315,-2.659 4.318,-2.724 4.429,-2.947M4.211,-2.02C4.178,-2.053 4.185,-2.156 4.225,-2.249C4.296,-2.412 4.301,-2.412 4.34,-2.246C4.385,-2.059 4.307,-1.924 4.211,-2.02M4.022,-4.097C3.876,-4.074 3.869,-4.086 3.982,-4.163C4.06,-4.215 4.092,-4.288 4.055,-4.326C4.017,-4.363 4.034,-4.45 4.092,-4.519C4.245,-4.703 4.369,-4.581 4.279,-4.336C4.236,-4.221 4.12,-4.113 4.022,-4.097M3.888,-3.349C3.759,-3.261 3.622,-3.144 3.584,-3.089C3.536,-3.02 3.514,-3.022 3.513,-3.095C3.512,-3.154 3.575,-3.255 3.654,-3.32C3.732,-3.385 3.801,-3.529 3.807,-3.64C3.815,-3.8 3.827,-3.808 3.861,-3.676C3.885,-3.584 3.953,-3.51 4.013,-3.51C4.073,-3.51 4.017,-3.438 3.888,-3.349M3.298,-3.921C3.233,-3.947 3.286,-3.969 3.417,-3.969C3.547,-3.969 3.6,-3.947 3.535,-3.921C3.47,-3.895 3.363,-3.895 3.298,-3.921M3.209,-2.373C3.12,-2.373 3.022,-2.415 2.99,-2.467C2.916,-2.587 3.041,-2.587 3.227,-2.467C3.349,-2.388 3.347,-2.375 3.209,-2.373M3.796,-4.837C3.848,-4.837 3.891,-4.795 3.891,-4.742C3.891,-4.69 3.848,-4.648 3.796,-4.648C3.744,-4.648 3.701,-4.69 3.701,-4.742C3.701,-4.795 3.744,-4.837 3.796,-4.837M4.397,-3.553C4.366,-3.472 4.321,-3.427 4.296,-3.452C4.271,-3.477 4.279,-3.543 4.313,-3.598C4.407,-3.749 4.461,-3.72 4.397,-3.553M4.73,-2.323C4.757,-2.296 4.728,-2.223 4.667,-2.162C4.599,-2.094 4.554,-2.088 4.554,-2.148C4.554,-2.201 4.583,-2.274 4.617,-2.309C4.652,-2.343 4.703,-2.35 4.73,-2.323M6.707,-0.886C6.778,-1.001 7.113,-0.468 7.113,-0.239C7.113,-0.101 7.051,-0.153 6.885,-0.426C6.759,-0.634 6.679,-0.841 6.707,-0.886M6.775,-2.201C6.846,-2.323 6.9,-2.337 6.996,-2.257C7.066,-2.199 7.102,-2.098 7.077,-2.031C7.051,-1.964 7.078,-1.894 7.137,-1.875C7.195,-1.855 7.21,-1.787 7.17,-1.721C7.047,-1.522 6.656,-1.998 6.775,-2.201M7.616,1C7.71,1.036 7.762,1.089 7.733,1.118C7.704,1.147 7.628,1.118 7.563,1.053C7.47,0.959 7.481,0.949 7.616,1M7.914,-0.381C7.949,-0.381 8.08,-0.264 8.206,-0.12C8.432,0.136 8.54,0.639 8.343,0.517C8.288,0.484 8.185,0.505 8.114,0.564C8.025,0.638 7.965,0.64 7.923,0.572C7.889,0.517 7.928,0.472 8.009,0.472C8.167,0.472 8.217,0.225 8.069,0.172C8.021,0.155 7.952,0.023 7.917,-0.12C7.881,-0.264 7.88,-0.381 7.914,-0.381M8.973,0.354C9.15,0.588 9.135,0.652 8.916,0.595C8.811,0.567 8.726,0.466 8.726,0.367C8.726,0.144 8.81,0.139 8.973,0.354M9.58,1.089C9.632,1.121 9.674,1.102 9.674,1.047C9.674,0.992 9.696,0.946 9.722,0.946C9.838,0.946 9.754,1.311 9.627,1.36C9.529,1.398 9.485,1.355 9.485,1.222C9.485,1.117 9.527,1.057 9.58,1.089M0.851,2.369C0.796,2.369 0.777,2.326 0.809,2.274C0.841,2.222 0.887,2.179 0.909,2.179C0.932,2.179 0.951,2.222 0.951,2.274C0.951,2.326 0.906,2.369 0.851,2.369M-1.154,-0.665C-1.333,-0.665 -1.208,-0.847 -0.969,-0.934C-0.639,-1.055 -0.565,-1.062 -0.566,-0.973C-0.567,-0.901 -1.016,-0.665 -1.154,-0.665M7.775,-8.565C7.043,-8.646 6.288,-8.472 5.999,-8.394C4.963,-8.084 4.167,-7.627 3.44,-6.917C3.062,-6.548 2.753,-6.191 2.753,-6.125C2.753,-5.91 2.406,-5.683 1.704,-5.439C0.843,-5.139 0.338,-4.809 0.189,-4.449C0.125,-4.295 0.025,-4.138 -0.034,-4.1C-0.093,-4.062 -0.253,-3.858 -0.39,-3.646C-0.527,-3.434 -0.804,-3.067 -1.006,-2.828C-1.35,-2.421 -2.009,-1.559 -2.566,-0.789C-2.795,-0.472 -2.803,-0.428 -2.678,-0.177C-2.604,-0.029 -2.504,0.093 -2.455,0.093C-2.407,0.093 -2.367,0.147 -2.366,0.212C-2.365,0.31 -1.556,1.599 -1.092,2.274C-1.092,2.274 -1.066,2.311 -1.031,2.362C-0.931,2.505 -0.851,2.612 -0.808,2.657C-0.788,2.679 -0.768,2.722 -0.749,2.791C-0.622,2.992 -0.501,3.201 -0.466,3.317C-0.387,3.585 0.248,4.324 0.408,4.373C0.464,4.391 1.352,4.591 2.5,4.843L2.696,4.886C3.512,5.066 4.438,5.266 5.285,5.445C5.327,5.441 5.366,5.436 5.411,5.434C6.049,5.393 6.287,5.414 6.461,5.524C6.586,5.602 6.912,5.718 7.185,5.781L7.683,5.896L7.683,5.922C7.821,5.945 7.918,5.958 7.962,5.958C8.101,5.958 8.856,5.76 9.859,5.477C9.958,5.434 10.058,5.389 10.148,5.342L11.002,5.031C11.067,4.983 11.317,4.954 11.687,4.948C12.285,4.771 12.896,4.588 13.472,4.413L13.836,4.302C13.94,4.269 14.043,4.238 14.144,4.207L14.449,4.112C14.506,4.095 14.56,4.078 14.615,4.061C14.658,4 14.627,4.011 14.674,4.017C14.7,4.02 14.719,4.01 14.731,4.024C14.825,3.994 14.916,3.966 15.003,3.938C15.012,3.934 15.018,3.932 15.022,3.932C15.212,3.872 15.387,3.816 15.544,3.765C15.69,3.703 15.699,3.743 15.761,3.721C15.869,3.682 15.869,3.682 15.948,3.63C16.21,3.541 16.374,3.48 16.395,3.459C16.481,3.375 16.62,3.089 16.755,2.81L16.755,2.795L16.82,2.677C16.912,2.486 16.998,2.316 17.057,2.24L17.167,2.037C17.653,1.144 18.682,-0.929 18.682,-1.014C18.682,-1.115 17.402,-2.772 16.863,-3.368C15.367,-5.021 14.561,-5.69 14.061,-5.691C13.703,-5.692 13.314,-5.91 13.01,-6.281C12.178,-7.296 11.093,-7.95 9.859,-8.179L9.295,-8.284C9.071,-8.325 8.904,-8.38 8.619,-8.438L7.775,-8.565ZM7.596,-6.222C7.693,-6.21 7.727,-6.276 7.962,-6.188C8.137,-6.123 8.293,-6.315 8.587,-6.507C8.776,-6.631 8.851,-6.741 8.821,-7.07C8.793,-7.377 8.428,-7.601 8.428,-7.601L9.271,-7.436C10.151,-7.353 11.113,-7.009 11.386,-6.68C11.448,-6.605 11.549,-6.544 11.611,-6.544C11.706,-6.544 12.25,-5.998 13.135,-5.016C13.568,-4.536 14.173,-3.242 14.176,-2.792C14.177,-2.556 14.22,-2.386 14.273,-2.404C14.434,-2.455 14.438,-3.128 14.279,-3.372C14.197,-3.497 14.111,-3.75 14.087,-3.935C14.063,-4.12 13.978,-4.366 13.898,-4.481C13.676,-4.797 13.719,-4.867 14.095,-4.806C14.461,-4.747 14.794,-4.508 14.794,-4.306C14.794,-4.238 14.854,-4.149 14.926,-4.107C14.999,-4.065 15.514,-3.519 16.07,-2.893C16.626,-2.268 17.249,-1.585 17.455,-1.377C17.825,-1 17.827,-0.995 17.676,-0.713C17.592,-0.556 17.278,0.041 16.977,0.615C16.676,1.188 16.296,1.893 16.13,2.179C15.965,2.466 15.763,2.696 15.708,2.839C15.627,3.05 15.453,3.087 15.02,3.204C14.725,3.282 14.094,3.536 13.833,3.61C12.592,3.96 12.1,4.172 11.097,4.364C10.497,4.479 9.939,4.632 9.857,4.704C9.774,4.775 9.621,4.834 9.517,4.834C9.412,4.834 9.298,4.863 9.263,4.898C9.228,4.932 9.042,4.977 8.848,4.997C8.655,5.017 8.441,5.079 8.373,5.136C8.225,5.259 7.517,5.19 6.804,4.983C5.815,4.697 3.16,4.054 2.347,3.905C1.75,3.794 1.528,3.717 1.562,3.629C1.588,3.562 1.568,3.506 1.517,3.506C1.467,3.506 1.425,3.553 1.425,3.609C1.425,3.666 1.372,3.692 1.307,3.669C1.242,3.645 1.199,3.577 1.212,3.518C1.225,3.46 1.127,3.412 0.994,3.412C0.701,3.412 0.323,3.028 0.238,2.646C0.205,2.493 0.122,2.369 0.055,2.369C-0.013,2.369 -0.118,2.249 -0.179,2.103C-0.239,1.957 -0.389,1.729 -0.512,1.597C-0.634,1.465 -0.799,1.231 -0.879,1.079C-0.957,0.926 -1.126,0.695 -1.253,0.565C-1.38,0.436 -1.596,0.137 -1.733,-0.1L-1.982,-0.53L-1.797,-0.811C-1.695,-0.965 -1.558,-1.174 -1.491,-1.274C-1.33,-1.52 -1.131,-1.77 -0.871,-2.056C-0.694,-2.25 -0.627,-2.273 -0.515,-2.179C-0.308,-2.008 -0.347,-1.898 -0.613,-1.898C-0.744,-1.898 -0.85,-1.855 -0.85,-1.803C-0.85,-1.697 -0.538,-1.673 -0.439,-1.772C-0.404,-1.807 -0.119,-1.826 0.194,-1.813C0.566,-1.798 0.762,-1.826 0.762,-1.897C0.762,-1.956 0.811,-1.973 0.871,-1.936C1.014,-1.848 0.453,-1.606 -0.518,-1.337C-1.335,-1.111 -1.703,-0.922 -1.703,-0.729C-1.703,-0.537 -1.496,-0.381 -1.24,-0.381C-1.018,-0.381 -1.015,-0.373 -1.178,-0.253C-1.396,-0.094 -1.256,0.004 -0.969,-0.104C-0.735,-0.193 -0.688,-0.341 -0.874,-0.408C-0.941,-0.432 -0.872,-0.507 -0.715,-0.58C-0.499,-0.682 -0.43,-0.685 -0.4,-0.593C-0.378,-0.529 -0.317,-0.476 -0.263,-0.476C-0.21,-0.476 -0.191,-0.54 -0.221,-0.618C-0.258,-0.714 -0.216,-0.76 -0.095,-0.76C0.005,-0.76 0.114,-0.805 0.148,-0.86C0.19,-0.927 0.253,-0.923 0.345,-0.847C0.451,-0.759 0.517,-0.764 0.645,-0.873C0.854,-1.049 1.162,-0.986 1.12,-0.776C1.099,-0.67 0.993,-0.618 0.797,-0.618C0.598,-0.618 0.509,-0.573 0.515,-0.476C0.522,-0.374 0.429,-0.334 0.193,-0.334C-0.09,-0.334 -0.136,-0.303 -0.118,-0.13C-0.103,0.017 -0.163,0.091 -0.332,0.133C-0.567,0.192 -0.661,0.378 -0.456,0.378C-0.394,0.378 -0.422,0.46 -0.519,0.568C-0.746,0.819 -0.633,0.916 -0.306,0.751C0.137,0.53 0.156,0.541 -0.163,0.833C-0.332,0.987 -0.471,1.161 -0.471,1.22C-0.471,1.377 -0.215,1.348 -0.152,1.183C-0.122,1.105 -0.046,1.041 0.017,1.041C0.079,1.041 0.038,1.14 -0.075,1.261C-0.189,1.381 -0.281,1.51 -0.281,1.545C-0.281,1.683 -0.018,1.601 0.154,1.41C0.254,1.3 0.54,1.038 0.791,0.828C1.133,0.541 1.274,0.473 1.355,0.554C1.436,0.635 1.431,0.662 1.336,0.662C1.176,0.662 0.006,1.807 0.004,1.966C0.004,2.031 0.07,2.084 0.151,2.084C0.379,2.084 0.667,1.903 0.667,1.76C0.667,1.69 0.782,1.557 0.922,1.465C1.062,1.373 1.427,1.037 1.733,0.719C2.039,0.401 2.261,0.215 2.226,0.307C2.192,0.398 2.125,0.472 2.079,0.472C2.032,0.472 1.994,0.533 1.994,0.607C1.994,0.681 1.79,0.948 1.541,1.2C0.972,1.774 0.477,2.408 0.477,2.56C0.477,2.647 0.519,2.643 0.643,2.546C0.796,2.427 0.798,2.43 0.67,2.592C0.547,2.75 0.552,2.783 0.715,2.902C0.816,2.976 0.956,3.014 1.026,2.988C1.097,2.961 1.236,2.982 1.335,3.035C1.487,3.116 1.525,3.093 1.576,2.893C1.608,2.761 1.669,2.653 1.711,2.653C1.789,2.653 2.115,2.157 2.366,1.658C2.445,1.501 2.561,1.331 2.625,1.278C2.803,1.131 2.861,0.567 2.697,0.567C2.528,0.567 2.527,0.495 2.694,0.329C2.804,0.218 2.865,0.248 3.096,0.525C3.245,0.705 3.422,0.852 3.487,0.852C3.689,0.852 3.62,1.145 3.301,1.649C3.133,1.915 2.973,2.153 2.945,2.179C2.917,2.205 2.757,2.452 2.588,2.728C2.335,3.142 2.307,3.239 2.427,3.285C2.506,3.316 2.583,3.324 2.598,3.305C2.612,3.286 2.746,3.057 2.895,2.798C3.043,2.538 3.184,2.381 3.206,2.448C3.228,2.514 3.183,2.642 3.106,2.73C3.029,2.818 2.895,3.029 2.809,3.199C2.662,3.489 2.663,3.506 2.821,3.505C2.984,3.503 3.452,2.808 3.968,1.802C4.089,1.566 4.161,1.48 4.129,1.61C4.097,1.741 4.06,1.89 4.047,1.942C4.034,1.994 3.97,2.134 3.905,2.252C3.84,2.371 3.811,2.506 3.84,2.554C3.87,2.601 3.847,2.669 3.789,2.704C3.663,2.783 3.298,3.61 3.362,3.674C3.388,3.699 3.471,3.696 3.547,3.666C3.668,3.62 3.79,3.409 4.024,2.843C4.15,2.537 4.426,2.143 4.542,2.104C4.633,2.074 4.64,2.108 4.569,2.24C4.516,2.337 4.381,2.63 4.268,2.89C4.155,3.151 4.019,3.456 3.965,3.569C3.86,3.791 3.941,4.019 4.093,3.926C4.144,3.893 4.232,3.754 4.287,3.616C4.342,3.478 4.406,3.415 4.43,3.478C4.453,3.54 4.428,3.673 4.374,3.773C4.279,3.952 4.319,4.075 4.473,4.075C4.515,4.075 4.641,3.873 4.752,3.625C5.176,2.68 5.256,2.529 5.286,2.621C5.304,2.674 5.189,3.02 5.031,3.391C4.704,4.159 4.702,4.17 4.863,4.17C4.985,4.17 5.343,3.473 5.456,3.016C5.491,2.876 5.583,2.738 5.66,2.708C5.745,2.676 5.779,2.586 5.745,2.483C5.716,2.389 5.754,2.229 5.831,2.127C5.909,2.023 5.972,1.994 5.974,2.061C5.975,2.126 6.073,2.18 6.19,2.181C6.36,2.182 6.374,2.2 6.262,2.271C6.165,2.333 6.126,2.508 6.136,2.846C6.156,3.581 6.361,3.661 6.388,2.945C6.396,2.733 6.435,2.558 6.474,2.558C6.598,2.558 6.551,2.084 6.427,2.082C6.362,2.081 6.415,1.998 6.545,1.898C6.904,1.623 7.873,1.795 7.873,2.135C7.873,2.212 7.891,2.274 7.913,2.274C7.934,2.274 8.023,2.301 8.109,2.334C8.226,2.379 8.258,2.349 8.236,2.216C8.211,2.075 8.271,2.031 8.513,2.007C8.8,1.98 8.821,1.997 8.821,2.268C8.821,2.587 8.951,2.649 9.092,2.397C9.158,2.279 9.14,2.204 9.029,2.122C8.899,2.027 8.895,1.987 9.004,1.855C9.188,1.634 9.116,1.611 8.595,1.722C8.283,1.789 8.067,1.789 7.923,1.724C7.807,1.671 7.471,1.597 7.176,1.561C6.882,1.524 6.64,1.456 6.64,1.41C6.64,1.363 6.698,1.326 6.768,1.326C6.869,1.326 6.88,1.222 6.819,0.837C6.777,0.569 6.762,0.316 6.787,0.275C6.812,0.234 6.789,0.174 6.736,0.142C6.625,0.072 6.607,-0.097 6.711,-0.096C6.858,-0.096 7.304,0.741 7.304,1.018C7.304,1.317 7.478,1.457 7.731,1.36C7.809,1.33 7.873,1.353 7.873,1.411C7.873,1.468 7.913,1.515 7.962,1.515C8.074,1.515 8.058,1.127 7.939,0.97C7.881,0.894 7.885,0.852 7.951,0.852C8.006,0.852 8.077,0.894 8.11,0.946C8.198,1.09 8.347,1.06 8.347,0.899C8.347,0.652 8.488,0.746 8.504,1.004C8.522,1.33 8.687,1.497 8.84,1.345C8.928,1.256 8.928,1.206 8.84,1.117C8.616,0.894 8.731,0.823 8.963,1.041C9.094,1.164 9.2,1.34 9.2,1.432C9.2,1.69 9.52,1.858 9.934,1.819C10.242,1.789 10.303,1.749 10.297,1.578C10.293,1.466 10.242,1.331 10.183,1.278C10.123,1.226 10.046,1.021 10.011,0.822C9.952,0.483 9.96,0.467 10.135,0.56C10.237,0.615 10.344,0.714 10.37,0.78C10.407,0.871 10.443,0.865 10.519,0.757C10.68,0.53 10.586,0.427 10.199,0.405C9.822,0.384 9.639,0.286 9.84,0.215C10.019,0.151 9.983,0.019 9.769,-0.049C9.665,-0.082 9.58,-0.188 9.58,-0.286C9.58,-0.383 9.524,-0.519 9.456,-0.588C9.387,-0.656 9.303,-0.79 9.266,-0.885C9.174,-1.13 9.011,-0.989 9.011,-0.662C9.011,-0.483 9.052,-0.401 9.129,-0.429C9.289,-0.485 9.58,-0.068 9.624,0.28C9.644,0.435 9.687,0.606 9.72,0.66C9.753,0.713 9.742,0.757 9.696,0.757C9.607,0.757 9.487,0.538 9.291,0.017C9.211,-0.195 9.141,-0.266 9.077,-0.201C9.012,-0.136 9.02,-0.057 9.102,0.042C9.176,0.131 9.185,0.188 9.124,0.188C9.024,0.188 8.861,-0.173 8.898,-0.313C8.909,-0.353 8.853,-0.411 8.775,-0.441C8.696,-0.471 8.631,-0.598 8.631,-0.723C8.631,-0.869 8.577,-0.95 8.478,-0.95C8.366,-0.95 8.337,-0.886 8.37,-0.71C8.432,-0.386 8.279,-0.314 8.146,-0.605C8.087,-0.733 7.97,-0.864 7.885,-0.894C7.8,-0.925 7.673,-0.976 7.602,-1.008C7.505,-1.053 7.49,-1.012 7.542,-0.842C7.591,-0.68 7.581,-0.645 7.505,-0.717C7.396,-0.819 7.387,-0.925 7.411,-1.803C7.419,-2.09 7.444,-2.25 7.467,-2.158C7.508,-1.988 7.683,-1.924 7.683,-2.08C7.683,-2.128 7.706,-2.227 7.734,-2.3C7.772,-2.398 7.702,-2.435 7.473,-2.438C7.302,-2.44 7.018,-2.472 6.844,-2.509C6.626,-2.555 6.545,-2.544 6.588,-2.474C6.624,-2.417 6.583,-2.372 6.498,-2.372C6.413,-2.372 6.371,-2.415 6.403,-2.467C6.435,-2.519 6.374,-2.562 6.267,-2.562C6.028,-2.562 6.015,-2.399 6.237,-2.193C6.329,-2.109 6.41,-1.998 6.418,-1.945C6.464,-1.656 6.472,-1.549 6.462,-1.381C6.441,-1.037 6.214,-1.406 6.214,-1.784C6.214,-2.014 6.173,-2.127 6.095,-2.111C5.978,-2.088 5.937,-2.201 5.972,-2.452C5.981,-2.523 5.947,-2.554 5.895,-2.522C5.718,-2.413 5.669,-2.674 5.836,-2.831C5.928,-2.918 5.974,-2.935 5.937,-2.87C5.9,-2.804 5.916,-2.751 5.971,-2.751C6.087,-2.751 6.103,-2.877 6,-2.98C5.961,-3.02 5.927,-3.154 5.925,-3.281C5.922,-3.439 5.973,-3.51 6.09,-3.51C6.185,-3.51 6.261,-3.552 6.261,-3.604C6.261,-3.655 6.158,-3.689 6.033,-3.679C5.848,-3.663 5.794,-3.593 5.748,-3.306C5.717,-3.111 5.638,-2.921 5.573,-2.884C5.508,-2.846 5.487,-2.851 5.525,-2.893C5.564,-2.936 5.548,-3.028 5.49,-3.098C5.43,-3.17 5.409,-3.353 5.443,-3.518C5.533,-3.968 5.291,-3.813 5.132,-3.319C5.008,-2.932 4.993,-2.919 4.916,-3.128C4.864,-3.268 4.87,-3.389 4.931,-3.45C5.123,-3.643 5.024,-3.701 4.777,-3.539C4.526,-3.375 4.526,-3.375 4.642,-3.592C4.739,-3.772 4.733,-3.839 4.609,-3.976C4.421,-4.184 4.418,-4.43 4.602,-4.614C4.779,-4.791 4.799,-5.001 4.625,-4.857C4.439,-4.702 3.98,-5.135 4.101,-5.351C4.151,-5.442 4.169,-5.539 4.14,-5.568C4.061,-5.646 4.259,-5.975 4.384,-5.975C4.538,-5.975 4.839,-6.265 4.839,-6.413C4.839,-6.766 4.176,-6.161 3.529,-5.216C2.784,-4.129 1.943,-2.071 2.397,-2.448C2.492,-2.526 2.568,-2.536 2.605,-2.476C2.694,-2.332 2.564,-1.919 2.413,-1.86C2.208,-1.782 2.252,-1.524 2.534,-1.148C2.841,-0.74 2.935,-0.668 3.09,-0.728C3.155,-0.753 3.236,-0.727 3.27,-0.672C3.382,-0.492 3.594,-0.564 3.599,-0.784C3.607,-1.255 3.621,-1.329 3.699,-1.329C3.744,-1.329 3.78,-1.135 3.78,-0.898C3.78,-0.661 3.827,-0.409 3.886,-0.339C3.965,-0.243 3.957,-0.177 3.855,-0.074C3.692,0.089 3.765,0.233 4.056,0.324C4.174,0.36 4.27,0.451 4.27,0.524C4.27,0.598 4.387,0.685 4.53,0.717C4.674,0.749 4.926,0.835 5.09,0.908C5.459,1.073 5.663,1.078 5.722,0.923C5.752,0.845 5.823,0.881 5.933,1.029C6.078,1.227 6.108,1.236 6.185,1.1C6.232,1.014 6.242,0.898 6.207,0.842C6.163,0.77 6.205,0.771 6.344,0.846C6.469,0.912 6.546,1.046 6.546,1.197C6.546,1.416 6.519,1.434 6.285,1.375C6.141,1.338 5.917,1.293 5.787,1.274C5.095,1.176 4.503,1.027 4.475,0.944C4.457,0.893 4.405,0.874 4.357,0.903C4.181,1.012 3.595,0.626 3.275,0.188C3.092,-0.06 2.943,-0.293 2.943,-0.329C2.943,-0.365 2.875,-0.462 2.792,-0.545C2.709,-0.628 2.466,-0.928 2.252,-1.211C1.963,-1.594 1.865,-1.81 1.871,-2.05C1.878,-2.267 1.837,-2.372 1.748,-2.372C1.675,-2.372 1.615,-2.416 1.615,-2.471C1.615,-2.525 1.687,-2.557 1.775,-2.542C1.887,-2.523 1.965,-2.614 2.032,-2.846C2.086,-3.028 2.305,-3.519 2.52,-3.936C3.422,-5.69 3.969,-6.399 4.786,-6.878C5.391,-7.232 6.499,-7.603 6.851,-7.569C7.154,-7.54 6.929,-7.453 6.975,-6.945C6.975,-6.945 7.078,-6.63 7.176,-6.544C7.275,-6.457 7.378,-6.303 7.467,-6.284C7.556,-6.265 7.491,-6.234 7.596,-6.222" style="fill:rgb(35,31,32);fill-rule:nonzero;"/>
        </g>
        <g transform="matrix(-2.54671,0.790819,0.790819,2.54671,1189.02,1017.67)">
            <path d="M-0.003,-0.19C0.05,-0.206 0.081,-0.17 0.066,-0.111C0.049,-0.052 0.02,0.002 -0.003,0.009C-0.025,0.016 -0.055,-0.02 -0.07,-0.069C-0.086,-0.119 -0.055,-0.173 -0.003,-0.19" style="fill:rgb(35,31,32);fill-rule:nonzero;"/>
        </g>
        <g transform="matrix(0.790819,2.54671,2.54671,-0.790819,1160.98,1009.35)">
            <path d="M0.079,-0.082C0.132,-0.098 0.163,-0.062 0.148,-0.003C0.131,0.056 0.102,0.11 0.079,0.117C0.057,0.124 0.027,0.088 0.012,0.039C-0.004,-0.011 0.027,-0.065 0.079,-0.082" style="fill:rgb(35,31,32);fill-rule:nonzero;"/>
        </g>
        <g transform="matrix(2.66667,0,0,2.66667,1179.19,1011.84)">
            <path d="M0,-0.396C-0.218,-0.538 -0.225,-0.536 -0.172,-0.336C-0.09,-0.02 0.099,0.142 0.17,-0.042C0.248,-0.243 0.254,-0.229 0,-0.396" style="fill:rgb(35,31,32);fill-rule:nonzero;"/>
        </g>
        <g transform="matrix(-2.66667,0,0,2.66667,1177.01,1020.98)">
            <path d="M0,-0.19C0.052,-0.19 0.095,-0.147 0.095,-0.095C0.095,-0.043 0.052,0 0,0C-0.052,0 -0.095,-0.043 -0.095,-0.095C-0.095,-0.147 -0.052,-0.19 0,-0.19" style="fill:rgb(35,31,32);fill-rule:nonzero;"/>
        </g>
        <g transform="matrix(0,-2.66667,-2.66667,0,1186.87,1012.89)">
            <path d="M-0.095,-0.095C-0.043,-0.095 0,-0.052 0,0C0,0.052 -0.043,0.095 -0.095,0.095C-0.147,0.095 -0.19,0.052 -0.19,0C-0.19,-0.052 -0.147,-0.095 -0.095,-0.095" style="fill:rgb(35,31,32);fill-rule:nonzero;"/>
        </g>
        <g transform="matrix(0.790819,-2.54671,-2.54671,-0.790819,1188.83,1014.09)">
            <path d="M-0.11,-0.059C-0.063,-0.044 -0.012,0.017 0.003,0.076C0.018,0.135 -0.033,0.164 -0.11,0.14C-0.189,0.116 -0.239,0.055 -0.223,0.006C-0.208,-0.044 -0.157,-0.073 -0.11,-0.059" style="fill:rgb(35,31,32);fill-rule:nonzero;"/>
        </g>
        <g transform="matrix(2.66667,0,0,2.66667,1186.42,1016.71)">
            <path d="M0,-0.481C-0.068,-0.483 -0.098,-0.441 -0.065,-0.389C-0.033,-0.337 0.039,-0.294 0.095,-0.294C0.152,-0.294 0.254,-0.22 0.324,-0.128C0.416,-0.007 0.451,0.002 0.453,-0.094C0.457,-0.245 0.185,-0.477 0,-0.481" style="fill:rgb(35,31,32);fill-rule:nonzero;"/>
        </g>
        <g transform="matrix(1.35015,-2.29961,-2.29961,-1.35015,1189.35,1011.94)">
            <path d="M-0.118,-0.131C-0.025,-0.155 -0,-0.137 -0.037,-0.074C-0.067,-0.024 -0.102,0.088 -0.118,0.175C-0.132,0.262 -0.181,0.312 -0.226,0.286C-0.349,0.214 -0.271,-0.091 -0.118,-0.131" style="fill:rgb(35,31,32);fill-rule:nonzero;"/>
        </g>
        <g transform="matrix(2.54671,-0.790819,-0.790819,-2.54671,1177.22,1004.75)">
            <path d="M-0.03,-0.009C-0.008,-0.016 0.023,0.019 0.038,0.069C0.053,0.119 0.022,0.173 -0.03,0.19C-0.083,0.206 -0.114,0.171 -0.098,0.111C-0.082,0.052 -0.052,-0.002 -0.03,-0.009" style="fill:rgb(35,31,32);fill-rule:nonzero;"/>
        </g>
        <g transform="matrix(2.66667,0,0,2.66667,1176.13,1013.94)">
            <path d="M0,0.461C0.165,0.644 0.682,0.738 0.576,0.567C0.506,0.455 0.772,0.239 0.89,0.312C1.099,0.441 1.077,0.172 0.861,-0.044L0.628,-0.277L0.532,-0.003C0.453,0.223 0.383,0.271 0.133,0.271C-0.166,0.271 -0.168,0.275 0,0.461" style="fill:rgb(35,31,32);fill-rule:nonzero;"/>
        </g>
        <g transform="matrix(-2.54671,0.790819,0.790819,2.54671,1177.14,1022.22)">
            <path d="M-0.003,-0.19C0.05,-0.206 0.081,-0.17 0.066,-0.111C0.049,-0.052 0.02,0.002 -0.003,0.009C-0.025,0.016 -0.055,-0.02 -0.07,-0.069C-0.086,-0.119 -0.055,-0.173 -0.003,-0.19" style="fill:rgb(35,31,32);fill-rule:nonzero;"/>
        </g>
        <g transform="matrix(2.54671,-0.790819,-0.790819,-2.54671,1177.61,999.973)">
            <path d="M-0.029,0C0.024,-0.016 0.055,0.02 0.04,0.079C0.023,0.138 -0.006,0.192 -0.029,0.199C-0.051,0.206 -0.081,0.17 -0.096,0.121C-0.112,0.071 -0.081,0.017 -0.029,0" style="fill:rgb(35,31,32);fill-rule:nonzero;"/>
        </g>
        <g transform="matrix(1.70077,-2.0539,-2.0539,-1.70077,1176.11,997.88)">
            <path d="M-0.143,-0.067C-0.102,-0.034 -0.069,0.077 -0.069,0.178C-0.069,0.282 -0.102,0.337 -0.143,0.303C-0.183,0.27 -0.215,0.159 -0.215,0.057C-0.216,-0.046 -0.183,-0.101 -0.143,-0.067" style="fill:rgb(35,31,32);fill-rule:nonzero;"/>
        </g>
        <g transform="matrix(2.66667,0,0,2.66667,1178.28,1013.41)">
            <path d="M0,-0.29C0.052,-0.29 0.095,-0.207 0.095,-0.106C0.095,0.117 0.266,0.241 0.395,0.111C0.457,0.05 0.404,-0.067 0.24,-0.231C-0.03,-0.501 -0.095,-0.531 -0.095,-0.385C-0.095,-0.333 -0.052,-0.29 0,-0.29" style="fill:rgb(35,31,32);fill-rule:nonzero;"/>
        </g>
        <g transform="matrix(2.66667,0,0,2.66667,1174.89,1014.09)">
            <path d="M0,0.627C0.285,0.834 0.534,0.707 0.328,0.459C0.263,0.38 0.233,0.278 0.262,0.231C0.291,0.185 0.253,0.066 0.178,-0.033C0.047,-0.207 0.042,-0.206 0.039,-0.003C0.037,0.144 -0.006,0.191 -0.106,0.153C-0.349,0.06 -0.265,0.434 0,0.627" style="fill:rgb(35,31,32);fill-rule:nonzero;"/>
        </g>
        <g transform="matrix(0,2.66667,2.66667,0,1177.54,1009.46)">
            <path d="M0.055,-0.055C0.107,-0.023 0.15,0.023 0.15,0.045C0.15,0.069 0.107,0.087 0.055,0.087C0.003,0.087 -0.04,0.042 -0.04,-0.013C-0.04,-0.068 0.003,-0.087 0.055,-0.055" style="fill:rgb(35,31,32);fill-rule:nonzero;"/>
        </g>
        <g transform="matrix(2.66667,0,0,2.66667,1178.53,1000.5)">
            <path d="M0,0.19C0.052,0.19 0.095,0.147 0.095,0.095C0.095,0.043 0.052,0 0,0C-0.052,0 -0.095,0.043 -0.095,0.095C-0.095,0.147 -0.052,0.19 0,0.19" style="fill:rgb(35,31,32);fill-rule:nonzero;"/>
        </g>
        <g transform="matrix(-1.39826,2.27068,2.27068,1.39826,1178.04,1005.04)">
            <path d="M0.095,-0.169C0.14,-0.142 0.176,-0.069 0.176,-0.008C0.176,0.053 0.14,0.081 0.095,0.054C0.051,0.027 0.015,-0.046 0.015,-0.107C0.014,-0.169 0.051,-0.197 0.095,-0.169" style="fill:rgb(35,31,32);fill-rule:nonzero;"/>
        </g>
        <g transform="matrix(1.63805,-2.10426,-2.10426,-1.63805,1175.84,1012.67)">
            <path d="M-0.117,-0.006C-0.121,-0.132 -0.095,-0.15 -0.005,-0.08C0.173,0.059 0.115,0.207 -0.117,0.206C-0.232,0.205 -0.276,0.194 -0.218,0.181C-0.159,0.169 -0.114,0.085 -0.117,-0.006" style="fill:rgb(35,31,32);fill-rule:nonzero;"/>
        </g>
        <g transform="matrix(-2.66667,0,0,2.66667,1176,1022.25)">
            <path d="M0,-0.19C0.052,-0.19 0.095,-0.147 0.095,-0.095C0.095,-0.043 0.052,0 0,0C-0.052,0 -0.095,-0.043 -0.095,-0.095C-0.095,-0.147 -0.052,-0.19 0,-0.19" style="fill:rgb(35,31,32);fill-rule:nonzero;"/>
        </g>
        <g transform="matrix(0,-2.66667,-2.66667,0,1175.12,1020.98)">
            <path d="M-0.095,-0.095C-0.043,-0.063 0,0.006 0,0.058C0,0.111 -0.043,0.127 -0.095,0.095C-0.147,0.062 -0.19,-0.007 -0.19,-0.059C-0.19,-0.111 -0.147,-0.127 -0.095,-0.095" style="fill:rgb(35,31,32);fill-rule:nonzero;"/>
        </g>
        <g transform="matrix(2.66667,0,0,2.66667,1175.28,1018.96)">
            <path d="M0,-0.838C-0.035,-0.829 -0.202,-0.806 -0.371,-0.785C-0.541,-0.764 -0.68,-0.706 -0.68,-0.657C-0.68,-0.609 -0.629,-0.579 -0.567,-0.592C-0.505,-0.605 -0.452,-0.51 -0.448,-0.381C-0.442,-0.119 -0.111,0.028 -0.111,-0.23C-0.111,-0.312 -0.156,-0.379 -0.211,-0.379C-0.266,-0.379 -0.285,-0.422 -0.253,-0.474C-0.221,-0.526 -0.069,-0.569 0.085,-0.569C0.238,-0.569 0.363,-0.607 0.363,-0.653C0.363,-0.739 0.115,-0.866 0,-0.838" style="fill:rgb(35,31,32);fill-rule:nonzero;"/>
        </g>
        <g transform="matrix(2.66667,0,0,2.66667,1174.2,1023.68)">
            <path d="M0,-0.604C-0.159,-0.881 -0.308,-1.108 -0.332,-1.108C-0.356,-1.108 -0.402,-1.039 -0.435,-0.954C-0.47,-0.862 -0.431,-0.765 -0.336,-0.712C-0.25,-0.664 -0.18,-0.544 -0.18,-0.444C-0.18,-0.345 -0.124,-0.23 -0.056,-0.188C0.011,-0.147 0.164,0.026 0.282,0.196C0.4,0.365 0.537,0.504 0.585,0.504C0.741,0.504 0.68,0.254 0.481,0.074C0.375,-0.022 0.159,-0.327 0,-0.604" style="fill:rgb(35,31,32);fill-rule:nonzero;"/>
        </g>
        <g transform="matrix(2.66667,0,0,2.66667,1174.18,995.65)">
            <path d="M0,0.351C0.03,0.321 -0.039,0.203 -0.154,0.088C-0.268,-0.026 -0.362,-0.071 -0.362,-0.011C-0.362,0.131 -0.071,0.422 0,0.351" style="fill:rgb(35,31,32);fill-rule:nonzero;"/>
        </g>
        <g transform="matrix(-2.54671,0.790819,0.790819,2.54671,1176.93,1022.96)">
            <path d="M0.061,-0.199C0.083,-0.206 0.114,-0.171 0.129,-0.121C0.144,-0.071 0.113,-0.017 0.061,-0C0.008,0.016 -0.023,-0.019 -0.007,-0.079C0.009,-0.138 0.039,-0.192 0.061,-0.199" style="fill:rgb(35,31,32);fill-rule:nonzero;"/>
        </g>
        <g transform="matrix(2.66667,0,0,2.66667,1170.35,1024.93)">
            <path d="M0,-0.39C-0.105,-0.117 -0.066,0.132 0.082,0.132C0.237,0.132 0.274,-0.212 0.141,-0.421C0.077,-0.522 0.048,-0.516 0,-0.39" style="fill:rgb(35,31,32);fill-rule:nonzero;"/>
        </g>
        <g transform="matrix(2.66667,0,0,2.66667,1171.45,1024.97)">
            <path d="M0,-0.558C0,-0.512 0.063,-0.423 0.139,-0.36C0.216,-0.296 0.275,-0.216 0.27,-0.182C0.24,0.048 0.305,0.212 0.427,0.212C0.609,0.212 0.606,0.106 0.409,-0.306C0.266,-0.607 0,-0.77 0,-0.558" style="fill:rgb(35,31,32);fill-rule:nonzero;"/>
        </g>
        <g transform="matrix(2.66667,0,0,2.66667,1170.01,1023.15)">
            <path d="M0,-0.095C-0.135,-0.147 -0.146,-0.135 -0.053,-0.042C0.011,0.023 0.088,0.052 0.117,0.023C0.146,-0.006 0.094,-0.059 0,-0.095" style="fill:rgb(35,31,32);fill-rule:nonzero;"/>
        </g>
        <g transform="matrix(2.66667,0,0,2.66667,1171.47,1021.3)">
            <path d="M0,0.281C-0.048,0.19 -0.111,0.042 -0.139,-0.05C-0.2,-0.246 -0.324,-0.262 -0.465,-0.093C-0.54,-0.002 -0.519,0.059 -0.381,0.145C-0.28,0.208 -0.197,0.324 -0.197,0.402C-0.197,0.479 -0.133,0.543 -0.054,0.543C0.112,0.543 0.119,0.505 0,0.281" style="fill:rgb(35,31,32);fill-rule:nonzero;"/>
        </g>
    </g>
</svg>
