<?xml version="1.0" encoding="UTF-8" standalone="no"?>
<!DOCTYPE svg PUBLIC "-//W3C//DTD SVG 1.1//EN" "http://www.w3.org/Graphics/SVG/1.1/DTD/svg11.dtd">
<svg width="100%" height="100%" viewBox="0 0 23 26" version="1.1" xmlns="http://www.w3.org/2000/svg" xmlns:xlink="http://www.w3.org/1999/xlink" xml:space="preserve" xmlns:serif="http://www.serif.com/" style="fill-rule:evenodd;clip-rule:evenodd;stroke-linejoin:round;stroke-miterlimit:2;">
    <g transform="matrix(1,0,0,1,-467.257,-563.283)">
        <g transform="matrix(1,0,0,1,474.88,588.443)">
            <path d="M0,-24.834C-0.202,-24.638 -0.402,-24.478 -0.445,-24.478C-0.488,-24.478 -0.523,-24.428 -0.524,-24.367C-0.525,-24.306 -1.209,-23.597 -2.044,-22.792C-3.474,-21.413 -5.352,-19.548 -6.741,-18.124C-7.53,-17.316 -7.644,-17.012 -7.62,-15.779C-7.603,-14.915 -7.569,-14.314 -7.536,-14.314C-7.528,-14.314 -7.508,-13.536 -7.491,-12.584C-7.473,-11.632 -7.452,-10.853 -7.444,-10.853C-7.435,-10.853 -7.415,-10.593 -7.399,-10.276C-7.301,-8.349 -7.268,-7.843 -7.194,-7.125C-7.15,-6.685 -7.121,-6.206 -7.132,-6.059C-7.142,-5.913 -7.114,-5.633 -7.067,-5.438C-7.021,-5.243 -6.977,-5.023 -6.97,-4.95C-6.951,-4.762 -6.81,-4.568 -6.603,-4.444C-6.233,-4.223 -5.291,-3.796 -5.173,-3.796C-5.105,-3.796 -5.05,-3.756 -5.05,-3.707C-5.05,-3.658 -4.99,-3.618 -4.917,-3.618C-4.843,-3.618 -4.783,-3.584 -4.783,-3.542C-4.783,-3.46 -4.102,-3.175 -3.907,-3.175C-3.842,-3.175 -3.684,-3.1 -3.554,-3.008C-3.359,-2.87 -2.696,-2.689 -2.52,-2.725C-2.494,-2.731 -2.291,-2.633 -2.069,-2.509C-1.847,-2.385 -1.63,-2.305 -1.588,-2.331C-1.546,-2.357 -1.49,-2.344 -1.463,-2.3C-1.437,-2.258 -1.224,-2.17 -0.991,-2.106C-0.758,-2.042 -0.538,-1.941 -0.502,-1.882C-0.466,-1.823 -0.246,-1.746 -0.014,-1.712C0.219,-1.677 0.449,-1.617 0.498,-1.578C0.547,-1.538 0.863,-1.422 1.202,-1.318C1.539,-1.214 1.867,-1.087 1.93,-1.035C1.993,-0.983 2.079,-0.962 2.121,-0.988C2.163,-1.014 2.31,-0.977 2.447,-0.905C2.585,-0.834 2.921,-0.713 3.195,-0.637C3.47,-0.56 3.854,-0.426 4.049,-0.339C4.244,-0.252 4.562,-0.152 4.756,-0.116C4.949,-0.081 5.228,0.01 5.375,0.085C5.521,0.161 5.92,0.254 6.26,0.291C6.843,0.355 6.897,0.346 7.195,0.124C7.368,-0.005 7.547,-0.171 7.592,-0.245C7.636,-0.318 7.876,-0.579 8.124,-0.824C8.373,-1.069 8.709,-1.439 8.872,-1.645C9.035,-1.852 9.264,-2.045 9.382,-2.075C9.5,-2.105 9.597,-2.185 9.597,-2.255C9.597,-2.324 9.656,-2.404 9.73,-2.432C9.803,-2.46 9.863,-2.558 9.863,-2.649C9.863,-2.741 9.963,-2.881 10.085,-2.961C10.207,-3.041 10.308,-3.151 10.309,-3.207C10.311,-3.262 10.59,-3.605 10.931,-3.969C11.271,-4.332 11.549,-4.661 11.549,-4.699C11.549,-4.738 11.659,-4.894 11.794,-5.045C12.423,-5.758 12.854,-6.236 13.036,-6.423C13.146,-6.536 13.236,-6.654 13.236,-6.685C13.236,-6.716 13.377,-6.906 13.55,-7.108C13.722,-7.309 13.961,-7.675 14.08,-7.921C14.316,-8.409 14.288,-7.93 14.436,-13.827C14.464,-14.925 14.507,-16.563 14.531,-17.466C14.588,-19.562 14.586,-19.647 14.461,-20.15C14.389,-20.443 14.301,-20.589 14.173,-20.629C14.073,-20.661 13.98,-20.681 13.967,-20.673C13.955,-20.665 13.815,-20.725 13.657,-20.806C13.499,-20.888 13.09,-21.046 12.748,-21.157C12.406,-21.269 11.987,-21.409 11.816,-21.47C10.659,-21.88 10.039,-22.114 9.73,-22.257C9.534,-22.348 9.215,-22.469 9.02,-22.526C8.824,-22.583 8.539,-22.686 8.385,-22.755C8.231,-22.824 8.064,-22.88 8.013,-22.88C7.92,-22.88 6.676,-23.336 6.166,-23.558C6.012,-23.625 5.826,-23.679 5.753,-23.679C5.68,-23.679 5.079,-23.859 4.418,-24.079C3.758,-24.299 3.132,-24.478 3.028,-24.478C2.86,-24.478 2.579,-24.578 1.652,-24.966C1.506,-25.027 1.157,-25.103 0.876,-25.134C0.373,-25.189 0.362,-25.186 0,-24.834" style="fill:rgb(187,98,40);"/>
        </g>
        <g transform="matrix(1,0,0,1,474.88,588.443)">
            <path d="M0,-24.834C-0.202,-24.638 -0.402,-24.478 -0.445,-24.478C-0.488,-24.478 -0.523,-24.428 -0.524,-24.367C-0.525,-24.306 -1.209,-23.597 -2.044,-22.792C-3.474,-21.413 -5.352,-19.548 -6.741,-18.124C-7.53,-17.316 -7.644,-17.012 -7.62,-15.779C-7.603,-14.915 -7.569,-14.314 -7.536,-14.314C-7.528,-14.314 -7.508,-13.536 -7.491,-12.584C-7.473,-11.632 -7.452,-10.853 -7.444,-10.853C-7.435,-10.853 -7.415,-10.593 -7.399,-10.276C-7.301,-8.349 -7.268,-7.843 -7.194,-7.125C-7.15,-6.685 -7.121,-6.206 -7.132,-6.059C-7.142,-5.913 -7.114,-5.633 -7.067,-5.438C-7.021,-5.243 -6.977,-5.023 -6.97,-4.95C-6.951,-4.762 -6.81,-4.568 -6.603,-4.444C-6.233,-4.223 -5.291,-3.796 -5.173,-3.796C-5.105,-3.796 -5.05,-3.756 -5.05,-3.707C-5.05,-3.658 -4.99,-3.618 -4.917,-3.618C-4.843,-3.618 -4.783,-3.584 -4.783,-3.542C-4.783,-3.46 -4.102,-3.175 -3.907,-3.175C-3.842,-3.175 -3.684,-3.1 -3.554,-3.008C-3.359,-2.87 -2.696,-2.689 -2.52,-2.725C-2.494,-2.731 -2.291,-2.633 -2.069,-2.509C-1.847,-2.385 -1.63,-2.305 -1.588,-2.331C-1.546,-2.357 -1.49,-2.344 -1.463,-2.3C-1.437,-2.258 -1.224,-2.17 -0.991,-2.106C-0.758,-2.042 -0.538,-1.941 -0.502,-1.882C-0.466,-1.823 -0.246,-1.746 -0.014,-1.712C0.219,-1.677 0.449,-1.617 0.498,-1.578C0.547,-1.538 0.863,-1.422 1.202,-1.318C1.539,-1.214 1.867,-1.087 1.93,-1.035C1.993,-0.983 2.079,-0.962 2.121,-0.988C2.163,-1.014 2.31,-0.977 2.447,-0.905C2.585,-0.834 2.921,-0.713 3.195,-0.637C3.47,-0.56 3.854,-0.426 4.049,-0.339C4.244,-0.252 4.562,-0.152 4.756,-0.116C4.949,-0.081 5.228,0.01 5.375,0.085C5.521,0.161 5.92,0.254 6.26,0.291C6.843,0.355 6.897,0.346 7.195,0.124C7.368,-0.005 7.547,-0.171 7.592,-0.245C7.636,-0.318 7.876,-0.579 8.124,-0.824C8.373,-1.069 8.709,-1.439 8.872,-1.645C9.035,-1.852 9.264,-2.045 9.382,-2.075C9.5,-2.105 9.597,-2.185 9.597,-2.255C9.597,-2.324 9.656,-2.404 9.73,-2.432C9.803,-2.46 9.863,-2.558 9.863,-2.649C9.863,-2.741 9.963,-2.881 10.085,-2.961C10.207,-3.041 10.308,-3.151 10.309,-3.207C10.311,-3.262 10.59,-3.605 10.931,-3.969C11.271,-4.332 11.549,-4.661 11.549,-4.699C11.549,-4.738 11.659,-4.894 11.794,-5.045C12.423,-5.758 12.854,-6.236 13.036,-6.423C13.146,-6.536 13.236,-6.654 13.236,-6.685C13.236,-6.716 13.377,-6.906 13.55,-7.108C13.722,-7.309 13.961,-7.675 14.08,-7.921C14.316,-8.409 14.288,-7.93 14.436,-13.827C14.464,-14.925 14.507,-16.563 14.531,-17.466C14.588,-19.562 14.586,-19.647 14.461,-20.15C14.389,-20.443 14.301,-20.589 14.173,-20.629C14.073,-20.661 13.98,-20.681 13.967,-20.673C13.955,-20.665 13.815,-20.725 13.657,-20.806C13.499,-20.888 13.09,-21.046 12.748,-21.157C12.406,-21.269 11.987,-21.409 11.816,-21.47C10.659,-21.88 10.039,-22.114 9.73,-22.257C9.534,-22.348 9.215,-22.469 9.02,-22.526C8.824,-22.583 8.539,-22.686 8.385,-22.755C8.231,-22.824 8.064,-22.88 8.013,-22.88C7.92,-22.88 6.676,-23.336 6.166,-23.558C6.012,-23.625 5.826,-23.679 5.753,-23.679C5.68,-23.679 5.079,-23.859 4.418,-24.079C3.758,-24.299 3.132,-24.478 3.028,-24.478C2.86,-24.478 2.579,-24.578 1.652,-24.966C1.506,-25.027 1.157,-25.103 0.876,-25.134C0.373,-25.189 0.362,-25.186 0,-24.834M0.321,-23.986C0.077,-23.762 -0.483,-23.229 -0.922,-22.802C-1.362,-22.374 -1.782,-21.988 -1.857,-21.942C-1.931,-21.897 -2.207,-21.61 -2.469,-21.305C-2.731,-21 -2.998,-20.75 -3.062,-20.75C-3.125,-20.75 -3.249,-20.646 -3.337,-20.519C-3.425,-20.391 -4.116,-19.663 -4.873,-18.899C-5.677,-18.088 -6.291,-17.393 -6.349,-17.23L-6.448,-16.949L-5.942,-16.764C-5.664,-16.663 -5.303,-16.553 -5.141,-16.521C-4.866,-16.466 -4.857,-16.453 -5.012,-16.34C-5.103,-16.274 -5.179,-16.134 -5.18,-16.029C-5.182,-15.925 -5.234,-15.822 -5.298,-15.801C-5.379,-15.773 -5.397,-15.823 -5.36,-15.97C-5.316,-16.148 -5.36,-16.201 -5.668,-16.334C-5.866,-16.419 -6.048,-16.489 -6.074,-16.489C-6.1,-16.489 -6.085,-16.419 -6.041,-16.334C-5.997,-16.249 -5.979,-16.129 -6.001,-16.068C-6.023,-16.007 -5.998,-15.957 -5.945,-15.957C-5.892,-15.957 -5.848,-16.037 -5.848,-16.134C-5.848,-16.232 -5.817,-16.312 -5.777,-16.312C-5.738,-16.312 -5.708,-15.972 -5.711,-15.558C-5.713,-15.105 -5.751,-14.812 -5.803,-14.825C-5.852,-14.837 -5.879,-14.903 -5.863,-14.97C-5.846,-15.047 -5.884,-15.074 -5.965,-15.044C-6.066,-15.005 -6.107,-15.112 -6.154,-15.542C-6.187,-15.843 -6.217,-16.2 -6.221,-16.334C-6.227,-16.507 -6.276,-16.578 -6.389,-16.578C-6.477,-16.578 -6.574,-16.535 -6.607,-16.483C-6.639,-16.431 -6.658,-15.742 -6.649,-14.952C-6.626,-12.913 -6.607,-12.644 -6.483,-12.603C-6.403,-12.576 -6.4,-12.535 -6.47,-12.45C-6.589,-12.308 -6.489,-11.852 -6.357,-11.933C-6.296,-11.971 -6.284,-11.933 -6.325,-11.828C-6.437,-11.536 -6.48,-10.545 -6.388,-10.386C-6.338,-10.301 -6.297,-10.275 -6.295,-10.33C-6.294,-10.384 -6.163,-10.423 -6.004,-10.416C-5.723,-10.405 -5.716,-10.395 -5.705,-9.982C-5.698,-9.749 -5.678,-9.547 -5.66,-9.532C-5.642,-9.518 -5.557,-9.58 -5.471,-9.669C-5.343,-9.804 -5.339,-9.832 -5.449,-9.832C-5.531,-9.832 -5.582,-9.915 -5.582,-10.049C-5.582,-10.298 -5.417,-10.44 -5.317,-10.277C-5.264,-10.191 -5.238,-10.194 -5.202,-10.288C-5.176,-10.355 -5.177,-10.249 -5.205,-10.054C-5.232,-9.859 -5.278,-9.679 -5.307,-9.655C-5.392,-9.584 -5.421,-9.295 -5.342,-9.309C-5.153,-9.34 -5.05,-9.286 -5.05,-9.156C-5.05,-9.051 -5.109,-9.024 -5.272,-9.055C-5.416,-9.082 -5.493,-9.057 -5.493,-8.982C-5.493,-8.92 -5.408,-8.855 -5.303,-8.84C-5.168,-8.819 -5.105,-8.738 -5.086,-8.558C-5.064,-8.345 -5.087,-8.312 -5.232,-8.35C-5.327,-8.375 -5.405,-8.359 -5.405,-8.314C-5.405,-8.27 -5.346,-8.234 -5.274,-8.234C-5.195,-8.234 -5.164,-8.182 -5.195,-8.101C-5.223,-8.028 -5.202,-7.968 -5.148,-7.968C-4.98,-7.968 -5.04,-7.805 -5.231,-7.745C-5.339,-7.711 -5.433,-7.582 -5.464,-7.428C-5.545,-7.023 -5.643,-7.124 -5.627,-7.597C-5.614,-7.995 -5.628,-8.023 -5.809,-7.989C-5.95,-7.962 -5.993,-7.904 -5.961,-7.783C-5.937,-7.69 -5.89,-7.632 -5.857,-7.652C-5.824,-7.672 -5.812,-7.556 -5.831,-7.393C-5.855,-7.194 -5.922,-7.082 -6.035,-7.052C-6.176,-7.015 -6.204,-7.057 -6.204,-7.31C-6.204,-7.477 -6.164,-7.613 -6.115,-7.613C-6.066,-7.613 -6.026,-7.671 -6.026,-7.743C-6.026,-7.829 -6.079,-7.855 -6.181,-7.819C-6.303,-7.776 -6.294,-7.806 -6.141,-7.955C-6.033,-8.06 -5.863,-8.145 -5.764,-8.145C-5.641,-8.145 -5.582,-8.203 -5.582,-8.323C-5.582,-8.42 -5.542,-8.5 -5.493,-8.5C-5.445,-8.5 -5.405,-8.565 -5.405,-8.644C-5.405,-8.772 -5.426,-8.774 -5.605,-8.656C-5.772,-8.547 -5.825,-8.544 -5.916,-8.642C-5.977,-8.706 -6.027,-8.851 -6.027,-8.963C-6.029,-9.123 -6.047,-9.138 -6.111,-9.035C-6.234,-8.841 -6.297,-8.962 -6.307,-9.411C-6.311,-9.632 -6.35,-9.867 -6.394,-9.933C-6.442,-10.006 -6.451,-9.772 -6.416,-9.344C-6.384,-8.953 -6.343,-8.114 -6.326,-7.48C-6.289,-6.189 -6.263,-5.892 -6.161,-5.571C-6.08,-5.315 -5.766,-4.887 -5.746,-5.004C-5.692,-5.32 -5.713,-6.37 -5.773,-6.37C-5.815,-6.37 -5.848,-6.253 -5.848,-6.109C-5.848,-5.966 -5.888,-5.823 -5.937,-5.793C-5.989,-5.761 -6.026,-5.85 -6.026,-6.005C-6.026,-6.151 -6.068,-6.297 -6.119,-6.328C-6.184,-6.368 -6.183,-6.422 -6.115,-6.502C-6.044,-6.588 -6.049,-6.629 -6.132,-6.657C-6.22,-6.686 -6.215,-6.726 -6.11,-6.831C-5.903,-7.039 -5.592,-7.11 -5.442,-6.985C-5.335,-6.897 -5.285,-6.908 -5.179,-7.045C-5.057,-7.201 -5.049,-7.187 -5.071,-6.859C-5.098,-6.449 -5.362,-6.298 -5.43,-6.653C-5.473,-6.879 -5.496,-6.583 -5.522,-5.445L-5.538,-4.743L-5.066,-4.534C-4.806,-4.419 -4.556,-4.349 -4.51,-4.377C-4.465,-4.405 -4.403,-4.366 -4.374,-4.29C-4.343,-4.209 -4.215,-4.151 -4.069,-4.151C-3.93,-4.151 -3.79,-4.107 -3.757,-4.053C-3.714,-3.984 -3.672,-3.991 -3.617,-4.075C-3.552,-4.173 -3.52,-4.166 -3.446,-4.04C-3.395,-3.955 -3.283,-3.885 -3.196,-3.885C-3.109,-3.885 -3.01,-3.857 -2.977,-3.824C-2.912,-3.759 -2.49,-3.597 -1.876,-3.401C-1.512,-3.285 -1.499,-3.287 -1.498,-3.472C-1.496,-3.691 -1.332,-3.997 -1.312,-3.818C-1.305,-3.757 -1.289,-3.667 -1.277,-3.618C-1.265,-3.57 -1.25,-3.45 -1.244,-3.352C-1.232,-3.163 -1.072,-3.098 -1.079,-3.285C-1.091,-3.6 -1.047,-3.801 -0.975,-3.757C-0.931,-3.73 -0.899,-3.57 -0.904,-3.403C-0.91,-3.181 -0.854,-3.051 -0.698,-2.924C-0.461,-2.733 -0.258,-2.76 -0.253,-2.984C-0.25,-3.081 -0.207,-3.052 -0.122,-2.897C0.021,-2.632 0.247,-2.511 0.3,-2.669C0.32,-2.727 0.318,-3.145 0.295,-3.596C0.267,-4.168 0.285,-4.417 0.354,-4.417C0.409,-4.417 0.445,-4.387 0.436,-4.351C0.384,-4.164 0.557,-3.533 0.654,-3.552C0.724,-3.566 0.755,-3.491 0.738,-3.352C0.724,-3.23 0.718,-3.05 0.725,-2.953C0.733,-2.855 0.744,-2.685 0.751,-2.575C0.759,-2.466 0.798,-2.376 0.839,-2.376C0.881,-2.376 1.021,-2.302 1.15,-2.211C1.455,-1.998 1.959,-1.897 1.973,-2.045C1.978,-2.105 1.976,-2.408 1.968,-2.72C1.96,-3.031 1.979,-3.401 2.01,-3.541C2.119,-4.04 2.207,-3.699 2.189,-2.848C2.171,-2.022 2.18,-1.975 2.399,-1.772C2.586,-1.598 2.696,-1.567 2.999,-1.6C3.31,-1.635 3.376,-1.615 3.414,-1.469C3.442,-1.363 3.519,-1.307 3.612,-1.325C3.749,-1.352 3.766,-1.503 3.774,-2.731C3.78,-3.615 3.814,-4.091 3.871,-4.062C3.92,-4.038 3.951,-3.948 3.939,-3.863C3.927,-3.777 3.954,-3.707 3.999,-3.707C4.044,-3.707 4.099,-3.777 4.121,-3.863C4.151,-3.979 4.164,-3.968 4.172,-3.818C4.177,-3.708 4.142,-3.618 4.093,-3.618C4.044,-3.618 4.009,-3.508 4.015,-3.374C4.021,-3.222 4.04,-3.189 4.066,-3.287C4.088,-3.373 4.146,-3.419 4.195,-3.389C4.243,-3.359 4.305,-3.418 4.331,-3.521C4.438,-3.927 4.543,-3.673 4.519,-3.071C4.501,-2.624 4.456,-2.422 4.369,-2.393C4.275,-2.362 4.26,-2.41 4.306,-2.593C4.346,-2.751 4.335,-2.814 4.274,-2.777C4.223,-2.746 4.182,-2.646 4.182,-2.555C4.182,-2.465 4.147,-2.377 4.105,-2.361C4.062,-2.344 3.999,-2.057 3.963,-1.721L3.899,-1.112L4.204,-1.147C4.381,-1.168 4.554,-1.135 4.615,-1.069C4.674,-1.007 4.78,-0.955 4.851,-0.955C4.999,-0.955 5.028,-1.271 4.888,-1.357C4.823,-1.397 4.825,-1.451 4.891,-1.532C4.962,-1.617 4.958,-1.66 4.874,-1.694C4.763,-1.739 4.802,-1.753 5.043,-1.755C5.077,-1.755 5.111,-1.574 5.117,-1.352C5.124,-1.13 5.175,-0.903 5.232,-0.846C5.353,-0.725 5.353,-0.725 5.336,-1.532C5.321,-2.205 5.281,-2.325 5.147,-2.087C4.977,-1.782 4.803,-1.906 4.803,-2.331C4.803,-2.672 4.829,-2.731 4.981,-2.731C5.101,-2.731 5.158,-2.672 5.158,-2.548C5.158,-2.439 5.197,-2.389 5.255,-2.425C5.314,-2.461 5.34,-2.725 5.322,-3.111C5.304,-3.503 5.329,-3.749 5.388,-3.769C5.441,-3.787 5.491,-3.75 5.5,-3.687C5.533,-3.466 5.592,-2.055 5.597,-1.387C5.603,-0.652 5.674,-0.548 6.097,-0.654C6.271,-0.698 6.312,-0.765 6.312,-1.004C6.312,-1.167 6.353,-1.325 6.402,-1.356C6.452,-1.387 6.469,-1.45 6.439,-1.498C6.41,-1.546 6.434,-1.643 6.493,-1.714C6.563,-1.799 6.567,-1.843 6.505,-1.843C6.347,-1.843 6.419,-3.697 6.581,-3.8C6.667,-3.853 6.674,-3.882 6.603,-3.883C6.536,-3.884 6.495,-4.013 6.497,-4.217C6.499,-4.401 6.501,-4.77 6.501,-5.039C6.501,-6.015 6.551,-8.456 6.57,-8.456C6.581,-8.456 6.606,-9.182 6.625,-10.068C6.656,-11.469 6.642,-11.687 6.521,-11.733C6.445,-11.762 6.404,-11.842 6.43,-11.909C6.462,-11.993 6.344,-12.08 6.062,-12.182C5.834,-12.264 5.567,-12.364 5.469,-12.403C4.839,-12.66 4.325,-12.85 4.259,-12.85C4.079,-12.85 3.472,-13.167 3.472,-13.262C3.472,-13.36 3.836,-13.25 4.67,-12.902C4.816,-12.841 5.229,-12.697 5.587,-12.582C6.14,-12.405 6.25,-12.393 6.318,-12.501C6.362,-12.571 6.4,-12.588 6.401,-12.539C6.402,-12.49 6.441,-12.508 6.486,-12.579C6.554,-12.689 6.601,-12.69 6.786,-12.591C6.907,-12.527 7.049,-12.501 7.103,-12.534C7.157,-12.568 7.2,-12.534 7.2,-12.456C7.2,-12.38 7.158,-12.317 7.106,-12.317C7.054,-12.317 7.034,-12.281 7.061,-12.237C7.089,-12.193 7.128,-11.69 7.149,-11.119C7.17,-10.549 7.21,-10.058 7.238,-10.031C7.266,-10.003 7.289,-10.411 7.289,-10.937C7.289,-11.869 7.296,-11.902 7.549,-12.191L7.809,-12.487L7.759,-12.18C7.726,-11.978 7.744,-11.874 7.813,-11.874C7.925,-11.874 7.959,-11.95 8.033,-12.38C8.073,-12.617 8.058,-12.655 7.937,-12.609C7.841,-12.572 7.814,-12.588 7.856,-12.657C7.891,-12.714 7.935,-12.839 7.954,-12.936C7.983,-13.088 7.966,-13.097 7.816,-13.003C7.721,-12.944 7.644,-12.85 7.644,-12.795C7.644,-12.739 7.56,-12.671 7.458,-12.645C7.258,-12.592 7.022,-12.652 7.022,-12.754C7.022,-12.884 7.545,-13.311 7.636,-13.255C7.691,-13.22 7.711,-13.246 7.684,-13.318C7.642,-13.426 8.176,-14.093 8.305,-14.093C8.384,-14.093 9.153,-14.912 9.153,-14.996C9.153,-15.036 9.183,-15.07 9.219,-15.071C9.256,-15.071 9.421,-15.191 9.586,-15.337C9.752,-15.483 9.922,-15.602 9.964,-15.602C10.006,-15.602 10.041,-15.643 10.041,-15.693C10.041,-15.744 10.276,-16.033 10.564,-16.337C11.461,-17.281 12.746,-18.716 12.78,-18.81C12.797,-18.86 12.987,-19.062 13.201,-19.26C13.416,-19.457 13.591,-19.672 13.591,-19.736C13.591,-19.909 13.061,-20.277 12.703,-20.352C12.533,-20.388 12.373,-20.446 12.348,-20.481C12.324,-20.516 12.004,-20.633 11.638,-20.741C11.272,-20.85 10.803,-21.015 10.596,-21.11C10.389,-21.205 10.181,-21.283 10.133,-21.283C10.085,-21.283 9.834,-21.377 9.577,-21.493C9.062,-21.724 7.361,-22.309 6.046,-22.706C5.245,-22.948 2.464,-23.869 1.608,-24.175C0.87,-24.438 0.804,-24.429 0.321,-23.986M13.536,-19.291C13.507,-19.213 13.53,-19.093 13.587,-19.024C13.663,-18.933 13.681,-18.419 13.652,-17.172C13.615,-15.594 13.656,-15.081 13.799,-15.313C13.828,-15.36 13.858,-15.913 13.866,-16.543C13.874,-17.173 13.885,-18.066 13.891,-18.53C13.9,-19.266 13.882,-19.376 13.746,-19.402C13.66,-19.418 13.566,-19.368 13.536,-19.291M-4.861,-16.232C-4.929,-16.189 -4.954,-16.107 -4.918,-16.049C-4.883,-15.991 -4.861,-15.597 -4.871,-15.173C-4.88,-14.75 -4.885,-14.353 -4.88,-14.292C-4.876,-14.231 -4.865,-14.062 -4.857,-13.915C-4.843,-13.653 -4.753,-13.571 -4.655,-13.73C-4.556,-13.89 -4.515,-16.134 -4.612,-16.134C-4.663,-16.134 -4.68,-16.174 -4.65,-16.223C-4.583,-16.332 -4.696,-16.336 -4.861,-16.232M-4.369,-16.068C-4.391,-16.031 -4.411,-15.729 -4.412,-15.397C-4.415,-14.878 -4.394,-14.797 -4.267,-14.821C-4.155,-14.843 -4.116,-14.951 -4.11,-15.248C-4.103,-15.609 -4.082,-15.646 -3.888,-15.64C-3.77,-15.637 -3.544,-15.604 -3.385,-15.567C-3.137,-15.508 -3.097,-15.522 -3.097,-15.669C-3.097,-15.933 -3.713,-16.191 -3.991,-16.042C-4.109,-15.979 -4.162,-15.979 -4.162,-16.042C-4.162,-16.148 -4.31,-16.166 -4.369,-16.068M-5.344,-15.633C-5.434,-15.542 -5.418,-14.803 -5.325,-14.803C-5.281,-14.803 -5.228,-14.973 -5.206,-15.18C-5.166,-15.553 -5.226,-15.751 -5.344,-15.633M11.993,-15.202C11.993,-15.129 12.033,-15.069 12.082,-15.069C12.131,-15.069 12.171,-15.129 12.171,-15.202C12.171,-15.275 12.131,-15.335 12.082,-15.335C12.033,-15.335 11.993,-15.275 11.993,-15.202M-3.807,-15.054C-3.807,-14.938 -3.757,-14.888 -3.659,-14.907C-3.439,-14.95 -3.418,-15.128 -3.626,-15.182C-3.763,-15.218 -3.807,-15.187 -3.807,-15.054M-1.011,-14.803C-0.981,-14.754 -0.888,-14.715 -0.806,-14.715C-0.676,-14.717 -0.674,-14.729 -0.789,-14.803C-0.963,-14.915 -1.08,-14.915 -1.011,-14.803M-6.151,-14.638C-6.181,-14.59 -6.142,-14.488 -6.065,-14.411C-5.988,-14.333 -5.967,-14.27 -6.02,-14.27C-6.072,-14.27 -6.115,-14.208 -6.115,-14.132C-6.115,-14.056 -6.075,-14.018 -6.026,-14.048C-5.976,-14.079 -5.937,-14.005 -5.937,-13.876C-5.937,-13.721 -5.889,-13.649 -5.786,-13.649C-5.672,-13.649 -5.661,-13.674 -5.738,-13.751C-5.8,-13.813 -5.811,-13.909 -5.766,-13.995C-5.671,-14.174 -5.67,-14.625 -5.764,-14.625C-5.802,-14.625 -5.893,-14.648 -5.965,-14.676C-6.038,-14.704 -6.121,-14.687 -6.151,-14.638M-5.414,-14.647C-5.441,-14.457 -5.401,-13.704 -5.362,-13.665C-5.263,-13.566 -5.206,-13.75 -5.192,-14.221C-5.182,-14.57 -5.21,-14.714 -5.291,-14.714C-5.354,-14.714 -5.409,-14.684 -5.414,-14.647M-1.854,-14.453C-1.854,-14.353 -1.814,-14.27 -1.765,-14.27C-1.716,-14.27 -1.676,-14.328 -1.676,-14.398C-1.676,-14.469 -1.716,-14.551 -1.765,-14.581C-1.814,-14.611 -1.854,-14.553 -1.854,-14.453M0.099,-14.448C0.099,-14.399 0.141,-14.359 0.193,-14.359C0.244,-14.359 0.262,-14.399 0.232,-14.448C0.202,-14.496 0.159,-14.536 0.138,-14.536C0.116,-14.536 0.099,-14.496 0.099,-14.448M12.587,-14.236C12.557,-14.16 12.569,-14.076 12.612,-14.05C12.725,-13.98 12.793,-14.125 12.71,-14.26C12.655,-14.349 12.628,-14.344 12.587,-14.236M-4.369,-14.022C-4.401,-13.967 -4.377,-11.891 -4.316,-9.366C-4.304,-8.863 -4.258,-8.501 -4.206,-8.501C-4.068,-8.501 -4.086,-13.99 -4.226,-14.043C-4.285,-14.066 -4.35,-14.057 -4.369,-14.022M1.656,-14.01C1.628,-13.964 1.645,-13.902 1.695,-13.872C1.745,-13.841 1.785,-13.878 1.785,-13.954C1.785,-14.11 1.732,-14.133 1.656,-14.01M1.874,-13.827C1.874,-13.778 1.914,-13.738 1.963,-13.738C2.012,-13.738 2.052,-13.778 2.052,-13.827C2.052,-13.875 2.012,-13.915 1.963,-13.915C1.914,-13.915 1.874,-13.875 1.874,-13.827M2.359,-13.733C2.275,-13.597 2.391,-13.508 2.505,-13.623C2.568,-13.686 2.57,-13.736 2.509,-13.773C2.46,-13.804 2.392,-13.786 2.359,-13.733M12.526,-13.738C12.526,-13.689 12.568,-13.649 12.62,-13.649C12.672,-13.649 12.689,-13.689 12.659,-13.738C12.629,-13.787 12.587,-13.827 12.565,-13.827C12.544,-13.827 12.526,-13.787 12.526,-13.738M8.184,-13.506C7.958,-13.281 7.997,-13.104 8.239,-13.257C8.387,-13.35 8.574,-13.745 8.462,-13.728C8.427,-13.723 8.302,-13.623 8.184,-13.506M2.723,-13.57C2.696,-13.526 2.77,-13.466 2.887,-13.437C3.005,-13.407 3.164,-13.359 3.242,-13.329C3.319,-13.299 3.383,-13.319 3.383,-13.373C3.383,-13.427 3.323,-13.471 3.25,-13.471C3.177,-13.471 3.117,-13.511 3.117,-13.56C3.117,-13.67 2.79,-13.678 2.723,-13.57M-6.091,-13.383C-6.105,-13.19 -5.818,-13.128 -5.712,-13.3C-5.642,-13.412 -5.66,-13.432 -5.896,-13.505C-6.034,-13.547 -6.08,-13.518 -6.091,-13.383M-4.832,-13.359C-4.898,-13.186 -4.822,-10.728 -4.748,-10.654C-4.693,-10.599 -4.684,-10.674 -4.641,-11.563C-4.578,-12.863 -4.588,-13.311 -4.68,-13.403C-4.751,-13.474 -4.793,-13.462 -4.832,-13.359M12.508,-13.421C12.481,-13.375 12.487,-13.261 12.522,-13.167C12.556,-13.072 12.606,-13.032 12.632,-13.078C12.659,-13.123 12.653,-13.238 12.619,-13.332C12.584,-13.427 12.535,-13.467 12.508,-13.421M-5.405,-13.072C-5.405,-12.901 -5.365,-12.761 -5.316,-12.761C-5.267,-12.761 -5.227,-12.901 -5.227,-13.072C-5.227,-13.243 -5.267,-13.383 -5.316,-13.383C-5.365,-13.383 -5.405,-13.243 -5.405,-13.072M-3.001,-13.041C-3.062,-12.927 -3.056,-12.845 -2.983,-12.771C-2.905,-12.693 -2.903,-12.648 -2.976,-12.602C-3.12,-12.511 -3.101,-12.051 -2.953,-12.051C-2.862,-12.051 -2.831,-12.198 -2.831,-12.628C-2.831,-13.238 -2.859,-13.306 -3.001,-13.041M-1.019,-12.727C-1.077,-12.576 -0.999,-12.406 -0.872,-12.406C-0.76,-12.406 -0.765,-12.736 -0.878,-12.806C-0.928,-12.836 -0.991,-12.801 -1.019,-12.727M-3.758,-12.68C-3.786,-12.634 -3.772,-12.573 -3.726,-12.544C-3.679,-12.515 -3.618,-12.53 -3.59,-12.576C-3.561,-12.622 -3.576,-12.684 -3.622,-12.712C-3.668,-12.741 -3.729,-12.726 -3.758,-12.68M13.539,-12.539C13.508,-12.417 13.454,-12.317 13.419,-12.317C13.384,-12.317 13.373,-12.196 13.395,-12.047C13.457,-11.627 13.625,-11.791 13.657,-12.301C13.687,-12.791 13.631,-12.905 13.539,-12.539M-5.443,-12.359C-5.572,-12.162 -5.574,-12.119 -5.459,-12.004C-5.269,-11.814 -5.249,-11.836 -5.243,-12.228C-5.241,-12.424 -5.251,-12.584 -5.267,-12.584C-5.283,-12.584 -5.362,-12.483 -5.443,-12.359M-2.533,-11.427C-2.527,-10.496 -2.502,-10.275 -2.404,-10.295C-2.163,-10.344 -2.235,-12.584 -2.477,-12.584C-2.511,-12.584 -2.536,-12.063 -2.533,-11.427M-3.75,-12.256C-3.858,-12.148 -3.807,-11.785 -3.685,-11.785C-3.614,-11.785 -3.563,-11.878 -3.563,-12.008C-3.563,-12.239 -3.651,-12.355 -3.75,-12.256M-5.848,-12.14C-5.848,-12.091 -5.806,-12.051 -5.755,-12.051C-5.703,-12.051 -5.685,-12.091 -5.715,-12.14C-5.746,-12.188 -5.788,-12.228 -5.809,-12.228C-5.831,-12.228 -5.848,-12.188 -5.848,-12.14M-3.054,-11.763C-3.076,-11.701 -3.085,-10.963 -3.073,-10.121C-3.058,-8.966 -3.025,-8.59 -2.942,-8.589C-2.842,-8.589 -2.775,-9.063 -2.816,-9.477C-2.823,-9.55 -2.832,-10.119 -2.837,-10.742C-2.841,-11.395 -2.88,-11.874 -2.929,-11.874C-2.976,-11.874 -3.032,-11.824 -3.054,-11.763M-1.504,-11.582C-1.53,-10.016 -1.533,-10.04 -1.338,-10.216C-1.215,-10.328 -1.153,-10.337 -1.073,-10.258C-0.908,-10.093 -0.858,-10.226 -0.834,-10.896C-0.815,-11.417 -0.837,-11.538 -0.966,-11.607C-1.051,-11.652 -1.146,-11.665 -1.177,-11.634C-1.207,-11.603 -1.233,-11.62 -1.233,-11.672C-1.233,-11.723 -1.293,-11.789 -1.366,-11.817C-1.467,-11.856 -1.5,-11.799 -1.504,-11.582M1.341,-11.652C1.341,-11.529 1.381,-11.43 1.429,-11.43C1.477,-11.43 1.509,-11.529 1.499,-11.652C1.489,-11.774 1.449,-11.874 1.411,-11.874C1.373,-11.874 1.341,-11.774 1.341,-11.652M1.662,-11.733C1.628,-11.647 1.648,-11.606 1.713,-11.627C1.846,-11.672 1.919,-11.874 1.802,-11.874C1.755,-11.874 1.691,-11.81 1.662,-11.733M5.616,-11.607C5.616,-11.485 5.636,-11.435 5.661,-11.496C5.686,-11.557 5.686,-11.657 5.661,-11.718C5.636,-11.779 5.616,-11.729 5.616,-11.607M-1.973,-11.548C-2.065,-11.456 -2.042,-11.163 -1.943,-11.163C-1.894,-11.163 -1.854,-11.2 -1.854,-11.245C-1.854,-11.29 -1.83,-11.39 -1.8,-11.467C-1.747,-11.607 -1.86,-11.661 -1.973,-11.548M13.403,-11.548C13.251,-11.508 13.199,-11.102 13.325,-10.941C13.363,-10.893 13.414,-10.773 13.438,-10.675C13.467,-10.557 13.49,-10.601 13.505,-10.808C13.519,-10.979 13.534,-11.166 13.539,-11.224C13.544,-11.281 13.578,-11.358 13.615,-11.394C13.65,-11.43 13.68,-11.493 13.68,-11.533C13.68,-11.61 13.643,-11.612 13.403,-11.548M-3.807,-11.334C-3.807,-11.117 -3.599,-11.148 -3.556,-11.37C-3.539,-11.458 -3.585,-11.519 -3.667,-11.519C-3.75,-11.519 -3.807,-11.443 -3.807,-11.334M-1.22,-11.075C-1.212,-10.59 -1.212,-10.589 -1.143,-10.941C-1.105,-11.137 -1.109,-11.356 -1.151,-11.43C-1.2,-11.515 -1.225,-11.389 -1.22,-11.075M1.655,-11.404C1.617,-11.316 1.611,-11.22 1.641,-11.189C1.731,-11.099 1.804,-11.226 1.762,-11.4C1.726,-11.556 1.721,-11.556 1.655,-11.404M2.229,-11.43C2.229,-11.381 2.267,-11.341 2.313,-11.341C2.359,-11.341 2.421,-11.381 2.451,-11.43C2.481,-11.479 2.444,-11.519 2.367,-11.519C2.292,-11.519 2.229,-11.479 2.229,-11.43M-6.115,-11.296C-6.115,-11.223 -6.049,-11.163 -5.968,-11.163C-5.836,-11.163 -5.837,-11.146 -5.982,-10.986C-6.165,-10.783 -6.062,-10.753 -5.819,-10.938C-5.729,-11.006 -5.669,-11.13 -5.685,-11.214C-5.724,-11.409 -6.115,-11.484 -6.115,-11.296M-5.523,-11.37C-5.64,-11.254 -5.579,-11.145 -5.427,-11.198C-5.279,-11.25 -5.279,-11.247 -5.427,-11.132C-5.635,-10.969 -5.624,-10.659 -5.405,-10.542C-5.284,-10.478 -5.227,-10.477 -5.227,-10.539C-5.227,-10.59 -5.267,-10.631 -5.316,-10.631C-5.365,-10.631 -5.405,-10.711 -5.405,-10.808C-5.405,-10.906 -5.365,-10.986 -5.316,-10.986C-5.267,-10.986 -5.227,-11.086 -5.227,-11.208C-5.227,-11.417 -5.388,-11.505 -5.523,-11.37M10.491,-11.201C10.496,-11.097 10.517,-11.076 10.545,-11.147C10.571,-11.211 10.567,-11.287 10.538,-11.317C10.508,-11.346 10.488,-11.294 10.491,-11.201M5.22,-11.129C5.184,-11.036 5.175,-10.939 5.201,-10.914C5.282,-10.833 5.353,-10.966 5.319,-11.134C5.288,-11.289 5.283,-11.289 5.22,-11.129M5.558,-11.075C5.528,-11.026 5.543,-10.986 5.592,-10.986C5.64,-10.986 5.705,-11.026 5.735,-11.075C5.765,-11.123 5.75,-11.163 5.702,-11.163C5.653,-11.163 5.588,-11.123 5.558,-11.075M-3.765,-10.966C-3.846,-10.758 -3.775,-10.054 -3.674,-10.054C-3.553,-10.054 -3.507,-10.899 -3.621,-11.013C-3.683,-11.076 -3.729,-11.061 -3.765,-10.966M-2.039,-10.793C-2.043,-10.728 -2.054,-10.568 -2.064,-10.436C-2.076,-10.273 -2.032,-10.184 -1.925,-10.156C-1.792,-10.122 -1.771,-10.17 -1.789,-10.477C-1.808,-10.804 -2.022,-11.076 -2.039,-10.793M1.43,-10.83C1.43,-10.793 1.51,-10.712 1.608,-10.652C1.763,-10.554 1.785,-10.563 1.785,-10.719C1.785,-10.838 1.726,-10.897 1.608,-10.897C1.51,-10.897 1.43,-10.867 1.43,-10.83M5.513,-10.808C5.513,-10.759 5.553,-10.719 5.602,-10.719C5.651,-10.719 5.691,-10.759 5.691,-10.808C5.691,-10.857 5.651,-10.897 5.602,-10.897C5.553,-10.897 5.513,-10.857 5.513,-10.808M2.229,-10.67C2.229,-10.594 2.269,-10.556 2.318,-10.586C2.367,-10.616 2.407,-10.679 2.407,-10.725C2.407,-10.771 2.367,-10.808 2.318,-10.808C2.269,-10.808 2.229,-10.746 2.229,-10.67M-0.48,-10.609C-0.548,-10.418 -0.457,-9.964 -0.354,-9.987C-0.263,-10.008 -0.217,-9.889 -0.249,-9.713C-0.256,-9.671 -0.211,-9.655 -0.148,-9.676C0.007,-9.728 0.01,-10.595 -0.145,-10.564C-0.206,-10.552 -0.256,-10.582 -0.256,-10.631C-0.256,-10.758 -0.432,-10.74 -0.48,-10.609M2.673,-10.625C2.673,-10.574 2.713,-10.556 2.762,-10.586C2.81,-10.616 2.85,-10.659 2.85,-10.68C2.85,-10.702 2.81,-10.719 2.762,-10.719C2.713,-10.719 2.673,-10.677 2.673,-10.625M4.537,-10.631C4.537,-10.582 4.577,-10.542 4.626,-10.542C4.674,-10.542 4.714,-10.582 4.714,-10.631C4.714,-10.68 4.674,-10.719 4.626,-10.719C4.577,-10.719 4.537,-10.68 4.537,-10.631M11.69,-10.643C11.652,-10.581 11.645,-10.506 11.674,-10.477C11.753,-10.398 11.84,-10.514 11.797,-10.643C11.767,-10.733 11.746,-10.733 11.69,-10.643M-4.793,-10.525C-4.855,-10.351 -4.844,-8.589 -4.782,-8.589C-4.732,-8.589 -4.735,-8.494 -4.789,-8.352C-4.891,-8.086 -4.826,-7.801 -4.695,-7.932C-4.547,-8.08 -4.559,-10.413 -4.708,-10.506C-4.75,-10.532 -4.788,-10.54 -4.793,-10.525M3.085,-10.409C3.057,-10.336 3.072,-10.276 3.12,-10.276C3.167,-10.276 3.205,-10.336 3.205,-10.409C3.205,-10.482 3.19,-10.542 3.171,-10.542C3.151,-10.542 3.113,-10.482 3.085,-10.409M0.099,-10.237C0.099,-10.031 0.239,-9.854 0.331,-9.946C0.398,-10.013 0.266,-10.453 0.178,-10.453C0.134,-10.453 0.099,-10.356 0.099,-10.237M2.647,-10.299C2.572,-10.168 2.603,-9.299 2.682,-9.299C2.757,-9.299 2.772,-9.395 2.801,-10.038C2.812,-10.284 2.723,-10.434 2.647,-10.299M11.676,-10.092C11.676,-9.998 11.708,-9.921 11.746,-9.921C11.784,-9.921 11.816,-9.978 11.816,-10.049C11.816,-10.119 11.784,-10.196 11.746,-10.22C11.708,-10.243 11.676,-10.186 11.676,-10.092M5.047,-10.126C4.863,-10.077 4.838,-9.921 5.016,-9.921C5.084,-9.921 5.162,-9.981 5.191,-10.054C5.219,-10.127 5.233,-10.182 5.222,-10.177C5.211,-10.171 5.133,-10.148 5.047,-10.126M4.586,-9.987C4.508,-9.733 4.461,-9.191 4.507,-9.072C4.62,-8.777 4.707,-8.982 4.698,-9.521C4.689,-10.081 4.656,-10.216 4.586,-9.987M6.011,-9.974C6.037,-9.906 6.016,-9.824 5.963,-9.791C5.816,-9.7 5.847,-9.299 6.002,-9.299C6.168,-9.299 6.175,-9.129 6.012,-8.998C5.945,-8.944 5.864,-8.725 5.832,-8.512C5.783,-8.186 5.796,-8.132 5.91,-8.176C6.082,-8.243 6.086,-8.151 5.917,-8.022C5.823,-7.95 5.784,-7.705 5.772,-7.125C5.756,-6.257 5.678,-5.966 5.595,-6.459L5.543,-6.769L5.412,-6.48C5.339,-6.32 5.252,-6.217 5.219,-6.25C5.136,-6.333 5.154,-6.818 5.247,-7.036C5.32,-7.205 5.324,-7.204 5.33,-7.014C5.339,-6.729 5.58,-6.765 5.63,-7.058C5.709,-7.524 5.702,-8.5 5.619,-8.5C5.486,-8.5 5.315,-8.251 5.378,-8.15C5.409,-8.099 5.393,-7.988 5.343,-7.902C5.275,-7.784 5.252,-7.891 5.25,-8.338C5.248,-8.726 5.209,-8.945 5.136,-8.974C5.047,-9.01 5.047,-9.02 5.136,-9.026C5.197,-9.03 5.247,-9.073 5.247,-9.122C5.247,-9.252 4.894,-9.23 4.881,-9.1C4.875,-9.039 4.856,-7.912 4.84,-6.597C4.811,-4.277 4.838,-3.973 5.081,-3.973C5.123,-3.973 5.158,-4.136 5.158,-4.334C5.158,-4.551 5.193,-4.672 5.247,-4.639C5.296,-4.609 5.336,-4.419 5.336,-4.217C5.336,-3.968 5.365,-3.878 5.426,-3.939C5.475,-3.989 5.532,-4.4 5.551,-4.854C5.57,-5.308 5.627,-5.72 5.677,-5.771C5.74,-5.833 5.757,-5.651 5.731,-5.189C5.694,-4.525 5.796,-4.205 5.906,-4.643C5.937,-4.767 5.999,-4.846 6.043,-4.819C6.087,-4.792 6.152,-4.817 6.188,-4.876C6.264,-4.999 6.292,-6.459 6.219,-6.459C6.192,-6.459 6.122,-6.411 6.064,-6.352C6.005,-6.294 5.957,-6.279 5.957,-6.321C5.957,-6.361 6.021,-6.442 6.1,-6.499C6.194,-6.568 6.257,-6.79 6.286,-7.153C6.33,-7.698 6.274,-7.804 6.057,-7.591C5.967,-7.502 5.95,-7.506 5.973,-7.613C5.989,-7.686 6.071,-7.775 6.157,-7.81C6.25,-7.848 6.314,-7.972 6.317,-8.12C6.32,-8.256 6.333,-8.662 6.347,-9.021C6.38,-9.871 6.334,-10.098 6.127,-10.098C6.023,-10.098 5.98,-10.053 6.011,-9.974M-3.75,-9.859C-3.822,-9.787 -3.825,-8.916 -3.753,-8.73C-3.645,-8.447 -3.54,-8.704 -3.54,-9.255C-3.54,-9.782 -3.614,-9.995 -3.75,-9.859M7.156,-9.743C7.186,-9.694 7.228,-9.655 7.25,-9.655C7.271,-9.655 7.289,-9.694 7.289,-9.743C7.289,-9.792 7.247,-9.832 7.195,-9.832C7.143,-9.832 7.125,-9.792 7.156,-9.743M4.091,-9.505C4.041,-9.367 3.965,-9.175 3.922,-9.077C3.836,-8.887 3.809,-7.892 3.885,-7.768C3.911,-7.727 3.988,-7.74 4.057,-7.797C4.154,-7.878 4.183,-7.874 4.189,-7.779C4.193,-7.712 4.251,-7.777 4.318,-7.924L4.44,-8.19L4.444,-7.946C4.446,-7.811 4.484,-7.702 4.527,-7.702C4.634,-7.702 4.712,-8.026 4.713,-8.482C4.714,-8.834 4.702,-8.855 4.537,-8.767C4.369,-8.677 4.36,-8.699 4.36,-9.158C4.36,-9.707 4.227,-9.878 4.091,-9.505M13.058,-9.521C13.058,-9.399 13.074,-9.299 13.093,-9.299C13.111,-9.299 13.146,-9.399 13.169,-9.521C13.192,-9.643 13.177,-9.743 13.135,-9.743C13.093,-9.743 13.058,-9.643 13.058,-9.521M4.892,-9.469C4.892,-9.282 4.904,-9.275 5.107,-9.353C5.3,-9.427 5.283,-9.536 5.07,-9.591C4.938,-9.626 4.892,-9.594 4.892,-9.469M-2.507,-8.656C-2.495,-8.155 -2.483,-7.708 -2.48,-7.662C-2.478,-7.615 -2.432,-7.621 -2.378,-7.675C-2.258,-7.794 -2.167,-8.412 -2.269,-8.412C-2.309,-8.412 -2.339,-8.621 -2.335,-8.878C-2.326,-9.367 -2.365,-9.566 -2.467,-9.566C-2.501,-9.566 -2.519,-9.156 -2.507,-8.656M0.17,-9.281C0.139,-9.19 0.146,-7.977 0.181,-7.27C0.185,-7.201 0.244,-7.171 0.321,-7.201C0.403,-7.233 0.454,-7.201 0.454,-7.117C0.454,-7.042 0.417,-7.004 0.371,-7.032C0.326,-7.06 0.26,-7.037 0.225,-6.981C0.169,-6.89 0.172,-6.079 0.232,-5.482C0.244,-5.36 0.259,-5.168 0.265,-5.055C0.271,-4.943 0.315,-4.875 0.363,-4.904C0.411,-4.934 0.436,-5.166 0.42,-5.42C0.386,-5.943 0.424,-6.104 0.583,-6.104C0.659,-6.104 0.685,-6.246 0.669,-6.57C0.656,-6.826 0.642,-7.25 0.638,-7.511C0.633,-7.896 0.606,-7.977 0.498,-7.936C0.358,-7.882 0.358,-7.882 0.331,-8.827C0.318,-9.288 0.244,-9.496 0.17,-9.281M2.14,-9.122C2.14,-8.837 2.264,-8.764 2.353,-8.996C2.444,-9.234 2.413,-9.388 2.274,-9.388C2.185,-9.388 2.14,-9.299 2.14,-9.122M5.481,-9.255C5.509,-9.182 5.548,-9.122 5.567,-9.122C5.587,-9.122 5.602,-9.182 5.602,-9.255C5.602,-9.328 5.564,-9.388 5.516,-9.388C5.469,-9.388 5.453,-9.328 5.481,-9.255M-1.513,-9.167C-1.566,-9.114 -1.509,-8.392 -1.446,-8.33C-1.342,-8.225 -1.224,-8.514 -1.249,-8.815C-1.275,-9.124 -1.395,-9.285 -1.513,-9.167M-1.154,-8.789C-1.16,-8.557 -1.157,-8.328 -1.147,-8.279C-1.138,-8.231 -1.129,-7.881 -1.127,-7.503C-1.126,-7.124 -1.089,-6.814 -1.045,-6.814C-1.002,-6.814 -0.964,-6.864 -0.962,-6.925C-0.895,-8.575 -0.912,-9.211 -1.023,-9.211C-1.107,-9.211 -1.147,-9.08 -1.154,-8.789M13.183,-9.143C13.03,-9.04 13.071,-8.767 13.239,-8.767C13.351,-8.767 13.378,-8.823 13.346,-8.989C13.323,-9.111 13.299,-9.21 13.292,-9.209C13.286,-9.208 13.237,-9.178 13.183,-9.143M-2.076,-9.033C-2.106,-8.984 -2.069,-8.944 -1.992,-8.944C-1.916,-8.944 -1.854,-8.984 -1.854,-9.033C-1.854,-9.082 -1.892,-9.122 -1.937,-9.122C-1.984,-9.122 -2.046,-9.082 -2.076,-9.033M-0.358,-9.049C-0.484,-8.997 -0.501,-8.852 -0.479,-8.032C-0.465,-7.506 -0.404,-6.957 -0.344,-6.812C-0.261,-6.61 -0.259,-6.518 -0.338,-6.423C-0.397,-6.352 -0.417,-6.199 -0.383,-6.066C-0.336,-5.879 -0.3,-5.853 -0.202,-5.935C-0.064,-6.049 -0.039,-6.525 -0.161,-6.717C-0.204,-6.786 -0.209,-6.925 -0.172,-7.027C-0.134,-7.129 -0.135,-7.322 -0.173,-7.455C-0.213,-7.593 -0.207,-7.721 -0.161,-7.75C-0.041,-7.824 -0.06,-8.145 -0.185,-8.145C-0.268,-8.145 -0.268,-8.169 -0.185,-8.252C-0.07,-8.367 -0.035,-9.126 -0.145,-9.115C-0.182,-9.112 -0.278,-9.082 -0.358,-9.049M2.584,-8.855C2.584,-8.572 2.66,-8.523 2.833,-8.696C2.916,-8.779 2.939,-8.757 2.939,-8.6C2.939,-8.291 3.156,-8.423 3.189,-8.752C3.209,-8.953 3.18,-9.033 3.085,-9.033C3.013,-9.033 2.934,-8.983 2.909,-8.922C2.882,-8.856 2.862,-8.874 2.858,-8.966C2.845,-9.249 2.584,-9.144 2.584,-8.855M1.641,-8.936C1.583,-8.863 1.57,-8.737 1.609,-8.634C1.67,-8.475 1.684,-8.472 1.739,-8.606C1.773,-8.689 1.787,-8.825 1.771,-8.908C1.746,-9.037 1.725,-9.041 1.641,-8.936M7.083,-8.823C7.045,-8.683 7.036,-8.546 7.062,-8.52C7.155,-8.427 7.213,-8.574 7.183,-8.825L7.154,-9.077L7.083,-8.823ZM3.383,-8.767C3.383,-8.669 3.418,-8.589 3.461,-8.589C3.505,-8.589 3.561,-8.669 3.586,-8.767C3.616,-8.882 3.589,-8.944 3.508,-8.944C3.439,-8.944 3.383,-8.864 3.383,-8.767M5.455,-8.807C5.426,-8.732 5.425,-8.648 5.452,-8.621C5.53,-8.543 5.691,-8.675 5.691,-8.816C5.691,-8.987 5.522,-8.98 5.455,-8.807M-2.032,-8.678C-2.032,-8.629 -1.992,-8.589 -1.943,-8.589C-1.894,-8.589 -1.854,-8.629 -1.854,-8.678C-1.854,-8.727 -1.894,-8.767 -1.943,-8.767C-1.992,-8.767 -2.032,-8.727 -2.032,-8.678M1.341,-8.5C1.341,-8.403 1.381,-8.323 1.43,-8.323C1.479,-8.323 1.519,-8.403 1.519,-8.5C1.519,-8.598 1.479,-8.678 1.43,-8.678C1.381,-8.678 1.341,-8.598 1.341,-8.5M10.366,-8.619C10.334,-8.586 10.307,-8.48 10.307,-8.382C10.307,-8.167 10.419,-8.258 10.456,-8.503C10.485,-8.688 10.463,-8.716 10.366,-8.619M13.114,-8.355C13.022,-8.229 12.916,-7.989 12.878,-7.821C12.82,-7.565 12.829,-7.533 12.934,-7.62C13.002,-7.677 13.058,-7.801 13.058,-7.895C13.058,-7.99 13.098,-8.042 13.147,-8.012C13.196,-7.982 13.236,-7.97 13.236,-7.986C13.236,-8.001 13.273,-8.143 13.319,-8.301C13.418,-8.646 13.341,-8.667 13.114,-8.355M-2.949,-8.441C-3.042,-8.348 -3.018,-7.968 -2.919,-7.968C-2.871,-7.968 -2.831,-8.088 -2.831,-8.234C-2.831,-8.51 -2.849,-8.542 -2.949,-8.441M2.096,-8.412C2.066,-8.363 2.083,-8.323 2.135,-8.323C2.187,-8.323 2.229,-8.363 2.229,-8.412C2.229,-8.46 2.212,-8.5 2.19,-8.5C2.168,-8.5 2.126,-8.46 2.096,-8.412M-2.072,-8.329C-2.133,-8.231 -1.993,-8.125 -1.911,-8.207C-1.827,-8.291 -1.842,-8.412 -1.937,-8.412C-1.984,-8.412 -2.044,-8.375 -2.072,-8.329M2.584,-8.278C2.584,-8.205 2.624,-8.145 2.673,-8.145C2.722,-8.145 2.762,-8.205 2.762,-8.278C2.762,-8.352 2.722,-8.412 2.673,-8.412C2.624,-8.412 2.584,-8.352 2.584,-8.278M-4.294,-8.212C-4.315,-8.151 -4.32,-7.761 -4.306,-7.347C-4.264,-6.184 -4.256,-6.104 -4.177,-6.104C-4.136,-6.104 -4.101,-6.603 -4.098,-7.213C-4.096,-7.828 -4.13,-8.323 -4.175,-8.323C-4.22,-8.323 -4.273,-8.273 -4.294,-8.212M-3.758,-7.946C-3.737,-7.436 -3.731,-7.417 -3.629,-7.48C-3.492,-7.565 -3.517,-8.323 -3.657,-8.323C-3.737,-8.323 -3.769,-8.206 -3.758,-7.946M1.572,-8.181C1.512,-8.024 1.574,-7.879 1.702,-7.879C1.808,-7.879 1.812,-8.207 1.706,-8.273C1.662,-8.3 1.602,-8.259 1.572,-8.181M-1.44,-8.086C-1.532,-7.994 -1.509,-7.702 -1.41,-7.702C-1.362,-7.702 -1.322,-7.801 -1.322,-7.924C-1.322,-8.156 -1.342,-8.184 -1.44,-8.086M0.839,-7.879C0.839,-7.733 0.872,-7.613 0.912,-7.613C0.953,-7.613 0.986,-7.733 0.986,-7.879C0.986,-8.026 0.953,-8.145 0.912,-8.145C0.872,-8.145 0.839,-8.026 0.839,-7.879M-4.783,-7.519C-4.783,-7.363 -4.746,-7.27 -4.696,-7.301C-4.595,-7.364 -4.61,-7.79 -4.714,-7.79C-4.752,-7.79 -4.783,-7.668 -4.783,-7.519M-3.008,-7.036C-3.008,-6.454 -2.98,-6.281 -2.886,-6.281C-2.791,-6.281 -2.766,-6.449 -2.775,-7.036C-2.783,-7.574 -2.818,-7.79 -2.897,-7.79C-2.977,-7.79 -3.008,-7.58 -3.008,-7.036M0.334,-7.66C0.307,-7.588 0.322,-7.506 0.369,-7.477C0.416,-7.448 0.454,-7.507 0.454,-7.608C0.454,-7.822 0.405,-7.844 0.334,-7.66M-5.227,-7.569C-5.227,-7.495 -5.187,-7.435 -5.139,-7.435C-5.09,-7.435 -5.05,-7.495 -5.05,-7.569C-5.05,-7.642 -5.09,-7.702 -5.139,-7.702C-5.187,-7.702 -5.227,-7.642 -5.227,-7.569M2.074,-7.48C2.074,-7.357 2.109,-7.258 2.151,-7.258C2.194,-7.258 2.229,-7.357 2.229,-7.48C2.229,-7.602 2.194,-7.702 2.151,-7.702C2.109,-7.702 2.074,-7.602 2.074,-7.48M3.356,-7.578C3.32,-7.485 3.311,-7.389 3.337,-7.363C3.417,-7.282 3.489,-7.415 3.455,-7.584C3.424,-7.738 3.419,-7.738 3.356,-7.578M5.306,-7.642C5.274,-7.61 5.247,-7.503 5.247,-7.406C5.247,-7.188 5.328,-7.254 5.378,-7.512C5.417,-7.712 5.402,-7.738 5.306,-7.642M4.492,-7.522C4.376,-7.335 4.335,-5.305 4.446,-5.305C4.496,-5.305 4.539,-5.375 4.542,-5.46C4.551,-5.775 4.635,-6.775 4.668,-6.965C4.686,-7.073 4.672,-7.271 4.636,-7.406C4.585,-7.595 4.553,-7.621 4.492,-7.522M-2.398,-7.507C-2.443,-7.4 -2.428,-6.991 -2.379,-6.991C-2.285,-6.991 -2.223,-7.434 -2.31,-7.487C-2.352,-7.513 -2.392,-7.522 -2.398,-7.507M1.22,-6.703C1.235,-5.597 1.238,-5.571 1.351,-5.571C1.405,-5.571 1.427,-5.63 1.399,-5.701C1.372,-5.773 1.379,-5.851 1.416,-5.873C1.484,-5.915 1.459,-7.209 1.387,-7.413C1.276,-7.723 1.209,-7.439 1.22,-6.703M2.939,-7.435C2.939,-7.386 2.979,-7.347 3.028,-7.347C3.077,-7.347 3.117,-7.386 3.117,-7.435C3.117,-7.484 3.077,-7.524 3.028,-7.524C2.979,-7.524 2.939,-7.484 2.939,-7.435M4.182,-7.373C4.182,-7.318 4.103,-7.295 4.004,-7.321C3.806,-7.373 3.822,-7.517 3.815,-5.616C3.81,-4.238 3.812,-4.22 3.912,-4.282C3.959,-4.311 3.997,-4.543 3.997,-4.797C3.998,-5.521 4.007,-5.571 4.143,-5.571C4.213,-5.571 4.271,-5.634 4.271,-5.71C4.271,-5.786 4.234,-5.825 4.188,-5.797C4.143,-5.769 4.08,-5.786 4.05,-5.836C4.019,-5.886 4.056,-5.926 4.132,-5.926C4.231,-5.926 4.271,-6.015 4.271,-6.237C4.271,-6.419 4.227,-6.548 4.164,-6.548C4.081,-6.548 4.081,-6.571 4.164,-6.654C4.293,-6.783 4.306,-6.935 4.182,-6.858C4.042,-6.772 4.078,-6.917 4.242,-7.097C4.356,-7.224 4.366,-7.286 4.286,-7.366C4.214,-7.439 4.182,-7.441 4.182,-7.373M-3.713,-6.17C-3.704,-5.198 -3.676,-4.95 -3.578,-4.95C-3.478,-4.95 -3.465,-5.156 -3.503,-6.081C-3.569,-7.662 -3.729,-7.729 -3.713,-6.17M5.945,-7.305C5.884,-7.244 5.966,-6.636 6.036,-6.636C6.069,-6.636 6.08,-6.796 6.061,-6.991C6.027,-7.354 6.018,-7.378 5.945,-7.305M0.863,-7.117C0.777,-6.895 0.799,-6.814 0.942,-6.814C1.025,-6.814 1.075,-6.898 1.075,-7.036C1.075,-7.284 0.946,-7.334 0.863,-7.117M2.957,-6.836C2.986,-6.378 3.155,-6.251 3.17,-6.676C3.182,-7.017 3.117,-7.258 3.014,-7.258C2.968,-7.258 2.943,-7.068 2.957,-6.836M7.777,-7.169C7.747,-7.12 7.762,-7.08 7.811,-7.08C7.86,-7.08 7.924,-7.12 7.955,-7.169C7.985,-7.218 7.969,-7.258 7.921,-7.258C7.872,-7.258 7.807,-7.218 7.777,-7.169M-4.803,-7.066C-4.857,-6.903 -4.776,-6.548 -4.684,-6.548C-4.641,-6.548 -4.606,-6.648 -4.606,-6.769C-4.606,-6.892 -4.603,-7.02 -4.599,-7.056C-4.587,-7.172 -4.765,-7.18 -4.803,-7.066M-1.499,-7.041C-1.499,-6.971 -1.459,-6.888 -1.41,-6.858C-1.362,-6.828 -1.322,-6.886 -1.322,-6.986C-1.322,-7.087 -1.362,-7.169 -1.41,-7.169C-1.459,-7.169 -1.499,-7.111 -1.499,-7.041M1.563,-7.08C1.533,-7.031 1.551,-6.991 1.602,-6.991C1.654,-6.991 1.697,-7.031 1.697,-7.08C1.697,-7.129 1.679,-7.169 1.657,-7.169C1.636,-7.169 1.593,-7.129 1.563,-7.08M2.059,-6.322C2.044,-5.454 2.165,-5.203 2.22,-5.986C2.282,-6.854 2.271,-7.109 2.173,-7.142C2.104,-7.166 2.069,-6.913 2.059,-6.322M-2.032,-6.853C-2.032,-6.777 -1.992,-6.739 -1.943,-6.769C-1.894,-6.8 -1.854,-6.862 -1.854,-6.908C-1.854,-6.954 -1.894,-6.991 -1.943,-6.991C-1.992,-6.991 -2.032,-6.929 -2.032,-6.853M3.307,-6.513C3.296,-6.296 3.329,-6.092 3.381,-6.06C3.434,-6.028 3.469,-6.035 3.46,-6.075C3.45,-6.115 3.474,-6.261 3.513,-6.4C3.563,-6.577 3.546,-6.689 3.456,-6.779C3.344,-6.891 3.325,-6.856 3.307,-6.513M1.608,-6.681C1.608,-6.608 1.648,-6.548 1.697,-6.548C1.745,-6.548 1.785,-6.608 1.785,-6.681C1.785,-6.754 1.745,-6.814 1.697,-6.814C1.648,-6.814 1.608,-6.754 1.608,-6.681M7.733,-6.72C7.733,-6.668 7.773,-6.651 7.821,-6.681C7.87,-6.711 7.91,-6.753 7.91,-6.775C7.91,-6.796 7.87,-6.814 7.821,-6.814C7.773,-6.814 7.733,-6.772 7.733,-6.72M-5.804,-6.636C-5.835,-6.587 -5.817,-6.548 -5.765,-6.548C-5.713,-6.548 -5.671,-6.587 -5.671,-6.636C-5.671,-6.685 -5.689,-6.725 -5.71,-6.725C-5.732,-6.725 -5.774,-6.685 -5.804,-6.636M2.584,-6.631C2.584,-6.579 2.624,-6.562 2.673,-6.592C2.722,-6.622 2.762,-6.664 2.762,-6.686C2.762,-6.708 2.722,-6.725 2.673,-6.725C2.624,-6.725 2.584,-6.683 2.584,-6.631M-1.144,-6.315C-1.144,-6.11 -1.112,-6.012 -1.063,-6.064C-0.932,-6.2 -0.912,-6.572 -1.033,-6.613C-1.109,-6.639 -1.144,-6.545 -1.144,-6.315M-2.394,-6.543C-2.409,-6.471 -2.411,-5.979 -2.398,-5.487C-2.389,-5.111 -2.363,-5.027 -2.28,-5.109C-2.152,-5.237 -2.166,-6.363 -2.298,-6.494C-2.347,-6.543 -2.39,-6.565 -2.394,-6.543M0.809,-6.42C0.809,-6.349 0.849,-6.267 0.897,-6.237C0.946,-6.207 0.986,-6.264 0.986,-6.365C0.986,-6.465 0.946,-6.548 0.897,-6.548C0.849,-6.548 0.809,-6.49 0.809,-6.42M7.703,-6.422C7.677,-6.352 7.712,-6.274 7.783,-6.247C7.867,-6.215 7.91,-6.257 7.91,-6.373C7.91,-6.575 7.774,-6.607 7.703,-6.422M-5.227,-6.281C-5.227,-6.232 -5.187,-6.192 -5.139,-6.192C-5.09,-6.192 -5.05,-6.232 -5.05,-6.281C-5.05,-6.33 -5.09,-6.37 -5.139,-6.37C-5.187,-6.37 -5.227,-6.33 -5.227,-6.281M1.563,-6.281C1.533,-6.232 1.571,-6.192 1.647,-6.192C1.723,-6.192 1.785,-6.232 1.785,-6.281C1.785,-6.33 1.748,-6.37 1.702,-6.37C1.656,-6.37 1.593,-6.33 1.563,-6.281M-4.783,-5.608C-4.783,-5.109 -4.755,-4.945 -4.672,-4.973C-4.602,-4.997 -4.565,-5.169 -4.571,-5.446C-4.587,-6.177 -4.603,-6.281 -4.695,-6.281C-4.746,-6.281 -4.783,-5.998 -4.783,-5.608M2.584,-6.104C2.584,-5.938 2.608,-5.914 2.691,-5.997C2.774,-6.08 2.774,-6.127 2.691,-6.21C2.608,-6.293 2.584,-6.269 2.584,-6.104M-2.949,-6.133C-2.982,-6.101 -3.008,-5.997 -3.008,-5.904C-3.008,-5.674 -2.794,-5.756 -2.758,-6C-2.73,-6.186 -2.828,-6.254 -2.949,-6.133M-1.499,-6.015C-1.499,-5.9 -1.454,-5.838 -1.388,-5.86C-1.327,-5.88 -1.277,-5.95 -1.277,-6.015C-1.277,-6.08 -1.327,-6.15 -1.388,-6.17C-1.454,-6.192 -1.499,-6.13 -1.499,-6.015M5.233,-5.527C5.201,-5.185 5.191,-4.889 5.211,-4.868C5.308,-4.77 5.342,-4.983 5.318,-5.539L5.291,-6.148L5.233,-5.527ZM11.459,-5.968C11.397,-5.894 11.369,-5.811 11.397,-5.783C11.424,-5.756 11.491,-5.817 11.545,-5.919C11.662,-6.136 11.618,-6.161 11.459,-5.968M-2.032,-5.832C-2.032,-5.732 -1.992,-5.674 -1.943,-5.704C-1.894,-5.735 -1.854,-5.817 -1.854,-5.887C-1.854,-5.958 -1.894,-6.015 -1.943,-6.015C-1.992,-6.015 -2.032,-5.933 -2.032,-5.832M0.897,-5.921C0.897,-5.869 0.937,-5.852 0.986,-5.882C1.035,-5.912 1.075,-5.954 1.075,-5.976C1.075,-5.997 1.035,-6.015 0.986,-6.015C0.937,-6.015 0.897,-5.973 0.897,-5.921M1.578,-5.867C1.476,-5.765 1.513,-5.66 1.652,-5.66C1.725,-5.66 1.785,-5.72 1.785,-5.793C1.785,-5.932 1.68,-5.969 1.578,-5.867M-4.268,-5.791C-4.339,-5.719 -4.24,-5.305 -4.152,-5.305C-4.108,-5.305 -4.073,-5.425 -4.073,-5.571C-4.073,-5.816 -4.153,-5.906 -4.268,-5.791M2.584,-5.744C2.584,-5.692 2.624,-5.674 2.673,-5.704C2.722,-5.735 2.762,-5.777 2.762,-5.798C2.762,-5.82 2.722,-5.838 2.673,-5.838C2.624,-5.838 2.584,-5.795 2.584,-5.744M-1.499,-5.571C-1.499,-5.474 -1.464,-5.394 -1.42,-5.394C-1.32,-5.394 -1.227,-5.625 -1.298,-5.696C-1.405,-5.803 -1.499,-5.744 -1.499,-5.571M7.705,-5.692C7.637,-5.624 7.713,-5.482 7.817,-5.482C7.858,-5.482 7.914,-5.542 7.942,-5.616C7.993,-5.748 7.818,-5.804 7.705,-5.692M-5.227,-5.522C-5.227,-5.445 -5.187,-5.408 -5.139,-5.438C-5.09,-5.468 -5.05,-5.53 -5.05,-5.577C-5.05,-5.622 -5.09,-5.66 -5.139,-5.66C-5.187,-5.66 -5.227,-5.598 -5.227,-5.522M-2.919,-5.527C-2.919,-5.453 -2.879,-5.394 -2.831,-5.394C-2.782,-5.394 -2.742,-5.453 -2.742,-5.527C-2.742,-5.6 -2.782,-5.66 -2.831,-5.66C-2.879,-5.66 -2.919,-5.6 -2.919,-5.527M-1.144,-5.355C-1.144,-5.187 -1.104,-5.024 -1.055,-4.994C-1.002,-4.961 -0.967,-5.082 -0.967,-5.3C-0.967,-5.498 -1.006,-5.66 -1.055,-5.66C-1.104,-5.66 -1.144,-5.523 -1.144,-5.355M-0.345,-5.402C-0.345,-5.209 -0.31,-5.146 -0.222,-5.18C-0.15,-5.208 -0.117,-5.3 -0.144,-5.401C-0.219,-5.688 -0.345,-5.689 -0.345,-5.402M5.978,-5.394C5.978,-5.223 5.996,-5.153 6.018,-5.238C6.041,-5.324 6.041,-5.464 6.018,-5.549C5.996,-5.634 5.978,-5.564 5.978,-5.394M10.941,-5.444C10.827,-5.33 10.767,-5.218 10.808,-5.194C10.85,-5.17 10.977,-5.265 11.09,-5.405C11.336,-5.709 11.237,-5.735 10.941,-5.444M3.276,-5.016C3.237,-4.498 3.279,-4.219 3.384,-4.285C3.476,-4.342 3.475,-5.381 3.383,-5.438C3.344,-5.462 3.296,-5.273 3.276,-5.016M2.584,-5.127C2.584,-5.03 2.62,-4.95 2.665,-4.95C2.709,-4.95 2.724,-5.03 2.699,-5.127C2.673,-5.225 2.637,-5.305 2.618,-5.305C2.6,-5.305 2.584,-5.225 2.584,-5.127M1.209,-5.037C1.24,-4.988 1.302,-4.97 1.348,-4.998C1.471,-5.074 1.448,-5.127 1.292,-5.127C1.216,-5.127 1.179,-5.087 1.209,-5.037M2.895,-5.039C2.865,-4.99 2.925,-4.95 3.028,-4.95C3.131,-4.95 3.191,-4.99 3.161,-5.039C3.131,-5.087 3.071,-5.127 3.028,-5.127C2.985,-5.127 2.925,-5.087 2.895,-5.039M-2.919,-4.911C-2.919,-4.835 -2.879,-4.772 -2.831,-4.772C-2.782,-4.772 -2.742,-4.81 -2.742,-4.856C-2.742,-4.902 -2.782,-4.964 -2.831,-4.994C-2.879,-5.024 -2.919,-4.987 -2.919,-4.911M7.786,-4.896C7.749,-4.801 7.797,-4.681 7.914,-4.572L8.1,-4.399L8.072,-4.69C8.04,-5.011 7.876,-5.13 7.786,-4.896M4.36,-4.723C4.36,-4.594 4.398,-4.519 4.448,-4.55C4.497,-4.58 4.537,-4.683 4.537,-4.778C4.537,-4.872 4.497,-4.95 4.448,-4.95C4.4,-4.95 4.36,-4.848 4.36,-4.723M-0.345,-4.639C-0.345,-4.566 -0.305,-4.506 -0.256,-4.506C-0.207,-4.506 -0.167,-4.566 -0.167,-4.639C-0.167,-4.713 -0.207,-4.772 -0.256,-4.772C-0.305,-4.772 -0.345,-4.713 -0.345,-4.639M0.276,-4.678C0.276,-4.627 0.316,-4.609 0.365,-4.639C0.414,-4.669 0.454,-4.712 0.454,-4.733C0.454,-4.755 0.414,-4.772 0.365,-4.772C0.316,-4.772 0.276,-4.73 0.276,-4.678M2.939,-4.683C2.939,-4.635 2.979,-4.595 3.028,-4.595C3.077,-4.595 3.117,-4.635 3.117,-4.683C3.117,-4.732 3.077,-4.772 3.028,-4.772C2.979,-4.772 2.939,-4.732 2.939,-4.683M-3.629,-4.456C-3.629,-4.38 -3.589,-4.343 -3.54,-4.373C-3.492,-4.403 -3.452,-4.465 -3.452,-4.511C-3.452,-4.557 -3.492,-4.595 -3.54,-4.595C-3.589,-4.595 -3.629,-4.532 -3.629,-4.456M-2.342,-4.506C-2.312,-4.457 -2.27,-4.417 -2.248,-4.417C-2.227,-4.417 -2.209,-4.457 -2.209,-4.506C-2.209,-4.555 -2.252,-4.595 -2.303,-4.595C-2.355,-4.595 -2.372,-4.555 -2.342,-4.506M0.543,-4.412C0.543,-4.311 0.581,-4.253 0.627,-4.282C0.674,-4.31 0.69,-4.393 0.662,-4.465C0.592,-4.648 0.543,-4.626 0.543,-4.412M-1.417,-4.484C-1.471,-4.309 -1.465,-4.152 -1.402,-4.052C-1.348,-3.967 -1.324,-4.018 -1.323,-4.217C-1.322,-4.376 -1.341,-4.506 -1.366,-4.506C-1.39,-4.506 -1.413,-4.496 -1.417,-4.484M1.243,-4.484C1.18,-4.34 1.206,-3.884 1.275,-3.907C1.394,-3.947 1.455,-4.506 1.341,-4.506C1.292,-4.506 1.248,-4.496 1.243,-4.484M-1.1,-4.328C-1.13,-4.28 -1.092,-4.24 -1.016,-4.24C-0.94,-4.24 -0.878,-4.28 -0.878,-4.328C-0.878,-4.377 -0.915,-4.417 -0.961,-4.417C-1.007,-4.417 -1.069,-4.377 -1.1,-4.328M2.939,-4.328C2.939,-4.28 2.979,-4.24 3.028,-4.24C3.077,-4.24 3.117,-4.28 3.117,-4.328C3.117,-4.377 3.077,-4.417 3.028,-4.417C2.979,-4.417 2.939,-4.377 2.939,-4.328M4.36,-4.328C4.36,-4.28 4.397,-4.24 4.443,-4.24C4.489,-4.24 4.551,-4.28 4.581,-4.328C4.612,-4.377 4.574,-4.417 4.498,-4.417C4.422,-4.417 4.36,-4.377 4.36,-4.328M-2.31,-4.311C-2.378,-4.162 -2.338,-3.62 -2.261,-3.646C-2.146,-3.684 -2.114,-4.225 -2.222,-4.292C-2.264,-4.318 -2.304,-4.327 -2.31,-4.311M-2.032,-4.245C-2.032,-4.199 -1.998,-4.141 -1.958,-4.116C-1.917,-4.091 -1.884,-4.128 -1.884,-4.199C-1.884,-4.27 -1.917,-4.328 -1.958,-4.328C-1.998,-4.328 -2.032,-4.291 -2.032,-4.245M0.897,-4.24C0.897,-4.191 0.937,-4.151 0.986,-4.151C1.035,-4.151 1.075,-4.191 1.075,-4.24C1.075,-4.288 1.035,-4.328 0.986,-4.328C0.937,-4.328 0.897,-4.288 0.897,-4.24M1.608,-4.24C1.608,-4.191 1.648,-4.151 1.697,-4.151C1.745,-4.151 1.785,-4.191 1.785,-4.24C1.785,-4.288 1.745,-4.328 1.697,-4.328C1.648,-4.328 1.608,-4.288 1.608,-4.24M2.019,-4.195C2.048,-4.122 2.086,-4.062 2.106,-4.062C2.125,-4.062 2.14,-4.122 2.14,-4.195C2.14,-4.269 2.102,-4.328 2.054,-4.328C2.007,-4.328 1.991,-4.269 2.019,-4.195M-0.27,-4.173C-0.314,-3.964 -0.311,-3.619 -0.265,-3.62C-0.236,-3.62 -0.155,-3.657 -0.085,-3.702C0.02,-3.767 0.022,-3.807 -0.07,-3.918C-0.132,-3.993 -0.157,-4.096 -0.126,-4.147C-0.094,-4.198 -0.111,-4.24 -0.162,-4.24C-0.214,-4.24 -0.263,-4.21 -0.27,-4.173M2.584,-4.151C2.584,-4.102 2.624,-4.062 2.673,-4.062C2.722,-4.062 2.762,-4.102 2.762,-4.151C2.762,-4.2 2.722,-4.24 2.673,-4.24C2.624,-4.24 2.584,-4.2 2.584,-4.151M2.991,-4.074C2.953,-4.012 2.946,-3.938 2.975,-3.908C3.054,-3.829 3.141,-3.946 3.098,-4.075C3.068,-4.164 3.047,-4.164 2.991,-4.074M7.098,-3.97C7.037,-3.796 7.147,-3.372 7.222,-3.494C7.255,-3.546 7.251,-3.704 7.213,-3.845C7.169,-4.009 7.128,-4.054 7.098,-3.97M7.777,-3.973C7.807,-3.925 7.85,-3.885 7.871,-3.885C7.893,-3.885 7.91,-3.925 7.91,-3.973C7.91,-4.022 7.868,-4.062 7.816,-4.062C7.765,-4.062 7.747,-4.022 7.777,-3.973M0.897,-3.835C0.897,-3.759 0.937,-3.721 0.986,-3.752C1.035,-3.782 1.075,-3.844 1.075,-3.89C1.075,-3.936 1.035,-3.973 0.986,-3.973C0.937,-3.973 0.897,-3.911 0.897,-3.835M4.36,-3.885C4.36,-3.836 4.4,-3.796 4.448,-3.796C4.497,-3.796 4.537,-3.836 4.537,-3.885C4.537,-3.934 4.497,-3.973 4.448,-3.973C4.4,-3.973 4.36,-3.934 4.36,-3.885M3.262,-3.752C3.29,-3.678 3.329,-3.618 3.348,-3.618C3.367,-3.618 3.383,-3.678 3.383,-3.752C3.383,-3.825 3.344,-3.885 3.297,-3.885C3.25,-3.885 3.234,-3.825 3.262,-3.752M1.254,-3.648C1.253,-3.591 1.229,-3.481 1.199,-3.404C1.169,-3.327 1.185,-3.263 1.234,-3.263C1.365,-3.263 1.426,-3.482 1.335,-3.626C1.286,-3.703 1.255,-3.712 1.254,-3.648M1.643,-3.437C1.689,-3.042 1.785,-3.004 1.785,-3.382C1.785,-3.561 1.746,-3.707 1.698,-3.707C1.65,-3.707 1.625,-3.586 1.643,-3.437M6.046,-3.48C6.046,-3.404 6.087,-3.367 6.136,-3.397C6.186,-3.428 6.203,-3.49 6.175,-3.536C6.099,-3.659 6.046,-3.636 6.046,-3.48M2.584,-3.214C2.584,-3.026 2.62,-2.92 2.673,-2.953C2.722,-2.983 2.762,-3.125 2.762,-3.269C2.762,-3.412 2.722,-3.53 2.673,-3.53C2.624,-3.53 2.584,-3.387 2.584,-3.214M4.823,-3.268C4.83,-3.004 5.016,-2.839 5.119,-3.006C5.208,-3.15 5.078,-3.53 4.941,-3.53C4.859,-3.53 4.818,-3.438 4.823,-3.268M3.265,-3.382C3.173,-3.29 3.195,-2.997 3.294,-2.997C3.343,-2.997 3.383,-3.097 3.383,-3.219C3.383,-3.451 3.363,-3.479 3.265,-3.382M4.188,-3.162C4.185,-3.082 4.12,-2.992 4.043,-2.963C3.967,-2.933 3.932,-2.865 3.966,-2.811C4.003,-2.75 4.048,-2.745 4.082,-2.797C4.113,-2.844 4.182,-2.897 4.236,-2.917C4.298,-2.939 4.309,-3.02 4.265,-3.13C4.211,-3.267 4.193,-3.274 4.188,-3.162M6.046,-3.13C6.046,-3.057 6.062,-2.997 6.081,-2.997C6.1,-2.997 6.139,-3.057 6.167,-3.13C6.195,-3.203 6.179,-3.263 6.132,-3.263C6.085,-3.263 6.046,-3.203 6.046,-3.13M1.142,-3.068C1.117,-3.003 1.124,-2.79 1.158,-2.596L1.22,-2.242L1.29,-2.628C1.358,-3.001 1.245,-3.336 1.142,-3.068M8.585,-3.034C8.484,-2.769 8.531,-2.703 8.709,-2.864C8.806,-2.952 8.886,-3.058 8.886,-3.1C8.886,-3.233 8.641,-3.179 8.585,-3.034M5.773,-3.064C5.717,-2.88 5.723,-2.731 5.788,-2.731C5.832,-2.731 5.869,-2.811 5.869,-2.908C5.869,-3.051 5.802,-3.159 5.773,-3.064M3.25,-2.731C3.22,-2.682 3.237,-2.642 3.289,-2.642C3.341,-2.642 3.383,-2.682 3.383,-2.731C3.383,-2.779 3.365,-2.819 3.344,-2.819C3.322,-2.819 3.28,-2.779 3.25,-2.731M1.675,-2.571C1.647,-2.463 1.658,-2.355 1.699,-2.33C1.812,-2.26 1.859,-2.399 1.789,-2.593C1.729,-2.757 1.724,-2.756 1.675,-2.571M3.916,-2.553C3.916,-2.504 3.956,-2.464 4.004,-2.464C4.053,-2.464 4.093,-2.504 4.093,-2.553C4.093,-2.602 4.053,-2.642 4.004,-2.642C3.956,-2.642 3.916,-2.602 3.916,-2.553M6.063,-2.242C6.065,-2.096 6.085,-2.047 6.108,-2.133C6.13,-2.22 6.129,-2.339 6.104,-2.4C6.08,-2.459 6.061,-2.389 6.063,-2.242M5.743,-2.299C5.704,-2.237 5.697,-2.162 5.726,-2.133C5.806,-2.054 5.892,-2.171 5.85,-2.299C5.82,-2.389 5.799,-2.389 5.743,-2.299M4.316,-2.111C4.251,-1.907 4.332,-1.727 4.454,-1.803C4.561,-1.869 4.561,-2.172 4.455,-2.238C4.409,-2.267 4.347,-2.209 4.316,-2.111M3.267,-2.074C3.231,-1.982 3.222,-1.885 3.248,-1.86C3.329,-1.779 3.4,-1.912 3.366,-2.08C3.335,-2.235 3.33,-2.234 3.267,-2.074M4.1,-1.88C4.104,-1.777 4.125,-1.755 4.154,-1.826C4.179,-1.89 4.176,-1.967 4.147,-1.997C4.117,-2.026 4.096,-1.974 4.1,-1.88M5.741,-1.941C5.66,-1.809 5.915,-1.505 6.019,-1.609C6.056,-1.645 6.043,-1.703 5.99,-1.737C5.938,-1.771 5.876,-1.857 5.854,-1.928C5.821,-2.03 5.798,-2.033 5.741,-1.941M7.685,-1.926C7.593,-1.778 7.675,-1.758 7.803,-1.897C7.866,-1.965 7.878,-2.021 7.83,-2.021C7.782,-2.021 7.717,-1.978 7.685,-1.926M4.36,-1.493C4.36,-1.393 4.4,-1.31 4.448,-1.31C4.497,-1.31 4.537,-1.368 4.537,-1.438C4.537,-1.509 4.497,-1.591 4.448,-1.621C4.4,-1.651 4.36,-1.594 4.36,-1.493M4.1,-1.347C4.104,-1.244 4.125,-1.223 4.154,-1.294C4.179,-1.358 4.176,-1.434 4.147,-1.464C4.117,-1.494 4.096,-1.441 4.1,-1.347" style="fill:rgb(35,31,32);"/>
        </g>
    </g>
</svg>
